<?xml version="1.0" encoding="utf-8" standalone="no"?>
<!DOCTYPE svg PUBLIC "-//W3C//DTD SVG 1.1//EN"
  "http://www.w3.org/Graphics/SVG/1.1/DTD/svg11.dtd">
<svg xmlns:xlink="http://www.w3.org/1999/xlink" width="732.045625pt" height="531.689312pt" viewBox="0 0 732.045625 531.689312" xmlns="http://www.w3.org/2000/svg" version="1.1">
 <metadata>
  <rdf:RDF xmlns:dc="http://purl.org/dc/elements/1.1/" xmlns:cc="http://creativecommons.org/ns#" xmlns:rdf="http://www.w3.org/1999/02/22-rdf-syntax-ns#">
   <cc:Work>
    <dc:type rdf:resource="http://purl.org/dc/dcmitype/StillImage"/>
    <dc:date>2022-12-17T09:38:51.274412</dc:date>
    <dc:format>image/svg+xml</dc:format>
    <dc:creator>
     <cc:Agent>
      <dc:title>Matplotlib v3.5.2, https://matplotlib.org/</dc:title>
     </cc:Agent>
    </dc:creator>
   </cc:Work>
  </rdf:RDF>
 </metadata>
 <defs>
  <style type="text/css">*{stroke-linejoin: round; stroke-linecap: butt}</style>
 </defs>
 <g id="figure_1">
  <g id="patch_1">
   <path d="M 0 531.689312 
L 732.045625 531.689312 
L 732.045625 0 
L 0 0 
z
" style="fill: #ffffff"/>
  </g>
  <g id="axes_1">
   <g id="patch_2">
    <path d="M 55.245625 486.794 
L 724.845625 486.794 
L 724.845625 43.274 
L 55.245625 43.274 
z
" style="fill: #eaeaf2"/>
   </g>
   <g id="matplotlib.axis_1">
    <g id="xtick_1">
     <g id="line2d_1">
      <path d="M 85.681989 486.794 
L 85.681989 43.274 
" clip-path="url(#pe5101010ea)" style="fill: none; stroke: #ffffff; stroke-linecap: round"/>
     </g>
     <g id="text_1">
      <!-- 0 -->
      <g style="fill: #262626" transform="translate(82.182614 504.652281)scale(0.11 -0.11)">
       <defs>
        <path id="DejaVuSans-30" d="M 2034 4250 
Q 1547 4250 1301 3770 
Q 1056 3291 1056 2328 
Q 1056 1369 1301 889 
Q 1547 409 2034 409 
Q 2525 409 2770 889 
Q 3016 1369 3016 2328 
Q 3016 3291 2770 3770 
Q 2525 4250 2034 4250 
z
M 2034 4750 
Q 2819 4750 3233 4129 
Q 3647 3509 3647 2328 
Q 3647 1150 3233 529 
Q 2819 -91 2034 -91 
Q 1250 -91 836 529 
Q 422 1150 422 2328 
Q 422 3509 836 4129 
Q 1250 4750 2034 4750 
z
" transform="scale(0.015625)"/>
       </defs>
       <use xlink:href="#DejaVuSans-30"/>
      </g>
     </g>
    </g>
    <g id="xtick_2">
     <g id="line2d_2">
      <path d="M 207.549311 486.794 
L 207.549311 43.274 
" clip-path="url(#pe5101010ea)" style="fill: none; stroke: #ffffff; stroke-linecap: round"/>
     </g>
     <g id="text_2">
      <!-- 200 -->
      <g style="fill: #262626" transform="translate(197.051186 504.652281)scale(0.11 -0.11)">
       <defs>
        <path id="DejaVuSans-32" d="M 1228 531 
L 3431 531 
L 3431 0 
L 469 0 
L 469 531 
Q 828 903 1448 1529 
Q 2069 2156 2228 2338 
Q 2531 2678 2651 2914 
Q 2772 3150 2772 3378 
Q 2772 3750 2511 3984 
Q 2250 4219 1831 4219 
Q 1534 4219 1204 4116 
Q 875 4013 500 3803 
L 500 4441 
Q 881 4594 1212 4672 
Q 1544 4750 1819 4750 
Q 2544 4750 2975 4387 
Q 3406 4025 3406 3419 
Q 3406 3131 3298 2873 
Q 3191 2616 2906 2266 
Q 2828 2175 2409 1742 
Q 1991 1309 1228 531 
z
" transform="scale(0.015625)"/>
       </defs>
       <use xlink:href="#DejaVuSans-32"/>
       <use xlink:href="#DejaVuSans-30" x="63.623047"/>
       <use xlink:href="#DejaVuSans-30" x="127.246094"/>
      </g>
     </g>
    </g>
    <g id="xtick_3">
     <g id="line2d_3">
      <path d="M 329.416632 486.794 
L 329.416632 43.274 
" clip-path="url(#pe5101010ea)" style="fill: none; stroke: #ffffff; stroke-linecap: round"/>
     </g>
     <g id="text_3">
      <!-- 400 -->
      <g style="fill: #262626" transform="translate(318.918507 504.652281)scale(0.11 -0.11)">
       <defs>
        <path id="DejaVuSans-34" d="M 2419 4116 
L 825 1625 
L 2419 1625 
L 2419 4116 
z
M 2253 4666 
L 3047 4666 
L 3047 1625 
L 3713 1625 
L 3713 1100 
L 3047 1100 
L 3047 0 
L 2419 0 
L 2419 1100 
L 313 1100 
L 313 1709 
L 2253 4666 
z
" transform="scale(0.015625)"/>
       </defs>
       <use xlink:href="#DejaVuSans-34"/>
       <use xlink:href="#DejaVuSans-30" x="63.623047"/>
       <use xlink:href="#DejaVuSans-30" x="127.246094"/>
      </g>
     </g>
    </g>
    <g id="xtick_4">
     <g id="line2d_4">
      <path d="M 451.283954 486.794 
L 451.283954 43.274 
" clip-path="url(#pe5101010ea)" style="fill: none; stroke: #ffffff; stroke-linecap: round"/>
     </g>
     <g id="text_4">
      <!-- 600 -->
      <g style="fill: #262626" transform="translate(440.785829 504.652281)scale(0.11 -0.11)">
       <defs>
        <path id="DejaVuSans-36" d="M 2113 2584 
Q 1688 2584 1439 2293 
Q 1191 2003 1191 1497 
Q 1191 994 1439 701 
Q 1688 409 2113 409 
Q 2538 409 2786 701 
Q 3034 994 3034 1497 
Q 3034 2003 2786 2293 
Q 2538 2584 2113 2584 
z
M 3366 4563 
L 3366 3988 
Q 3128 4100 2886 4159 
Q 2644 4219 2406 4219 
Q 1781 4219 1451 3797 
Q 1122 3375 1075 2522 
Q 1259 2794 1537 2939 
Q 1816 3084 2150 3084 
Q 2853 3084 3261 2657 
Q 3669 2231 3669 1497 
Q 3669 778 3244 343 
Q 2819 -91 2113 -91 
Q 1303 -91 875 529 
Q 447 1150 447 2328 
Q 447 3434 972 4092 
Q 1497 4750 2381 4750 
Q 2619 4750 2861 4703 
Q 3103 4656 3366 4563 
z
" transform="scale(0.015625)"/>
       </defs>
       <use xlink:href="#DejaVuSans-36"/>
       <use xlink:href="#DejaVuSans-30" x="63.623047"/>
       <use xlink:href="#DejaVuSans-30" x="127.246094"/>
      </g>
     </g>
    </g>
    <g id="xtick_5">
     <g id="line2d_5">
      <path d="M 573.151276 486.794 
L 573.151276 43.274 
" clip-path="url(#pe5101010ea)" style="fill: none; stroke: #ffffff; stroke-linecap: round"/>
     </g>
     <g id="text_5">
      <!-- 800 -->
      <g style="fill: #262626" transform="translate(562.653151 504.652281)scale(0.11 -0.11)">
       <defs>
        <path id="DejaVuSans-38" d="M 2034 2216 
Q 1584 2216 1326 1975 
Q 1069 1734 1069 1313 
Q 1069 891 1326 650 
Q 1584 409 2034 409 
Q 2484 409 2743 651 
Q 3003 894 3003 1313 
Q 3003 1734 2745 1975 
Q 2488 2216 2034 2216 
z
M 1403 2484 
Q 997 2584 770 2862 
Q 544 3141 544 3541 
Q 544 4100 942 4425 
Q 1341 4750 2034 4750 
Q 2731 4750 3128 4425 
Q 3525 4100 3525 3541 
Q 3525 3141 3298 2862 
Q 3072 2584 2669 2484 
Q 3125 2378 3379 2068 
Q 3634 1759 3634 1313 
Q 3634 634 3220 271 
Q 2806 -91 2034 -91 
Q 1263 -91 848 271 
Q 434 634 434 1313 
Q 434 1759 690 2068 
Q 947 2378 1403 2484 
z
M 1172 3481 
Q 1172 3119 1398 2916 
Q 1625 2713 2034 2713 
Q 2441 2713 2670 2916 
Q 2900 3119 2900 3481 
Q 2900 3844 2670 4047 
Q 2441 4250 2034 4250 
Q 1625 4250 1398 4047 
Q 1172 3844 1172 3481 
z
" transform="scale(0.015625)"/>
       </defs>
       <use xlink:href="#DejaVuSans-38"/>
       <use xlink:href="#DejaVuSans-30" x="63.623047"/>
       <use xlink:href="#DejaVuSans-30" x="127.246094"/>
      </g>
     </g>
    </g>
    <g id="xtick_6">
     <g id="line2d_6">
      <path d="M 695.018598 486.794 
L 695.018598 43.274 
" clip-path="url(#pe5101010ea)" style="fill: none; stroke: #ffffff; stroke-linecap: round"/>
     </g>
     <g id="text_6">
      <!-- 1000 -->
      <g style="fill: #262626" transform="translate(681.021098 504.652281)scale(0.11 -0.11)">
       <defs>
        <path id="DejaVuSans-31" d="M 794 531 
L 1825 531 
L 1825 4091 
L 703 3866 
L 703 4441 
L 1819 4666 
L 2450 4666 
L 2450 531 
L 3481 531 
L 3481 0 
L 794 0 
L 794 531 
z
" transform="scale(0.015625)"/>
       </defs>
       <use xlink:href="#DejaVuSans-31"/>
       <use xlink:href="#DejaVuSans-30" x="63.623047"/>
       <use xlink:href="#DejaVuSans-30" x="127.246094"/>
       <use xlink:href="#DejaVuSans-30" x="190.869141"/>
      </g>
     </g>
    </g>
    <g id="text_7">
     <!-- Trees built -->
     <g style="fill: #262626" transform="translate(354.083125 521.57775)scale(0.14 -0.14)">
      <defs>
       <path id="DejaVuSans-54" d="M -19 4666 
L 3928 4666 
L 3928 4134 
L 2272 4134 
L 2272 0 
L 1638 0 
L 1638 4134 
L -19 4134 
L -19 4666 
z
" transform="scale(0.015625)"/>
       <path id="DejaVuSans-72" d="M 2631 2963 
Q 2534 3019 2420 3045 
Q 2306 3072 2169 3072 
Q 1681 3072 1420 2755 
Q 1159 2438 1159 1844 
L 1159 0 
L 581 0 
L 581 3500 
L 1159 3500 
L 1159 2956 
Q 1341 3275 1631 3429 
Q 1922 3584 2338 3584 
Q 2397 3584 2469 3576 
Q 2541 3569 2628 3553 
L 2631 2963 
z
" transform="scale(0.015625)"/>
       <path id="DejaVuSans-65" d="M 3597 1894 
L 3597 1613 
L 953 1613 
Q 991 1019 1311 708 
Q 1631 397 2203 397 
Q 2534 397 2845 478 
Q 3156 559 3463 722 
L 3463 178 
Q 3153 47 2828 -22 
Q 2503 -91 2169 -91 
Q 1331 -91 842 396 
Q 353 884 353 1716 
Q 353 2575 817 3079 
Q 1281 3584 2069 3584 
Q 2775 3584 3186 3129 
Q 3597 2675 3597 1894 
z
M 3022 2063 
Q 3016 2534 2758 2815 
Q 2500 3097 2075 3097 
Q 1594 3097 1305 2825 
Q 1016 2553 972 2059 
L 3022 2063 
z
" transform="scale(0.015625)"/>
       <path id="DejaVuSans-73" d="M 2834 3397 
L 2834 2853 
Q 2591 2978 2328 3040 
Q 2066 3103 1784 3103 
Q 1356 3103 1142 2972 
Q 928 2841 928 2578 
Q 928 2378 1081 2264 
Q 1234 2150 1697 2047 
L 1894 2003 
Q 2506 1872 2764 1633 
Q 3022 1394 3022 966 
Q 3022 478 2636 193 
Q 2250 -91 1575 -91 
Q 1294 -91 989 -36 
Q 684 19 347 128 
L 347 722 
Q 666 556 975 473 
Q 1284 391 1588 391 
Q 1994 391 2212 530 
Q 2431 669 2431 922 
Q 2431 1156 2273 1281 
Q 2116 1406 1581 1522 
L 1381 1569 
Q 847 1681 609 1914 
Q 372 2147 372 2553 
Q 372 3047 722 3315 
Q 1072 3584 1716 3584 
Q 2034 3584 2315 3537 
Q 2597 3491 2834 3397 
z
" transform="scale(0.015625)"/>
       <path id="DejaVuSans-20" transform="scale(0.015625)"/>
       <path id="DejaVuSans-62" d="M 3116 1747 
Q 3116 2381 2855 2742 
Q 2594 3103 2138 3103 
Q 1681 3103 1420 2742 
Q 1159 2381 1159 1747 
Q 1159 1113 1420 752 
Q 1681 391 2138 391 
Q 2594 391 2855 752 
Q 3116 1113 3116 1747 
z
M 1159 2969 
Q 1341 3281 1617 3432 
Q 1894 3584 2278 3584 
Q 2916 3584 3314 3078 
Q 3713 2572 3713 1747 
Q 3713 922 3314 415 
Q 2916 -91 2278 -91 
Q 1894 -91 1617 61 
Q 1341 213 1159 525 
L 1159 0 
L 581 0 
L 581 4863 
L 1159 4863 
L 1159 2969 
z
" transform="scale(0.015625)"/>
       <path id="DejaVuSans-75" d="M 544 1381 
L 544 3500 
L 1119 3500 
L 1119 1403 
Q 1119 906 1312 657 
Q 1506 409 1894 409 
Q 2359 409 2629 706 
Q 2900 1003 2900 1516 
L 2900 3500 
L 3475 3500 
L 3475 0 
L 2900 0 
L 2900 538 
Q 2691 219 2414 64 
Q 2138 -91 1772 -91 
Q 1169 -91 856 284 
Q 544 659 544 1381 
z
M 1991 3584 
L 1991 3584 
z
" transform="scale(0.015625)"/>
       <path id="DejaVuSans-69" d="M 603 3500 
L 1178 3500 
L 1178 0 
L 603 0 
L 603 3500 
z
M 603 4863 
L 1178 4863 
L 1178 4134 
L 603 4134 
L 603 4863 
z
" transform="scale(0.015625)"/>
       <path id="DejaVuSans-6c" d="M 603 4863 
L 1178 4863 
L 1178 0 
L 603 0 
L 603 4863 
z
" transform="scale(0.015625)"/>
       <path id="DejaVuSans-74" d="M 1172 4494 
L 1172 3500 
L 2356 3500 
L 2356 3053 
L 1172 3053 
L 1172 1153 
Q 1172 725 1289 603 
Q 1406 481 1766 481 
L 2356 481 
L 2356 0 
L 1766 0 
Q 1100 0 847 248 
Q 594 497 594 1153 
L 594 3053 
L 172 3053 
L 172 3500 
L 594 3500 
L 594 4494 
L 1172 4494 
z
" transform="scale(0.015625)"/>
      </defs>
      <use xlink:href="#DejaVuSans-54"/>
      <use xlink:href="#DejaVuSans-72" x="46.333984"/>
      <use xlink:href="#DejaVuSans-65" x="85.197266"/>
      <use xlink:href="#DejaVuSans-65" x="146.720703"/>
      <use xlink:href="#DejaVuSans-73" x="208.244141"/>
      <use xlink:href="#DejaVuSans-20" x="260.34375"/>
      <use xlink:href="#DejaVuSans-62" x="292.130859"/>
      <use xlink:href="#DejaVuSans-75" x="355.607422"/>
      <use xlink:href="#DejaVuSans-69" x="418.986328"/>
      <use xlink:href="#DejaVuSans-6c" x="446.769531"/>
      <use xlink:href="#DejaVuSans-74" x="474.552734"/>
     </g>
    </g>
   </g>
   <g id="matplotlib.axis_2">
    <g id="ytick_1">
     <g id="line2d_7">
      <path d="M 55.245625 466.64798 
L 724.845625 466.64798 
" clip-path="url(#pe5101010ea)" style="fill: none; stroke: #ffffff; stroke-linecap: round"/>
     </g>
     <g id="text_8">
      <!-- 0 -->
      <g style="fill: #262626" transform="translate(38.746875 470.827121)scale(0.11 -0.11)">
       <use xlink:href="#DejaVuSans-30"/>
      </g>
     </g>
    </g>
    <g id="ytick_2">
     <g id="line2d_8">
      <path d="M 55.245625 391.804129 
L 724.845625 391.804129 
" clip-path="url(#pe5101010ea)" style="fill: none; stroke: #ffffff; stroke-linecap: round"/>
     </g>
     <g id="text_9">
      <!-- 20 -->
      <g style="fill: #262626" transform="translate(31.748125 395.983269)scale(0.11 -0.11)">
       <use xlink:href="#DejaVuSans-32"/>
       <use xlink:href="#DejaVuSans-30" x="63.623047"/>
      </g>
     </g>
    </g>
    <g id="ytick_3">
     <g id="line2d_9">
      <path d="M 55.245625 316.960277 
L 724.845625 316.960277 
" clip-path="url(#pe5101010ea)" style="fill: none; stroke: #ffffff; stroke-linecap: round"/>
     </g>
     <g id="text_10">
      <!-- 40 -->
      <g style="fill: #262626" transform="translate(31.748125 321.139418)scale(0.11 -0.11)">
       <use xlink:href="#DejaVuSans-34"/>
       <use xlink:href="#DejaVuSans-30" x="63.623047"/>
      </g>
     </g>
    </g>
    <g id="ytick_4">
     <g id="line2d_10">
      <path d="M 55.245625 242.116426 
L 724.845625 242.116426 
" clip-path="url(#pe5101010ea)" style="fill: none; stroke: #ffffff; stroke-linecap: round"/>
     </g>
     <g id="text_11">
      <!-- 60 -->
      <g style="fill: #262626" transform="translate(31.748125 246.295566)scale(0.11 -0.11)">
       <use xlink:href="#DejaVuSans-36"/>
       <use xlink:href="#DejaVuSans-30" x="63.623047"/>
      </g>
     </g>
    </g>
    <g id="ytick_5">
     <g id="line2d_11">
      <path d="M 55.245625 167.272574 
L 724.845625 167.272574 
" clip-path="url(#pe5101010ea)" style="fill: none; stroke: #ffffff; stroke-linecap: round"/>
     </g>
     <g id="text_12">
      <!-- 80 -->
      <g style="fill: #262626" transform="translate(31.748125 171.451715)scale(0.11 -0.11)">
       <use xlink:href="#DejaVuSans-38"/>
       <use xlink:href="#DejaVuSans-30" x="63.623047"/>
      </g>
     </g>
    </g>
    <g id="ytick_6">
     <g id="line2d_12">
      <path d="M 55.245625 92.428723 
L 724.845625 92.428723 
" clip-path="url(#pe5101010ea)" style="fill: none; stroke: #ffffff; stroke-linecap: round"/>
     </g>
     <g id="text_13">
      <!-- 100 -->
      <g style="fill: #262626" transform="translate(24.749375 96.607863)scale(0.11 -0.11)">
       <use xlink:href="#DejaVuSans-31"/>
       <use xlink:href="#DejaVuSans-30" x="63.623047"/>
       <use xlink:href="#DejaVuSans-30" x="127.246094"/>
      </g>
     </g>
    </g>
    <g id="text_14">
     <!-- Time spent, s -->
     <g style="fill: #262626" transform="translate(17.837813 312.059781)rotate(-90)scale(0.14 -0.14)">
      <defs>
       <path id="DejaVuSans-6d" d="M 3328 2828 
Q 3544 3216 3844 3400 
Q 4144 3584 4550 3584 
Q 5097 3584 5394 3201 
Q 5691 2819 5691 2113 
L 5691 0 
L 5113 0 
L 5113 2094 
Q 5113 2597 4934 2840 
Q 4756 3084 4391 3084 
Q 3944 3084 3684 2787 
Q 3425 2491 3425 1978 
L 3425 0 
L 2847 0 
L 2847 2094 
Q 2847 2600 2669 2842 
Q 2491 3084 2119 3084 
Q 1678 3084 1418 2786 
Q 1159 2488 1159 1978 
L 1159 0 
L 581 0 
L 581 3500 
L 1159 3500 
L 1159 2956 
Q 1356 3278 1631 3431 
Q 1906 3584 2284 3584 
Q 2666 3584 2933 3390 
Q 3200 3197 3328 2828 
z
" transform="scale(0.015625)"/>
       <path id="DejaVuSans-70" d="M 1159 525 
L 1159 -1331 
L 581 -1331 
L 581 3500 
L 1159 3500 
L 1159 2969 
Q 1341 3281 1617 3432 
Q 1894 3584 2278 3584 
Q 2916 3584 3314 3078 
Q 3713 2572 3713 1747 
Q 3713 922 3314 415 
Q 2916 -91 2278 -91 
Q 1894 -91 1617 61 
Q 1341 213 1159 525 
z
M 3116 1747 
Q 3116 2381 2855 2742 
Q 2594 3103 2138 3103 
Q 1681 3103 1420 2742 
Q 1159 2381 1159 1747 
Q 1159 1113 1420 752 
Q 1681 391 2138 391 
Q 2594 391 2855 752 
Q 3116 1113 3116 1747 
z
" transform="scale(0.015625)"/>
       <path id="DejaVuSans-6e" d="M 3513 2113 
L 3513 0 
L 2938 0 
L 2938 2094 
Q 2938 2591 2744 2837 
Q 2550 3084 2163 3084 
Q 1697 3084 1428 2787 
Q 1159 2491 1159 1978 
L 1159 0 
L 581 0 
L 581 3500 
L 1159 3500 
L 1159 2956 
Q 1366 3272 1645 3428 
Q 1925 3584 2291 3584 
Q 2894 3584 3203 3211 
Q 3513 2838 3513 2113 
z
" transform="scale(0.015625)"/>
       <path id="DejaVuSans-2c" d="M 750 794 
L 1409 794 
L 1409 256 
L 897 -744 
L 494 -744 
L 750 256 
L 750 794 
z
" transform="scale(0.015625)"/>
      </defs>
      <use xlink:href="#DejaVuSans-54"/>
      <use xlink:href="#DejaVuSans-69" x="57.958984"/>
      <use xlink:href="#DejaVuSans-6d" x="85.742188"/>
      <use xlink:href="#DejaVuSans-65" x="183.154297"/>
      <use xlink:href="#DejaVuSans-20" x="244.677734"/>
      <use xlink:href="#DejaVuSans-73" x="276.464844"/>
      <use xlink:href="#DejaVuSans-70" x="328.564453"/>
      <use xlink:href="#DejaVuSans-65" x="392.041016"/>
      <use xlink:href="#DejaVuSans-6e" x="453.564453"/>
      <use xlink:href="#DejaVuSans-74" x="516.943359"/>
      <use xlink:href="#DejaVuSans-2c" x="556.152344"/>
      <use xlink:href="#DejaVuSans-20" x="587.939453"/>
      <use xlink:href="#DejaVuSans-73" x="619.726562"/>
     </g>
    </g>
   </g>
   <g id="line2d_13">
    <path d="M 85.681989 466.634 
L 156.974372 465.003583 
L 177.08248 464.508971 
L 221.564053 463.206198 
L 238.016141 462.722412 
L 262.389605 462.165238 
L 312.355207 461.19253 
L 326.369949 460.904208 
L 694.409261 453.665984 
L 694.409261 453.665984 
" clip-path="url(#pe5101010ea)" style="fill: none; stroke: #4c72b0; stroke-width: 1.5; stroke-linecap: round"/>
   </g>
   <g id="line2d_14">
    <path d="M 85.681989 466.620777 
L 104.571424 465.777724 
L 142.95963 464.081605 
L 169.161104 462.905574 
L 217.298696 460.753328 
L 233.141448 460.055081 
L 247.15619 459.420308 
L 259.952259 458.855444 
L 278.232357 458.067419 
L 302.605822 456.961491 
L 407.411718 452.270056 
L 425.691817 451.4599 
L 460.424003 449.862346 
L 475.048082 449.218073 
L 490.281497 448.50569 
L 694.409261 439.457263 
L 694.409261 439.457263 
" clip-path="url(#pe5101010ea)" style="fill: none; stroke: #dd8452; stroke-width: 1.5; stroke-linecap: round"/>
   </g>
   <g id="line2d_15">
    <path d="M 85.681989 466.605704 
L 100.915404 465.53785 
L 230.704102 456.686496 
L 255.077566 455.020307 
L 264.826952 454.369629 
L 283.10705 453.128776 
L 308.699188 451.375614 
L 320.88592 450.543774 
L 338.556682 449.32014 
L 355.618107 448.180964 
L 386.084937 446.082927 
L 422.035797 443.654115 
L 445.190588 442.068867 
L 515.264298 437.312399 
L 562.183217 434.087675 
L 573.151276 433.357963 
L 668.207787 426.798019 
L 682.831866 425.793882 
L 694.409261 425.018541 
L 694.409261 425.018541 
" clip-path="url(#pe5101010ea)" style="fill: none; stroke: #55a868; stroke-width: 1.5; stroke-linecap: round"/>
   </g>
   <g id="line2d_16">
    <path d="M 85.681989 466.528954 
L 102.134077 462.925659 
L 116.758156 459.150854 
L 120.414175 458.079213 
L 125.288868 456.559351 
L 130.772898 454.719612 
L 143.568967 449.775208 
L 147.834323 447.842213 
L 149.662333 447.044018 
L 156.365035 443.886024 
L 157.583709 443.196148 
L 167.942431 437.792724 
L 169.770441 436.723017 
L 171.598451 435.75348 
L 172.817124 434.949898 
L 174.645134 434.053316 
L 180.129163 430.859334 
L 185.003856 427.864013 
L 189.269212 425.148084 
L 190.487885 424.427242 
L 193.534568 422.802799 
L 194.143905 422.379166 
L 195.362578 421.775163 
L 197.799925 420.267779 
L 199.627935 419.290528 
L 205.721301 415.760344 
L 207.549311 414.561601 
L 210.595994 412.786191 
L 220.345379 406.318548 
L 220.954716 405.991057 
L 222.173389 405.175779 
L 230.704102 399.367417 
L 231.922775 398.463261 
L 233.141448 397.714855 
L 236.188131 395.590914 
L 238.016141 394.440569 
L 244.109507 390.061919 
L 245.937517 388.705689 
L 247.15619 387.906257 
L 248.374863 387.00311 
L 250.202873 385.873118 
L 253.249556 383.754473 
L 253.858893 383.215203 
L 255.686903 382.112615 
L 256.905576 381.290567 
L 261.780269 378.248047 
L 262.998942 377.588296 
L 264.826952 376.445959 
L 266.654962 375.405957 
L 269.701645 373.350812 
L 277.013684 368.341751 
L 278.841694 367.18076 
L 279.45103 366.876732 
L 283.10705 364.152285 
L 286.76307 361.671275 
L 291.637763 358.397979 
L 292.856436 357.446847 
L 295.903119 355.34374 
L 297.121792 354.387999 
L 307.480514 346.866299 
L 309.308524 345.620879 
L 311.745871 343.824461 
L 313.573881 342.454511 
L 316.011227 340.828033 
L 317.2299 339.734147 
L 319.667247 337.934661 
L 322.71393 335.645769 
L 323.932603 334.773572 
L 325.151276 333.79923 
L 328.197959 331.635142 
L 329.416632 330.792548 
L 331.853979 328.996148 
L 340.384691 322.644763 
L 342.212701 321.284499 
L 345.868721 318.709682 
L 347.087394 317.897938 
L 348.306067 317.024811 
L 351.962087 314.177621 
L 353.18076 313.181648 
L 357.446116 310.226249 
L 358.66479 309.336703 
L 361.102136 307.543968 
L 363.539482 305.727837 
L 365.976829 304.006696 
L 369.023512 301.638815 
L 372.070195 299.435726 
L 374.507541 297.538247 
L 394.61565 283.203983 
L 399.490342 279.433014 
L 400.099679 278.920919 
L 402.537025 277.429295 
L 404.365035 276.078588 
L 406.193045 274.796145 
L 408.630392 272.954029 
L 410.458401 271.516172 
L 411.677075 270.613513 
L 412.895748 269.699211 
L 413.505084 269.329708 
L 414.114421 268.799696 
L 415.333094 267.965198 
L 420.817124 264.07619 
L 422.645134 262.830665 
L 427.519826 258.982435 
L 428.7385 258.032138 
L 432.394519 255.596688 
L 433.613193 254.578929 
L 434.831866 253.687655 
L 436.659876 252.389634 
L 440.315895 249.76756 
L 447.627935 244.396769 
L 448.846608 243.581092 
L 454.330637 239.696835 
L 455.549311 238.653339 
L 457.986657 236.856129 
L 459.814667 235.685775 
L 467.126706 230.167457 
L 468.954716 228.876179 
L 470.173389 227.897322 
L 486.016141 216.065945 
L 486.625478 215.762459 
L 490.281497 213.02644 
L 492.718844 211.10547 
L 494.546854 209.822883 
L 496.374863 208.546381 
L 504.905576 202.161743 
L 505.514912 201.804089 
L 509.170932 198.910121 
L 510.389605 198.07453 
L 514.045625 195.373451 
L 515.264298 194.614131 
L 516.482971 193.707841 
L 517.092308 193.295537 
L 518.310981 192.242804 
L 520.748328 190.455496 
L 522.576338 189.097139 
L 523.795011 188.310139 
L 541.465772 175.018977 
L 542.075109 174.658014 
L 542.684446 174.142785 
L 544.512455 173.074048 
L 546.949802 171.115699 
L 553.043168 166.851422 
L 557.308524 163.757343 
L 559.136534 162.590968 
L 562.183217 160.236301 
L 563.40189 159.362202 
L 571.323266 153.570742 
L 571.932603 153.074256 
L 573.151276 152.321124 
L 575.588623 150.618437 
L 576.197959 150.058288 
L 578.025969 148.796815 
L 579.244642 147.853486 
L 581.072652 146.640195 
L 584.728672 144.068621 
L 586.556682 142.74242 
L 601.790097 131.739385 
L 604.83678 129.392813 
L 609.102136 126.402302 
L 610.320809 125.461699 
L 615.195502 121.906725 
L 617.632849 120.15976 
L 619.460858 118.89702 
L 621.898205 117.140839 
L 634.084937 107.668773 
L 635.30361 106.885349 
L 638.350293 104.671077 
L 640.78764 102.893 
L 649.927689 96.341976 
L 651.755699 94.783778 
L 652.365035 94.423426 
L 654.193045 92.945696 
L 657.849065 90.390964 
L 659.067738 89.460449 
L 660.286411 88.544489 
L 663.333094 86.32033 
L 664.551768 85.406124 
L 665.770441 84.415737 
L 666.989114 83.528582 
L 668.817124 82.162488 
L 679.175846 74.761627 
L 685.269212 70.146197 
L 688.925232 67.302631 
L 691.971915 65.178897 
L 694.409261 63.434 
L 694.409261 63.434 
" clip-path="url(#pe5101010ea)" style="fill: none; stroke: #c44e52; stroke-width: 1.5; stroke-linecap: round"/>
   </g>
   <g id="line2d_17"/>
   <g id="line2d_18"/>
   <g id="line2d_19"/>
   <g id="line2d_20"/>
   <g id="patch_3">
    <path d="M 55.245625 486.794 
L 55.245625 43.274 
" style="fill: none; stroke: #ffffff; stroke-width: 1.25; stroke-linejoin: miter; stroke-linecap: square"/>
   </g>
   <g id="patch_4">
    <path d="M 724.845625 486.794 
L 724.845625 43.274 
" style="fill: none; stroke: #ffffff; stroke-width: 1.25; stroke-linejoin: miter; stroke-linecap: square"/>
   </g>
   <g id="patch_5">
    <path d="M 55.245625 486.794 
L 724.845625 486.794 
" style="fill: none; stroke: #ffffff; stroke-width: 1.25; stroke-linejoin: miter; stroke-linecap: square"/>
   </g>
   <g id="patch_6">
    <path d="M 55.245625 43.274 
L 724.845625 43.274 
" style="fill: none; stroke: #ffffff; stroke-width: 1.25; stroke-linejoin: miter; stroke-linecap: square"/>
   </g>
   <g id="text_15">
    <!-- Dependency of time spent on trees built by Gradient Boosting, -->
    <g style="fill: #262626" transform="translate(138.561875 19.3575)scale(0.16 -0.16)">
     <defs>
      <path id="DejaVuSans-44" d="M 1259 4147 
L 1259 519 
L 2022 519 
Q 2988 519 3436 956 
Q 3884 1394 3884 2338 
Q 3884 3275 3436 3711 
Q 2988 4147 2022 4147 
L 1259 4147 
z
M 628 4666 
L 1925 4666 
Q 3281 4666 3915 4102 
Q 4550 3538 4550 2338 
Q 4550 1131 3912 565 
Q 3275 0 1925 0 
L 628 0 
L 628 4666 
z
" transform="scale(0.015625)"/>
      <path id="DejaVuSans-64" d="M 2906 2969 
L 2906 4863 
L 3481 4863 
L 3481 0 
L 2906 0 
L 2906 525 
Q 2725 213 2448 61 
Q 2172 -91 1784 -91 
Q 1150 -91 751 415 
Q 353 922 353 1747 
Q 353 2572 751 3078 
Q 1150 3584 1784 3584 
Q 2172 3584 2448 3432 
Q 2725 3281 2906 2969 
z
M 947 1747 
Q 947 1113 1208 752 
Q 1469 391 1925 391 
Q 2381 391 2643 752 
Q 2906 1113 2906 1747 
Q 2906 2381 2643 2742 
Q 2381 3103 1925 3103 
Q 1469 3103 1208 2742 
Q 947 2381 947 1747 
z
" transform="scale(0.015625)"/>
      <path id="DejaVuSans-63" d="M 3122 3366 
L 3122 2828 
Q 2878 2963 2633 3030 
Q 2388 3097 2138 3097 
Q 1578 3097 1268 2742 
Q 959 2388 959 1747 
Q 959 1106 1268 751 
Q 1578 397 2138 397 
Q 2388 397 2633 464 
Q 2878 531 3122 666 
L 3122 134 
Q 2881 22 2623 -34 
Q 2366 -91 2075 -91 
Q 1284 -91 818 406 
Q 353 903 353 1747 
Q 353 2603 823 3093 
Q 1294 3584 2113 3584 
Q 2378 3584 2631 3529 
Q 2884 3475 3122 3366 
z
" transform="scale(0.015625)"/>
      <path id="DejaVuSans-79" d="M 2059 -325 
Q 1816 -950 1584 -1140 
Q 1353 -1331 966 -1331 
L 506 -1331 
L 506 -850 
L 844 -850 
Q 1081 -850 1212 -737 
Q 1344 -625 1503 -206 
L 1606 56 
L 191 3500 
L 800 3500 
L 1894 763 
L 2988 3500 
L 3597 3500 
L 2059 -325 
z
" transform="scale(0.015625)"/>
      <path id="DejaVuSans-6f" d="M 1959 3097 
Q 1497 3097 1228 2736 
Q 959 2375 959 1747 
Q 959 1119 1226 758 
Q 1494 397 1959 397 
Q 2419 397 2687 759 
Q 2956 1122 2956 1747 
Q 2956 2369 2687 2733 
Q 2419 3097 1959 3097 
z
M 1959 3584 
Q 2709 3584 3137 3096 
Q 3566 2609 3566 1747 
Q 3566 888 3137 398 
Q 2709 -91 1959 -91 
Q 1206 -91 779 398 
Q 353 888 353 1747 
Q 353 2609 779 3096 
Q 1206 3584 1959 3584 
z
" transform="scale(0.015625)"/>
      <path id="DejaVuSans-66" d="M 2375 4863 
L 2375 4384 
L 1825 4384 
Q 1516 4384 1395 4259 
Q 1275 4134 1275 3809 
L 1275 3500 
L 2222 3500 
L 2222 3053 
L 1275 3053 
L 1275 0 
L 697 0 
L 697 3053 
L 147 3053 
L 147 3500 
L 697 3500 
L 697 3744 
Q 697 4328 969 4595 
Q 1241 4863 1831 4863 
L 2375 4863 
z
" transform="scale(0.015625)"/>
      <path id="DejaVuSans-47" d="M 3809 666 
L 3809 1919 
L 2778 1919 
L 2778 2438 
L 4434 2438 
L 4434 434 
Q 4069 175 3628 42 
Q 3188 -91 2688 -91 
Q 1594 -91 976 548 
Q 359 1188 359 2328 
Q 359 3472 976 4111 
Q 1594 4750 2688 4750 
Q 3144 4750 3555 4637 
Q 3966 4525 4313 4306 
L 4313 3634 
Q 3963 3931 3569 4081 
Q 3175 4231 2741 4231 
Q 1884 4231 1454 3753 
Q 1025 3275 1025 2328 
Q 1025 1384 1454 906 
Q 1884 428 2741 428 
Q 3075 428 3337 486 
Q 3600 544 3809 666 
z
" transform="scale(0.015625)"/>
      <path id="DejaVuSans-61" d="M 2194 1759 
Q 1497 1759 1228 1600 
Q 959 1441 959 1056 
Q 959 750 1161 570 
Q 1363 391 1709 391 
Q 2188 391 2477 730 
Q 2766 1069 2766 1631 
L 2766 1759 
L 2194 1759 
z
M 3341 1997 
L 3341 0 
L 2766 0 
L 2766 531 
Q 2569 213 2275 61 
Q 1981 -91 1556 -91 
Q 1019 -91 701 211 
Q 384 513 384 1019 
Q 384 1609 779 1909 
Q 1175 2209 1959 2209 
L 2766 2209 
L 2766 2266 
Q 2766 2663 2505 2880 
Q 2244 3097 1772 3097 
Q 1472 3097 1187 3025 
Q 903 2953 641 2809 
L 641 3341 
Q 956 3463 1253 3523 
Q 1550 3584 1831 3584 
Q 2591 3584 2966 3190 
Q 3341 2797 3341 1997 
z
" transform="scale(0.015625)"/>
      <path id="DejaVuSans-42" d="M 1259 2228 
L 1259 519 
L 2272 519 
Q 2781 519 3026 730 
Q 3272 941 3272 1375 
Q 3272 1813 3026 2020 
Q 2781 2228 2272 2228 
L 1259 2228 
z
M 1259 4147 
L 1259 2741 
L 2194 2741 
Q 2656 2741 2882 2914 
Q 3109 3088 3109 3444 
Q 3109 3797 2882 3972 
Q 2656 4147 2194 4147 
L 1259 4147 
z
M 628 4666 
L 2241 4666 
Q 2963 4666 3353 4366 
Q 3744 4066 3744 3513 
Q 3744 3084 3544 2831 
Q 3344 2578 2956 2516 
Q 3422 2416 3680 2098 
Q 3938 1781 3938 1306 
Q 3938 681 3513 340 
Q 3088 0 2303 0 
L 628 0 
L 628 4666 
z
" transform="scale(0.015625)"/>
      <path id="DejaVuSans-67" d="M 2906 1791 
Q 2906 2416 2648 2759 
Q 2391 3103 1925 3103 
Q 1463 3103 1205 2759 
Q 947 2416 947 1791 
Q 947 1169 1205 825 
Q 1463 481 1925 481 
Q 2391 481 2648 825 
Q 2906 1169 2906 1791 
z
M 3481 434 
Q 3481 -459 3084 -895 
Q 2688 -1331 1869 -1331 
Q 1566 -1331 1297 -1286 
Q 1028 -1241 775 -1147 
L 775 -588 
Q 1028 -725 1275 -790 
Q 1522 -856 1778 -856 
Q 2344 -856 2625 -561 
Q 2906 -266 2906 331 
L 2906 616 
Q 2728 306 2450 153 
Q 2172 0 1784 0 
Q 1141 0 747 490 
Q 353 981 353 1791 
Q 353 2603 747 3093 
Q 1141 3584 1784 3584 
Q 2172 3584 2450 3431 
Q 2728 3278 2906 2969 
L 2906 3500 
L 3481 3500 
L 3481 434 
z
" transform="scale(0.015625)"/>
     </defs>
     <use xlink:href="#DejaVuSans-44"/>
     <use xlink:href="#DejaVuSans-65" x="77.001953"/>
     <use xlink:href="#DejaVuSans-70" x="138.525391"/>
     <use xlink:href="#DejaVuSans-65" x="202.001953"/>
     <use xlink:href="#DejaVuSans-6e" x="263.525391"/>
     <use xlink:href="#DejaVuSans-64" x="326.904297"/>
     <use xlink:href="#DejaVuSans-65" x="390.380859"/>
     <use xlink:href="#DejaVuSans-6e" x="451.904297"/>
     <use xlink:href="#DejaVuSans-63" x="515.283203"/>
     <use xlink:href="#DejaVuSans-79" x="570.263672"/>
     <use xlink:href="#DejaVuSans-20" x="629.443359"/>
     <use xlink:href="#DejaVuSans-6f" x="661.230469"/>
     <use xlink:href="#DejaVuSans-66" x="722.412109"/>
     <use xlink:href="#DejaVuSans-20" x="757.617188"/>
     <use xlink:href="#DejaVuSans-74" x="789.404297"/>
     <use xlink:href="#DejaVuSans-69" x="828.613281"/>
     <use xlink:href="#DejaVuSans-6d" x="856.396484"/>
     <use xlink:href="#DejaVuSans-65" x="953.808594"/>
     <use xlink:href="#DejaVuSans-20" x="1015.332031"/>
     <use xlink:href="#DejaVuSans-73" x="1047.119141"/>
     <use xlink:href="#DejaVuSans-70" x="1099.21875"/>
     <use xlink:href="#DejaVuSans-65" x="1162.695312"/>
     <use xlink:href="#DejaVuSans-6e" x="1224.21875"/>
     <use xlink:href="#DejaVuSans-74" x="1287.597656"/>
     <use xlink:href="#DejaVuSans-20" x="1326.806641"/>
     <use xlink:href="#DejaVuSans-6f" x="1358.59375"/>
     <use xlink:href="#DejaVuSans-6e" x="1419.775391"/>
     <use xlink:href="#DejaVuSans-20" x="1483.154297"/>
     <use xlink:href="#DejaVuSans-74" x="1514.941406"/>
     <use xlink:href="#DejaVuSans-72" x="1554.150391"/>
     <use xlink:href="#DejaVuSans-65" x="1593.013672"/>
     <use xlink:href="#DejaVuSans-65" x="1654.537109"/>
     <use xlink:href="#DejaVuSans-73" x="1716.060547"/>
     <use xlink:href="#DejaVuSans-20" x="1768.160156"/>
     <use xlink:href="#DejaVuSans-62" x="1799.947266"/>
     <use xlink:href="#DejaVuSans-75" x="1863.423828"/>
     <use xlink:href="#DejaVuSans-69" x="1926.802734"/>
     <use xlink:href="#DejaVuSans-6c" x="1954.585938"/>
     <use xlink:href="#DejaVuSans-74" x="1982.369141"/>
     <use xlink:href="#DejaVuSans-20" x="2021.578125"/>
     <use xlink:href="#DejaVuSans-62" x="2053.365234"/>
     <use xlink:href="#DejaVuSans-79" x="2116.841797"/>
     <use xlink:href="#DejaVuSans-20" x="2176.021484"/>
     <use xlink:href="#DejaVuSans-47" x="2207.808594"/>
     <use xlink:href="#DejaVuSans-72" x="2285.298828"/>
     <use xlink:href="#DejaVuSans-61" x="2326.412109"/>
     <use xlink:href="#DejaVuSans-64" x="2387.691406"/>
     <use xlink:href="#DejaVuSans-69" x="2451.167969"/>
     <use xlink:href="#DejaVuSans-65" x="2478.951172"/>
     <use xlink:href="#DejaVuSans-6e" x="2540.474609"/>
     <use xlink:href="#DejaVuSans-74" x="2603.853516"/>
     <use xlink:href="#DejaVuSans-20" x="2643.0625"/>
     <use xlink:href="#DejaVuSans-42" x="2674.849609"/>
     <use xlink:href="#DejaVuSans-6f" x="2743.453125"/>
     <use xlink:href="#DejaVuSans-6f" x="2804.634766"/>
     <use xlink:href="#DejaVuSans-73" x="2865.816406"/>
     <use xlink:href="#DejaVuSans-74" x="2917.916016"/>
     <use xlink:href="#DejaVuSans-69" x="2957.125"/>
     <use xlink:href="#DejaVuSans-6e" x="2984.908203"/>
     <use xlink:href="#DejaVuSans-67" x="3048.287109"/>
     <use xlink:href="#DejaVuSans-2c" x="3111.763672"/>
    </g>
    <!-- with different values of max depth -->
    <g style="fill: #262626" transform="translate(251.820625 37.274)scale(0.16 -0.16)">
     <defs>
      <path id="DejaVuSans-77" d="M 269 3500 
L 844 3500 
L 1563 769 
L 2278 3500 
L 2956 3500 
L 3675 769 
L 4391 3500 
L 4966 3500 
L 4050 0 
L 3372 0 
L 2619 2869 
L 1863 0 
L 1184 0 
L 269 3500 
z
" transform="scale(0.015625)"/>
      <path id="DejaVuSans-68" d="M 3513 2113 
L 3513 0 
L 2938 0 
L 2938 2094 
Q 2938 2591 2744 2837 
Q 2550 3084 2163 3084 
Q 1697 3084 1428 2787 
Q 1159 2491 1159 1978 
L 1159 0 
L 581 0 
L 581 4863 
L 1159 4863 
L 1159 2956 
Q 1366 3272 1645 3428 
Q 1925 3584 2291 3584 
Q 2894 3584 3203 3211 
Q 3513 2838 3513 2113 
z
" transform="scale(0.015625)"/>
      <path id="DejaVuSans-76" d="M 191 3500 
L 800 3500 
L 1894 563 
L 2988 3500 
L 3597 3500 
L 2284 0 
L 1503 0 
L 191 3500 
z
" transform="scale(0.015625)"/>
      <path id="DejaVuSans-78" d="M 3513 3500 
L 2247 1797 
L 3578 0 
L 2900 0 
L 1881 1375 
L 863 0 
L 184 0 
L 1544 1831 
L 300 3500 
L 978 3500 
L 1906 2253 
L 2834 3500 
L 3513 3500 
z
" transform="scale(0.015625)"/>
     </defs>
     <use xlink:href="#DejaVuSans-77"/>
     <use xlink:href="#DejaVuSans-69" x="81.787109"/>
     <use xlink:href="#DejaVuSans-74" x="109.570312"/>
     <use xlink:href="#DejaVuSans-68" x="148.779297"/>
     <use xlink:href="#DejaVuSans-20" x="212.158203"/>
     <use xlink:href="#DejaVuSans-64" x="243.945312"/>
     <use xlink:href="#DejaVuSans-69" x="307.421875"/>
     <use xlink:href="#DejaVuSans-66" x="335.205078"/>
     <use xlink:href="#DejaVuSans-66" x="370.410156"/>
     <use xlink:href="#DejaVuSans-65" x="405.615234"/>
     <use xlink:href="#DejaVuSans-72" x="467.138672"/>
     <use xlink:href="#DejaVuSans-65" x="506.001953"/>
     <use xlink:href="#DejaVuSans-6e" x="567.525391"/>
     <use xlink:href="#DejaVuSans-74" x="630.904297"/>
     <use xlink:href="#DejaVuSans-20" x="670.113281"/>
     <use xlink:href="#DejaVuSans-76" x="701.900391"/>
     <use xlink:href="#DejaVuSans-61" x="761.080078"/>
     <use xlink:href="#DejaVuSans-6c" x="822.359375"/>
     <use xlink:href="#DejaVuSans-75" x="850.142578"/>
     <use xlink:href="#DejaVuSans-65" x="913.521484"/>
     <use xlink:href="#DejaVuSans-73" x="975.044922"/>
     <use xlink:href="#DejaVuSans-20" x="1027.144531"/>
     <use xlink:href="#DejaVuSans-6f" x="1058.931641"/>
     <use xlink:href="#DejaVuSans-66" x="1120.113281"/>
     <use xlink:href="#DejaVuSans-20" x="1155.318359"/>
     <use xlink:href="#DejaVuSans-6d" x="1187.105469"/>
     <use xlink:href="#DejaVuSans-61" x="1284.517578"/>
     <use xlink:href="#DejaVuSans-78" x="1345.796875"/>
     <use xlink:href="#DejaVuSans-20" x="1404.976562"/>
     <use xlink:href="#DejaVuSans-64" x="1436.763672"/>
     <use xlink:href="#DejaVuSans-65" x="1500.240234"/>
     <use xlink:href="#DejaVuSans-70" x="1561.763672"/>
     <use xlink:href="#DejaVuSans-74" x="1625.240234"/>
     <use xlink:href="#DejaVuSans-68" x="1664.449219"/>
    </g>
   </g>
   <g id="legend_1">
    <g id="patch_7">
     <path d="M 62.945625 133.7715 
L 132.23375 133.7715 
Q 134.43375 133.7715 134.43375 131.5715 
L 134.43375 50.974 
Q 134.43375 48.774 132.23375 48.774 
L 62.945625 48.774 
Q 60.745625 48.774 60.745625 50.974 
L 60.745625 131.5715 
Q 60.745625 133.7715 62.945625 133.7715 
z
" style="fill: #eaeaf2; opacity: 0.8; stroke: #cccccc; stroke-linejoin: miter"/>
    </g>
    <g id="text_16">
     <!-- max depth -->
     <g style="fill: #262626" transform="translate(65.145625 62.292125)scale(0.12 -0.12)">
      <use xlink:href="#DejaVuSans-6d"/>
      <use xlink:href="#DejaVuSans-61" x="97.412109"/>
      <use xlink:href="#DejaVuSans-78" x="158.691406"/>
      <use xlink:href="#DejaVuSans-20" x="217.871094"/>
      <use xlink:href="#DejaVuSans-64" x="249.658203"/>
      <use xlink:href="#DejaVuSans-65" x="313.134766"/>
      <use xlink:href="#DejaVuSans-70" x="374.658203"/>
      <use xlink:href="#DejaVuSans-74" x="438.134766"/>
      <use xlink:href="#DejaVuSans-68" x="477.34375"/>
     </g>
    </g>
    <g id="line2d_21">
     <path d="M 67.839844 74.796031 
L 78.839844 74.796031 
L 89.839844 74.796031 
" style="fill: none; stroke: #4c72b0; stroke-width: 1.5; stroke-linecap: round"/>
    </g>
    <g id="text_17">
     <!-- 1 -->
     <g style="fill: #262626" transform="translate(98.639844 78.646031)scale(0.11 -0.11)">
      <use xlink:href="#DejaVuSans-31"/>
     </g>
    </g>
    <g id="line2d_22">
     <path d="M 67.839844 90.941969 
L 78.839844 90.941969 
L 89.839844 90.941969 
" style="fill: none; stroke: #dd8452; stroke-width: 1.5; stroke-linecap: round"/>
    </g>
    <g id="text_18">
     <!-- 3 -->
     <g style="fill: #262626" transform="translate(98.639844 94.791969)scale(0.11 -0.11)">
      <defs>
       <path id="DejaVuSans-33" d="M 2597 2516 
Q 3050 2419 3304 2112 
Q 3559 1806 3559 1356 
Q 3559 666 3084 287 
Q 2609 -91 1734 -91 
Q 1441 -91 1130 -33 
Q 819 25 488 141 
L 488 750 
Q 750 597 1062 519 
Q 1375 441 1716 441 
Q 2309 441 2620 675 
Q 2931 909 2931 1356 
Q 2931 1769 2642 2001 
Q 2353 2234 1838 2234 
L 1294 2234 
L 1294 2753 
L 1863 2753 
Q 2328 2753 2575 2939 
Q 2822 3125 2822 3475 
Q 2822 3834 2567 4026 
Q 2313 4219 1838 4219 
Q 1578 4219 1281 4162 
Q 984 4106 628 3988 
L 628 4550 
Q 988 4650 1302 4700 
Q 1616 4750 1894 4750 
Q 2613 4750 3031 4423 
Q 3450 4097 3450 3541 
Q 3450 3153 3228 2886 
Q 3006 2619 2597 2516 
z
" transform="scale(0.015625)"/>
      </defs>
      <use xlink:href="#DejaVuSans-33"/>
     </g>
    </g>
    <g id="line2d_23">
     <path d="M 67.839844 107.087906 
L 78.839844 107.087906 
L 89.839844 107.087906 
" style="fill: none; stroke: #55a868; stroke-width: 1.5; stroke-linecap: round"/>
    </g>
    <g id="text_19">
     <!-- 5 -->
     <g style="fill: #262626" transform="translate(98.639844 110.937906)scale(0.11 -0.11)">
      <defs>
       <path id="DejaVuSans-35" d="M 691 4666 
L 3169 4666 
L 3169 4134 
L 1269 4134 
L 1269 2991 
Q 1406 3038 1543 3061 
Q 1681 3084 1819 3084 
Q 2600 3084 3056 2656 
Q 3513 2228 3513 1497 
Q 3513 744 3044 326 
Q 2575 -91 1722 -91 
Q 1428 -91 1123 -41 
Q 819 9 494 109 
L 494 744 
Q 775 591 1075 516 
Q 1375 441 1709 441 
Q 2250 441 2565 725 
Q 2881 1009 2881 1497 
Q 2881 1984 2565 2268 
Q 2250 2553 1709 2553 
Q 1456 2553 1204 2497 
Q 953 2441 691 2322 
L 691 4666 
z
" transform="scale(0.015625)"/>
      </defs>
      <use xlink:href="#DejaVuSans-35"/>
     </g>
    </g>
    <g id="line2d_24">
     <path d="M 67.839844 123.233844 
L 78.839844 123.233844 
L 89.839844 123.233844 
" style="fill: none; stroke: #c44e52; stroke-width: 1.5; stroke-linecap: round"/>
    </g>
    <g id="text_20">
     <!-- None -->
     <g style="fill: #262626" transform="translate(98.639844 127.083844)scale(0.11 -0.11)">
      <defs>
       <path id="DejaVuSans-4e" d="M 628 4666 
L 1478 4666 
L 3547 763 
L 3547 4666 
L 4159 4666 
L 4159 0 
L 3309 0 
L 1241 3903 
L 1241 0 
L 628 0 
L 628 4666 
z
" transform="scale(0.015625)"/>
      </defs>
      <use xlink:href="#DejaVuSans-4e"/>
      <use xlink:href="#DejaVuSans-6f" x="74.804688"/>
      <use xlink:href="#DejaVuSans-6e" x="135.986328"/>
      <use xlink:href="#DejaVuSans-65" x="199.365234"/>
     </g>
    </g>
   </g>
  </g>
 </g>
 <defs>
  <clipPath id="pe5101010ea">
   <rect x="55.245625" y="43.274" width="669.6" height="443.52"/>
  </clipPath>
 </defs>
</svg>
