<?xml version="1.0" encoding="utf-8" standalone="no"?>
<!DOCTYPE svg PUBLIC "-//W3C//DTD SVG 1.1//EN"
  "http://www.w3.org/Graphics/SVG/1.1/DTD/svg11.dtd">
<svg xmlns:xlink="http://www.w3.org/1999/xlink" width="735.541562pt" height="531.689312pt" viewBox="0 0 735.541562 531.689312" xmlns="http://www.w3.org/2000/svg" version="1.1">
 <metadata>
  <rdf:RDF xmlns:dc="http://purl.org/dc/elements/1.1/" xmlns:cc="http://creativecommons.org/ns#" xmlns:rdf="http://www.w3.org/1999/02/22-rdf-syntax-ns#">
   <cc:Work>
    <dc:type rdf:resource="http://purl.org/dc/dcmitype/StillImage"/>
    <dc:date>2022-12-17T09:40:00.496673</dc:date>
    <dc:format>image/svg+xml</dc:format>
    <dc:creator>
     <cc:Agent>
      <dc:title>Matplotlib v3.5.2, https://matplotlib.org/</dc:title>
     </cc:Agent>
    </dc:creator>
   </cc:Work>
  </rdf:RDF>
 </metadata>
 <defs>
  <style type="text/css">*{stroke-linejoin: round; stroke-linecap: butt}</style>
 </defs>
 <g id="figure_1">
  <g id="patch_1">
   <path d="M 0 531.689312 
L 735.541562 531.689312 
L 735.541562 0 
L 0 0 
z
" style="fill: #ffffff"/>
  </g>
  <g id="axes_1">
   <g id="patch_2">
    <path d="M 58.741563 486.794 
L 728.341563 486.794 
L 728.341563 43.274 
L 58.741563 43.274 
z
" style="fill: #eaeaf2"/>
   </g>
   <g id="matplotlib.axis_1">
    <g id="xtick_1">
     <g id="line2d_1">
      <path d="M 89.177926 486.794 
L 89.177926 43.274 
" clip-path="url(#pd95ff32736)" style="fill: none; stroke: #ffffff; stroke-linecap: round"/>
     </g>
     <g id="text_1">
      <!-- 0 -->
      <g style="fill: #262626" transform="translate(85.678551 504.652281)scale(0.11 -0.11)">
       <defs>
        <path id="DejaVuSans-30" d="M 2034 4250 
Q 1547 4250 1301 3770 
Q 1056 3291 1056 2328 
Q 1056 1369 1301 889 
Q 1547 409 2034 409 
Q 2525 409 2770 889 
Q 3016 1369 3016 2328 
Q 3016 3291 2770 3770 
Q 2525 4250 2034 4250 
z
M 2034 4750 
Q 2819 4750 3233 4129 
Q 3647 3509 3647 2328 
Q 3647 1150 3233 529 
Q 2819 -91 2034 -91 
Q 1250 -91 836 529 
Q 422 1150 422 2328 
Q 422 3509 836 4129 
Q 1250 4750 2034 4750 
z
" transform="scale(0.015625)"/>
       </defs>
       <use xlink:href="#DejaVuSans-30"/>
      </g>
     </g>
    </g>
    <g id="xtick_2">
     <g id="line2d_2">
      <path d="M 211.045248 486.794 
L 211.045248 43.274 
" clip-path="url(#pd95ff32736)" style="fill: none; stroke: #ffffff; stroke-linecap: round"/>
     </g>
     <g id="text_2">
      <!-- 200 -->
      <g style="fill: #262626" transform="translate(200.547123 504.652281)scale(0.11 -0.11)">
       <defs>
        <path id="DejaVuSans-32" d="M 1228 531 
L 3431 531 
L 3431 0 
L 469 0 
L 469 531 
Q 828 903 1448 1529 
Q 2069 2156 2228 2338 
Q 2531 2678 2651 2914 
Q 2772 3150 2772 3378 
Q 2772 3750 2511 3984 
Q 2250 4219 1831 4219 
Q 1534 4219 1204 4116 
Q 875 4013 500 3803 
L 500 4441 
Q 881 4594 1212 4672 
Q 1544 4750 1819 4750 
Q 2544 4750 2975 4387 
Q 3406 4025 3406 3419 
Q 3406 3131 3298 2873 
Q 3191 2616 2906 2266 
Q 2828 2175 2409 1742 
Q 1991 1309 1228 531 
z
" transform="scale(0.015625)"/>
       </defs>
       <use xlink:href="#DejaVuSans-32"/>
       <use xlink:href="#DejaVuSans-30" x="63.623047"/>
       <use xlink:href="#DejaVuSans-30" x="127.246094"/>
      </g>
     </g>
    </g>
    <g id="xtick_3">
     <g id="line2d_3">
      <path d="M 332.91257 486.794 
L 332.91257 43.274 
" clip-path="url(#pd95ff32736)" style="fill: none; stroke: #ffffff; stroke-linecap: round"/>
     </g>
     <g id="text_3">
      <!-- 400 -->
      <g style="fill: #262626" transform="translate(322.414445 504.652281)scale(0.11 -0.11)">
       <defs>
        <path id="DejaVuSans-34" d="M 2419 4116 
L 825 1625 
L 2419 1625 
L 2419 4116 
z
M 2253 4666 
L 3047 4666 
L 3047 1625 
L 3713 1625 
L 3713 1100 
L 3047 1100 
L 3047 0 
L 2419 0 
L 2419 1100 
L 313 1100 
L 313 1709 
L 2253 4666 
z
" transform="scale(0.015625)"/>
       </defs>
       <use xlink:href="#DejaVuSans-34"/>
       <use xlink:href="#DejaVuSans-30" x="63.623047"/>
       <use xlink:href="#DejaVuSans-30" x="127.246094"/>
      </g>
     </g>
    </g>
    <g id="xtick_4">
     <g id="line2d_4">
      <path d="M 454.779892 486.794 
L 454.779892 43.274 
" clip-path="url(#pd95ff32736)" style="fill: none; stroke: #ffffff; stroke-linecap: round"/>
     </g>
     <g id="text_4">
      <!-- 600 -->
      <g style="fill: #262626" transform="translate(444.281767 504.652281)scale(0.11 -0.11)">
       <defs>
        <path id="DejaVuSans-36" d="M 2113 2584 
Q 1688 2584 1439 2293 
Q 1191 2003 1191 1497 
Q 1191 994 1439 701 
Q 1688 409 2113 409 
Q 2538 409 2786 701 
Q 3034 994 3034 1497 
Q 3034 2003 2786 2293 
Q 2538 2584 2113 2584 
z
M 3366 4563 
L 3366 3988 
Q 3128 4100 2886 4159 
Q 2644 4219 2406 4219 
Q 1781 4219 1451 3797 
Q 1122 3375 1075 2522 
Q 1259 2794 1537 2939 
Q 1816 3084 2150 3084 
Q 2853 3084 3261 2657 
Q 3669 2231 3669 1497 
Q 3669 778 3244 343 
Q 2819 -91 2113 -91 
Q 1303 -91 875 529 
Q 447 1150 447 2328 
Q 447 3434 972 4092 
Q 1497 4750 2381 4750 
Q 2619 4750 2861 4703 
Q 3103 4656 3366 4563 
z
" transform="scale(0.015625)"/>
       </defs>
       <use xlink:href="#DejaVuSans-36"/>
       <use xlink:href="#DejaVuSans-30" x="63.623047"/>
       <use xlink:href="#DejaVuSans-30" x="127.246094"/>
      </g>
     </g>
    </g>
    <g id="xtick_5">
     <g id="line2d_5">
      <path d="M 576.647214 486.794 
L 576.647214 43.274 
" clip-path="url(#pd95ff32736)" style="fill: none; stroke: #ffffff; stroke-linecap: round"/>
     </g>
     <g id="text_5">
      <!-- 800 -->
      <g style="fill: #262626" transform="translate(566.149089 504.652281)scale(0.11 -0.11)">
       <defs>
        <path id="DejaVuSans-38" d="M 2034 2216 
Q 1584 2216 1326 1975 
Q 1069 1734 1069 1313 
Q 1069 891 1326 650 
Q 1584 409 2034 409 
Q 2484 409 2743 651 
Q 3003 894 3003 1313 
Q 3003 1734 2745 1975 
Q 2488 2216 2034 2216 
z
M 1403 2484 
Q 997 2584 770 2862 
Q 544 3141 544 3541 
Q 544 4100 942 4425 
Q 1341 4750 2034 4750 
Q 2731 4750 3128 4425 
Q 3525 4100 3525 3541 
Q 3525 3141 3298 2862 
Q 3072 2584 2669 2484 
Q 3125 2378 3379 2068 
Q 3634 1759 3634 1313 
Q 3634 634 3220 271 
Q 2806 -91 2034 -91 
Q 1263 -91 848 271 
Q 434 634 434 1313 
Q 434 1759 690 2068 
Q 947 2378 1403 2484 
z
M 1172 3481 
Q 1172 3119 1398 2916 
Q 1625 2713 2034 2713 
Q 2441 2713 2670 2916 
Q 2900 3119 2900 3481 
Q 2900 3844 2670 4047 
Q 2441 4250 2034 4250 
Q 1625 4250 1398 4047 
Q 1172 3844 1172 3481 
z
" transform="scale(0.015625)"/>
       </defs>
       <use xlink:href="#DejaVuSans-38"/>
       <use xlink:href="#DejaVuSans-30" x="63.623047"/>
       <use xlink:href="#DejaVuSans-30" x="127.246094"/>
      </g>
     </g>
    </g>
    <g id="xtick_6">
     <g id="line2d_6">
      <path d="M 698.514535 486.794 
L 698.514535 43.274 
" clip-path="url(#pd95ff32736)" style="fill: none; stroke: #ffffff; stroke-linecap: round"/>
     </g>
     <g id="text_6">
      <!-- 1000 -->
      <g style="fill: #262626" transform="translate(684.517035 504.652281)scale(0.11 -0.11)">
       <defs>
        <path id="DejaVuSans-31" d="M 794 531 
L 1825 531 
L 1825 4091 
L 703 3866 
L 703 4441 
L 1819 4666 
L 2450 4666 
L 2450 531 
L 3481 531 
L 3481 0 
L 794 0 
L 794 531 
z
" transform="scale(0.015625)"/>
       </defs>
       <use xlink:href="#DejaVuSans-31"/>
       <use xlink:href="#DejaVuSans-30" x="63.623047"/>
       <use xlink:href="#DejaVuSans-30" x="127.246094"/>
       <use xlink:href="#DejaVuSans-30" x="190.869141"/>
      </g>
     </g>
    </g>
    <g id="text_7">
     <!-- Trees built -->
     <g style="fill: #262626" transform="translate(357.579062 521.57775)scale(0.14 -0.14)">
      <defs>
       <path id="DejaVuSans-54" d="M -19 4666 
L 3928 4666 
L 3928 4134 
L 2272 4134 
L 2272 0 
L 1638 0 
L 1638 4134 
L -19 4134 
L -19 4666 
z
" transform="scale(0.015625)"/>
       <path id="DejaVuSans-72" d="M 2631 2963 
Q 2534 3019 2420 3045 
Q 2306 3072 2169 3072 
Q 1681 3072 1420 2755 
Q 1159 2438 1159 1844 
L 1159 0 
L 581 0 
L 581 3500 
L 1159 3500 
L 1159 2956 
Q 1341 3275 1631 3429 
Q 1922 3584 2338 3584 
Q 2397 3584 2469 3576 
Q 2541 3569 2628 3553 
L 2631 2963 
z
" transform="scale(0.015625)"/>
       <path id="DejaVuSans-65" d="M 3597 1894 
L 3597 1613 
L 953 1613 
Q 991 1019 1311 708 
Q 1631 397 2203 397 
Q 2534 397 2845 478 
Q 3156 559 3463 722 
L 3463 178 
Q 3153 47 2828 -22 
Q 2503 -91 2169 -91 
Q 1331 -91 842 396 
Q 353 884 353 1716 
Q 353 2575 817 3079 
Q 1281 3584 2069 3584 
Q 2775 3584 3186 3129 
Q 3597 2675 3597 1894 
z
M 3022 2063 
Q 3016 2534 2758 2815 
Q 2500 3097 2075 3097 
Q 1594 3097 1305 2825 
Q 1016 2553 972 2059 
L 3022 2063 
z
" transform="scale(0.015625)"/>
       <path id="DejaVuSans-73" d="M 2834 3397 
L 2834 2853 
Q 2591 2978 2328 3040 
Q 2066 3103 1784 3103 
Q 1356 3103 1142 2972 
Q 928 2841 928 2578 
Q 928 2378 1081 2264 
Q 1234 2150 1697 2047 
L 1894 2003 
Q 2506 1872 2764 1633 
Q 3022 1394 3022 966 
Q 3022 478 2636 193 
Q 2250 -91 1575 -91 
Q 1294 -91 989 -36 
Q 684 19 347 128 
L 347 722 
Q 666 556 975 473 
Q 1284 391 1588 391 
Q 1994 391 2212 530 
Q 2431 669 2431 922 
Q 2431 1156 2273 1281 
Q 2116 1406 1581 1522 
L 1381 1569 
Q 847 1681 609 1914 
Q 372 2147 372 2553 
Q 372 3047 722 3315 
Q 1072 3584 1716 3584 
Q 2034 3584 2315 3537 
Q 2597 3491 2834 3397 
z
" transform="scale(0.015625)"/>
       <path id="DejaVuSans-20" transform="scale(0.015625)"/>
       <path id="DejaVuSans-62" d="M 3116 1747 
Q 3116 2381 2855 2742 
Q 2594 3103 2138 3103 
Q 1681 3103 1420 2742 
Q 1159 2381 1159 1747 
Q 1159 1113 1420 752 
Q 1681 391 2138 391 
Q 2594 391 2855 752 
Q 3116 1113 3116 1747 
z
M 1159 2969 
Q 1341 3281 1617 3432 
Q 1894 3584 2278 3584 
Q 2916 3584 3314 3078 
Q 3713 2572 3713 1747 
Q 3713 922 3314 415 
Q 2916 -91 2278 -91 
Q 1894 -91 1617 61 
Q 1341 213 1159 525 
L 1159 0 
L 581 0 
L 581 4863 
L 1159 4863 
L 1159 2969 
z
" transform="scale(0.015625)"/>
       <path id="DejaVuSans-75" d="M 544 1381 
L 544 3500 
L 1119 3500 
L 1119 1403 
Q 1119 906 1312 657 
Q 1506 409 1894 409 
Q 2359 409 2629 706 
Q 2900 1003 2900 1516 
L 2900 3500 
L 3475 3500 
L 3475 0 
L 2900 0 
L 2900 538 
Q 2691 219 2414 64 
Q 2138 -91 1772 -91 
Q 1169 -91 856 284 
Q 544 659 544 1381 
z
M 1991 3584 
L 1991 3584 
z
" transform="scale(0.015625)"/>
       <path id="DejaVuSans-69" d="M 603 3500 
L 1178 3500 
L 1178 0 
L 603 0 
L 603 3500 
z
M 603 4863 
L 1178 4863 
L 1178 4134 
L 603 4134 
L 603 4863 
z
" transform="scale(0.015625)"/>
       <path id="DejaVuSans-6c" d="M 603 4863 
L 1178 4863 
L 1178 0 
L 603 0 
L 603 4863 
z
" transform="scale(0.015625)"/>
       <path id="DejaVuSans-74" d="M 1172 4494 
L 1172 3500 
L 2356 3500 
L 2356 3053 
L 1172 3053 
L 1172 1153 
Q 1172 725 1289 603 
Q 1406 481 1766 481 
L 2356 481 
L 2356 0 
L 1766 0 
Q 1100 0 847 248 
Q 594 497 594 1153 
L 594 3053 
L 172 3053 
L 172 3500 
L 594 3500 
L 594 4494 
L 1172 4494 
z
" transform="scale(0.015625)"/>
      </defs>
      <use xlink:href="#DejaVuSans-54"/>
      <use xlink:href="#DejaVuSans-72" x="46.333984"/>
      <use xlink:href="#DejaVuSans-65" x="85.197266"/>
      <use xlink:href="#DejaVuSans-65" x="146.720703"/>
      <use xlink:href="#DejaVuSans-73" x="208.244141"/>
      <use xlink:href="#DejaVuSans-20" x="260.34375"/>
      <use xlink:href="#DejaVuSans-62" x="292.130859"/>
      <use xlink:href="#DejaVuSans-75" x="355.607422"/>
      <use xlink:href="#DejaVuSans-69" x="418.986328"/>
      <use xlink:href="#DejaVuSans-6c" x="446.769531"/>
      <use xlink:href="#DejaVuSans-74" x="474.552734"/>
     </g>
    </g>
   </g>
   <g id="matplotlib.axis_2">
    <g id="ytick_1">
     <g id="line2d_7">
      <path d="M 58.741563 466.801558 
L 728.341563 466.801558 
" clip-path="url(#pd95ff32736)" style="fill: none; stroke: #ffffff; stroke-linecap: round"/>
     </g>
     <g id="text_8">
      <!-- 0.0 -->
      <g style="fill: #262626" transform="translate(31.748125 470.980699)scale(0.11 -0.11)">
       <defs>
        <path id="DejaVuSans-2e" d="M 684 794 
L 1344 794 
L 1344 0 
L 684 0 
L 684 794 
z
" transform="scale(0.015625)"/>
       </defs>
       <use xlink:href="#DejaVuSans-30"/>
       <use xlink:href="#DejaVuSans-2e" x="63.623047"/>
       <use xlink:href="#DejaVuSans-30" x="95.410156"/>
      </g>
     </g>
    </g>
    <g id="ytick_2">
     <g id="line2d_8">
      <path d="M 58.741563 407.878156 
L 728.341563 407.878156 
" clip-path="url(#pd95ff32736)" style="fill: none; stroke: #ffffff; stroke-linecap: round"/>
     </g>
     <g id="text_9">
      <!-- 2.5 -->
      <g style="fill: #262626" transform="translate(31.748125 412.057296)scale(0.11 -0.11)">
       <defs>
        <path id="DejaVuSans-35" d="M 691 4666 
L 3169 4666 
L 3169 4134 
L 1269 4134 
L 1269 2991 
Q 1406 3038 1543 3061 
Q 1681 3084 1819 3084 
Q 2600 3084 3056 2656 
Q 3513 2228 3513 1497 
Q 3513 744 3044 326 
Q 2575 -91 1722 -91 
Q 1428 -91 1123 -41 
Q 819 9 494 109 
L 494 744 
Q 775 591 1075 516 
Q 1375 441 1709 441 
Q 2250 441 2565 725 
Q 2881 1009 2881 1497 
Q 2881 1984 2565 2268 
Q 2250 2553 1709 2553 
Q 1456 2553 1204 2497 
Q 953 2441 691 2322 
L 691 4666 
z
" transform="scale(0.015625)"/>
       </defs>
       <use xlink:href="#DejaVuSans-32"/>
       <use xlink:href="#DejaVuSans-2e" x="63.623047"/>
       <use xlink:href="#DejaVuSans-35" x="95.410156"/>
      </g>
     </g>
    </g>
    <g id="ytick_3">
     <g id="line2d_9">
      <path d="M 58.741563 348.954753 
L 728.341563 348.954753 
" clip-path="url(#pd95ff32736)" style="fill: none; stroke: #ffffff; stroke-linecap: round"/>
     </g>
     <g id="text_10">
      <!-- 5.0 -->
      <g style="fill: #262626" transform="translate(31.748125 353.133894)scale(0.11 -0.11)">
       <use xlink:href="#DejaVuSans-35"/>
       <use xlink:href="#DejaVuSans-2e" x="63.623047"/>
       <use xlink:href="#DejaVuSans-30" x="95.410156"/>
      </g>
     </g>
    </g>
    <g id="ytick_4">
     <g id="line2d_10">
      <path d="M 58.741563 290.031351 
L 728.341563 290.031351 
" clip-path="url(#pd95ff32736)" style="fill: none; stroke: #ffffff; stroke-linecap: round"/>
     </g>
     <g id="text_11">
      <!-- 7.5 -->
      <g style="fill: #262626" transform="translate(31.748125 294.210491)scale(0.11 -0.11)">
       <defs>
        <path id="DejaVuSans-37" d="M 525 4666 
L 3525 4666 
L 3525 4397 
L 1831 0 
L 1172 0 
L 2766 4134 
L 525 4134 
L 525 4666 
z
" transform="scale(0.015625)"/>
       </defs>
       <use xlink:href="#DejaVuSans-37"/>
       <use xlink:href="#DejaVuSans-2e" x="63.623047"/>
       <use xlink:href="#DejaVuSans-35" x="95.410156"/>
      </g>
     </g>
    </g>
    <g id="ytick_5">
     <g id="line2d_11">
      <path d="M 58.741563 231.107948 
L 728.341563 231.107948 
" clip-path="url(#pd95ff32736)" style="fill: none; stroke: #ffffff; stroke-linecap: round"/>
     </g>
     <g id="text_12">
      <!-- 10.0 -->
      <g style="fill: #262626" transform="translate(24.749375 235.287089)scale(0.11 -0.11)">
       <use xlink:href="#DejaVuSans-31"/>
       <use xlink:href="#DejaVuSans-30" x="63.623047"/>
       <use xlink:href="#DejaVuSans-2e" x="127.246094"/>
       <use xlink:href="#DejaVuSans-30" x="159.033203"/>
      </g>
     </g>
    </g>
    <g id="ytick_6">
     <g id="line2d_12">
      <path d="M 58.741563 172.184545 
L 728.341563 172.184545 
" clip-path="url(#pd95ff32736)" style="fill: none; stroke: #ffffff; stroke-linecap: round"/>
     </g>
     <g id="text_13">
      <!-- 12.5 -->
      <g style="fill: #262626" transform="translate(24.749375 176.363686)scale(0.11 -0.11)">
       <use xlink:href="#DejaVuSans-31"/>
       <use xlink:href="#DejaVuSans-32" x="63.623047"/>
       <use xlink:href="#DejaVuSans-2e" x="127.246094"/>
       <use xlink:href="#DejaVuSans-35" x="159.033203"/>
      </g>
     </g>
    </g>
    <g id="ytick_7">
     <g id="line2d_13">
      <path d="M 58.741563 113.261143 
L 728.341563 113.261143 
" clip-path="url(#pd95ff32736)" style="fill: none; stroke: #ffffff; stroke-linecap: round"/>
     </g>
     <g id="text_14">
      <!-- 15.0 -->
      <g style="fill: #262626" transform="translate(24.749375 117.440283)scale(0.11 -0.11)">
       <use xlink:href="#DejaVuSans-31"/>
       <use xlink:href="#DejaVuSans-35" x="63.623047"/>
       <use xlink:href="#DejaVuSans-2e" x="127.246094"/>
       <use xlink:href="#DejaVuSans-30" x="159.033203"/>
      </g>
     </g>
    </g>
    <g id="ytick_8">
     <g id="line2d_14">
      <path d="M 58.741563 54.33774 
L 728.341563 54.33774 
" clip-path="url(#pd95ff32736)" style="fill: none; stroke: #ffffff; stroke-linecap: round"/>
     </g>
     <g id="text_15">
      <!-- 17.5 -->
      <g style="fill: #262626" transform="translate(24.749375 58.516881)scale(0.11 -0.11)">
       <use xlink:href="#DejaVuSans-31"/>
       <use xlink:href="#DejaVuSans-37" x="63.623047"/>
       <use xlink:href="#DejaVuSans-2e" x="127.246094"/>
       <use xlink:href="#DejaVuSans-35" x="159.033203"/>
      </g>
     </g>
    </g>
    <g id="text_16">
     <!-- Time spent, s -->
     <g style="fill: #262626" transform="translate(17.837813 312.059781)rotate(-90)scale(0.14 -0.14)">
      <defs>
       <path id="DejaVuSans-6d" d="M 3328 2828 
Q 3544 3216 3844 3400 
Q 4144 3584 4550 3584 
Q 5097 3584 5394 3201 
Q 5691 2819 5691 2113 
L 5691 0 
L 5113 0 
L 5113 2094 
Q 5113 2597 4934 2840 
Q 4756 3084 4391 3084 
Q 3944 3084 3684 2787 
Q 3425 2491 3425 1978 
L 3425 0 
L 2847 0 
L 2847 2094 
Q 2847 2600 2669 2842 
Q 2491 3084 2119 3084 
Q 1678 3084 1418 2786 
Q 1159 2488 1159 1978 
L 1159 0 
L 581 0 
L 581 3500 
L 1159 3500 
L 1159 2956 
Q 1356 3278 1631 3431 
Q 1906 3584 2284 3584 
Q 2666 3584 2933 3390 
Q 3200 3197 3328 2828 
z
" transform="scale(0.015625)"/>
       <path id="DejaVuSans-70" d="M 1159 525 
L 1159 -1331 
L 581 -1331 
L 581 3500 
L 1159 3500 
L 1159 2969 
Q 1341 3281 1617 3432 
Q 1894 3584 2278 3584 
Q 2916 3584 3314 3078 
Q 3713 2572 3713 1747 
Q 3713 922 3314 415 
Q 2916 -91 2278 -91 
Q 1894 -91 1617 61 
Q 1341 213 1159 525 
z
M 3116 1747 
Q 3116 2381 2855 2742 
Q 2594 3103 2138 3103 
Q 1681 3103 1420 2742 
Q 1159 2381 1159 1747 
Q 1159 1113 1420 752 
Q 1681 391 2138 391 
Q 2594 391 2855 752 
Q 3116 1113 3116 1747 
z
" transform="scale(0.015625)"/>
       <path id="DejaVuSans-6e" d="M 3513 2113 
L 3513 0 
L 2938 0 
L 2938 2094 
Q 2938 2591 2744 2837 
Q 2550 3084 2163 3084 
Q 1697 3084 1428 2787 
Q 1159 2491 1159 1978 
L 1159 0 
L 581 0 
L 581 3500 
L 1159 3500 
L 1159 2956 
Q 1366 3272 1645 3428 
Q 1925 3584 2291 3584 
Q 2894 3584 3203 3211 
Q 3513 2838 3513 2113 
z
" transform="scale(0.015625)"/>
       <path id="DejaVuSans-2c" d="M 750 794 
L 1409 794 
L 1409 256 
L 897 -744 
L 494 -744 
L 750 256 
L 750 794 
z
" transform="scale(0.015625)"/>
      </defs>
      <use xlink:href="#DejaVuSans-54"/>
      <use xlink:href="#DejaVuSans-69" x="57.958984"/>
      <use xlink:href="#DejaVuSans-6d" x="85.742188"/>
      <use xlink:href="#DejaVuSans-65" x="183.154297"/>
      <use xlink:href="#DejaVuSans-20" x="244.677734"/>
      <use xlink:href="#DejaVuSans-73" x="276.464844"/>
      <use xlink:href="#DejaVuSans-70" x="328.564453"/>
      <use xlink:href="#DejaVuSans-65" x="392.041016"/>
      <use xlink:href="#DejaVuSans-6e" x="453.564453"/>
      <use xlink:href="#DejaVuSans-74" x="516.943359"/>
      <use xlink:href="#DejaVuSans-2c" x="556.152344"/>
      <use xlink:href="#DejaVuSans-20" x="587.939453"/>
      <use xlink:href="#DejaVuSans-73" x="619.726562"/>
     </g>
    </g>
   </g>
   <g id="line2d_15">
    <path d="M 89.177926 466.53529 
L 91.005936 465.735782 
L 95.271292 463.869296 
L 99.536648 461.94533 
L 105.630015 459.286922 
L 111.114044 456.918053 
L 114.770064 455.195771 
L 119.644757 453.067804 
L 126.347459 450.120341 
L 129.394142 448.885242 
L 137.924855 445.214128 
L 147.064904 441.42912 
L 150.111587 440.024884 
L 152.548934 439.006423 
L 155.595617 437.665528 
L 159.251636 436.058264 
L 162.298319 434.763897 
L 168.391685 432.127051 
L 170.219695 431.395869 
L 172.047705 430.551362 
L 175.703725 428.984989 
L 189.718467 422.885424 
L 191.546477 422.110259 
L 200.077189 418.523581 
L 215.310604 412.101812 
L 218.357287 410.818673 
L 226.278663 407.427679 
L 228.106673 406.660848 
L 234.200039 404.061387 
L 239.684069 401.770144 
L 241.512078 400.952194 
L 260.401513 392.761423 
L 285.993651 381.927833 
L 293.30569 378.748453 
L 319.507164 367.504862 
L 321.335174 366.681629 
L 331.08456 362.429708 
L 334.131243 360.991536 
L 337.787263 359.485257 
L 340.224609 358.456737 
L 342.052619 357.666041 
L 345.099302 356.389443 
L 348.755322 354.785219 
L 353.020678 352.957332 
L 357.286034 351.311811 
L 362.770064 348.869277 
L 377.394142 342.625878 
L 381.659499 340.750361 
L 384.706182 339.409567 
L 392.018221 336.254312 
L 393.846231 335.520247 
L 398.111587 333.636925 
L 399.33026 333.186791 
L 412.126329 327.675686 
L 417.610359 325.396356 
L 435.890457 317.468836 
L 440.76515 315.361087 
L 449.295862 311.728932 
L 454.170555 309.687419 
L 472.450653 301.987787 
L 474.888 301.003262 
L 479.153356 299.121407 
L 491.340088 293.703611 
L 498.652128 290.581268 
L 507.792177 286.67296 
L 510.83886 285.259525 
L 524.244265 279.595876 
L 543.743037 271.19457 
L 544.96171 270.621354 
L 546.78972 269.87926 
L 551.055076 268.001934 
L 552.883086 267.250809 
L 560.195125 264.105432 
L 563.241808 262.792207 
L 566.288491 261.434786 
L 571.163184 259.414581 
L 571.772521 259.22663 
L 572.991194 258.657152 
L 575.42854 257.656291 
L 588.224609 252.282034 
L 602.848688 245.86839 
L 605.286034 244.765925 
L 607.114044 244.009221 
L 614.426083 240.728698 
L 616.86343 239.720975 
L 619.300776 238.710297 
L 623.566133 236.882635 
L 627.831489 234.990441 
L 630.268835 233.935448 
L 634.534191 232.051396 
L 640.627558 229.480471 
L 643.064904 228.47467 
L 653.423626 223.781898 
L 657.079646 222.163687 
L 660.735666 220.568391 
L 671.703725 215.815514 
L 674.141071 214.725743 
L 676.578418 213.674432 
L 679.015764 212.577446 
L 685.718467 209.748636 
L 697.905199 204.60787 
L 697.905199 204.60787 
" clip-path="url(#pd95ff32736)" style="fill: none; stroke: #4c72b0; stroke-width: 1.5; stroke-linecap: round"/>
   </g>
   <g id="line2d_16">
    <path d="M 89.177926 466.634 
L 93.443282 465.519358 
L 97.099302 464.735781 
L 108.676698 462.008154 
L 115.3794 460.535552 
L 122.082103 458.756015 
L 126.347459 457.594462 
L 136.706182 455.080012 
L 138.534191 454.702098 
L 153.15827 451.322825 
L 162.298319 449.148364 
L 164.735666 448.572738 
L 171.438368 446.917843 
L 174.485051 446.071285 
L 179.969081 444.790298 
L 194.59316 441.307163 
L 196.421169 440.922084 
L 200.077189 439.917795 
L 209.217238 437.507702 
L 212.873258 436.614087 
L 220.185297 434.897301 
L 223.23198 434.183135 
L 231.153356 432.42295 
L 234.809376 431.534055 
L 242.730752 429.760778 
L 254.917484 426.858956 
L 256.745494 426.401207 
L 317.679155 412.227158 
L 323.772521 410.859166 
L 327.42854 410.040227 
L 339.005936 407.345029 
L 345.708639 405.83367 
L 397.50225 394.150459 
L 409.079646 391.328606 
L 418.829032 388.998685 
L 421.266378 388.435888 
L 443.202496 383.5897 
L 449.905199 382.083894 
L 457.217238 380.415193 
L 466.966624 378.191151 
L 470.013307 377.5409 
L 473.05999 376.813832 
L 482.200039 374.769245 
L 486.465395 373.736247 
L 493.777435 372.017871 
L 496.214781 371.456591 
L 499.261464 370.764115 
L 502.308147 370.06806 
L 513.885543 367.504159 
L 527.900285 364.341503 
L 532.165641 363.392351 
L 544.96171 360.333619 
L 553.492422 358.27599 
L 558.367115 357.046932 
L 565.069818 355.356557 
L 569.335174 354.27852 
L 576.037877 352.658516 
L 580.303233 351.541789 
L 590.052619 348.99337 
L 594.927312 347.703926 
L 610.160727 343.907224 
L 615.644757 342.480589 
L 630.268835 338.875238 
L 633.315518 338.149524 
L 641.846231 336.221753 
L 646.111587 335.202466 
L 658.907656 332.291293 
L 663.782349 331.167188 
L 666.829032 330.477764 
L 675.969081 328.370533 
L 678.406427 327.811383 
L 682.062447 326.972579 
L 689.374486 325.222099 
L 695.467852 323.86302 
L 697.905199 323.305954 
L 697.905199 323.305954 
" clip-path="url(#pd95ff32736)" style="fill: none; stroke: #dd8452; stroke-width: 1.5; stroke-linecap: round"/>
   </g>
   <g id="line2d_17">
    <path d="M 89.177926 466.524787 
L 92.224609 465.052124 
L 94.052619 464.103753 
L 98.927312 461.703741 
L 103.192668 459.399759 
L 105.020678 458.56921 
L 130.003479 446.076545 
L 144.627558 438.930117 
L 146.455567 438.009102 
L 147.674241 437.455049 
L 150.720924 435.835837 
L 152.548934 434.924679 
L 154.376943 433.990654 
L 159.251636 431.588428 
L 170.829032 425.812426 
L 172.047705 425.022853 
L 176.313061 422.772519 
L 183.625101 419.128305 
L 185.45311 418.070593 
L 188.499793 416.422717 
L 193.983823 413.530914 
L 196.421169 412.206883 
L 208.607902 405.953644 
L 211.654585 404.392155 
L 221.40397 399.221309 
L 223.841317 397.995566 
L 226.888 396.517221 
L 228.106673 395.805297 
L 233.590703 393.004169 
L 236.637386 391.423905 
L 239.684069 389.787476 
L 262.83886 378.028336 
L 264.66687 376.962734 
L 273.806919 372.322862 
L 275.634929 371.415333 
L 278.681612 369.791744 
L 285.384314 366.06011 
L 288.430997 364.383991 
L 290.259007 363.431951 
L 293.30569 361.662303 
L 301.227066 357.313532 
L 307.929769 353.913738 
L 318.288491 348.516077 
L 324.991194 344.676055 
L 328.647214 342.604732 
L 331.08456 341.264775 
L 332.91257 340.238987 
L 335.349916 338.862583 
L 337.177926 337.830473 
L 339.615273 336.493298 
L 341.443282 335.544585 
L 342.661956 334.8288 
L 346.317975 332.867296 
L 348.145985 331.903691 
L 350.583332 330.618788 
L 352.411341 329.615263 
L 354.239351 328.616611 
L 381.050162 314.062259 
L 387.752865 310.150641 
L 398.111587 304.795513 
L 401.15827 303.242329 
L 403.595617 301.976262 
L 406.032963 300.699754 
L 412.735666 297.287479 
L 415.173012 296.079404 
L 423.094388 291.784814 
L 430.406427 288.121854 
L 432.234437 287.233819 
L 440.155813 283.192764 
L 441.374486 282.41656 
L 443.202496 281.434631 
L 446.858516 279.574905 
L 452.342545 276.748927 
L 455.998565 274.916848 
L 460.263921 272.780728 
L 462.091931 271.916356 
L 463.919941 271.014755 
L 468.185297 268.914605 
L 470.013307 267.813516 
L 480.981366 262.415737 
L 482.200039 261.733315 
L 487.074732 259.386676 
L 488.293405 258.754136 
L 490.121415 257.812015 
L 515.713553 244.712558 
L 525.462938 239.937793 
L 529.118958 237.973075 
L 534.602988 235.178139 
L 537.649671 233.665949 
L 539.47768 232.782859 
L 557.148442 223.782016 
L 560.195125 222.254052 
L 563.241808 220.706617 
L 568.116501 218.223185 
L 569.335174 217.535076 
L 579.693897 212.146265 
L 584.56859 209.631118 
L 632.096845 185.483276 
L 634.534191 184.362464 
L 635.752865 183.629754 
L 642.455567 180.095196 
L 650.98628 175.604378 
L 652.81429 174.619892 
L 659.516992 171.097472 
L 668.047705 166.915467 
L 669.875715 165.88861 
L 677.797091 161.638706 
L 681.45311 159.651853 
L 689.983823 155.437593 
L 696.077189 152.321274 
L 697.905199 151.190953 
L 697.905199 151.190953 
" clip-path="url(#pd95ff32736)" style="fill: none; stroke: #55a868; stroke-width: 1.5; stroke-linecap: round"/>
   </g>
   <g id="line2d_18">
    <path d="M 89.177926 466.377307 
L 92.224609 464.376613 
L 93.443282 463.669994 
L 100.145985 458.947147 
L 130.003479 439.316629 
L 131.222152 438.519088 
L 135.487508 435.682063 
L 145.236894 429.424065 
L 148.892914 426.844902 
L 151.33026 425.296843 
L 159.860973 419.597612 
L 161.688983 418.483808 
L 164.126329 416.8273 
L 167.173012 414.716596 
L 168.391685 413.952362 
L 171.438368 411.837876 
L 173.266378 410.717856 
L 183.015764 404.34983 
L 185.45311 402.861943 
L 189.718467 399.806521 
L 195.202496 396.343296 
L 198.858516 393.685596 
L 201.295862 391.623185 
L 205.561219 388.626834 
L 207.389228 387.511236 
L 210.435911 385.468785 
L 215.919941 381.945084 
L 217.138614 381.094356 
L 234.809376 369.705375 
L 237.856059 367.24065 
L 240.293405 365.580451 
L 242.121415 364.260657 
L 248.214781 360.291126 
L 257.35483 354.06908 
L 259.792177 352.545533 
L 268.322889 346.798729 
L 270.150899 345.597807 
L 289.649671 332.86883 
L 290.868344 332.148865 
L 295.743037 328.865004 
L 315.851145 315.70869 
L 317.069818 314.878169 
L 319.507164 313.336657 
L 321.944511 311.621338 
L 325.600531 309.263999 
L 335.959253 302.611808 
L 337.177926 301.754746 
L 348.145985 294.530806 
L 351.802005 292.040119 
L 354.239351 290.511195 
L 357.286034 288.489085 
L 358.504707 287.670966 
L 359.723381 286.839524 
L 361.551391 285.695004 
L 364.598074 283.78944 
L 366.426083 282.486487 
L 370.69144 279.769931 
L 373.128786 278.289254 
L 374.956796 277.079582 
L 377.394142 275.533086 
L 382.878172 271.971836 
L 384.706182 270.671569 
L 389.580875 267.542792 
L 390.799548 266.747482 
L 399.939597 260.843043 
L 401.767607 259.66293 
L 403.595617 258.448724 
L 414.563676 251.247378 
L 426.141071 243.93827 
L 427.969081 242.672085 
L 429.187754 241.714549 
L 432.234437 239.763733 
L 434.062447 238.598854 
L 435.890457 237.435374 
L 437.10913 236.687683 
L 439.546477 235.111072 
L 441.374486 233.859823 
L 452.951882 226.136381 
L 454.170555 225.281832 
L 455.998565 224.197731 
L 463.310604 219.41737 
L 464.529277 218.652708 
L 468.185297 216.13588 
L 473.05999 212.913776 
L 479.762693 208.471083 
L 483.418712 206.000997 
L 490.730752 201.445365 
L 494.386771 199.014121 
L 510.229523 188.543902 
L 512.057533 187.330724 
L 513.276206 186.465874 
L 516.932226 183.082388 
L 518.150899 182.146026 
L 520.588246 180.42289 
L 522.416255 179.218119 
L 524.244265 177.929692 
L 526.072275 176.777299 
L 529.118958 174.639099 
L 535.212324 170.67272 
L 537.649671 168.725995 
L 538.868344 167.768932 
L 541.915027 165.342655 
L 544.96171 163.318478 
L 547.399056 161.522436 
L 565.679155 149.634438 
L 567.507164 148.52814 
L 568.725838 147.708791 
L 571.163184 146.065573 
L 573.600531 144.370456 
L 575.42854 143.179289 
L 576.647214 142.220017 
L 577.865887 141.475388 
L 580.303233 139.811334 
L 584.56859 137.026822 
L 585.787263 136.323715 
L 587.615273 135.096298 
L 590.052619 133.53369 
L 591.271292 132.640283 
L 592.489965 131.873008 
L 596.145985 129.523537 
L 597.364658 128.67795 
L 598.583332 127.940121 
L 610.770064 119.993799 
L 615.03542 117.178481 
L 618.082103 115.192662 
L 618.69144 114.885524 
L 620.519449 113.635859 
L 697.905199 63.434 
L 697.905199 63.434 
" clip-path="url(#pd95ff32736)" style="fill: none; stroke: #c44e52; stroke-width: 1.5; stroke-linecap: round"/>
   </g>
   <g id="line2d_19"/>
   <g id="line2d_20"/>
   <g id="line2d_21"/>
   <g id="line2d_22"/>
   <g id="patch_3">
    <path d="M 58.741563 486.794 
L 58.741563 43.274 
" style="fill: none; stroke: #ffffff; stroke-width: 1.25; stroke-linejoin: miter; stroke-linecap: square"/>
   </g>
   <g id="patch_4">
    <path d="M 728.341563 486.794 
L 728.341563 43.274 
" style="fill: none; stroke: #ffffff; stroke-width: 1.25; stroke-linejoin: miter; stroke-linecap: square"/>
   </g>
   <g id="patch_5">
    <path d="M 58.741563 486.794 
L 728.341563 486.794 
" style="fill: none; stroke: #ffffff; stroke-width: 1.25; stroke-linejoin: miter; stroke-linecap: square"/>
   </g>
   <g id="patch_6">
    <path d="M 58.741563 43.274 
L 728.341563 43.274 
" style="fill: none; stroke: #ffffff; stroke-width: 1.25; stroke-linejoin: miter; stroke-linecap: square"/>
   </g>
   <g id="text_17">
    <!-- Dependency of time spent on trees built by Gradient Boosting, -->
    <g style="fill: #262626" transform="translate(142.057812 19.3575)scale(0.16 -0.16)">
     <defs>
      <path id="DejaVuSans-44" d="M 1259 4147 
L 1259 519 
L 2022 519 
Q 2988 519 3436 956 
Q 3884 1394 3884 2338 
Q 3884 3275 3436 3711 
Q 2988 4147 2022 4147 
L 1259 4147 
z
M 628 4666 
L 1925 4666 
Q 3281 4666 3915 4102 
Q 4550 3538 4550 2338 
Q 4550 1131 3912 565 
Q 3275 0 1925 0 
L 628 0 
L 628 4666 
z
" transform="scale(0.015625)"/>
      <path id="DejaVuSans-64" d="M 2906 2969 
L 2906 4863 
L 3481 4863 
L 3481 0 
L 2906 0 
L 2906 525 
Q 2725 213 2448 61 
Q 2172 -91 1784 -91 
Q 1150 -91 751 415 
Q 353 922 353 1747 
Q 353 2572 751 3078 
Q 1150 3584 1784 3584 
Q 2172 3584 2448 3432 
Q 2725 3281 2906 2969 
z
M 947 1747 
Q 947 1113 1208 752 
Q 1469 391 1925 391 
Q 2381 391 2643 752 
Q 2906 1113 2906 1747 
Q 2906 2381 2643 2742 
Q 2381 3103 1925 3103 
Q 1469 3103 1208 2742 
Q 947 2381 947 1747 
z
" transform="scale(0.015625)"/>
      <path id="DejaVuSans-63" d="M 3122 3366 
L 3122 2828 
Q 2878 2963 2633 3030 
Q 2388 3097 2138 3097 
Q 1578 3097 1268 2742 
Q 959 2388 959 1747 
Q 959 1106 1268 751 
Q 1578 397 2138 397 
Q 2388 397 2633 464 
Q 2878 531 3122 666 
L 3122 134 
Q 2881 22 2623 -34 
Q 2366 -91 2075 -91 
Q 1284 -91 818 406 
Q 353 903 353 1747 
Q 353 2603 823 3093 
Q 1294 3584 2113 3584 
Q 2378 3584 2631 3529 
Q 2884 3475 3122 3366 
z
" transform="scale(0.015625)"/>
      <path id="DejaVuSans-79" d="M 2059 -325 
Q 1816 -950 1584 -1140 
Q 1353 -1331 966 -1331 
L 506 -1331 
L 506 -850 
L 844 -850 
Q 1081 -850 1212 -737 
Q 1344 -625 1503 -206 
L 1606 56 
L 191 3500 
L 800 3500 
L 1894 763 
L 2988 3500 
L 3597 3500 
L 2059 -325 
z
" transform="scale(0.015625)"/>
      <path id="DejaVuSans-6f" d="M 1959 3097 
Q 1497 3097 1228 2736 
Q 959 2375 959 1747 
Q 959 1119 1226 758 
Q 1494 397 1959 397 
Q 2419 397 2687 759 
Q 2956 1122 2956 1747 
Q 2956 2369 2687 2733 
Q 2419 3097 1959 3097 
z
M 1959 3584 
Q 2709 3584 3137 3096 
Q 3566 2609 3566 1747 
Q 3566 888 3137 398 
Q 2709 -91 1959 -91 
Q 1206 -91 779 398 
Q 353 888 353 1747 
Q 353 2609 779 3096 
Q 1206 3584 1959 3584 
z
" transform="scale(0.015625)"/>
      <path id="DejaVuSans-66" d="M 2375 4863 
L 2375 4384 
L 1825 4384 
Q 1516 4384 1395 4259 
Q 1275 4134 1275 3809 
L 1275 3500 
L 2222 3500 
L 2222 3053 
L 1275 3053 
L 1275 0 
L 697 0 
L 697 3053 
L 147 3053 
L 147 3500 
L 697 3500 
L 697 3744 
Q 697 4328 969 4595 
Q 1241 4863 1831 4863 
L 2375 4863 
z
" transform="scale(0.015625)"/>
      <path id="DejaVuSans-47" d="M 3809 666 
L 3809 1919 
L 2778 1919 
L 2778 2438 
L 4434 2438 
L 4434 434 
Q 4069 175 3628 42 
Q 3188 -91 2688 -91 
Q 1594 -91 976 548 
Q 359 1188 359 2328 
Q 359 3472 976 4111 
Q 1594 4750 2688 4750 
Q 3144 4750 3555 4637 
Q 3966 4525 4313 4306 
L 4313 3634 
Q 3963 3931 3569 4081 
Q 3175 4231 2741 4231 
Q 1884 4231 1454 3753 
Q 1025 3275 1025 2328 
Q 1025 1384 1454 906 
Q 1884 428 2741 428 
Q 3075 428 3337 486 
Q 3600 544 3809 666 
z
" transform="scale(0.015625)"/>
      <path id="DejaVuSans-61" d="M 2194 1759 
Q 1497 1759 1228 1600 
Q 959 1441 959 1056 
Q 959 750 1161 570 
Q 1363 391 1709 391 
Q 2188 391 2477 730 
Q 2766 1069 2766 1631 
L 2766 1759 
L 2194 1759 
z
M 3341 1997 
L 3341 0 
L 2766 0 
L 2766 531 
Q 2569 213 2275 61 
Q 1981 -91 1556 -91 
Q 1019 -91 701 211 
Q 384 513 384 1019 
Q 384 1609 779 1909 
Q 1175 2209 1959 2209 
L 2766 2209 
L 2766 2266 
Q 2766 2663 2505 2880 
Q 2244 3097 1772 3097 
Q 1472 3097 1187 3025 
Q 903 2953 641 2809 
L 641 3341 
Q 956 3463 1253 3523 
Q 1550 3584 1831 3584 
Q 2591 3584 2966 3190 
Q 3341 2797 3341 1997 
z
" transform="scale(0.015625)"/>
      <path id="DejaVuSans-42" d="M 1259 2228 
L 1259 519 
L 2272 519 
Q 2781 519 3026 730 
Q 3272 941 3272 1375 
Q 3272 1813 3026 2020 
Q 2781 2228 2272 2228 
L 1259 2228 
z
M 1259 4147 
L 1259 2741 
L 2194 2741 
Q 2656 2741 2882 2914 
Q 3109 3088 3109 3444 
Q 3109 3797 2882 3972 
Q 2656 4147 2194 4147 
L 1259 4147 
z
M 628 4666 
L 2241 4666 
Q 2963 4666 3353 4366 
Q 3744 4066 3744 3513 
Q 3744 3084 3544 2831 
Q 3344 2578 2956 2516 
Q 3422 2416 3680 2098 
Q 3938 1781 3938 1306 
Q 3938 681 3513 340 
Q 3088 0 2303 0 
L 628 0 
L 628 4666 
z
" transform="scale(0.015625)"/>
      <path id="DejaVuSans-67" d="M 2906 1791 
Q 2906 2416 2648 2759 
Q 2391 3103 1925 3103 
Q 1463 3103 1205 2759 
Q 947 2416 947 1791 
Q 947 1169 1205 825 
Q 1463 481 1925 481 
Q 2391 481 2648 825 
Q 2906 1169 2906 1791 
z
M 3481 434 
Q 3481 -459 3084 -895 
Q 2688 -1331 1869 -1331 
Q 1566 -1331 1297 -1286 
Q 1028 -1241 775 -1147 
L 775 -588 
Q 1028 -725 1275 -790 
Q 1522 -856 1778 -856 
Q 2344 -856 2625 -561 
Q 2906 -266 2906 331 
L 2906 616 
Q 2728 306 2450 153 
Q 2172 0 1784 0 
Q 1141 0 747 490 
Q 353 981 353 1791 
Q 353 2603 747 3093 
Q 1141 3584 1784 3584 
Q 2172 3584 2450 3431 
Q 2728 3278 2906 2969 
L 2906 3500 
L 3481 3500 
L 3481 434 
z
" transform="scale(0.015625)"/>
     </defs>
     <use xlink:href="#DejaVuSans-44"/>
     <use xlink:href="#DejaVuSans-65" x="77.001953"/>
     <use xlink:href="#DejaVuSans-70" x="138.525391"/>
     <use xlink:href="#DejaVuSans-65" x="202.001953"/>
     <use xlink:href="#DejaVuSans-6e" x="263.525391"/>
     <use xlink:href="#DejaVuSans-64" x="326.904297"/>
     <use xlink:href="#DejaVuSans-65" x="390.380859"/>
     <use xlink:href="#DejaVuSans-6e" x="451.904297"/>
     <use xlink:href="#DejaVuSans-63" x="515.283203"/>
     <use xlink:href="#DejaVuSans-79" x="570.263672"/>
     <use xlink:href="#DejaVuSans-20" x="629.443359"/>
     <use xlink:href="#DejaVuSans-6f" x="661.230469"/>
     <use xlink:href="#DejaVuSans-66" x="722.412109"/>
     <use xlink:href="#DejaVuSans-20" x="757.617188"/>
     <use xlink:href="#DejaVuSans-74" x="789.404297"/>
     <use xlink:href="#DejaVuSans-69" x="828.613281"/>
     <use xlink:href="#DejaVuSans-6d" x="856.396484"/>
     <use xlink:href="#DejaVuSans-65" x="953.808594"/>
     <use xlink:href="#DejaVuSans-20" x="1015.332031"/>
     <use xlink:href="#DejaVuSans-73" x="1047.119141"/>
     <use xlink:href="#DejaVuSans-70" x="1099.21875"/>
     <use xlink:href="#DejaVuSans-65" x="1162.695312"/>
     <use xlink:href="#DejaVuSans-6e" x="1224.21875"/>
     <use xlink:href="#DejaVuSans-74" x="1287.597656"/>
     <use xlink:href="#DejaVuSans-20" x="1326.806641"/>
     <use xlink:href="#DejaVuSans-6f" x="1358.59375"/>
     <use xlink:href="#DejaVuSans-6e" x="1419.775391"/>
     <use xlink:href="#DejaVuSans-20" x="1483.154297"/>
     <use xlink:href="#DejaVuSans-74" x="1514.941406"/>
     <use xlink:href="#DejaVuSans-72" x="1554.150391"/>
     <use xlink:href="#DejaVuSans-65" x="1593.013672"/>
     <use xlink:href="#DejaVuSans-65" x="1654.537109"/>
     <use xlink:href="#DejaVuSans-73" x="1716.060547"/>
     <use xlink:href="#DejaVuSans-20" x="1768.160156"/>
     <use xlink:href="#DejaVuSans-62" x="1799.947266"/>
     <use xlink:href="#DejaVuSans-75" x="1863.423828"/>
     <use xlink:href="#DejaVuSans-69" x="1926.802734"/>
     <use xlink:href="#DejaVuSans-6c" x="1954.585938"/>
     <use xlink:href="#DejaVuSans-74" x="1982.369141"/>
     <use xlink:href="#DejaVuSans-20" x="2021.578125"/>
     <use xlink:href="#DejaVuSans-62" x="2053.365234"/>
     <use xlink:href="#DejaVuSans-79" x="2116.841797"/>
     <use xlink:href="#DejaVuSans-20" x="2176.021484"/>
     <use xlink:href="#DejaVuSans-47" x="2207.808594"/>
     <use xlink:href="#DejaVuSans-72" x="2285.298828"/>
     <use xlink:href="#DejaVuSans-61" x="2326.412109"/>
     <use xlink:href="#DejaVuSans-64" x="2387.691406"/>
     <use xlink:href="#DejaVuSans-69" x="2451.167969"/>
     <use xlink:href="#DejaVuSans-65" x="2478.951172"/>
     <use xlink:href="#DejaVuSans-6e" x="2540.474609"/>
     <use xlink:href="#DejaVuSans-74" x="2603.853516"/>
     <use xlink:href="#DejaVuSans-20" x="2643.0625"/>
     <use xlink:href="#DejaVuSans-42" x="2674.849609"/>
     <use xlink:href="#DejaVuSans-6f" x="2743.453125"/>
     <use xlink:href="#DejaVuSans-6f" x="2804.634766"/>
     <use xlink:href="#DejaVuSans-73" x="2865.816406"/>
     <use xlink:href="#DejaVuSans-74" x="2917.916016"/>
     <use xlink:href="#DejaVuSans-69" x="2957.125"/>
     <use xlink:href="#DejaVuSans-6e" x="2984.908203"/>
     <use xlink:href="#DejaVuSans-67" x="3048.287109"/>
     <use xlink:href="#DejaVuSans-2c" x="3111.763672"/>
    </g>
    <!-- with different max samples values -->
    <g style="fill: #262626" transform="translate(255.602812 37.274)scale(0.16 -0.16)">
     <defs>
      <path id="DejaVuSans-77" d="M 269 3500 
L 844 3500 
L 1563 769 
L 2278 3500 
L 2956 3500 
L 3675 769 
L 4391 3500 
L 4966 3500 
L 4050 0 
L 3372 0 
L 2619 2869 
L 1863 0 
L 1184 0 
L 269 3500 
z
" transform="scale(0.015625)"/>
      <path id="DejaVuSans-68" d="M 3513 2113 
L 3513 0 
L 2938 0 
L 2938 2094 
Q 2938 2591 2744 2837 
Q 2550 3084 2163 3084 
Q 1697 3084 1428 2787 
Q 1159 2491 1159 1978 
L 1159 0 
L 581 0 
L 581 4863 
L 1159 4863 
L 1159 2956 
Q 1366 3272 1645 3428 
Q 1925 3584 2291 3584 
Q 2894 3584 3203 3211 
Q 3513 2838 3513 2113 
z
" transform="scale(0.015625)"/>
      <path id="DejaVuSans-78" d="M 3513 3500 
L 2247 1797 
L 3578 0 
L 2900 0 
L 1881 1375 
L 863 0 
L 184 0 
L 1544 1831 
L 300 3500 
L 978 3500 
L 1906 2253 
L 2834 3500 
L 3513 3500 
z
" transform="scale(0.015625)"/>
      <path id="DejaVuSans-76" d="M 191 3500 
L 800 3500 
L 1894 563 
L 2988 3500 
L 3597 3500 
L 2284 0 
L 1503 0 
L 191 3500 
z
" transform="scale(0.015625)"/>
     </defs>
     <use xlink:href="#DejaVuSans-77"/>
     <use xlink:href="#DejaVuSans-69" x="81.787109"/>
     <use xlink:href="#DejaVuSans-74" x="109.570312"/>
     <use xlink:href="#DejaVuSans-68" x="148.779297"/>
     <use xlink:href="#DejaVuSans-20" x="212.158203"/>
     <use xlink:href="#DejaVuSans-64" x="243.945312"/>
     <use xlink:href="#DejaVuSans-69" x="307.421875"/>
     <use xlink:href="#DejaVuSans-66" x="335.205078"/>
     <use xlink:href="#DejaVuSans-66" x="370.410156"/>
     <use xlink:href="#DejaVuSans-65" x="405.615234"/>
     <use xlink:href="#DejaVuSans-72" x="467.138672"/>
     <use xlink:href="#DejaVuSans-65" x="506.001953"/>
     <use xlink:href="#DejaVuSans-6e" x="567.525391"/>
     <use xlink:href="#DejaVuSans-74" x="630.904297"/>
     <use xlink:href="#DejaVuSans-20" x="670.113281"/>
     <use xlink:href="#DejaVuSans-6d" x="701.900391"/>
     <use xlink:href="#DejaVuSans-61" x="799.3125"/>
     <use xlink:href="#DejaVuSans-78" x="860.591797"/>
     <use xlink:href="#DejaVuSans-20" x="919.771484"/>
     <use xlink:href="#DejaVuSans-73" x="951.558594"/>
     <use xlink:href="#DejaVuSans-61" x="1003.658203"/>
     <use xlink:href="#DejaVuSans-6d" x="1064.9375"/>
     <use xlink:href="#DejaVuSans-70" x="1162.349609"/>
     <use xlink:href="#DejaVuSans-6c" x="1225.826172"/>
     <use xlink:href="#DejaVuSans-65" x="1253.609375"/>
     <use xlink:href="#DejaVuSans-73" x="1315.132812"/>
     <use xlink:href="#DejaVuSans-20" x="1367.232422"/>
     <use xlink:href="#DejaVuSans-76" x="1399.019531"/>
     <use xlink:href="#DejaVuSans-61" x="1458.199219"/>
     <use xlink:href="#DejaVuSans-6c" x="1519.478516"/>
     <use xlink:href="#DejaVuSans-75" x="1547.261719"/>
     <use xlink:href="#DejaVuSans-65" x="1610.640625"/>
     <use xlink:href="#DejaVuSans-73" x="1672.164062"/>
    </g>
   </g>
   <g id="legend_1">
    <g id="patch_7">
     <path d="M 66.441563 133.7715 
L 150.680938 133.7715 
Q 152.880938 133.7715 152.880938 131.5715 
L 152.880938 50.974 
Q 152.880938 48.774 150.680938 48.774 
L 66.441563 48.774 
Q 64.241563 48.774 64.241563 50.974 
L 64.241563 131.5715 
Q 64.241563 133.7715 66.441563 133.7715 
z
" style="fill: #eaeaf2; opacity: 0.8; stroke: #cccccc; stroke-linejoin: miter"/>
    </g>
    <g id="text_18">
     <!-- max samples -->
     <g style="fill: #262626" transform="translate(68.641563 62.292125)scale(0.12 -0.12)">
      <use xlink:href="#DejaVuSans-6d"/>
      <use xlink:href="#DejaVuSans-61" x="97.412109"/>
      <use xlink:href="#DejaVuSans-78" x="158.691406"/>
      <use xlink:href="#DejaVuSans-20" x="217.871094"/>
      <use xlink:href="#DejaVuSans-73" x="249.658203"/>
      <use xlink:href="#DejaVuSans-61" x="301.757812"/>
      <use xlink:href="#DejaVuSans-6d" x="363.037109"/>
      <use xlink:href="#DejaVuSans-70" x="460.449219"/>
      <use xlink:href="#DejaVuSans-6c" x="523.925781"/>
      <use xlink:href="#DejaVuSans-65" x="551.708984"/>
      <use xlink:href="#DejaVuSans-73" x="613.232422"/>
     </g>
    </g>
    <g id="line2d_23">
     <path d="M 80.783672 74.796031 
L 91.783672 74.796031 
L 102.783672 74.796031 
" style="fill: none; stroke: #4c72b0; stroke-width: 1.5; stroke-linecap: round"/>
    </g>
    <g id="text_19">
     <!-- auto -->
     <g style="fill: #262626" transform="translate(111.583672 78.646031)scale(0.11 -0.11)">
      <use xlink:href="#DejaVuSans-61"/>
      <use xlink:href="#DejaVuSans-75" x="61.279297"/>
      <use xlink:href="#DejaVuSans-74" x="124.658203"/>
      <use xlink:href="#DejaVuSans-6f" x="163.867188"/>
     </g>
    </g>
    <g id="line2d_24">
     <path d="M 80.783672 90.941969 
L 91.783672 90.941969 
L 102.783672 90.941969 
" style="fill: none; stroke: #dd8452; stroke-width: 1.5; stroke-linecap: round"/>
    </g>
    <g id="text_20">
     <!-- 0.3 -->
     <g style="fill: #262626" transform="translate(111.583672 94.791969)scale(0.11 -0.11)">
      <defs>
       <path id="DejaVuSans-33" d="M 2597 2516 
Q 3050 2419 3304 2112 
Q 3559 1806 3559 1356 
Q 3559 666 3084 287 
Q 2609 -91 1734 -91 
Q 1441 -91 1130 -33 
Q 819 25 488 141 
L 488 750 
Q 750 597 1062 519 
Q 1375 441 1716 441 
Q 2309 441 2620 675 
Q 2931 909 2931 1356 
Q 2931 1769 2642 2001 
Q 2353 2234 1838 2234 
L 1294 2234 
L 1294 2753 
L 1863 2753 
Q 2328 2753 2575 2939 
Q 2822 3125 2822 3475 
Q 2822 3834 2567 4026 
Q 2313 4219 1838 4219 
Q 1578 4219 1281 4162 
Q 984 4106 628 3988 
L 628 4550 
Q 988 4650 1302 4700 
Q 1616 4750 1894 4750 
Q 2613 4750 3031 4423 
Q 3450 4097 3450 3541 
Q 3450 3153 3228 2886 
Q 3006 2619 2597 2516 
z
" transform="scale(0.015625)"/>
      </defs>
      <use xlink:href="#DejaVuSans-30"/>
      <use xlink:href="#DejaVuSans-2e" x="63.623047"/>
      <use xlink:href="#DejaVuSans-33" x="95.410156"/>
     </g>
    </g>
    <g id="line2d_25">
     <path d="M 80.783672 107.087906 
L 91.783672 107.087906 
L 102.783672 107.087906 
" style="fill: none; stroke: #55a868; stroke-width: 1.5; stroke-linecap: round"/>
    </g>
    <g id="text_21">
     <!-- 0.75 -->
     <g style="fill: #262626" transform="translate(111.583672 110.937906)scale(0.11 -0.11)">
      <use xlink:href="#DejaVuSans-30"/>
      <use xlink:href="#DejaVuSans-2e" x="63.623047"/>
      <use xlink:href="#DejaVuSans-37" x="95.410156"/>
      <use xlink:href="#DejaVuSans-35" x="159.033203"/>
     </g>
    </g>
    <g id="line2d_26">
     <path d="M 80.783672 123.233844 
L 91.783672 123.233844 
L 102.783672 123.233844 
" style="fill: none; stroke: #c44e52; stroke-width: 1.5; stroke-linecap: round"/>
    </g>
    <g id="text_22">
     <!-- 1.0 -->
     <g style="fill: #262626" transform="translate(111.583672 127.083844)scale(0.11 -0.11)">
      <use xlink:href="#DejaVuSans-31"/>
      <use xlink:href="#DejaVuSans-2e" x="63.623047"/>
      <use xlink:href="#DejaVuSans-30" x="95.410156"/>
     </g>
    </g>
   </g>
  </g>
 </g>
 <defs>
  <clipPath id="pd95ff32736">
   <rect x="58.741563" y="43.274" width="669.6" height="443.52"/>
  </clipPath>
 </defs>
</svg>
