<?xml version="1.0" encoding="utf-8" standalone="no"?>
<!DOCTYPE svg PUBLIC "-//W3C//DTD SVG 1.1//EN"
  "http://www.w3.org/Graphics/SVG/1.1/DTD/svg11.dtd">
<svg xmlns:xlink="http://www.w3.org/1999/xlink" width="732.045625pt" height="531.689312pt" viewBox="0 0 732.045625 531.689312" xmlns="http://www.w3.org/2000/svg" version="1.1">
 <metadata>
  <rdf:RDF xmlns:dc="http://purl.org/dc/elements/1.1/" xmlns:cc="http://creativecommons.org/ns#" xmlns:rdf="http://www.w3.org/1999/02/22-rdf-syntax-ns#">
   <cc:Work>
    <dc:type rdf:resource="http://purl.org/dc/dcmitype/StillImage"/>
    <dc:date>2022-12-16T22:24:39.488159</dc:date>
    <dc:format>image/svg+xml</dc:format>
    <dc:creator>
     <cc:Agent>
      <dc:title>Matplotlib v3.5.2, https://matplotlib.org/</dc:title>
     </cc:Agent>
    </dc:creator>
   </cc:Work>
  </rdf:RDF>
 </metadata>
 <defs>
  <style type="text/css">*{stroke-linejoin: round; stroke-linecap: butt}</style>
 </defs>
 <g id="figure_1">
  <g id="patch_1">
   <path d="M 0 531.689312 
L 732.045625 531.689312 
L 732.045625 0 
L 0 0 
z
" style="fill: #ffffff"/>
  </g>
  <g id="axes_1">
   <g id="patch_2">
    <path d="M 55.245625 486.794 
L 724.845625 486.794 
L 724.845625 43.274 
L 55.245625 43.274 
z
" style="fill: #eaeaf2"/>
   </g>
   <g id="matplotlib.axis_1">
    <g id="xtick_1">
     <g id="line2d_1">
      <path d="M 85.681989 486.794 
L 85.681989 43.274 
" clip-path="url(#p16af3145cf)" style="fill: none; stroke: #ffffff; stroke-linecap: round"/>
     </g>
     <g id="text_1">
      <!-- 0 -->
      <g style="fill: #262626" transform="translate(82.182614 504.652281)scale(0.11 -0.11)">
       <defs>
        <path id="DejaVuSans-30" d="M 2034 4250 
Q 1547 4250 1301 3770 
Q 1056 3291 1056 2328 
Q 1056 1369 1301 889 
Q 1547 409 2034 409 
Q 2525 409 2770 889 
Q 3016 1369 3016 2328 
Q 3016 3291 2770 3770 
Q 2525 4250 2034 4250 
z
M 2034 4750 
Q 2819 4750 3233 4129 
Q 3647 3509 3647 2328 
Q 3647 1150 3233 529 
Q 2819 -91 2034 -91 
Q 1250 -91 836 529 
Q 422 1150 422 2328 
Q 422 3509 836 4129 
Q 1250 4750 2034 4750 
z
" transform="scale(0.015625)"/>
       </defs>
       <use xlink:href="#DejaVuSans-30"/>
      </g>
     </g>
    </g>
    <g id="xtick_2">
     <g id="line2d_2">
      <path d="M 207.549311 486.794 
L 207.549311 43.274 
" clip-path="url(#p16af3145cf)" style="fill: none; stroke: #ffffff; stroke-linecap: round"/>
     </g>
     <g id="text_2">
      <!-- 200 -->
      <g style="fill: #262626" transform="translate(197.051186 504.652281)scale(0.11 -0.11)">
       <defs>
        <path id="DejaVuSans-32" d="M 1228 531 
L 3431 531 
L 3431 0 
L 469 0 
L 469 531 
Q 828 903 1448 1529 
Q 2069 2156 2228 2338 
Q 2531 2678 2651 2914 
Q 2772 3150 2772 3378 
Q 2772 3750 2511 3984 
Q 2250 4219 1831 4219 
Q 1534 4219 1204 4116 
Q 875 4013 500 3803 
L 500 4441 
Q 881 4594 1212 4672 
Q 1544 4750 1819 4750 
Q 2544 4750 2975 4387 
Q 3406 4025 3406 3419 
Q 3406 3131 3298 2873 
Q 3191 2616 2906 2266 
Q 2828 2175 2409 1742 
Q 1991 1309 1228 531 
z
" transform="scale(0.015625)"/>
       </defs>
       <use xlink:href="#DejaVuSans-32"/>
       <use xlink:href="#DejaVuSans-30" x="63.623047"/>
       <use xlink:href="#DejaVuSans-30" x="127.246094"/>
      </g>
     </g>
    </g>
    <g id="xtick_3">
     <g id="line2d_3">
      <path d="M 329.416632 486.794 
L 329.416632 43.274 
" clip-path="url(#p16af3145cf)" style="fill: none; stroke: #ffffff; stroke-linecap: round"/>
     </g>
     <g id="text_3">
      <!-- 400 -->
      <g style="fill: #262626" transform="translate(318.918507 504.652281)scale(0.11 -0.11)">
       <defs>
        <path id="DejaVuSans-34" d="M 2419 4116 
L 825 1625 
L 2419 1625 
L 2419 4116 
z
M 2253 4666 
L 3047 4666 
L 3047 1625 
L 3713 1625 
L 3713 1100 
L 3047 1100 
L 3047 0 
L 2419 0 
L 2419 1100 
L 313 1100 
L 313 1709 
L 2253 4666 
z
" transform="scale(0.015625)"/>
       </defs>
       <use xlink:href="#DejaVuSans-34"/>
       <use xlink:href="#DejaVuSans-30" x="63.623047"/>
       <use xlink:href="#DejaVuSans-30" x="127.246094"/>
      </g>
     </g>
    </g>
    <g id="xtick_4">
     <g id="line2d_4">
      <path d="M 451.283954 486.794 
L 451.283954 43.274 
" clip-path="url(#p16af3145cf)" style="fill: none; stroke: #ffffff; stroke-linecap: round"/>
     </g>
     <g id="text_4">
      <!-- 600 -->
      <g style="fill: #262626" transform="translate(440.785829 504.652281)scale(0.11 -0.11)">
       <defs>
        <path id="DejaVuSans-36" d="M 2113 2584 
Q 1688 2584 1439 2293 
Q 1191 2003 1191 1497 
Q 1191 994 1439 701 
Q 1688 409 2113 409 
Q 2538 409 2786 701 
Q 3034 994 3034 1497 
Q 3034 2003 2786 2293 
Q 2538 2584 2113 2584 
z
M 3366 4563 
L 3366 3988 
Q 3128 4100 2886 4159 
Q 2644 4219 2406 4219 
Q 1781 4219 1451 3797 
Q 1122 3375 1075 2522 
Q 1259 2794 1537 2939 
Q 1816 3084 2150 3084 
Q 2853 3084 3261 2657 
Q 3669 2231 3669 1497 
Q 3669 778 3244 343 
Q 2819 -91 2113 -91 
Q 1303 -91 875 529 
Q 447 1150 447 2328 
Q 447 3434 972 4092 
Q 1497 4750 2381 4750 
Q 2619 4750 2861 4703 
Q 3103 4656 3366 4563 
z
" transform="scale(0.015625)"/>
       </defs>
       <use xlink:href="#DejaVuSans-36"/>
       <use xlink:href="#DejaVuSans-30" x="63.623047"/>
       <use xlink:href="#DejaVuSans-30" x="127.246094"/>
      </g>
     </g>
    </g>
    <g id="xtick_5">
     <g id="line2d_5">
      <path d="M 573.151276 486.794 
L 573.151276 43.274 
" clip-path="url(#p16af3145cf)" style="fill: none; stroke: #ffffff; stroke-linecap: round"/>
     </g>
     <g id="text_5">
      <!-- 800 -->
      <g style="fill: #262626" transform="translate(562.653151 504.652281)scale(0.11 -0.11)">
       <defs>
        <path id="DejaVuSans-38" d="M 2034 2216 
Q 1584 2216 1326 1975 
Q 1069 1734 1069 1313 
Q 1069 891 1326 650 
Q 1584 409 2034 409 
Q 2484 409 2743 651 
Q 3003 894 3003 1313 
Q 3003 1734 2745 1975 
Q 2488 2216 2034 2216 
z
M 1403 2484 
Q 997 2584 770 2862 
Q 544 3141 544 3541 
Q 544 4100 942 4425 
Q 1341 4750 2034 4750 
Q 2731 4750 3128 4425 
Q 3525 4100 3525 3541 
Q 3525 3141 3298 2862 
Q 3072 2584 2669 2484 
Q 3125 2378 3379 2068 
Q 3634 1759 3634 1313 
Q 3634 634 3220 271 
Q 2806 -91 2034 -91 
Q 1263 -91 848 271 
Q 434 634 434 1313 
Q 434 1759 690 2068 
Q 947 2378 1403 2484 
z
M 1172 3481 
Q 1172 3119 1398 2916 
Q 1625 2713 2034 2713 
Q 2441 2713 2670 2916 
Q 2900 3119 2900 3481 
Q 2900 3844 2670 4047 
Q 2441 4250 2034 4250 
Q 1625 4250 1398 4047 
Q 1172 3844 1172 3481 
z
" transform="scale(0.015625)"/>
       </defs>
       <use xlink:href="#DejaVuSans-38"/>
       <use xlink:href="#DejaVuSans-30" x="63.623047"/>
       <use xlink:href="#DejaVuSans-30" x="127.246094"/>
      </g>
     </g>
    </g>
    <g id="xtick_6">
     <g id="line2d_6">
      <path d="M 695.018598 486.794 
L 695.018598 43.274 
" clip-path="url(#p16af3145cf)" style="fill: none; stroke: #ffffff; stroke-linecap: round"/>
     </g>
     <g id="text_6">
      <!-- 1000 -->
      <g style="fill: #262626" transform="translate(681.021098 504.652281)scale(0.11 -0.11)">
       <defs>
        <path id="DejaVuSans-31" d="M 794 531 
L 1825 531 
L 1825 4091 
L 703 3866 
L 703 4441 
L 1819 4666 
L 2450 4666 
L 2450 531 
L 3481 531 
L 3481 0 
L 794 0 
L 794 531 
z
" transform="scale(0.015625)"/>
       </defs>
       <use xlink:href="#DejaVuSans-31"/>
       <use xlink:href="#DejaVuSans-30" x="63.623047"/>
       <use xlink:href="#DejaVuSans-30" x="127.246094"/>
       <use xlink:href="#DejaVuSans-30" x="190.869141"/>
      </g>
     </g>
    </g>
    <g id="text_7">
     <!-- Trees built -->
     <g style="fill: #262626" transform="translate(354.083125 521.57775)scale(0.14 -0.14)">
      <defs>
       <path id="DejaVuSans-54" d="M -19 4666 
L 3928 4666 
L 3928 4134 
L 2272 4134 
L 2272 0 
L 1638 0 
L 1638 4134 
L -19 4134 
L -19 4666 
z
" transform="scale(0.015625)"/>
       <path id="DejaVuSans-72" d="M 2631 2963 
Q 2534 3019 2420 3045 
Q 2306 3072 2169 3072 
Q 1681 3072 1420 2755 
Q 1159 2438 1159 1844 
L 1159 0 
L 581 0 
L 581 3500 
L 1159 3500 
L 1159 2956 
Q 1341 3275 1631 3429 
Q 1922 3584 2338 3584 
Q 2397 3584 2469 3576 
Q 2541 3569 2628 3553 
L 2631 2963 
z
" transform="scale(0.015625)"/>
       <path id="DejaVuSans-65" d="M 3597 1894 
L 3597 1613 
L 953 1613 
Q 991 1019 1311 708 
Q 1631 397 2203 397 
Q 2534 397 2845 478 
Q 3156 559 3463 722 
L 3463 178 
Q 3153 47 2828 -22 
Q 2503 -91 2169 -91 
Q 1331 -91 842 396 
Q 353 884 353 1716 
Q 353 2575 817 3079 
Q 1281 3584 2069 3584 
Q 2775 3584 3186 3129 
Q 3597 2675 3597 1894 
z
M 3022 2063 
Q 3016 2534 2758 2815 
Q 2500 3097 2075 3097 
Q 1594 3097 1305 2825 
Q 1016 2553 972 2059 
L 3022 2063 
z
" transform="scale(0.015625)"/>
       <path id="DejaVuSans-73" d="M 2834 3397 
L 2834 2853 
Q 2591 2978 2328 3040 
Q 2066 3103 1784 3103 
Q 1356 3103 1142 2972 
Q 928 2841 928 2578 
Q 928 2378 1081 2264 
Q 1234 2150 1697 2047 
L 1894 2003 
Q 2506 1872 2764 1633 
Q 3022 1394 3022 966 
Q 3022 478 2636 193 
Q 2250 -91 1575 -91 
Q 1294 -91 989 -36 
Q 684 19 347 128 
L 347 722 
Q 666 556 975 473 
Q 1284 391 1588 391 
Q 1994 391 2212 530 
Q 2431 669 2431 922 
Q 2431 1156 2273 1281 
Q 2116 1406 1581 1522 
L 1381 1569 
Q 847 1681 609 1914 
Q 372 2147 372 2553 
Q 372 3047 722 3315 
Q 1072 3584 1716 3584 
Q 2034 3584 2315 3537 
Q 2597 3491 2834 3397 
z
" transform="scale(0.015625)"/>
       <path id="DejaVuSans-20" transform="scale(0.015625)"/>
       <path id="DejaVuSans-62" d="M 3116 1747 
Q 3116 2381 2855 2742 
Q 2594 3103 2138 3103 
Q 1681 3103 1420 2742 
Q 1159 2381 1159 1747 
Q 1159 1113 1420 752 
Q 1681 391 2138 391 
Q 2594 391 2855 752 
Q 3116 1113 3116 1747 
z
M 1159 2969 
Q 1341 3281 1617 3432 
Q 1894 3584 2278 3584 
Q 2916 3584 3314 3078 
Q 3713 2572 3713 1747 
Q 3713 922 3314 415 
Q 2916 -91 2278 -91 
Q 1894 -91 1617 61 
Q 1341 213 1159 525 
L 1159 0 
L 581 0 
L 581 4863 
L 1159 4863 
L 1159 2969 
z
" transform="scale(0.015625)"/>
       <path id="DejaVuSans-75" d="M 544 1381 
L 544 3500 
L 1119 3500 
L 1119 1403 
Q 1119 906 1312 657 
Q 1506 409 1894 409 
Q 2359 409 2629 706 
Q 2900 1003 2900 1516 
L 2900 3500 
L 3475 3500 
L 3475 0 
L 2900 0 
L 2900 538 
Q 2691 219 2414 64 
Q 2138 -91 1772 -91 
Q 1169 -91 856 284 
Q 544 659 544 1381 
z
M 1991 3584 
L 1991 3584 
z
" transform="scale(0.015625)"/>
       <path id="DejaVuSans-69" d="M 603 3500 
L 1178 3500 
L 1178 0 
L 603 0 
L 603 3500 
z
M 603 4863 
L 1178 4863 
L 1178 4134 
L 603 4134 
L 603 4863 
z
" transform="scale(0.015625)"/>
       <path id="DejaVuSans-6c" d="M 603 4863 
L 1178 4863 
L 1178 0 
L 603 0 
L 603 4863 
z
" transform="scale(0.015625)"/>
       <path id="DejaVuSans-74" d="M 1172 4494 
L 1172 3500 
L 2356 3500 
L 2356 3053 
L 1172 3053 
L 1172 1153 
Q 1172 725 1289 603 
Q 1406 481 1766 481 
L 2356 481 
L 2356 0 
L 1766 0 
Q 1100 0 847 248 
Q 594 497 594 1153 
L 594 3053 
L 172 3053 
L 172 3500 
L 594 3500 
L 594 4494 
L 1172 4494 
z
" transform="scale(0.015625)"/>
      </defs>
      <use xlink:href="#DejaVuSans-54"/>
      <use xlink:href="#DejaVuSans-72" x="46.333984"/>
      <use xlink:href="#DejaVuSans-65" x="85.197266"/>
      <use xlink:href="#DejaVuSans-65" x="146.720703"/>
      <use xlink:href="#DejaVuSans-73" x="208.244141"/>
      <use xlink:href="#DejaVuSans-20" x="260.34375"/>
      <use xlink:href="#DejaVuSans-62" x="292.130859"/>
      <use xlink:href="#DejaVuSans-75" x="355.607422"/>
      <use xlink:href="#DejaVuSans-69" x="418.986328"/>
      <use xlink:href="#DejaVuSans-6c" x="446.769531"/>
      <use xlink:href="#DejaVuSans-74" x="474.552734"/>
     </g>
    </g>
   </g>
   <g id="matplotlib.axis_2">
    <g id="ytick_1">
     <g id="line2d_7">
      <path d="M 55.245625 466.673747 
L 724.845625 466.673747 
" clip-path="url(#p16af3145cf)" style="fill: none; stroke: #ffffff; stroke-linecap: round"/>
     </g>
     <g id="text_8">
      <!-- 0 -->
      <g style="fill: #262626" transform="translate(38.746875 470.852888)scale(0.11 -0.11)">
       <use xlink:href="#DejaVuSans-30"/>
      </g>
     </g>
    </g>
    <g id="ytick_2">
     <g id="line2d_8">
      <path d="M 55.245625 369.718924 
L 724.845625 369.718924 
" clip-path="url(#p16af3145cf)" style="fill: none; stroke: #ffffff; stroke-linecap: round"/>
     </g>
     <g id="text_9">
      <!-- 50 -->
      <g style="fill: #262626" transform="translate(31.748125 373.898064)scale(0.11 -0.11)">
       <defs>
        <path id="DejaVuSans-35" d="M 691 4666 
L 3169 4666 
L 3169 4134 
L 1269 4134 
L 1269 2991 
Q 1406 3038 1543 3061 
Q 1681 3084 1819 3084 
Q 2600 3084 3056 2656 
Q 3513 2228 3513 1497 
Q 3513 744 3044 326 
Q 2575 -91 1722 -91 
Q 1428 -91 1123 -41 
Q 819 9 494 109 
L 494 744 
Q 775 591 1075 516 
Q 1375 441 1709 441 
Q 2250 441 2565 725 
Q 2881 1009 2881 1497 
Q 2881 1984 2565 2268 
Q 2250 2553 1709 2553 
Q 1456 2553 1204 2497 
Q 953 2441 691 2322 
L 691 4666 
z
" transform="scale(0.015625)"/>
       </defs>
       <use xlink:href="#DejaVuSans-35"/>
       <use xlink:href="#DejaVuSans-30" x="63.623047"/>
      </g>
     </g>
    </g>
    <g id="ytick_3">
     <g id="line2d_9">
      <path d="M 55.245625 272.7641 
L 724.845625 272.7641 
" clip-path="url(#p16af3145cf)" style="fill: none; stroke: #ffffff; stroke-linecap: round"/>
     </g>
     <g id="text_10">
      <!-- 100 -->
      <g style="fill: #262626" transform="translate(24.749375 276.943241)scale(0.11 -0.11)">
       <use xlink:href="#DejaVuSans-31"/>
       <use xlink:href="#DejaVuSans-30" x="63.623047"/>
       <use xlink:href="#DejaVuSans-30" x="127.246094"/>
      </g>
     </g>
    </g>
    <g id="ytick_4">
     <g id="line2d_10">
      <path d="M 55.245625 175.809277 
L 724.845625 175.809277 
" clip-path="url(#p16af3145cf)" style="fill: none; stroke: #ffffff; stroke-linecap: round"/>
     </g>
     <g id="text_11">
      <!-- 150 -->
      <g style="fill: #262626" transform="translate(24.749375 179.988418)scale(0.11 -0.11)">
       <use xlink:href="#DejaVuSans-31"/>
       <use xlink:href="#DejaVuSans-35" x="63.623047"/>
       <use xlink:href="#DejaVuSans-30" x="127.246094"/>
      </g>
     </g>
    </g>
    <g id="ytick_5">
     <g id="line2d_11">
      <path d="M 55.245625 78.854454 
L 724.845625 78.854454 
" clip-path="url(#p16af3145cf)" style="fill: none; stroke: #ffffff; stroke-linecap: round"/>
     </g>
     <g id="text_12">
      <!-- 200 -->
      <g style="fill: #262626" transform="translate(24.749375 83.033594)scale(0.11 -0.11)">
       <use xlink:href="#DejaVuSans-32"/>
       <use xlink:href="#DejaVuSans-30" x="63.623047"/>
       <use xlink:href="#DejaVuSans-30" x="127.246094"/>
      </g>
     </g>
    </g>
    <g id="text_13">
     <!-- Time spent, s -->
     <g style="fill: #262626" transform="translate(17.837813 312.059781)rotate(-90)scale(0.14 -0.14)">
      <defs>
       <path id="DejaVuSans-6d" d="M 3328 2828 
Q 3544 3216 3844 3400 
Q 4144 3584 4550 3584 
Q 5097 3584 5394 3201 
Q 5691 2819 5691 2113 
L 5691 0 
L 5113 0 
L 5113 2094 
Q 5113 2597 4934 2840 
Q 4756 3084 4391 3084 
Q 3944 3084 3684 2787 
Q 3425 2491 3425 1978 
L 3425 0 
L 2847 0 
L 2847 2094 
Q 2847 2600 2669 2842 
Q 2491 3084 2119 3084 
Q 1678 3084 1418 2786 
Q 1159 2488 1159 1978 
L 1159 0 
L 581 0 
L 581 3500 
L 1159 3500 
L 1159 2956 
Q 1356 3278 1631 3431 
Q 1906 3584 2284 3584 
Q 2666 3584 2933 3390 
Q 3200 3197 3328 2828 
z
" transform="scale(0.015625)"/>
       <path id="DejaVuSans-70" d="M 1159 525 
L 1159 -1331 
L 581 -1331 
L 581 3500 
L 1159 3500 
L 1159 2969 
Q 1341 3281 1617 3432 
Q 1894 3584 2278 3584 
Q 2916 3584 3314 3078 
Q 3713 2572 3713 1747 
Q 3713 922 3314 415 
Q 2916 -91 2278 -91 
Q 1894 -91 1617 61 
Q 1341 213 1159 525 
z
M 3116 1747 
Q 3116 2381 2855 2742 
Q 2594 3103 2138 3103 
Q 1681 3103 1420 2742 
Q 1159 2381 1159 1747 
Q 1159 1113 1420 752 
Q 1681 391 2138 391 
Q 2594 391 2855 752 
Q 3116 1113 3116 1747 
z
" transform="scale(0.015625)"/>
       <path id="DejaVuSans-6e" d="M 3513 2113 
L 3513 0 
L 2938 0 
L 2938 2094 
Q 2938 2591 2744 2837 
Q 2550 3084 2163 3084 
Q 1697 3084 1428 2787 
Q 1159 2491 1159 1978 
L 1159 0 
L 581 0 
L 581 3500 
L 1159 3500 
L 1159 2956 
Q 1366 3272 1645 3428 
Q 1925 3584 2291 3584 
Q 2894 3584 3203 3211 
Q 3513 2838 3513 2113 
z
" transform="scale(0.015625)"/>
       <path id="DejaVuSans-2c" d="M 750 794 
L 1409 794 
L 1409 256 
L 897 -744 
L 494 -744 
L 750 256 
L 750 794 
z
" transform="scale(0.015625)"/>
      </defs>
      <use xlink:href="#DejaVuSans-54"/>
      <use xlink:href="#DejaVuSans-69" x="57.958984"/>
      <use xlink:href="#DejaVuSans-6d" x="85.742188"/>
      <use xlink:href="#DejaVuSans-65" x="183.154297"/>
      <use xlink:href="#DejaVuSans-20" x="244.677734"/>
      <use xlink:href="#DejaVuSans-73" x="276.464844"/>
      <use xlink:href="#DejaVuSans-70" x="328.564453"/>
      <use xlink:href="#DejaVuSans-65" x="392.041016"/>
      <use xlink:href="#DejaVuSans-6e" x="453.564453"/>
      <use xlink:href="#DejaVuSans-74" x="516.943359"/>
      <use xlink:href="#DejaVuSans-2c" x="556.152344"/>
      <use xlink:href="#DejaVuSans-20" x="587.939453"/>
      <use xlink:href="#DejaVuSans-73" x="619.726562"/>
     </g>
    </g>
   </g>
   <g id="line2d_12">
    <path d="M 85.681989 466.558783 
L 88.728672 465.849185 
L 91.775355 465.019268 
L 92.994028 464.622901 
L 95.431374 464.055414 
L 97.868721 463.415833 
L 98.478057 463.203953 
L 99.696731 462.989961 
L 100.915404 462.625551 
L 105.18076 461.643378 
L 105.790097 461.402322 
L 112.492799 459.975385 
L 113.711473 459.673565 
L 116.758156 459.053966 
L 121.632849 457.885904 
L 123.460858 457.520473 
L 125.898205 456.871228 
L 126.507541 456.768366 
L 127.116878 456.509013 
L 135.647591 454.72002 
L 136.256927 454.650006 
L 139.30361 453.792228 
L 148.443659 451.561701 
L 150.881006 450.951219 
L 155.146362 450.125684 
L 161.849065 448.674326 
L 164.895748 448.025841 
L 174.645134 445.694448 
L 180.7385 444.602037 
L 181.347836 444.557362 
L 184.394519 443.807716 
L 186.222529 443.339836 
L 192.315895 441.776246 
L 194.753242 441.264741 
L 199.018598 440.301035 
L 200.846608 439.864707 
L 201.455944 439.743005 
L 202.065281 439.479667 
L 203.283954 439.178526 
L 204.502627 438.764044 
L 206.330637 438.230432 
L 207.549311 437.889828 
L 209.37732 437.342342 
L 216.080023 435.863628 
L 217.298696 435.621168 
L 239.844151 430.181104 
L 241.672161 429.798006 
L 253.249556 427.116439 
L 255.077566 426.742345 
L 256.905576 426.227209 
L 258.733586 425.560195 
L 265.436288 423.132521 
L 267.264298 422.631932 
L 267.873635 422.23986 
L 269.092308 421.93983 
L 270.310981 421.732215 
L 272.138991 421.223617 
L 276.404347 420.22428 
L 278.232357 419.753933 
L 282.497713 418.885064 
L 284.325723 418.390785 
L 289.200416 417.245898 
L 290.419089 416.926379 
L 291.637763 416.742505 
L 295.903119 415.656113 
L 303.215158 414.04529 
L 303.824495 413.796089 
L 305.652505 413.376241 
L 308.089851 412.838275 
L 309.308524 412.551382 
L 312.964544 411.613741 
L 315.40189 410.937499 
L 320.276583 409.832758 
L 323.932603 408.95245 
L 326.369949 408.434495 
L 327.588623 408.020794 
L 342.212701 404.307423 
L 345.259384 403.720715 
L 353.790097 401.60238 
L 355.618107 401.073674 
L 357.446116 400.690575 
L 358.055453 400.614533 
L 359.883463 400.139129 
L 364.758156 399.108368 
L 369.632849 397.839516 
L 371.460858 397.498576 
L 375.116878 396.483665 
L 376.944888 396.03358 
L 378.163561 395.872145 
L 385.4756 393.951077 
L 386.694274 393.765413 
L 389.13162 393.172392 
L 390.350293 392.914966 
L 391.568967 392.633495 
L 392.78764 392.259148 
L 395.834323 391.476988 
L 402.537025 389.926896 
L 403.146362 389.753712 
L 404.365035 389.599651 
L 406.802382 388.991571 
L 411.067738 388.006766 
L 412.286411 387.700605 
L 421.42646 385.770178 
L 423.863807 385.167476 
L 426.301153 384.579954 
L 428.7385 384.007634 
L 432.394519 383.435299 
L 433.003856 383.211149 
L 434.831866 382.868018 
L 437.269212 382.381549 
L 443.362578 380.931512 
L 446.409261 380.23741 
L 461.03334 377.046221 
L 464.080023 376.398266 
L 465.908033 376.043749 
L 482.360121 372.377535 
L 483.578795 372.042365 
L 484.797468 371.790679 
L 486.016141 371.618673 
L 487.844151 371.270036 
L 489.672161 370.802948 
L 492.718844 370.239134 
L 493.937517 369.915074 
L 495.15619 369.634286 
L 496.9842 369.174435 
L 510.998942 366.099152 
L 514.045625 365.318528 
L 523.185674 363.371844 
L 526.841694 362.552921 
L 530.497713 361.914463 
L 546.949802 358.150515 
L 548.168475 357.883085 
L 550.605822 357.360057 
L 554.871178 356.346384 
L 556.089851 356.074391 
L 557.308524 355.688735 
L 557.917861 355.469958 
L 558.527197 355.391583 
L 559.136534 355.169607 
L 560.355207 354.933278 
L 563.40189 354.143148 
L 565.2299 353.567062 
L 566.448573 353.209797 
L 568.276583 352.800365 
L 570.104593 352.284296 
L 574.369949 351.274153 
L 579.244642 349.989014 
L 582.900662 349.033772 
L 584.728672 348.610727 
L 587.166018 348.032147 
L 588.994028 347.499817 
L 589.603365 347.415617 
L 591.431374 346.872036 
L 595.087394 346.087007 
L 595.696731 345.950172 
L 596.306067 345.678264 
L 600.571424 344.766938 
L 603.618107 343.981821 
L 605.446116 343.405115 
L 607.274126 343.046996 
L 617.632849 340.609565 
L 620.679532 339.73617 
L 621.288868 339.699069 
L 630.428917 337.092637 
L 632.866264 336.468096 
L 634.694274 335.996374 
L 635.30361 335.895897 
L 636.522283 335.525399 
L 638.95963 334.949556 
L 643.224986 333.958503 
L 644.443659 333.620721 
L 646.881006 332.97839 
L 661.505084 329.142724 
L 662.723758 328.686106 
L 664.551768 328.216613 
L 671.25447 326.019214 
L 673.08248 325.32487 
L 674.91049 324.814063 
L 677.957173 323.941822 
L 679.175846 323.377871 
L 679.785183 323.253422 
L 681.003856 322.668868 
L 682.222529 322.339501 
L 684.050539 321.786427 
L 685.878549 321.307197 
L 686.487885 321.163178 
L 687.706559 320.709373 
L 689.534568 320.22903 
L 690.753242 319.801984 
L 693.190588 319.255583 
L 694.409261 318.979812 
L 694.409261 318.979812 
" clip-path="url(#p16af3145cf)" style="fill: none; stroke: #4c72b0; stroke-width: 1.5; stroke-linecap: round"/>
   </g>
   <g id="line2d_13">
    <path d="M 85.681989 466.634 
L 90.556682 466.26216 
L 92.994028 466.074515 
L 111.883463 465.022342 
L 113.102136 464.899555 
L 115.539482 464.743186 
L 128.335551 463.915277 
L 134.428917 463.64412 
L 137.4756 463.406103 
L 144.178303 463.070408 
L 149.662333 462.758084 
L 153.318352 462.56183 
L 167.333094 461.779403 
L 169.770441 461.647406 
L 172.207787 461.509332 
L 177.691817 461.262508 
L 183.175846 460.982064 
L 185.613193 460.792954 
L 192.925232 460.458855 
L 194.753242 460.348199 
L 197.190588 460.185912 
L 199.627935 459.971268 
L 202.674618 459.776418 
L 218.517369 458.903413 
L 220.954716 458.777523 
L 223.392062 458.567378 
L 231.922775 458.168946 
L 236.797468 457.929655 
L 245.32818 457.552262 
L 246.546854 457.456487 
L 250.202873 457.227247 
L 252.64022 457.039202 
L 262.998942 456.548783 
L 265.436288 456.358353 
L 270.920318 456.077363 
L 272.748328 455.987508 
L 279.45103 455.777685 
L 282.497713 455.471829 
L 286.153733 455.31529 
L 298.949802 454.601912 
L 304.433831 454.346022 
L 307.480514 454.206444 
L 309.308524 454.091336 
L 311.136534 453.98585 
L 331.853979 452.938471 
L 334.900662 452.771149 
L 339.166018 452.503384 
L 342.212701 452.227607 
L 353.18076 451.575069 
L 355.00877 451.415408 
L 358.055453 451.298137 
L 360.492799 451.161294 
L 387.912947 449.738377 
L 390.350293 449.621782 
L 408.021055 448.492541 
L 413.505084 448.233662 
L 448.846608 446.322384 
L 450.674618 446.151537 
L 452.502627 446.017146 
L 456.158647 445.775739 
L 464.68936 445.105795 
L 466.517369 444.976161 
L 472.001399 444.631342 
L 476.266755 444.403782 
L 478.094765 444.304757 
L 482.969458 444.083838 
L 488.453487 443.819069 
L 489.672161 443.704999 
L 509.170932 442.62409 
L 510.389605 442.499724 
L 515.264298 442.184775 
L 517.701645 442.016828 
L 521.967001 441.818851 
L 523.795011 441.676752 
L 532.325723 441.174301 
L 534.153733 441.013881 
L 539.028426 440.822149 
L 541.465772 440.682282 
L 546.340465 440.454714 
L 547.559139 440.364863 
L 551.824495 440.129208 
L 553.652505 440.011213 
L 587.166018 438.148744 
L 589.603365 437.945947 
L 608.492799 436.875897 
L 614.586166 436.612004 
L 624.335551 436.019216 
L 627.382234 435.92957 
L 629.819581 435.690054 
L 632.256927 435.58278 
L 634.084937 435.463727 
L 660.286411 433.941237 
L 661.505084 433.844666 
L 663.942431 433.621238 
L 690.753242 432.332948 
L 692.581252 432.212768 
L 694.409261 432.048912 
L 694.409261 432.048912 
" clip-path="url(#p16af3145cf)" style="fill: none; stroke: #dd8452; stroke-width: 1.5; stroke-linecap: round"/>
   </g>
   <g id="line2d_14">
    <path d="M 85.681989 466.425054 
L 87.509998 465.537081 
L 91.775355 463.016491 
L 92.384691 462.565607 
L 95.431374 461.149747 
L 106.399433 455.740792 
L 108.83678 454.668832 
L 121.023512 448.727486 
L 122.851522 447.855624 
L 125.288868 446.757547 
L 128.335551 445.319475 
L 130.163561 444.288207 
L 133.210244 442.744021 
L 134.428917 442.137852 
L 152.099679 433.183093 
L 153.927689 432.24582 
L 156.974372 430.755957 
L 160.021055 429.133145 
L 166.723758 425.858704 
L 169.161104 424.657556 
L 180.129163 419.141089 
L 183.785183 417.293962 
L 187.441202 415.535965 
L 189.269212 414.632629 
L 191.706559 413.448899 
L 194.143905 412.285021 
L 201.455944 408.676376 
L 203.283954 407.838581 
L 211.20533 403.73744 
L 218.517369 400.375077 
L 219.736043 399.792937 
L 220.954716 399.076818 
L 224.001399 397.451934 
L 226.438745 396.26127 
L 227.657419 395.556646 
L 238.625478 390.364941 
L 241.062824 389.102496 
L 242.281497 388.555806 
L 245.937517 386.700745 
L 248.9842 385.291624 
L 249.593537 384.852258 
L 250.202873 384.584811 
L 250.81221 384.14884 
L 252.64022 383.269853 
L 254.468229 382.294948 
L 256.905576 380.818308 
L 259.952259 379.044724 
L 262.389605 377.838141 
L 262.998942 377.268221 
L 265.436288 375.994096 
L 266.654962 375.326036 
L 268.482971 374.427645 
L 273.357664 371.766662 
L 276.404347 370.233039 
L 277.623021 369.663971 
L 278.232357 369.181781 
L 280.060367 368.081532 
L 281.27904 367.271385 
L 287.981743 363.706116 
L 289.809753 362.658828 
L 290.419089 362.404291 
L 291.637763 361.690445 
L 293.465772 360.806111 
L 303.824495 354.972029 
L 305.043168 354.373286 
L 306.261841 353.756184 
L 308.699188 352.201568 
L 309.917861 351.58124 
L 311.745871 350.430924 
L 313.573881 349.537227 
L 320.276583 345.960497 
L 321.495256 345.127547 
L 324.541939 343.619725 
L 326.979286 342.215475 
L 328.197959 341.429009 
L 332.463315 339.050626 
L 334.291325 337.955741 
L 335.509998 337.025796 
L 341.603365 333.911879 
L 344.650048 332.137936 
L 347.087394 330.789424 
L 355.00877 326.5489 
L 356.227443 325.897465 
L 359.274126 324.459233 
L 366.586166 321.002527 
L 368.414175 320.154361 
L 369.632849 319.632039 
L 372.679532 318.076364 
L 374.507541 317.091879 
L 378.772898 315.01716 
L 380.600908 314.119756 
L 382.428917 313.089504 
L 384.256927 312.244272 
L 392.78764 307.975173 
L 394.61565 307.074283 
L 398.881006 304.828022 
L 404.974372 301.663269 
L 406.802382 300.869348 
L 420.207787 294.106954 
L 425.08248 291.666659 
L 428.7385 289.861197 
L 444.581252 282.010444 
L 448.846608 279.76673 
L 462.252013 273.163418 
L 464.080023 272.276071 
L 467.126706 270.66902 
L 468.345379 270.13348 
L 470.782726 268.878819 
L 478.094765 265.347174 
L 479.313438 264.671059 
L 482.360121 263.193629 
L 484.797468 261.905827 
L 487.234814 260.586655 
L 489.062824 259.592227 
L 491.50017 258.446278 
L 494.546854 256.970053 
L 496.9842 255.669151 
L 498.81221 254.798953 
L 500.64022 253.919886 
L 504.905576 251.828726 
L 508.561596 250.109323 
L 512.217615 248.207303 
L 550.605822 229.202446 
L 553.043168 227.999446 
L 554.261841 227.300584 
L 558.527197 225.161109 
L 560.964544 223.915283 
L 562.183217 223.254367 
L 569.495256 219.67722 
L 583.509998 212.832358 
L 584.119335 212.326792 
L 588.384691 210.134897 
L 591.431374 208.532143 
L 592.650048 207.924975 
L 593.259384 207.46672 
L 594.478057 206.928557 
L 595.696731 206.192379 
L 596.915404 205.591799 
L 598.743414 204.698953 
L 599.962087 203.972284 
L 603.618107 201.886432 
L 604.227443 201.45938 
L 607.883463 199.621301 
L 609.102136 198.871675 
L 610.320809 198.183056 
L 612.148819 197.249582 
L 613.367492 196.527721 
L 618.851522 193.540117 
L 620.070195 192.992204 
L 621.288868 192.194007 
L 622.507541 191.618635 
L 623.726215 190.968212 
L 625.554225 189.976175 
L 626.772898 189.21818 
L 627.382234 188.950325 
L 628.600908 187.98254 
L 630.428917 186.967659 
L 634.694274 184.589778 
L 636.522283 183.591237 
L 637.13162 183.361041 
L 639.568967 181.946549 
L 641.396976 180.988983 
L 645.052996 179.10017 
L 645.662333 178.8862 
L 646.271669 178.433629 
L 648.099679 177.516268 
L 649.318352 176.839695 
L 652.974372 174.987904 
L 654.193045 174.305614 
L 655.411718 173.72858 
L 656.630392 172.966302 
L 659.677075 171.504313 
L 660.895748 170.572292 
L 663.333094 169.415933 
L 665.161104 168.527536 
L 667.598451 167.099965 
L 670.035797 165.806827 
L 671.863807 164.82093 
L 672.473143 164.178206 
L 673.691817 163.581015 
L 683.441202 158.111652 
L 685.878549 156.376031 
L 688.925232 154.71857 
L 690.143905 154.197677 
L 690.753242 153.769825 
L 691.362578 153.500725 
L 692.581252 152.785051 
L 694.409261 151.926247 
L 694.409261 151.926247 
" clip-path="url(#p16af3145cf)" style="fill: none; stroke: #55a868; stroke-width: 1.5; stroke-linecap: round"/>
   </g>
   <g id="line2d_15">
    <path d="M 85.681989 466.302085 
L 88.119335 464.723777 
L 91.166018 462.370612 
L 92.994028 461.015402 
L 97.259384 458.286099 
L 114.320809 447.419594 
L 122.851522 442.065478 
L 128.944888 438.162073 
L 144.78764 427.96321 
L 150.271669 424.491089 
L 208.767984 387.137918 
L 214.86135 383.269044 
L 222.173389 378.585629 
L 224.610736 377.036699 
L 225.829409 376.151089 
L 227.048082 375.258638 
L 231.922775 372.100849 
L 233.141448 371.135314 
L 233.750785 370.711655 
L 234.360121 370.101042 
L 234.969458 369.709217 
L 236.188131 368.713948 
L 244.109507 363.477855 
L 244.718844 362.912573 
L 245.937517 362.110931 
L 246.546854 361.472428 
L 251.421546 358.307153 
L 253.858893 356.516751 
L 255.077566 355.712624 
L 255.686903 355.137381 
L 257.514912 353.899912 
L 259.952259 352.14767 
L 266.654962 347.42807 
L 267.873635 346.645034 
L 269.701645 345.043995 
L 279.45103 338.248862 
L 280.669704 337.379269 
L 283.716387 335.339777 
L 284.93506 334.434729 
L 285.544396 334.050505 
L 286.76307 333.13706 
L 289.200416 331.483392 
L 290.419089 330.575273 
L 291.028426 329.834105 
L 297.731129 325.45243 
L 298.949802 324.496118 
L 300.777812 323.300109 
L 301.387148 322.743511 
L 305.043168 320.314923 
L 342.822038 296.265072 
L 344.040711 295.39331 
L 358.055453 286.455061 
L 366.586166 280.90769 
L 370.242185 278.6274 
L 376.944888 274.134759 
L 392.78764 264.100804 
L 407.411718 254.732592 
L 413.505084 250.773656 
L 428.129163 241.380829 
L 484.188131 205.280767 
L 489.672161 201.507017 
L 490.281497 200.88286 
L 490.890834 200.472429 
L 492.718844 198.955972 
L 493.937517 198.016134 
L 496.9842 195.94108 
L 498.202873 195.056964 
L 500.030883 193.854538 
L 504.905576 190.632957 
L 506.733586 189.271997 
L 510.389605 186.774177 
L 512.217615 185.269174 
L 515.264298 183.254449 
L 521.357664 178.936226 
L 521.967001 178.282009 
L 526.232357 175.385303 
L 527.45103 174.498246 
L 532.325723 171.185813 
L 535.981743 168.451395 
L 538.419089 166.746913 
L 540.247099 165.531327 
L 542.684446 163.842996 
L 543.903119 163.031667 
L 544.512455 162.349883 
L 546.949802 160.658456 
L 549.387148 159.02759 
L 559.136534 151.939511 
L 563.40189 149.020694 
L 578.635306 139.232286 
L 582.291325 136.847984 
L 619.460858 112.68374 
L 620.070195 112.139424 
L 622.507541 110.514762 
L 625.554225 108.525463 
L 627.991571 106.912957 
L 629.210244 105.906613 
L 637.13162 100.788673 
L 643.224986 96.877738 
L 646.881006 94.466215 
L 660.286411 85.731634 
L 667.598451 80.933089 
L 670.035797 79.27236 
L 673.08248 77.273978 
L 674.91049 76.021014 
L 693.190588 64.106408 
L 694.409261 63.434 
L 694.409261 63.434 
" clip-path="url(#p16af3145cf)" style="fill: none; stroke: #c44e52; stroke-width: 1.5; stroke-linecap: round"/>
   </g>
   <g id="line2d_16"/>
   <g id="line2d_17"/>
   <g id="line2d_18"/>
   <g id="line2d_19"/>
   <g id="patch_3">
    <path d="M 55.245625 486.794 
L 55.245625 43.274 
" style="fill: none; stroke: #ffffff; stroke-width: 1.25; stroke-linejoin: miter; stroke-linecap: square"/>
   </g>
   <g id="patch_4">
    <path d="M 724.845625 486.794 
L 724.845625 43.274 
" style="fill: none; stroke: #ffffff; stroke-width: 1.25; stroke-linejoin: miter; stroke-linecap: square"/>
   </g>
   <g id="patch_5">
    <path d="M 55.245625 486.794 
L 724.845625 486.794 
" style="fill: none; stroke: #ffffff; stroke-width: 1.25; stroke-linejoin: miter; stroke-linecap: square"/>
   </g>
   <g id="patch_6">
    <path d="M 55.245625 43.274 
L 724.845625 43.274 
" style="fill: none; stroke: #ffffff; stroke-width: 1.25; stroke-linejoin: miter; stroke-linecap: square"/>
   </g>
   <g id="text_14">
    <!-- Dependency of time spent on trees built by Random Forest, -->
    <g style="fill: #262626" transform="translate(150.676875 19.3575)scale(0.16 -0.16)">
     <defs>
      <path id="DejaVuSans-44" d="M 1259 4147 
L 1259 519 
L 2022 519 
Q 2988 519 3436 956 
Q 3884 1394 3884 2338 
Q 3884 3275 3436 3711 
Q 2988 4147 2022 4147 
L 1259 4147 
z
M 628 4666 
L 1925 4666 
Q 3281 4666 3915 4102 
Q 4550 3538 4550 2338 
Q 4550 1131 3912 565 
Q 3275 0 1925 0 
L 628 0 
L 628 4666 
z
" transform="scale(0.015625)"/>
      <path id="DejaVuSans-64" d="M 2906 2969 
L 2906 4863 
L 3481 4863 
L 3481 0 
L 2906 0 
L 2906 525 
Q 2725 213 2448 61 
Q 2172 -91 1784 -91 
Q 1150 -91 751 415 
Q 353 922 353 1747 
Q 353 2572 751 3078 
Q 1150 3584 1784 3584 
Q 2172 3584 2448 3432 
Q 2725 3281 2906 2969 
z
M 947 1747 
Q 947 1113 1208 752 
Q 1469 391 1925 391 
Q 2381 391 2643 752 
Q 2906 1113 2906 1747 
Q 2906 2381 2643 2742 
Q 2381 3103 1925 3103 
Q 1469 3103 1208 2742 
Q 947 2381 947 1747 
z
" transform="scale(0.015625)"/>
      <path id="DejaVuSans-63" d="M 3122 3366 
L 3122 2828 
Q 2878 2963 2633 3030 
Q 2388 3097 2138 3097 
Q 1578 3097 1268 2742 
Q 959 2388 959 1747 
Q 959 1106 1268 751 
Q 1578 397 2138 397 
Q 2388 397 2633 464 
Q 2878 531 3122 666 
L 3122 134 
Q 2881 22 2623 -34 
Q 2366 -91 2075 -91 
Q 1284 -91 818 406 
Q 353 903 353 1747 
Q 353 2603 823 3093 
Q 1294 3584 2113 3584 
Q 2378 3584 2631 3529 
Q 2884 3475 3122 3366 
z
" transform="scale(0.015625)"/>
      <path id="DejaVuSans-79" d="M 2059 -325 
Q 1816 -950 1584 -1140 
Q 1353 -1331 966 -1331 
L 506 -1331 
L 506 -850 
L 844 -850 
Q 1081 -850 1212 -737 
Q 1344 -625 1503 -206 
L 1606 56 
L 191 3500 
L 800 3500 
L 1894 763 
L 2988 3500 
L 3597 3500 
L 2059 -325 
z
" transform="scale(0.015625)"/>
      <path id="DejaVuSans-6f" d="M 1959 3097 
Q 1497 3097 1228 2736 
Q 959 2375 959 1747 
Q 959 1119 1226 758 
Q 1494 397 1959 397 
Q 2419 397 2687 759 
Q 2956 1122 2956 1747 
Q 2956 2369 2687 2733 
Q 2419 3097 1959 3097 
z
M 1959 3584 
Q 2709 3584 3137 3096 
Q 3566 2609 3566 1747 
Q 3566 888 3137 398 
Q 2709 -91 1959 -91 
Q 1206 -91 779 398 
Q 353 888 353 1747 
Q 353 2609 779 3096 
Q 1206 3584 1959 3584 
z
" transform="scale(0.015625)"/>
      <path id="DejaVuSans-66" d="M 2375 4863 
L 2375 4384 
L 1825 4384 
Q 1516 4384 1395 4259 
Q 1275 4134 1275 3809 
L 1275 3500 
L 2222 3500 
L 2222 3053 
L 1275 3053 
L 1275 0 
L 697 0 
L 697 3053 
L 147 3053 
L 147 3500 
L 697 3500 
L 697 3744 
Q 697 4328 969 4595 
Q 1241 4863 1831 4863 
L 2375 4863 
z
" transform="scale(0.015625)"/>
      <path id="DejaVuSans-52" d="M 2841 2188 
Q 3044 2119 3236 1894 
Q 3428 1669 3622 1275 
L 4263 0 
L 3584 0 
L 2988 1197 
Q 2756 1666 2539 1819 
Q 2322 1972 1947 1972 
L 1259 1972 
L 1259 0 
L 628 0 
L 628 4666 
L 2053 4666 
Q 2853 4666 3247 4331 
Q 3641 3997 3641 3322 
Q 3641 2881 3436 2590 
Q 3231 2300 2841 2188 
z
M 1259 4147 
L 1259 2491 
L 2053 2491 
Q 2509 2491 2742 2702 
Q 2975 2913 2975 3322 
Q 2975 3731 2742 3939 
Q 2509 4147 2053 4147 
L 1259 4147 
z
" transform="scale(0.015625)"/>
      <path id="DejaVuSans-61" d="M 2194 1759 
Q 1497 1759 1228 1600 
Q 959 1441 959 1056 
Q 959 750 1161 570 
Q 1363 391 1709 391 
Q 2188 391 2477 730 
Q 2766 1069 2766 1631 
L 2766 1759 
L 2194 1759 
z
M 3341 1997 
L 3341 0 
L 2766 0 
L 2766 531 
Q 2569 213 2275 61 
Q 1981 -91 1556 -91 
Q 1019 -91 701 211 
Q 384 513 384 1019 
Q 384 1609 779 1909 
Q 1175 2209 1959 2209 
L 2766 2209 
L 2766 2266 
Q 2766 2663 2505 2880 
Q 2244 3097 1772 3097 
Q 1472 3097 1187 3025 
Q 903 2953 641 2809 
L 641 3341 
Q 956 3463 1253 3523 
Q 1550 3584 1831 3584 
Q 2591 3584 2966 3190 
Q 3341 2797 3341 1997 
z
" transform="scale(0.015625)"/>
      <path id="DejaVuSans-46" d="M 628 4666 
L 3309 4666 
L 3309 4134 
L 1259 4134 
L 1259 2759 
L 3109 2759 
L 3109 2228 
L 1259 2228 
L 1259 0 
L 628 0 
L 628 4666 
z
" transform="scale(0.015625)"/>
     </defs>
     <use xlink:href="#DejaVuSans-44"/>
     <use xlink:href="#DejaVuSans-65" x="77.001953"/>
     <use xlink:href="#DejaVuSans-70" x="138.525391"/>
     <use xlink:href="#DejaVuSans-65" x="202.001953"/>
     <use xlink:href="#DejaVuSans-6e" x="263.525391"/>
     <use xlink:href="#DejaVuSans-64" x="326.904297"/>
     <use xlink:href="#DejaVuSans-65" x="390.380859"/>
     <use xlink:href="#DejaVuSans-6e" x="451.904297"/>
     <use xlink:href="#DejaVuSans-63" x="515.283203"/>
     <use xlink:href="#DejaVuSans-79" x="570.263672"/>
     <use xlink:href="#DejaVuSans-20" x="629.443359"/>
     <use xlink:href="#DejaVuSans-6f" x="661.230469"/>
     <use xlink:href="#DejaVuSans-66" x="722.412109"/>
     <use xlink:href="#DejaVuSans-20" x="757.617188"/>
     <use xlink:href="#DejaVuSans-74" x="789.404297"/>
     <use xlink:href="#DejaVuSans-69" x="828.613281"/>
     <use xlink:href="#DejaVuSans-6d" x="856.396484"/>
     <use xlink:href="#DejaVuSans-65" x="953.808594"/>
     <use xlink:href="#DejaVuSans-20" x="1015.332031"/>
     <use xlink:href="#DejaVuSans-73" x="1047.119141"/>
     <use xlink:href="#DejaVuSans-70" x="1099.21875"/>
     <use xlink:href="#DejaVuSans-65" x="1162.695312"/>
     <use xlink:href="#DejaVuSans-6e" x="1224.21875"/>
     <use xlink:href="#DejaVuSans-74" x="1287.597656"/>
     <use xlink:href="#DejaVuSans-20" x="1326.806641"/>
     <use xlink:href="#DejaVuSans-6f" x="1358.59375"/>
     <use xlink:href="#DejaVuSans-6e" x="1419.775391"/>
     <use xlink:href="#DejaVuSans-20" x="1483.154297"/>
     <use xlink:href="#DejaVuSans-74" x="1514.941406"/>
     <use xlink:href="#DejaVuSans-72" x="1554.150391"/>
     <use xlink:href="#DejaVuSans-65" x="1593.013672"/>
     <use xlink:href="#DejaVuSans-65" x="1654.537109"/>
     <use xlink:href="#DejaVuSans-73" x="1716.060547"/>
     <use xlink:href="#DejaVuSans-20" x="1768.160156"/>
     <use xlink:href="#DejaVuSans-62" x="1799.947266"/>
     <use xlink:href="#DejaVuSans-75" x="1863.423828"/>
     <use xlink:href="#DejaVuSans-69" x="1926.802734"/>
     <use xlink:href="#DejaVuSans-6c" x="1954.585938"/>
     <use xlink:href="#DejaVuSans-74" x="1982.369141"/>
     <use xlink:href="#DejaVuSans-20" x="2021.578125"/>
     <use xlink:href="#DejaVuSans-62" x="2053.365234"/>
     <use xlink:href="#DejaVuSans-79" x="2116.841797"/>
     <use xlink:href="#DejaVuSans-20" x="2176.021484"/>
     <use xlink:href="#DejaVuSans-52" x="2207.808594"/>
     <use xlink:href="#DejaVuSans-61" x="2275.041016"/>
     <use xlink:href="#DejaVuSans-6e" x="2336.320312"/>
     <use xlink:href="#DejaVuSans-64" x="2399.699219"/>
     <use xlink:href="#DejaVuSans-6f" x="2463.175781"/>
     <use xlink:href="#DejaVuSans-6d" x="2524.357422"/>
     <use xlink:href="#DejaVuSans-20" x="2621.769531"/>
     <use xlink:href="#DejaVuSans-46" x="2653.556641"/>
     <use xlink:href="#DejaVuSans-6f" x="2707.451172"/>
     <use xlink:href="#DejaVuSans-72" x="2768.632812"/>
     <use xlink:href="#DejaVuSans-65" x="2807.496094"/>
     <use xlink:href="#DejaVuSans-73" x="2869.019531"/>
     <use xlink:href="#DejaVuSans-74" x="2921.119141"/>
     <use xlink:href="#DejaVuSans-2c" x="2960.328125"/>
    </g>
    <!-- with different values of feature subsample size -->
    <g style="fill: #262626" transform="translate(202.201875 37.274)scale(0.16 -0.16)">
     <defs>
      <path id="DejaVuSans-77" d="M 269 3500 
L 844 3500 
L 1563 769 
L 2278 3500 
L 2956 3500 
L 3675 769 
L 4391 3500 
L 4966 3500 
L 4050 0 
L 3372 0 
L 2619 2869 
L 1863 0 
L 1184 0 
L 269 3500 
z
" transform="scale(0.015625)"/>
      <path id="DejaVuSans-68" d="M 3513 2113 
L 3513 0 
L 2938 0 
L 2938 2094 
Q 2938 2591 2744 2837 
Q 2550 3084 2163 3084 
Q 1697 3084 1428 2787 
Q 1159 2491 1159 1978 
L 1159 0 
L 581 0 
L 581 4863 
L 1159 4863 
L 1159 2956 
Q 1366 3272 1645 3428 
Q 1925 3584 2291 3584 
Q 2894 3584 3203 3211 
Q 3513 2838 3513 2113 
z
" transform="scale(0.015625)"/>
      <path id="DejaVuSans-76" d="M 191 3500 
L 800 3500 
L 1894 563 
L 2988 3500 
L 3597 3500 
L 2284 0 
L 1503 0 
L 191 3500 
z
" transform="scale(0.015625)"/>
      <path id="DejaVuSans-7a" d="M 353 3500 
L 3084 3500 
L 3084 2975 
L 922 459 
L 3084 459 
L 3084 0 
L 275 0 
L 275 525 
L 2438 3041 
L 353 3041 
L 353 3500 
z
" transform="scale(0.015625)"/>
     </defs>
     <use xlink:href="#DejaVuSans-77"/>
     <use xlink:href="#DejaVuSans-69" x="81.787109"/>
     <use xlink:href="#DejaVuSans-74" x="109.570312"/>
     <use xlink:href="#DejaVuSans-68" x="148.779297"/>
     <use xlink:href="#DejaVuSans-20" x="212.158203"/>
     <use xlink:href="#DejaVuSans-64" x="243.945312"/>
     <use xlink:href="#DejaVuSans-69" x="307.421875"/>
     <use xlink:href="#DejaVuSans-66" x="335.205078"/>
     <use xlink:href="#DejaVuSans-66" x="370.410156"/>
     <use xlink:href="#DejaVuSans-65" x="405.615234"/>
     <use xlink:href="#DejaVuSans-72" x="467.138672"/>
     <use xlink:href="#DejaVuSans-65" x="506.001953"/>
     <use xlink:href="#DejaVuSans-6e" x="567.525391"/>
     <use xlink:href="#DejaVuSans-74" x="630.904297"/>
     <use xlink:href="#DejaVuSans-20" x="670.113281"/>
     <use xlink:href="#DejaVuSans-76" x="701.900391"/>
     <use xlink:href="#DejaVuSans-61" x="761.080078"/>
     <use xlink:href="#DejaVuSans-6c" x="822.359375"/>
     <use xlink:href="#DejaVuSans-75" x="850.142578"/>
     <use xlink:href="#DejaVuSans-65" x="913.521484"/>
     <use xlink:href="#DejaVuSans-73" x="975.044922"/>
     <use xlink:href="#DejaVuSans-20" x="1027.144531"/>
     <use xlink:href="#DejaVuSans-6f" x="1058.931641"/>
     <use xlink:href="#DejaVuSans-66" x="1120.113281"/>
     <use xlink:href="#DejaVuSans-20" x="1155.318359"/>
     <use xlink:href="#DejaVuSans-66" x="1187.105469"/>
     <use xlink:href="#DejaVuSans-65" x="1222.310547"/>
     <use xlink:href="#DejaVuSans-61" x="1283.833984"/>
     <use xlink:href="#DejaVuSans-74" x="1345.113281"/>
     <use xlink:href="#DejaVuSans-75" x="1384.322266"/>
     <use xlink:href="#DejaVuSans-72" x="1447.701172"/>
     <use xlink:href="#DejaVuSans-65" x="1486.564453"/>
     <use xlink:href="#DejaVuSans-20" x="1548.087891"/>
     <use xlink:href="#DejaVuSans-73" x="1579.875"/>
     <use xlink:href="#DejaVuSans-75" x="1631.974609"/>
     <use xlink:href="#DejaVuSans-62" x="1695.353516"/>
     <use xlink:href="#DejaVuSans-73" x="1758.830078"/>
     <use xlink:href="#DejaVuSans-61" x="1810.929688"/>
     <use xlink:href="#DejaVuSans-6d" x="1872.208984"/>
     <use xlink:href="#DejaVuSans-70" x="1969.621094"/>
     <use xlink:href="#DejaVuSans-6c" x="2033.097656"/>
     <use xlink:href="#DejaVuSans-65" x="2060.880859"/>
     <use xlink:href="#DejaVuSans-20" x="2122.404297"/>
     <use xlink:href="#DejaVuSans-73" x="2154.191406"/>
     <use xlink:href="#DejaVuSans-69" x="2206.291016"/>
     <use xlink:href="#DejaVuSans-7a" x="2234.074219"/>
     <use xlink:href="#DejaVuSans-65" x="2286.564453"/>
    </g>
   </g>
   <g id="legend_1">
    <g id="patch_7">
     <path d="M 62.945625 133.7715 
L 206.661875 133.7715 
Q 208.861875 133.7715 208.861875 131.5715 
L 208.861875 50.974 
Q 208.861875 48.774 206.661875 48.774 
L 62.945625 48.774 
Q 60.745625 48.774 60.745625 50.974 
L 60.745625 131.5715 
Q 60.745625 133.7715 62.945625 133.7715 
z
" style="fill: #eaeaf2; opacity: 0.8; stroke: #cccccc; stroke-linejoin: miter"/>
    </g>
    <g id="text_15">
     <!-- feature subsample size -->
     <g style="fill: #262626" transform="translate(65.145625 62.292125)scale(0.12 -0.12)">
      <use xlink:href="#DejaVuSans-66"/>
      <use xlink:href="#DejaVuSans-65" x="35.205078"/>
      <use xlink:href="#DejaVuSans-61" x="96.728516"/>
      <use xlink:href="#DejaVuSans-74" x="158.007812"/>
      <use xlink:href="#DejaVuSans-75" x="197.216797"/>
      <use xlink:href="#DejaVuSans-72" x="260.595703"/>
      <use xlink:href="#DejaVuSans-65" x="299.458984"/>
      <use xlink:href="#DejaVuSans-20" x="360.982422"/>
      <use xlink:href="#DejaVuSans-73" x="392.769531"/>
      <use xlink:href="#DejaVuSans-75" x="444.869141"/>
      <use xlink:href="#DejaVuSans-62" x="508.248047"/>
      <use xlink:href="#DejaVuSans-73" x="571.724609"/>
      <use xlink:href="#DejaVuSans-61" x="623.824219"/>
      <use xlink:href="#DejaVuSans-6d" x="685.103516"/>
      <use xlink:href="#DejaVuSans-70" x="782.515625"/>
      <use xlink:href="#DejaVuSans-6c" x="845.992188"/>
      <use xlink:href="#DejaVuSans-65" x="873.775391"/>
      <use xlink:href="#DejaVuSans-20" x="935.298828"/>
      <use xlink:href="#DejaVuSans-73" x="967.085938"/>
      <use xlink:href="#DejaVuSans-69" x="1019.185547"/>
      <use xlink:href="#DejaVuSans-7a" x="1046.96875"/>
      <use xlink:href="#DejaVuSans-65" x="1099.458984"/>
     </g>
    </g>
    <g id="line2d_20">
     <path d="M 107.026172 74.796031 
L 118.026172 74.796031 
L 129.026172 74.796031 
" style="fill: none; stroke: #4c72b0; stroke-width: 1.5; stroke-linecap: round"/>
    </g>
    <g id="text_16">
     <!-- auto -->
     <g style="fill: #262626" transform="translate(137.826172 78.646031)scale(0.11 -0.11)">
      <use xlink:href="#DejaVuSans-61"/>
      <use xlink:href="#DejaVuSans-75" x="61.279297"/>
      <use xlink:href="#DejaVuSans-74" x="124.658203"/>
      <use xlink:href="#DejaVuSans-6f" x="163.867188"/>
     </g>
    </g>
    <g id="line2d_21">
     <path d="M 107.026172 90.941969 
L 118.026172 90.941969 
L 129.026172 90.941969 
" style="fill: none; stroke: #dd8452; stroke-width: 1.5; stroke-linecap: round"/>
    </g>
    <g id="text_17">
     <!-- 0.1 -->
     <g style="fill: #262626" transform="translate(137.826172 94.791969)scale(0.11 -0.11)">
      <defs>
       <path id="DejaVuSans-2e" d="M 684 794 
L 1344 794 
L 1344 0 
L 684 0 
L 684 794 
z
" transform="scale(0.015625)"/>
      </defs>
      <use xlink:href="#DejaVuSans-30"/>
      <use xlink:href="#DejaVuSans-2e" x="63.623047"/>
      <use xlink:href="#DejaVuSans-31" x="95.410156"/>
     </g>
    </g>
    <g id="line2d_22">
     <path d="M 107.026172 107.087906 
L 118.026172 107.087906 
L 129.026172 107.087906 
" style="fill: none; stroke: #55a868; stroke-width: 1.5; stroke-linecap: round"/>
    </g>
    <g id="text_18">
     <!-- 0.75 -->
     <g style="fill: #262626" transform="translate(137.826172 110.937906)scale(0.11 -0.11)">
      <defs>
       <path id="DejaVuSans-37" d="M 525 4666 
L 3525 4666 
L 3525 4397 
L 1831 0 
L 1172 0 
L 2766 4134 
L 525 4134 
L 525 4666 
z
" transform="scale(0.015625)"/>
      </defs>
      <use xlink:href="#DejaVuSans-30"/>
      <use xlink:href="#DejaVuSans-2e" x="63.623047"/>
      <use xlink:href="#DejaVuSans-37" x="95.410156"/>
      <use xlink:href="#DejaVuSans-35" x="159.033203"/>
     </g>
    </g>
    <g id="line2d_23">
     <path d="M 107.026172 123.233844 
L 118.026172 123.233844 
L 129.026172 123.233844 
" style="fill: none; stroke: #c44e52; stroke-width: 1.5; stroke-linecap: round"/>
    </g>
    <g id="text_19">
     <!-- 1.0 -->
     <g style="fill: #262626" transform="translate(137.826172 127.083844)scale(0.11 -0.11)">
      <use xlink:href="#DejaVuSans-31"/>
      <use xlink:href="#DejaVuSans-2e" x="63.623047"/>
      <use xlink:href="#DejaVuSans-30" x="95.410156"/>
     </g>
    </g>
   </g>
  </g>
 </g>
 <defs>
  <clipPath id="p16af3145cf">
   <rect x="55.245625" y="43.274" width="669.6" height="443.52"/>
  </clipPath>
 </defs>
</svg>
