<?xml version="1.0" encoding="utf-8" standalone="no"?>
<!DOCTYPE svg PUBLIC "-//W3C//DTD SVG 1.1//EN"
  "http://www.w3.org/Graphics/SVG/1.1/DTD/svg11.dtd">
<svg xmlns:xlink="http://www.w3.org/1999/xlink" width="732.045625pt" height="531.689312pt" viewBox="0 0 732.045625 531.689312" xmlns="http://www.w3.org/2000/svg" version="1.1">
 <metadata>
  <rdf:RDF xmlns:dc="http://purl.org/dc/elements/1.1/" xmlns:cc="http://creativecommons.org/ns#" xmlns:rdf="http://www.w3.org/1999/02/22-rdf-syntax-ns#">
   <cc:Work>
    <dc:type rdf:resource="http://purl.org/dc/dcmitype/StillImage"/>
    <dc:date>2022-12-16T22:24:41.640279</dc:date>
    <dc:format>image/svg+xml</dc:format>
    <dc:creator>
     <cc:Agent>
      <dc:title>Matplotlib v3.5.2, https://matplotlib.org/</dc:title>
     </cc:Agent>
    </dc:creator>
   </cc:Work>
  </rdf:RDF>
 </metadata>
 <defs>
  <style type="text/css">*{stroke-linejoin: round; stroke-linecap: butt}</style>
 </defs>
 <g id="figure_1">
  <g id="patch_1">
   <path d="M 0 531.689312 
L 732.045625 531.689312 
L 732.045625 0 
L 0 0 
z
" style="fill: #ffffff"/>
  </g>
  <g id="axes_1">
   <g id="patch_2">
    <path d="M 55.245625 486.794 
L 724.845625 486.794 
L 724.845625 43.274 
L 55.245625 43.274 
z
" style="fill: #eaeaf2"/>
   </g>
   <g id="matplotlib.axis_1">
    <g id="xtick_1">
     <g id="line2d_1">
      <path d="M 85.681989 486.794 
L 85.681989 43.274 
" clip-path="url(#pb888a72f0a)" style="fill: none; stroke: #ffffff; stroke-linecap: round"/>
     </g>
     <g id="text_1">
      <!-- 0 -->
      <g style="fill: #262626" transform="translate(82.182614 504.652281)scale(0.11 -0.11)">
       <defs>
        <path id="DejaVuSans-30" d="M 2034 4250 
Q 1547 4250 1301 3770 
Q 1056 3291 1056 2328 
Q 1056 1369 1301 889 
Q 1547 409 2034 409 
Q 2525 409 2770 889 
Q 3016 1369 3016 2328 
Q 3016 3291 2770 3770 
Q 2525 4250 2034 4250 
z
M 2034 4750 
Q 2819 4750 3233 4129 
Q 3647 3509 3647 2328 
Q 3647 1150 3233 529 
Q 2819 -91 2034 -91 
Q 1250 -91 836 529 
Q 422 1150 422 2328 
Q 422 3509 836 4129 
Q 1250 4750 2034 4750 
z
" transform="scale(0.015625)"/>
       </defs>
       <use xlink:href="#DejaVuSans-30"/>
      </g>
     </g>
    </g>
    <g id="xtick_2">
     <g id="line2d_2">
      <path d="M 207.549311 486.794 
L 207.549311 43.274 
" clip-path="url(#pb888a72f0a)" style="fill: none; stroke: #ffffff; stroke-linecap: round"/>
     </g>
     <g id="text_2">
      <!-- 200 -->
      <g style="fill: #262626" transform="translate(197.051186 504.652281)scale(0.11 -0.11)">
       <defs>
        <path id="DejaVuSans-32" d="M 1228 531 
L 3431 531 
L 3431 0 
L 469 0 
L 469 531 
Q 828 903 1448 1529 
Q 2069 2156 2228 2338 
Q 2531 2678 2651 2914 
Q 2772 3150 2772 3378 
Q 2772 3750 2511 3984 
Q 2250 4219 1831 4219 
Q 1534 4219 1204 4116 
Q 875 4013 500 3803 
L 500 4441 
Q 881 4594 1212 4672 
Q 1544 4750 1819 4750 
Q 2544 4750 2975 4387 
Q 3406 4025 3406 3419 
Q 3406 3131 3298 2873 
Q 3191 2616 2906 2266 
Q 2828 2175 2409 1742 
Q 1991 1309 1228 531 
z
" transform="scale(0.015625)"/>
       </defs>
       <use xlink:href="#DejaVuSans-32"/>
       <use xlink:href="#DejaVuSans-30" x="63.623047"/>
       <use xlink:href="#DejaVuSans-30" x="127.246094"/>
      </g>
     </g>
    </g>
    <g id="xtick_3">
     <g id="line2d_3">
      <path d="M 329.416632 486.794 
L 329.416632 43.274 
" clip-path="url(#pb888a72f0a)" style="fill: none; stroke: #ffffff; stroke-linecap: round"/>
     </g>
     <g id="text_3">
      <!-- 400 -->
      <g style="fill: #262626" transform="translate(318.918507 504.652281)scale(0.11 -0.11)">
       <defs>
        <path id="DejaVuSans-34" d="M 2419 4116 
L 825 1625 
L 2419 1625 
L 2419 4116 
z
M 2253 4666 
L 3047 4666 
L 3047 1625 
L 3713 1625 
L 3713 1100 
L 3047 1100 
L 3047 0 
L 2419 0 
L 2419 1100 
L 313 1100 
L 313 1709 
L 2253 4666 
z
" transform="scale(0.015625)"/>
       </defs>
       <use xlink:href="#DejaVuSans-34"/>
       <use xlink:href="#DejaVuSans-30" x="63.623047"/>
       <use xlink:href="#DejaVuSans-30" x="127.246094"/>
      </g>
     </g>
    </g>
    <g id="xtick_4">
     <g id="line2d_4">
      <path d="M 451.283954 486.794 
L 451.283954 43.274 
" clip-path="url(#pb888a72f0a)" style="fill: none; stroke: #ffffff; stroke-linecap: round"/>
     </g>
     <g id="text_4">
      <!-- 600 -->
      <g style="fill: #262626" transform="translate(440.785829 504.652281)scale(0.11 -0.11)">
       <defs>
        <path id="DejaVuSans-36" d="M 2113 2584 
Q 1688 2584 1439 2293 
Q 1191 2003 1191 1497 
Q 1191 994 1439 701 
Q 1688 409 2113 409 
Q 2538 409 2786 701 
Q 3034 994 3034 1497 
Q 3034 2003 2786 2293 
Q 2538 2584 2113 2584 
z
M 3366 4563 
L 3366 3988 
Q 3128 4100 2886 4159 
Q 2644 4219 2406 4219 
Q 1781 4219 1451 3797 
Q 1122 3375 1075 2522 
Q 1259 2794 1537 2939 
Q 1816 3084 2150 3084 
Q 2853 3084 3261 2657 
Q 3669 2231 3669 1497 
Q 3669 778 3244 343 
Q 2819 -91 2113 -91 
Q 1303 -91 875 529 
Q 447 1150 447 2328 
Q 447 3434 972 4092 
Q 1497 4750 2381 4750 
Q 2619 4750 2861 4703 
Q 3103 4656 3366 4563 
z
" transform="scale(0.015625)"/>
       </defs>
       <use xlink:href="#DejaVuSans-36"/>
       <use xlink:href="#DejaVuSans-30" x="63.623047"/>
       <use xlink:href="#DejaVuSans-30" x="127.246094"/>
      </g>
     </g>
    </g>
    <g id="xtick_5">
     <g id="line2d_5">
      <path d="M 573.151276 486.794 
L 573.151276 43.274 
" clip-path="url(#pb888a72f0a)" style="fill: none; stroke: #ffffff; stroke-linecap: round"/>
     </g>
     <g id="text_5">
      <!-- 800 -->
      <g style="fill: #262626" transform="translate(562.653151 504.652281)scale(0.11 -0.11)">
       <defs>
        <path id="DejaVuSans-38" d="M 2034 2216 
Q 1584 2216 1326 1975 
Q 1069 1734 1069 1313 
Q 1069 891 1326 650 
Q 1584 409 2034 409 
Q 2484 409 2743 651 
Q 3003 894 3003 1313 
Q 3003 1734 2745 1975 
Q 2488 2216 2034 2216 
z
M 1403 2484 
Q 997 2584 770 2862 
Q 544 3141 544 3541 
Q 544 4100 942 4425 
Q 1341 4750 2034 4750 
Q 2731 4750 3128 4425 
Q 3525 4100 3525 3541 
Q 3525 3141 3298 2862 
Q 3072 2584 2669 2484 
Q 3125 2378 3379 2068 
Q 3634 1759 3634 1313 
Q 3634 634 3220 271 
Q 2806 -91 2034 -91 
Q 1263 -91 848 271 
Q 434 634 434 1313 
Q 434 1759 690 2068 
Q 947 2378 1403 2484 
z
M 1172 3481 
Q 1172 3119 1398 2916 
Q 1625 2713 2034 2713 
Q 2441 2713 2670 2916 
Q 2900 3119 2900 3481 
Q 2900 3844 2670 4047 
Q 2441 4250 2034 4250 
Q 1625 4250 1398 4047 
Q 1172 3844 1172 3481 
z
" transform="scale(0.015625)"/>
       </defs>
       <use xlink:href="#DejaVuSans-38"/>
       <use xlink:href="#DejaVuSans-30" x="63.623047"/>
       <use xlink:href="#DejaVuSans-30" x="127.246094"/>
      </g>
     </g>
    </g>
    <g id="xtick_6">
     <g id="line2d_6">
      <path d="M 695.018598 486.794 
L 695.018598 43.274 
" clip-path="url(#pb888a72f0a)" style="fill: none; stroke: #ffffff; stroke-linecap: round"/>
     </g>
     <g id="text_6">
      <!-- 1000 -->
      <g style="fill: #262626" transform="translate(681.021098 504.652281)scale(0.11 -0.11)">
       <defs>
        <path id="DejaVuSans-31" d="M 794 531 
L 1825 531 
L 1825 4091 
L 703 3866 
L 703 4441 
L 1819 4666 
L 2450 4666 
L 2450 531 
L 3481 531 
L 3481 0 
L 794 0 
L 794 531 
z
" transform="scale(0.015625)"/>
       </defs>
       <use xlink:href="#DejaVuSans-31"/>
       <use xlink:href="#DejaVuSans-30" x="63.623047"/>
       <use xlink:href="#DejaVuSans-30" x="127.246094"/>
       <use xlink:href="#DejaVuSans-30" x="190.869141"/>
      </g>
     </g>
    </g>
    <g id="text_7">
     <!-- Trees built -->
     <g style="fill: #262626" transform="translate(354.083125 521.57775)scale(0.14 -0.14)">
      <defs>
       <path id="DejaVuSans-54" d="M -19 4666 
L 3928 4666 
L 3928 4134 
L 2272 4134 
L 2272 0 
L 1638 0 
L 1638 4134 
L -19 4134 
L -19 4666 
z
" transform="scale(0.015625)"/>
       <path id="DejaVuSans-72" d="M 2631 2963 
Q 2534 3019 2420 3045 
Q 2306 3072 2169 3072 
Q 1681 3072 1420 2755 
Q 1159 2438 1159 1844 
L 1159 0 
L 581 0 
L 581 3500 
L 1159 3500 
L 1159 2956 
Q 1341 3275 1631 3429 
Q 1922 3584 2338 3584 
Q 2397 3584 2469 3576 
Q 2541 3569 2628 3553 
L 2631 2963 
z
" transform="scale(0.015625)"/>
       <path id="DejaVuSans-65" d="M 3597 1894 
L 3597 1613 
L 953 1613 
Q 991 1019 1311 708 
Q 1631 397 2203 397 
Q 2534 397 2845 478 
Q 3156 559 3463 722 
L 3463 178 
Q 3153 47 2828 -22 
Q 2503 -91 2169 -91 
Q 1331 -91 842 396 
Q 353 884 353 1716 
Q 353 2575 817 3079 
Q 1281 3584 2069 3584 
Q 2775 3584 3186 3129 
Q 3597 2675 3597 1894 
z
M 3022 2063 
Q 3016 2534 2758 2815 
Q 2500 3097 2075 3097 
Q 1594 3097 1305 2825 
Q 1016 2553 972 2059 
L 3022 2063 
z
" transform="scale(0.015625)"/>
       <path id="DejaVuSans-73" d="M 2834 3397 
L 2834 2853 
Q 2591 2978 2328 3040 
Q 2066 3103 1784 3103 
Q 1356 3103 1142 2972 
Q 928 2841 928 2578 
Q 928 2378 1081 2264 
Q 1234 2150 1697 2047 
L 1894 2003 
Q 2506 1872 2764 1633 
Q 3022 1394 3022 966 
Q 3022 478 2636 193 
Q 2250 -91 1575 -91 
Q 1294 -91 989 -36 
Q 684 19 347 128 
L 347 722 
Q 666 556 975 473 
Q 1284 391 1588 391 
Q 1994 391 2212 530 
Q 2431 669 2431 922 
Q 2431 1156 2273 1281 
Q 2116 1406 1581 1522 
L 1381 1569 
Q 847 1681 609 1914 
Q 372 2147 372 2553 
Q 372 3047 722 3315 
Q 1072 3584 1716 3584 
Q 2034 3584 2315 3537 
Q 2597 3491 2834 3397 
z
" transform="scale(0.015625)"/>
       <path id="DejaVuSans-20" transform="scale(0.015625)"/>
       <path id="DejaVuSans-62" d="M 3116 1747 
Q 3116 2381 2855 2742 
Q 2594 3103 2138 3103 
Q 1681 3103 1420 2742 
Q 1159 2381 1159 1747 
Q 1159 1113 1420 752 
Q 1681 391 2138 391 
Q 2594 391 2855 752 
Q 3116 1113 3116 1747 
z
M 1159 2969 
Q 1341 3281 1617 3432 
Q 1894 3584 2278 3584 
Q 2916 3584 3314 3078 
Q 3713 2572 3713 1747 
Q 3713 922 3314 415 
Q 2916 -91 2278 -91 
Q 1894 -91 1617 61 
Q 1341 213 1159 525 
L 1159 0 
L 581 0 
L 581 4863 
L 1159 4863 
L 1159 2969 
z
" transform="scale(0.015625)"/>
       <path id="DejaVuSans-75" d="M 544 1381 
L 544 3500 
L 1119 3500 
L 1119 1403 
Q 1119 906 1312 657 
Q 1506 409 1894 409 
Q 2359 409 2629 706 
Q 2900 1003 2900 1516 
L 2900 3500 
L 3475 3500 
L 3475 0 
L 2900 0 
L 2900 538 
Q 2691 219 2414 64 
Q 2138 -91 1772 -91 
Q 1169 -91 856 284 
Q 544 659 544 1381 
z
M 1991 3584 
L 1991 3584 
z
" transform="scale(0.015625)"/>
       <path id="DejaVuSans-69" d="M 603 3500 
L 1178 3500 
L 1178 0 
L 603 0 
L 603 3500 
z
M 603 4863 
L 1178 4863 
L 1178 4134 
L 603 4134 
L 603 4863 
z
" transform="scale(0.015625)"/>
       <path id="DejaVuSans-6c" d="M 603 4863 
L 1178 4863 
L 1178 0 
L 603 0 
L 603 4863 
z
" transform="scale(0.015625)"/>
       <path id="DejaVuSans-74" d="M 1172 4494 
L 1172 3500 
L 2356 3500 
L 2356 3053 
L 1172 3053 
L 1172 1153 
Q 1172 725 1289 603 
Q 1406 481 1766 481 
L 2356 481 
L 2356 0 
L 1766 0 
Q 1100 0 847 248 
Q 594 497 594 1153 
L 594 3053 
L 172 3053 
L 172 3500 
L 594 3500 
L 594 4494 
L 1172 4494 
z
" transform="scale(0.015625)"/>
      </defs>
      <use xlink:href="#DejaVuSans-54"/>
      <use xlink:href="#DejaVuSans-72" x="46.333984"/>
      <use xlink:href="#DejaVuSans-65" x="85.197266"/>
      <use xlink:href="#DejaVuSans-65" x="146.720703"/>
      <use xlink:href="#DejaVuSans-73" x="208.244141"/>
      <use xlink:href="#DejaVuSans-20" x="260.34375"/>
      <use xlink:href="#DejaVuSans-62" x="292.130859"/>
      <use xlink:href="#DejaVuSans-75" x="355.607422"/>
      <use xlink:href="#DejaVuSans-69" x="418.986328"/>
      <use xlink:href="#DejaVuSans-6c" x="446.769531"/>
      <use xlink:href="#DejaVuSans-74" x="474.552734"/>
     </g>
    </g>
   </g>
   <g id="matplotlib.axis_2">
    <g id="ytick_1">
     <g id="line2d_7">
      <path d="M 55.245625 466.756832 
L 724.845625 466.756832 
" clip-path="url(#pb888a72f0a)" style="fill: none; stroke: #ffffff; stroke-linecap: round"/>
     </g>
     <g id="text_8">
      <!-- 0 -->
      <g style="fill: #262626" transform="translate(38.746875 470.935973)scale(0.11 -0.11)">
       <use xlink:href="#DejaVuSans-30"/>
      </g>
     </g>
    </g>
    <g id="ytick_2">
     <g id="line2d_8">
      <path d="M 55.245625 417.061005 
L 724.845625 417.061005 
" clip-path="url(#pb888a72f0a)" style="fill: none; stroke: #ffffff; stroke-linecap: round"/>
     </g>
     <g id="text_9">
      <!-- 20 -->
      <g style="fill: #262626" transform="translate(31.748125 421.240145)scale(0.11 -0.11)">
       <use xlink:href="#DejaVuSans-32"/>
       <use xlink:href="#DejaVuSans-30" x="63.623047"/>
      </g>
     </g>
    </g>
    <g id="ytick_3">
     <g id="line2d_9">
      <path d="M 55.245625 367.365177 
L 724.845625 367.365177 
" clip-path="url(#pb888a72f0a)" style="fill: none; stroke: #ffffff; stroke-linecap: round"/>
     </g>
     <g id="text_10">
      <!-- 40 -->
      <g style="fill: #262626" transform="translate(31.748125 371.544317)scale(0.11 -0.11)">
       <use xlink:href="#DejaVuSans-34"/>
       <use xlink:href="#DejaVuSans-30" x="63.623047"/>
      </g>
     </g>
    </g>
    <g id="ytick_4">
     <g id="line2d_10">
      <path d="M 55.245625 317.669349 
L 724.845625 317.669349 
" clip-path="url(#pb888a72f0a)" style="fill: none; stroke: #ffffff; stroke-linecap: round"/>
     </g>
     <g id="text_11">
      <!-- 60 -->
      <g style="fill: #262626" transform="translate(31.748125 321.84849)scale(0.11 -0.11)">
       <use xlink:href="#DejaVuSans-36"/>
       <use xlink:href="#DejaVuSans-30" x="63.623047"/>
      </g>
     </g>
    </g>
    <g id="ytick_5">
     <g id="line2d_11">
      <path d="M 55.245625 267.973521 
L 724.845625 267.973521 
" clip-path="url(#pb888a72f0a)" style="fill: none; stroke: #ffffff; stroke-linecap: round"/>
     </g>
     <g id="text_12">
      <!-- 80 -->
      <g style="fill: #262626" transform="translate(31.748125 272.152662)scale(0.11 -0.11)">
       <use xlink:href="#DejaVuSans-38"/>
       <use xlink:href="#DejaVuSans-30" x="63.623047"/>
      </g>
     </g>
    </g>
    <g id="ytick_6">
     <g id="line2d_12">
      <path d="M 55.245625 218.277693 
L 724.845625 218.277693 
" clip-path="url(#pb888a72f0a)" style="fill: none; stroke: #ffffff; stroke-linecap: round"/>
     </g>
     <g id="text_13">
      <!-- 100 -->
      <g style="fill: #262626" transform="translate(24.749375 222.456834)scale(0.11 -0.11)">
       <use xlink:href="#DejaVuSans-31"/>
       <use xlink:href="#DejaVuSans-30" x="63.623047"/>
       <use xlink:href="#DejaVuSans-30" x="127.246094"/>
      </g>
     </g>
    </g>
    <g id="ytick_7">
     <g id="line2d_13">
      <path d="M 55.245625 168.581866 
L 724.845625 168.581866 
" clip-path="url(#pb888a72f0a)" style="fill: none; stroke: #ffffff; stroke-linecap: round"/>
     </g>
     <g id="text_14">
      <!-- 120 -->
      <g style="fill: #262626" transform="translate(24.749375 172.761006)scale(0.11 -0.11)">
       <use xlink:href="#DejaVuSans-31"/>
       <use xlink:href="#DejaVuSans-32" x="63.623047"/>
       <use xlink:href="#DejaVuSans-30" x="127.246094"/>
      </g>
     </g>
    </g>
    <g id="ytick_8">
     <g id="line2d_14">
      <path d="M 55.245625 118.886038 
L 724.845625 118.886038 
" clip-path="url(#pb888a72f0a)" style="fill: none; stroke: #ffffff; stroke-linecap: round"/>
     </g>
     <g id="text_15">
      <!-- 140 -->
      <g style="fill: #262626" transform="translate(24.749375 123.065178)scale(0.11 -0.11)">
       <use xlink:href="#DejaVuSans-31"/>
       <use xlink:href="#DejaVuSans-34" x="63.623047"/>
       <use xlink:href="#DejaVuSans-30" x="127.246094"/>
      </g>
     </g>
    </g>
    <g id="ytick_9">
     <g id="line2d_15">
      <path d="M 55.245625 69.19021 
L 724.845625 69.19021 
" clip-path="url(#pb888a72f0a)" style="fill: none; stroke: #ffffff; stroke-linecap: round"/>
     </g>
     <g id="text_16">
      <!-- 160 -->
      <g style="fill: #262626" transform="translate(24.749375 73.369351)scale(0.11 -0.11)">
       <use xlink:href="#DejaVuSans-31"/>
       <use xlink:href="#DejaVuSans-36" x="63.623047"/>
       <use xlink:href="#DejaVuSans-30" x="127.246094"/>
      </g>
     </g>
    </g>
    <g id="text_17">
     <!-- Time spent, s -->
     <g style="fill: #262626" transform="translate(17.837813 312.059781)rotate(-90)scale(0.14 -0.14)">
      <defs>
       <path id="DejaVuSans-6d" d="M 3328 2828 
Q 3544 3216 3844 3400 
Q 4144 3584 4550 3584 
Q 5097 3584 5394 3201 
Q 5691 2819 5691 2113 
L 5691 0 
L 5113 0 
L 5113 2094 
Q 5113 2597 4934 2840 
Q 4756 3084 4391 3084 
Q 3944 3084 3684 2787 
Q 3425 2491 3425 1978 
L 3425 0 
L 2847 0 
L 2847 2094 
Q 2847 2600 2669 2842 
Q 2491 3084 2119 3084 
Q 1678 3084 1418 2786 
Q 1159 2488 1159 1978 
L 1159 0 
L 581 0 
L 581 3500 
L 1159 3500 
L 1159 2956 
Q 1356 3278 1631 3431 
Q 1906 3584 2284 3584 
Q 2666 3584 2933 3390 
Q 3200 3197 3328 2828 
z
" transform="scale(0.015625)"/>
       <path id="DejaVuSans-70" d="M 1159 525 
L 1159 -1331 
L 581 -1331 
L 581 3500 
L 1159 3500 
L 1159 2969 
Q 1341 3281 1617 3432 
Q 1894 3584 2278 3584 
Q 2916 3584 3314 3078 
Q 3713 2572 3713 1747 
Q 3713 922 3314 415 
Q 2916 -91 2278 -91 
Q 1894 -91 1617 61 
Q 1341 213 1159 525 
z
M 3116 1747 
Q 3116 2381 2855 2742 
Q 2594 3103 2138 3103 
Q 1681 3103 1420 2742 
Q 1159 2381 1159 1747 
Q 1159 1113 1420 752 
Q 1681 391 2138 391 
Q 2594 391 2855 752 
Q 3116 1113 3116 1747 
z
" transform="scale(0.015625)"/>
       <path id="DejaVuSans-6e" d="M 3513 2113 
L 3513 0 
L 2938 0 
L 2938 2094 
Q 2938 2591 2744 2837 
Q 2550 3084 2163 3084 
Q 1697 3084 1428 2787 
Q 1159 2491 1159 1978 
L 1159 0 
L 581 0 
L 581 3500 
L 1159 3500 
L 1159 2956 
Q 1366 3272 1645 3428 
Q 1925 3584 2291 3584 
Q 2894 3584 3203 3211 
Q 3513 2838 3513 2113 
z
" transform="scale(0.015625)"/>
       <path id="DejaVuSans-2c" d="M 750 794 
L 1409 794 
L 1409 256 
L 897 -744 
L 494 -744 
L 750 256 
L 750 794 
z
" transform="scale(0.015625)"/>
      </defs>
      <use xlink:href="#DejaVuSans-54"/>
      <use xlink:href="#DejaVuSans-69" x="57.958984"/>
      <use xlink:href="#DejaVuSans-6d" x="85.742188"/>
      <use xlink:href="#DejaVuSans-65" x="183.154297"/>
      <use xlink:href="#DejaVuSans-20" x="244.677734"/>
      <use xlink:href="#DejaVuSans-73" x="276.464844"/>
      <use xlink:href="#DejaVuSans-70" x="328.564453"/>
      <use xlink:href="#DejaVuSans-65" x="392.041016"/>
      <use xlink:href="#DejaVuSans-6e" x="453.564453"/>
      <use xlink:href="#DejaVuSans-74" x="516.943359"/>
      <use xlink:href="#DejaVuSans-2c" x="556.152344"/>
      <use xlink:href="#DejaVuSans-20" x="587.939453"/>
      <use xlink:href="#DejaVuSans-73" x="619.726562"/>
     </g>
    </g>
   </g>
   <g id="line2d_16">
    <path d="M 85.681989 466.532811 
L 88.119335 465.564465 
L 89.947345 464.672221 
L 91.166018 463.917905 
L 91.775355 463.474967 
L 94.212701 462.445794 
L 94.822038 461.924359 
L 96.650048 461.160706 
L 97.868721 460.562928 
L 99.696731 459.803391 
L 101.52474 459.060485 
L 103.35275 458.288133 
L 104.571424 457.632132 
L 105.790097 457.069993 
L 111.274126 454.76871 
L 113.102136 453.90163 
L 116.758156 452.202843 
L 117.976829 451.561975 
L 119.804839 450.816604 
L 122.242185 449.883612 
L 124.070195 448.980626 
L 127.116878 447.85445 
L 130.772898 446.38819 
L 132.600908 445.640141 
L 136.256927 444.342836 
L 138.694274 443.421069 
L 140.522283 442.697338 
L 144.178303 441.083965 
L 145.396976 440.549567 
L 152.099679 437.778656 
L 153.927689 437.02202 
L 160.630392 434.433417 
L 162.458401 433.737881 
L 164.895748 432.786174 
L 166.114421 432.282847 
L 174.035797 429.116719 
L 175.863807 428.391109 
L 179.519826 427.057495 
L 184.394519 424.951584 
L 185.003856 424.546195 
L 191.097222 422.027099 
L 191.706559 421.53984 
L 193.534568 420.792923 
L 194.753242 420.072444 
L 195.971915 419.618434 
L 197.799925 418.685609 
L 205.721301 415.392726 
L 207.549311 414.666014 
L 229.485428 405.760715 
L 231.313438 405.010245 
L 236.797468 402.740753 
L 239.234814 401.695139 
L 240.453487 401.166401 
L 241.672161 400.552215 
L 245.937517 398.817459 
L 248.374863 397.877794 
L 250.81221 396.949856 
L 269.092308 389.696827 
L 277.623021 385.898205 
L 281.27904 384.45154 
L 283.716387 383.416838 
L 286.153733 382.427841 
L 289.200416 381.245785 
L 291.637763 380.192416 
L 294.684446 378.966715 
L 298.340465 377.477665 
L 299.559139 376.931032 
L 303.824495 375.176952 
L 304.433831 374.658622 
L 307.480514 373.586627 
L 309.308524 372.742511 
L 313.573881 371.048672 
L 316.011227 369.922474 
L 319.05791 368.711773 
L 325.151276 366.262249 
L 336.728672 361.408003 
L 337.947345 360.863519 
L 340.384691 359.893845 
L 344.040711 358.422878 
L 346.478057 357.424019 
L 356.227443 353.303433 
L 357.446116 352.794565 
L 359.274126 351.816471 
L 359.883463 351.39358 
L 361.102136 350.947647 
L 363.539482 349.941179 
L 364.758156 349.332766 
L 384.866264 341.032012 
L 392.178303 337.702866 
L 395.224986 336.377471 
L 398.881006 334.914086 
L 403.146362 332.979409 
L 406.193045 331.846781 
L 408.630392 330.590715 
L 411.067738 329.370882 
L 417.161104 326.820934 
L 419.598451 325.672364 
L 425.691817 323.073393 
L 426.91049 322.445179 
L 427.519826 322.240602 
L 428.129163 321.846804 
L 431.175846 320.514906 
L 434.831866 318.641501 
L 436.659876 317.97819 
L 438.487885 317.197437 
L 442.753242 315.490196 
L 444.581252 314.415612 
L 447.627935 313.243787 
L 459.814667 308.212601 
L 464.68936 306.202134 
L 465.298696 305.839917 
L 467.736043 304.846845 
L 478.094765 300.40056 
L 479.313438 299.802674 
L 481.750785 298.894429 
L 482.360121 298.477524 
L 483.578795 297.924834 
L 486.625478 296.649894 
L 487.844151 296.163132 
L 489.062824 295.634847 
L 490.281497 295.166566 
L 491.50017 294.575273 
L 493.32818 293.832999 
L 494.546854 293.00531 
L 496.9842 292.087286 
L 500.030883 290.809955 
L 501.249556 290.021703 
L 503.077566 289.204286 
L 506.733586 287.671015 
L 508.561596 286.749165 
L 514.654962 284.20418 
L 515.264298 283.765228 
L 517.701645 282.680902 
L 522.576338 280.482645 
L 527.45103 278.505393 
L 528.060367 278.151547 
L 529.888377 277.461095 
L 531.716387 276.622893 
L 535.372406 275.122111 
L 536.59108 274.580814 
L 538.419089 273.877858 
L 539.028426 273.517702 
L 541.465772 272.595354 
L 547.559139 269.883229 
L 550.605822 268.677198 
L 551.215158 268.218274 
L 552.433831 267.680082 
L 553.652505 267.068799 
L 559.136534 264.708831 
L 562.183217 263.26192 
L 563.40189 262.730911 
L 564.011227 262.248329 
L 565.2299 261.803486 
L 566.448573 261.26029 
L 568.276583 260.241967 
L 568.88592 259.83058 
L 570.71393 259.108374 
L 576.807296 256.066003 
L 578.635306 255.321405 
L 580.463315 254.469485 
L 582.900662 253.33403 
L 585.338008 252.241217 
L 598.743414 246.094549 
L 600.571424 245.275898 
L 602.399433 244.591228 
L 607.883463 242.102389 
L 610.320809 240.936033 
L 618.242185 237.516988 
L 620.070195 236.552572 
L 622.507541 235.555355 
L 628.600908 232.78931 
L 629.819581 232.181091 
L 634.084937 230.362333 
L 635.912947 229.512909 
L 643.834323 226.364685 
L 648.099679 224.594161 
L 654.193045 222.196839 
L 657.849065 220.671949 
L 668.817124 216.280463 
L 672.473143 214.819748 
L 679.175846 211.998194 
L 680.394519 211.460585 
L 682.222529 210.68771 
L 684.050539 209.852199 
L 688.315895 208.101358 
L 689.534568 207.613437 
L 694.409261 205.792824 
L 694.409261 205.792824 
" clip-path="url(#pb888a72f0a)" style="fill: none; stroke: #4c72b0; stroke-width: 1.5; stroke-linecap: round"/>
   </g>
   <g id="line2d_17">
    <path d="M 85.681989 466.634 
L 89.338008 465.826019 
L 91.166018 465.244138 
L 92.994028 464.69049 
L 96.650048 463.868437 
L 102.134077 462.693537 
L 114.930146 460.247103 
L 119.195502 459.434352 
L 131.382234 457.179418 
L 136.256927 456.269725 
L 144.78764 454.587722 
L 149.662333 453.677346 
L 160.630392 451.627722 
L 195.362578 445.007001 
L 199.018598 444.338121 
L 205.721301 442.990426 
L 215.470686 441.173366 
L 220.954716 440.154284 
L 224.001399 439.564869 
L 233.750785 437.581774 
L 238.016141 436.436094 
L 240.453487 435.928568 
L 244.109507 434.669136 
L 245.937517 434.235295 
L 248.374863 433.532419 
L 252.030883 432.648216 
L 253.249556 432.275789 
L 254.468229 431.993804 
L 255.686903 431.622765 
L 267.264298 428.386593 
L 277.013684 426.005747 
L 278.232357 425.733147 
L 289.809753 423.152582 
L 291.637763 422.658853 
L 299.559139 420.660104 
L 303.824495 419.659011 
L 306.871178 418.869446 
L 309.308524 418.279375 
L 312.355207 417.482205 
L 324.541939 414.450506 
L 327.588623 413.644124 
L 328.807296 413.399094 
L 331.244642 412.825327 
L 351.962087 408.010706 
L 352.571424 407.902003 
L 353.18076 407.65218 
L 354.399433 407.421574 
L 355.00877 407.168646 
L 362.930146 405.4372 
L 370.242185 403.58036 
L 371.460858 403.179062 
L 372.679532 402.871737 
L 376.335551 402.02283 
L 378.163561 401.499711 
L 383.038254 400.07257 
L 385.4756 399.43792 
L 387.30361 398.856008 
L 389.13162 398.277624 
L 392.78764 397.316471 
L 397.662333 395.915602 
L 400.709016 395.134505 
L 401.927689 394.773773 
L 403.755699 394.286519 
L 404.365035 394.186243 
L 405.583709 393.824454 
L 408.630392 393.123617 
L 411.677075 392.382314 
L 414.114421 391.860223 
L 424.473143 389.632155 
L 426.91049 388.992009 
L 437.269212 386.551653 
L 453.721301 382.52428 
L 454.939974 382.186325 
L 459.814667 381.156285 
L 462.252013 380.492251 
L 493.32818 373.346585 
L 495.15619 372.880302 
L 501.249556 371.476314 
L 503.077566 371.018041 
L 512.217615 369.026314 
L 515.264298 368.288403 
L 521.967001 366.701736 
L 526.841694 365.658611 
L 528.669704 365.158231 
L 537.809753 362.942041 
L 543.903119 361.471823 
L 545.731129 360.969703 
L 551.215158 359.85212 
L 552.433831 359.573079 
L 556.699188 358.663489 
L 558.527197 358.230434 
L 562.183217 357.441888 
L 564.620564 356.838147 
L 581.072652 353.163658 
L 586.556682 352.007457 
L 587.166018 351.774951 
L 590.212701 351.212161 
L 600.571424 348.883746 
L 607.274126 347.499119 
L 618.851522 345.038241 
L 623.726215 344.072517 
L 627.991571 343.128358 
L 638.95963 340.568545 
L 649.318352 338.509985 
L 651.146362 338.127707 
L 653.583709 337.645815 
L 662.114421 336.014719 
L 673.691817 333.758716 
L 685.269212 331.617136 
L 694.409261 329.919772 
L 694.409261 329.919772 
" clip-path="url(#pb888a72f0a)" style="fill: none; stroke: #dd8452; stroke-width: 1.5; stroke-linecap: round"/>
   </g>
   <g id="line2d_18">
    <path d="M 85.681989 466.481938 
L 89.338008 464.705698 
L 93.603365 462.390066 
L 94.822038 461.828285 
L 99.087394 459.647206 
L 105.790097 456.349304 
L 106.399433 455.987176 
L 107.00877 455.469055 
L 119.195502 449.289712 
L 125.288868 446.414454 
L 131.991571 443.264391 
L 134.428917 442.108256 
L 136.866264 440.930097 
L 139.30361 439.804216 
L 151.490342 433.888873 
L 152.709016 433.207297 
L 153.318352 432.837828 
L 155.146362 432.074065 
L 169.770441 424.513346 
L 170.989114 423.812886 
L 172.817124 423.035215 
L 173.42646 422.764449 
L 174.035797 422.348713 
L 175.25447 421.786053 
L 176.473143 420.905476 
L 185.003856 416.729389 
L 185.613193 416.250399 
L 186.831866 415.658609 
L 188.659876 414.823247 
L 189.269212 414.294181 
L 190.487885 413.708896 
L 197.190588 410.35085 
L 197.799925 409.864756 
L 200.237271 408.671578 
L 200.846608 408.207217 
L 202.065281 407.655387 
L 203.893291 406.685911 
L 209.37732 403.904398 
L 210.595994 403.150581 
L 214.86135 400.960975 
L 217.908033 399.642821 
L 218.517369 399.327861 
L 219.126706 398.855669 
L 220.345379 398.273024 
L 221.564053 397.569849 
L 222.782726 397.027029 
L 223.392062 396.558473 
L 225.829409 395.347535 
L 227.048082 394.715529 
L 230.094765 393.098421 
L 230.704102 392.569036 
L 233.750785 391.111566 
L 234.969458 390.400813 
L 237.406804 388.984678 
L 238.625478 388.307363 
L 239.234814 387.820538 
L 240.453487 387.252971 
L 241.062824 386.763725 
L 242.890834 385.940998 
L 258.733586 378.028104 
L 259.342922 377.425383 
L 261.170932 376.53477 
L 269.092308 372.471128 
L 270.310981 371.64715 
L 277.013684 368.092509 
L 278.232357 367.533501 
L 283.716387 364.476566 
L 286.153733 363.281222 
L 286.76307 362.845633 
L 303.824495 354.615181 
L 310.527197 351.521043 
L 319.667247 347.177638 
L 325.151276 344.697797 
L 331.244642 341.922116 
L 334.291325 340.47017 
L 341.603365 337.021819 
L 345.259384 335.247895 
L 347.087394 334.297736 
L 347.696731 333.954098 
L 348.915404 333.43102 
L 351.962087 332.122391 
L 353.18076 331.50225 
L 354.399433 331.022299 
L 358.055453 329.282621 
L 360.492799 328.181085 
L 365.367492 325.831004 
L 381.819581 317.941769 
L 384.256927 316.774763 
L 388.522283 314.740825 
L 392.178303 312.95272 
L 403.755699 307.676834 
L 414.114421 302.596193 
L 415.333094 302.01483 
L 417.161104 301.111332 
L 418.379777 300.367961 
L 420.817124 299.288155 
L 425.08248 297.296116 
L 426.301153 296.777601 
L 427.519826 296.144869 
L 431.785183 294.224147 
L 433.613193 293.404559 
L 437.269212 291.576671 
L 439.097222 290.723863 
L 442.143905 289.278206 
L 445.190588 287.849838 
L 450.065281 285.503442 
L 452.502627 284.239485 
L 461.03334 280.278933 
L 462.86135 279.356352 
L 466.517369 277.6072 
L 468.954716 276.429738 
L 472.610736 274.629101 
L 476.876092 272.585045 
L 480.532111 270.810017 
L 482.360121 269.943348 
L 485.406804 268.42376 
L 495.15619 263.835765 
L 497.593537 262.680626 
L 500.030883 261.440716 
L 502.468229 260.260061 
L 506.124249 258.594528 
L 521.357664 251.431358 
L 522.576338 250.806779 
L 524.404347 249.985473 
L 529.27904 247.633746 
L 542.075109 241.361002 
L 544.512455 240.249119 
L 551.824495 236.552181 
L 554.261841 235.380583 
L 555.480514 234.801569 
L 558.527197 233.386702 
L 570.104593 227.942594 
L 571.932603 227.062462 
L 586.556682 220.137956 
L 587.166018 219.672476 
L 594.478057 216.06538 
L 596.306067 215.157478 
L 599.35275 213.663067 
L 601.18076 212.740998 
L 603.00877 211.896712 
L 604.83678 211.02505 
L 607.274126 209.832411 
L 608.492799 209.06874 
L 613.976829 206.00009 
L 614.586166 205.723905 
L 615.195502 205.233844 
L 618.851522 203.438649 
L 625.554225 200.164366 
L 629.210244 198.135965 
L 631.038254 197.268884 
L 633.4756 195.948601 
L 634.084937 195.464416 
L 638.95963 192.874302 
L 641.396976 191.642028 
L 643.224986 190.757157 
L 643.834323 190.255271 
L 646.271669 189.128285 
L 646.881006 188.742777 
L 647.490342 188.508438 
L 649.927689 187.111271 
L 657.239728 182.929718 
L 660.286411 181.417883 
L 665.770441 178.596617 
L 666.989114 177.911336 
L 668.817124 176.984973 
L 669.42646 176.489769 
L 673.08248 174.582081 
L 682.222529 169.848519 
L 684.050539 169.002857 
L 685.269212 168.259352 
L 686.487885 167.602307 
L 691.971915 164.712519 
L 694.409261 163.579774 
L 694.409261 163.579774 
" clip-path="url(#pb888a72f0a)" style="fill: none; stroke: #55a868; stroke-width: 1.5; stroke-linecap: round"/>
   </g>
   <g id="line2d_19">
    <path d="M 85.681989 466.438153 
L 86.900662 465.719368 
L 89.947345 463.502682 
L 93.603365 460.742441 
L 94.822038 460.108555 
L 99.087394 457.207974 
L 102.134077 455.373637 
L 103.35275 454.692477 
L 105.790097 453.133751 
L 108.227443 451.712558 
L 109.446116 450.99955 
L 110.66479 450.203508 
L 113.102136 448.760085 
L 116.148819 446.847419 
L 122.242185 442.937136 
L 124.070195 441.996353 
L 126.507541 440.508039 
L 128.335551 439.393103 
L 130.163561 438.071618 
L 133.210244 436.092872 
L 133.819581 435.621937 
L 135.038254 434.924928 
L 136.866264 433.787436 
L 138.084937 433.071508 
L 144.178303 429.043923 
L 146.006313 427.941744 
L 149.662333 425.511249 
L 150.881006 424.663956 
L 163.067738 416.788187 
L 164.286411 416.044024 
L 172.817124 410.630815 
L 178.91049 406.769662 
L 180.129163 405.847671 
L 183.175846 403.785825 
L 185.003856 402.77213 
L 186.831866 401.628805 
L 192.315895 398.143572 
L 198.409261 394.377099 
L 199.627935 393.588609 
L 202.674618 391.718233 
L 203.893291 390.9481 
L 205.111964 390.116543 
L 208.158647 388.078237 
L 210.595994 386.524255 
L 212.424003 385.371499 
L 218.517369 381.800582 
L 219.736043 381.054618 
L 220.954716 380.136971 
L 223.392062 378.45132 
L 231.313438 373.395768 
L 233.141448 372.34035 
L 236.188131 370.49797 
L 242.890834 366.240572 
L 244.109507 365.549516 
L 245.937517 364.278059 
L 248.9842 362.472388 
L 249.593537 361.909376 
L 250.202873 361.566666 
L 250.81221 361.008004 
L 252.64022 359.881656 
L 253.858893 359.007278 
L 255.077566 358.19347 
L 261.170932 353.667807 
L 262.389605 352.921367 
L 262.998942 352.191062 
L 264.217615 351.353267 
L 267.264298 349.364699 
L 268.482971 348.551099 
L 272.138991 345.946731 
L 273.357664 345.14127 
L 275.795011 343.556499 
L 277.623021 342.446845 
L 278.232357 341.828959 
L 279.45103 341.003655 
L 281.27904 339.380945 
L 287.981743 334.812348 
L 289.809753 333.470335 
L 290.419089 333.144167 
L 291.637763 332.229432 
L 293.465772 331.096232 
L 299.559139 326.653374 
L 300.168475 326.081995 
L 301.387148 325.361211 
L 303.824495 323.62034 
L 305.043168 322.853101 
L 306.261841 322.062335 
L 308.699188 320.070223 
L 309.917861 319.275325 
L 311.745871 317.801291 
L 313.573881 316.656091 
L 320.276583 312.072809 
L 321.495256 311.005451 
L 323.932603 309.46108 
L 325.760613 308.235116 
L 328.197959 306.266081 
L 331.853979 303.656518 
L 334.291325 301.815377 
L 335.509998 300.623729 
L 340.384691 297.427273 
L 342.822038 295.731228 
L 343.431374 295.136545 
L 347.696731 292.208118 
L 349.52474 290.879913 
L 360.492799 283.799415 
L 369.023512 278.690608 
L 370.851522 277.550588 
L 372.070195 276.701792 
L 373.898205 275.510306 
L 376.335551 273.921059 
L 380.600908 271.271538 
L 382.428917 269.951356 
L 384.256927 268.868261 
L 390.95963 264.529541 
L 394.006313 262.647416 
L 406.802382 254.292238 
L 412.286411 250.728522 
L 413.505084 249.911715 
L 417.770441 247.310497 
L 418.989114 246.428284 
L 422.645134 244.016813 
L 424.473143 242.886123 
L 431.785183 238.346841 
L 433.613193 237.210548 
L 435.441202 236.051959 
L 436.050539 235.554401 
L 438.487885 234.168579 
L 447.018598 228.519804 
L 449.455944 226.859513 
L 459.20533 220.68954 
L 461.03334 219.534074 
L 462.252013 218.789386 
L 464.080023 217.652324 
L 467.126706 215.593021 
L 468.345379 214.906771 
L 470.173389 213.665284 
L 477.485428 209.269501 
L 479.313438 207.907132 
L 482.360121 206.013927 
L 484.188131 204.731564 
L 486.016141 203.623252 
L 487.234814 202.673307 
L 488.453487 201.787494 
L 492.718844 199.133014 
L 493.32818 198.829054 
L 495.15619 197.586077 
L 506.124249 190.716553 
L 507.342922 189.957202 
L 508.561596 189.247474 
L 511.608279 187.21523 
L 515.264298 184.879839 
L 517.092308 183.731517 
L 528.060367 176.728556 
L 529.888377 175.611211 
L 533.544396 173.351344 
L 534.76307 172.524572 
L 535.981743 171.781499 
L 537.200416 170.854925 
L 538.419089 170.177203 
L 540.856436 168.571064 
L 542.075109 167.870324 
L 542.684446 167.382286 
L 543.903119 166.638359 
L 548.168475 163.868276 
L 552.433831 161.30987 
L 560.964544 155.681983 
L 561.573881 155.182865 
L 565.839237 152.636572 
L 567.05791 151.933358 
L 568.88592 150.70549 
L 570.71393 149.470936 
L 573.760613 147.612452 
L 583.509998 141.480134 
L 584.119335 140.832292 
L 587.166018 138.781685 
L 592.650048 135.191728 
L 593.259384 134.604513 
L 594.478057 133.914901 
L 595.696731 132.971551 
L 596.915404 132.201956 
L 598.134077 131.432083 
L 599.35275 130.667427 
L 600.571424 129.696474 
L 602.399433 128.400043 
L 603.00877 128.068572 
L 604.227443 126.906605 
L 607.274126 124.99884 
L 614.586166 119.697462 
L 615.804839 118.950995 
L 617.023512 118.03269 
L 618.851522 116.758725 
L 620.070195 116.056621 
L 621.288868 115.033797 
L 622.507541 114.296505 
L 623.116878 113.802349 
L 624.335551 113.090011 
L 626.163561 111.648404 
L 627.991571 110.232218 
L 629.210244 109.163533 
L 631.647591 107.512769 
L 632.866264 106.613514 
L 633.4756 106.277529 
L 636.522283 104.010061 
L 637.13162 103.715083 
L 639.568967 101.902529 
L 640.78764 101.137273 
L 643.834323 98.958422 
L 645.662333 97.980945 
L 646.271669 97.401013 
L 648.099679 96.225492 
L 649.318352 95.358519 
L 652.974372 92.985602 
L 654.193045 92.111305 
L 655.411718 91.371883 
L 656.630392 90.395086 
L 659.677075 88.521669 
L 660.895748 87.327362 
L 663.333094 85.845583 
L 665.161104 84.707177 
L 665.770441 84.286752 
L 666.989114 83.320044 
L 670.035797 81.220813 
L 671.863807 79.957468 
L 672.473143 79.133871 
L 673.691817 78.368619 
L 681.613193 72.758198 
L 682.222529 72.198882 
L 682.831866 71.857993 
L 685.269212 69.7243 
L 686.487885 68.698968 
L 690.143905 66.34465 
L 690.753242 65.796393 
L 691.362578 65.451564 
L 692.581252 64.534487 
L 694.409261 63.434 
L 694.409261 63.434 
" clip-path="url(#pb888a72f0a)" style="fill: none; stroke: #c44e52; stroke-width: 1.5; stroke-linecap: round"/>
   </g>
   <g id="line2d_20"/>
   <g id="line2d_21"/>
   <g id="line2d_22"/>
   <g id="line2d_23"/>
   <g id="patch_3">
    <path d="M 55.245625 486.794 
L 55.245625 43.274 
" style="fill: none; stroke: #ffffff; stroke-width: 1.25; stroke-linejoin: miter; stroke-linecap: square"/>
   </g>
   <g id="patch_4">
    <path d="M 724.845625 486.794 
L 724.845625 43.274 
" style="fill: none; stroke: #ffffff; stroke-width: 1.25; stroke-linejoin: miter; stroke-linecap: square"/>
   </g>
   <g id="patch_5">
    <path d="M 55.245625 486.794 
L 724.845625 486.794 
" style="fill: none; stroke: #ffffff; stroke-width: 1.25; stroke-linejoin: miter; stroke-linecap: square"/>
   </g>
   <g id="patch_6">
    <path d="M 55.245625 43.274 
L 724.845625 43.274 
" style="fill: none; stroke: #ffffff; stroke-width: 1.25; stroke-linejoin: miter; stroke-linecap: square"/>
   </g>
   <g id="text_18">
    <!-- Dependency of time spent on trees built by Random Forest, -->
    <g style="fill: #262626" transform="translate(150.676875 19.3575)scale(0.16 -0.16)">
     <defs>
      <path id="DejaVuSans-44" d="M 1259 4147 
L 1259 519 
L 2022 519 
Q 2988 519 3436 956 
Q 3884 1394 3884 2338 
Q 3884 3275 3436 3711 
Q 2988 4147 2022 4147 
L 1259 4147 
z
M 628 4666 
L 1925 4666 
Q 3281 4666 3915 4102 
Q 4550 3538 4550 2338 
Q 4550 1131 3912 565 
Q 3275 0 1925 0 
L 628 0 
L 628 4666 
z
" transform="scale(0.015625)"/>
      <path id="DejaVuSans-64" d="M 2906 2969 
L 2906 4863 
L 3481 4863 
L 3481 0 
L 2906 0 
L 2906 525 
Q 2725 213 2448 61 
Q 2172 -91 1784 -91 
Q 1150 -91 751 415 
Q 353 922 353 1747 
Q 353 2572 751 3078 
Q 1150 3584 1784 3584 
Q 2172 3584 2448 3432 
Q 2725 3281 2906 2969 
z
M 947 1747 
Q 947 1113 1208 752 
Q 1469 391 1925 391 
Q 2381 391 2643 752 
Q 2906 1113 2906 1747 
Q 2906 2381 2643 2742 
Q 2381 3103 1925 3103 
Q 1469 3103 1208 2742 
Q 947 2381 947 1747 
z
" transform="scale(0.015625)"/>
      <path id="DejaVuSans-63" d="M 3122 3366 
L 3122 2828 
Q 2878 2963 2633 3030 
Q 2388 3097 2138 3097 
Q 1578 3097 1268 2742 
Q 959 2388 959 1747 
Q 959 1106 1268 751 
Q 1578 397 2138 397 
Q 2388 397 2633 464 
Q 2878 531 3122 666 
L 3122 134 
Q 2881 22 2623 -34 
Q 2366 -91 2075 -91 
Q 1284 -91 818 406 
Q 353 903 353 1747 
Q 353 2603 823 3093 
Q 1294 3584 2113 3584 
Q 2378 3584 2631 3529 
Q 2884 3475 3122 3366 
z
" transform="scale(0.015625)"/>
      <path id="DejaVuSans-79" d="M 2059 -325 
Q 1816 -950 1584 -1140 
Q 1353 -1331 966 -1331 
L 506 -1331 
L 506 -850 
L 844 -850 
Q 1081 -850 1212 -737 
Q 1344 -625 1503 -206 
L 1606 56 
L 191 3500 
L 800 3500 
L 1894 763 
L 2988 3500 
L 3597 3500 
L 2059 -325 
z
" transform="scale(0.015625)"/>
      <path id="DejaVuSans-6f" d="M 1959 3097 
Q 1497 3097 1228 2736 
Q 959 2375 959 1747 
Q 959 1119 1226 758 
Q 1494 397 1959 397 
Q 2419 397 2687 759 
Q 2956 1122 2956 1747 
Q 2956 2369 2687 2733 
Q 2419 3097 1959 3097 
z
M 1959 3584 
Q 2709 3584 3137 3096 
Q 3566 2609 3566 1747 
Q 3566 888 3137 398 
Q 2709 -91 1959 -91 
Q 1206 -91 779 398 
Q 353 888 353 1747 
Q 353 2609 779 3096 
Q 1206 3584 1959 3584 
z
" transform="scale(0.015625)"/>
      <path id="DejaVuSans-66" d="M 2375 4863 
L 2375 4384 
L 1825 4384 
Q 1516 4384 1395 4259 
Q 1275 4134 1275 3809 
L 1275 3500 
L 2222 3500 
L 2222 3053 
L 1275 3053 
L 1275 0 
L 697 0 
L 697 3053 
L 147 3053 
L 147 3500 
L 697 3500 
L 697 3744 
Q 697 4328 969 4595 
Q 1241 4863 1831 4863 
L 2375 4863 
z
" transform="scale(0.015625)"/>
      <path id="DejaVuSans-52" d="M 2841 2188 
Q 3044 2119 3236 1894 
Q 3428 1669 3622 1275 
L 4263 0 
L 3584 0 
L 2988 1197 
Q 2756 1666 2539 1819 
Q 2322 1972 1947 1972 
L 1259 1972 
L 1259 0 
L 628 0 
L 628 4666 
L 2053 4666 
Q 2853 4666 3247 4331 
Q 3641 3997 3641 3322 
Q 3641 2881 3436 2590 
Q 3231 2300 2841 2188 
z
M 1259 4147 
L 1259 2491 
L 2053 2491 
Q 2509 2491 2742 2702 
Q 2975 2913 2975 3322 
Q 2975 3731 2742 3939 
Q 2509 4147 2053 4147 
L 1259 4147 
z
" transform="scale(0.015625)"/>
      <path id="DejaVuSans-61" d="M 2194 1759 
Q 1497 1759 1228 1600 
Q 959 1441 959 1056 
Q 959 750 1161 570 
Q 1363 391 1709 391 
Q 2188 391 2477 730 
Q 2766 1069 2766 1631 
L 2766 1759 
L 2194 1759 
z
M 3341 1997 
L 3341 0 
L 2766 0 
L 2766 531 
Q 2569 213 2275 61 
Q 1981 -91 1556 -91 
Q 1019 -91 701 211 
Q 384 513 384 1019 
Q 384 1609 779 1909 
Q 1175 2209 1959 2209 
L 2766 2209 
L 2766 2266 
Q 2766 2663 2505 2880 
Q 2244 3097 1772 3097 
Q 1472 3097 1187 3025 
Q 903 2953 641 2809 
L 641 3341 
Q 956 3463 1253 3523 
Q 1550 3584 1831 3584 
Q 2591 3584 2966 3190 
Q 3341 2797 3341 1997 
z
" transform="scale(0.015625)"/>
      <path id="DejaVuSans-46" d="M 628 4666 
L 3309 4666 
L 3309 4134 
L 1259 4134 
L 1259 2759 
L 3109 2759 
L 3109 2228 
L 1259 2228 
L 1259 0 
L 628 0 
L 628 4666 
z
" transform="scale(0.015625)"/>
     </defs>
     <use xlink:href="#DejaVuSans-44"/>
     <use xlink:href="#DejaVuSans-65" x="77.001953"/>
     <use xlink:href="#DejaVuSans-70" x="138.525391"/>
     <use xlink:href="#DejaVuSans-65" x="202.001953"/>
     <use xlink:href="#DejaVuSans-6e" x="263.525391"/>
     <use xlink:href="#DejaVuSans-64" x="326.904297"/>
     <use xlink:href="#DejaVuSans-65" x="390.380859"/>
     <use xlink:href="#DejaVuSans-6e" x="451.904297"/>
     <use xlink:href="#DejaVuSans-63" x="515.283203"/>
     <use xlink:href="#DejaVuSans-79" x="570.263672"/>
     <use xlink:href="#DejaVuSans-20" x="629.443359"/>
     <use xlink:href="#DejaVuSans-6f" x="661.230469"/>
     <use xlink:href="#DejaVuSans-66" x="722.412109"/>
     <use xlink:href="#DejaVuSans-20" x="757.617188"/>
     <use xlink:href="#DejaVuSans-74" x="789.404297"/>
     <use xlink:href="#DejaVuSans-69" x="828.613281"/>
     <use xlink:href="#DejaVuSans-6d" x="856.396484"/>
     <use xlink:href="#DejaVuSans-65" x="953.808594"/>
     <use xlink:href="#DejaVuSans-20" x="1015.332031"/>
     <use xlink:href="#DejaVuSans-73" x="1047.119141"/>
     <use xlink:href="#DejaVuSans-70" x="1099.21875"/>
     <use xlink:href="#DejaVuSans-65" x="1162.695312"/>
     <use xlink:href="#DejaVuSans-6e" x="1224.21875"/>
     <use xlink:href="#DejaVuSans-74" x="1287.597656"/>
     <use xlink:href="#DejaVuSans-20" x="1326.806641"/>
     <use xlink:href="#DejaVuSans-6f" x="1358.59375"/>
     <use xlink:href="#DejaVuSans-6e" x="1419.775391"/>
     <use xlink:href="#DejaVuSans-20" x="1483.154297"/>
     <use xlink:href="#DejaVuSans-74" x="1514.941406"/>
     <use xlink:href="#DejaVuSans-72" x="1554.150391"/>
     <use xlink:href="#DejaVuSans-65" x="1593.013672"/>
     <use xlink:href="#DejaVuSans-65" x="1654.537109"/>
     <use xlink:href="#DejaVuSans-73" x="1716.060547"/>
     <use xlink:href="#DejaVuSans-20" x="1768.160156"/>
     <use xlink:href="#DejaVuSans-62" x="1799.947266"/>
     <use xlink:href="#DejaVuSans-75" x="1863.423828"/>
     <use xlink:href="#DejaVuSans-69" x="1926.802734"/>
     <use xlink:href="#DejaVuSans-6c" x="1954.585938"/>
     <use xlink:href="#DejaVuSans-74" x="1982.369141"/>
     <use xlink:href="#DejaVuSans-20" x="2021.578125"/>
     <use xlink:href="#DejaVuSans-62" x="2053.365234"/>
     <use xlink:href="#DejaVuSans-79" x="2116.841797"/>
     <use xlink:href="#DejaVuSans-20" x="2176.021484"/>
     <use xlink:href="#DejaVuSans-52" x="2207.808594"/>
     <use xlink:href="#DejaVuSans-61" x="2275.041016"/>
     <use xlink:href="#DejaVuSans-6e" x="2336.320312"/>
     <use xlink:href="#DejaVuSans-64" x="2399.699219"/>
     <use xlink:href="#DejaVuSans-6f" x="2463.175781"/>
     <use xlink:href="#DejaVuSans-6d" x="2524.357422"/>
     <use xlink:href="#DejaVuSans-20" x="2621.769531"/>
     <use xlink:href="#DejaVuSans-46" x="2653.556641"/>
     <use xlink:href="#DejaVuSans-6f" x="2707.451172"/>
     <use xlink:href="#DejaVuSans-72" x="2768.632812"/>
     <use xlink:href="#DejaVuSans-65" x="2807.496094"/>
     <use xlink:href="#DejaVuSans-73" x="2869.019531"/>
     <use xlink:href="#DejaVuSans-74" x="2921.119141"/>
     <use xlink:href="#DejaVuSans-2c" x="2960.328125"/>
    </g>
    <!-- with different values of max samples -->
    <g style="fill: #262626" transform="translate(241.853125 37.274)scale(0.16 -0.16)">
     <defs>
      <path id="DejaVuSans-77" d="M 269 3500 
L 844 3500 
L 1563 769 
L 2278 3500 
L 2956 3500 
L 3675 769 
L 4391 3500 
L 4966 3500 
L 4050 0 
L 3372 0 
L 2619 2869 
L 1863 0 
L 1184 0 
L 269 3500 
z
" transform="scale(0.015625)"/>
      <path id="DejaVuSans-68" d="M 3513 2113 
L 3513 0 
L 2938 0 
L 2938 2094 
Q 2938 2591 2744 2837 
Q 2550 3084 2163 3084 
Q 1697 3084 1428 2787 
Q 1159 2491 1159 1978 
L 1159 0 
L 581 0 
L 581 4863 
L 1159 4863 
L 1159 2956 
Q 1366 3272 1645 3428 
Q 1925 3584 2291 3584 
Q 2894 3584 3203 3211 
Q 3513 2838 3513 2113 
z
" transform="scale(0.015625)"/>
      <path id="DejaVuSans-76" d="M 191 3500 
L 800 3500 
L 1894 563 
L 2988 3500 
L 3597 3500 
L 2284 0 
L 1503 0 
L 191 3500 
z
" transform="scale(0.015625)"/>
      <path id="DejaVuSans-78" d="M 3513 3500 
L 2247 1797 
L 3578 0 
L 2900 0 
L 1881 1375 
L 863 0 
L 184 0 
L 1544 1831 
L 300 3500 
L 978 3500 
L 1906 2253 
L 2834 3500 
L 3513 3500 
z
" transform="scale(0.015625)"/>
     </defs>
     <use xlink:href="#DejaVuSans-77"/>
     <use xlink:href="#DejaVuSans-69" x="81.787109"/>
     <use xlink:href="#DejaVuSans-74" x="109.570312"/>
     <use xlink:href="#DejaVuSans-68" x="148.779297"/>
     <use xlink:href="#DejaVuSans-20" x="212.158203"/>
     <use xlink:href="#DejaVuSans-64" x="243.945312"/>
     <use xlink:href="#DejaVuSans-69" x="307.421875"/>
     <use xlink:href="#DejaVuSans-66" x="335.205078"/>
     <use xlink:href="#DejaVuSans-66" x="370.410156"/>
     <use xlink:href="#DejaVuSans-65" x="405.615234"/>
     <use xlink:href="#DejaVuSans-72" x="467.138672"/>
     <use xlink:href="#DejaVuSans-65" x="506.001953"/>
     <use xlink:href="#DejaVuSans-6e" x="567.525391"/>
     <use xlink:href="#DejaVuSans-74" x="630.904297"/>
     <use xlink:href="#DejaVuSans-20" x="670.113281"/>
     <use xlink:href="#DejaVuSans-76" x="701.900391"/>
     <use xlink:href="#DejaVuSans-61" x="761.080078"/>
     <use xlink:href="#DejaVuSans-6c" x="822.359375"/>
     <use xlink:href="#DejaVuSans-75" x="850.142578"/>
     <use xlink:href="#DejaVuSans-65" x="913.521484"/>
     <use xlink:href="#DejaVuSans-73" x="975.044922"/>
     <use xlink:href="#DejaVuSans-20" x="1027.144531"/>
     <use xlink:href="#DejaVuSans-6f" x="1058.931641"/>
     <use xlink:href="#DejaVuSans-66" x="1120.113281"/>
     <use xlink:href="#DejaVuSans-20" x="1155.318359"/>
     <use xlink:href="#DejaVuSans-6d" x="1187.105469"/>
     <use xlink:href="#DejaVuSans-61" x="1284.517578"/>
     <use xlink:href="#DejaVuSans-78" x="1345.796875"/>
     <use xlink:href="#DejaVuSans-20" x="1404.976562"/>
     <use xlink:href="#DejaVuSans-73" x="1436.763672"/>
     <use xlink:href="#DejaVuSans-61" x="1488.863281"/>
     <use xlink:href="#DejaVuSans-6d" x="1550.142578"/>
     <use xlink:href="#DejaVuSans-70" x="1647.554688"/>
     <use xlink:href="#DejaVuSans-6c" x="1711.03125"/>
     <use xlink:href="#DejaVuSans-65" x="1738.814453"/>
     <use xlink:href="#DejaVuSans-73" x="1800.337891"/>
    </g>
   </g>
   <g id="legend_1">
    <g id="patch_7">
     <path d="M 62.945625 133.7715 
L 147.185 133.7715 
Q 149.385 133.7715 149.385 131.5715 
L 149.385 50.974 
Q 149.385 48.774 147.185 48.774 
L 62.945625 48.774 
Q 60.745625 48.774 60.745625 50.974 
L 60.745625 131.5715 
Q 60.745625 133.7715 62.945625 133.7715 
z
" style="fill: #eaeaf2; opacity: 0.8; stroke: #cccccc; stroke-linejoin: miter"/>
    </g>
    <g id="text_19">
     <!-- max samples -->
     <g style="fill: #262626" transform="translate(65.145625 62.292125)scale(0.12 -0.12)">
      <use xlink:href="#DejaVuSans-6d"/>
      <use xlink:href="#DejaVuSans-61" x="97.412109"/>
      <use xlink:href="#DejaVuSans-78" x="158.691406"/>
      <use xlink:href="#DejaVuSans-20" x="217.871094"/>
      <use xlink:href="#DejaVuSans-73" x="249.658203"/>
      <use xlink:href="#DejaVuSans-61" x="301.757812"/>
      <use xlink:href="#DejaVuSans-6d" x="363.037109"/>
      <use xlink:href="#DejaVuSans-70" x="460.449219"/>
      <use xlink:href="#DejaVuSans-6c" x="523.925781"/>
      <use xlink:href="#DejaVuSans-65" x="551.708984"/>
      <use xlink:href="#DejaVuSans-73" x="613.232422"/>
     </g>
    </g>
    <g id="line2d_24">
     <path d="M 77.287734 74.796031 
L 88.287734 74.796031 
L 99.287734 74.796031 
" style="fill: none; stroke: #4c72b0; stroke-width: 1.5; stroke-linecap: round"/>
    </g>
    <g id="text_20">
     <!-- auto -->
     <g style="fill: #262626" transform="translate(108.087734 78.646031)scale(0.11 -0.11)">
      <use xlink:href="#DejaVuSans-61"/>
      <use xlink:href="#DejaVuSans-75" x="61.279297"/>
      <use xlink:href="#DejaVuSans-74" x="124.658203"/>
      <use xlink:href="#DejaVuSans-6f" x="163.867188"/>
     </g>
    </g>
    <g id="line2d_25">
     <path d="M 77.287734 90.941969 
L 88.287734 90.941969 
L 99.287734 90.941969 
" style="fill: none; stroke: #dd8452; stroke-width: 1.5; stroke-linecap: round"/>
    </g>
    <g id="text_21">
     <!-- 0.3 -->
     <g style="fill: #262626" transform="translate(108.087734 94.791969)scale(0.11 -0.11)">
      <defs>
       <path id="DejaVuSans-2e" d="M 684 794 
L 1344 794 
L 1344 0 
L 684 0 
L 684 794 
z
" transform="scale(0.015625)"/>
       <path id="DejaVuSans-33" d="M 2597 2516 
Q 3050 2419 3304 2112 
Q 3559 1806 3559 1356 
Q 3559 666 3084 287 
Q 2609 -91 1734 -91 
Q 1441 -91 1130 -33 
Q 819 25 488 141 
L 488 750 
Q 750 597 1062 519 
Q 1375 441 1716 441 
Q 2309 441 2620 675 
Q 2931 909 2931 1356 
Q 2931 1769 2642 2001 
Q 2353 2234 1838 2234 
L 1294 2234 
L 1294 2753 
L 1863 2753 
Q 2328 2753 2575 2939 
Q 2822 3125 2822 3475 
Q 2822 3834 2567 4026 
Q 2313 4219 1838 4219 
Q 1578 4219 1281 4162 
Q 984 4106 628 3988 
L 628 4550 
Q 988 4650 1302 4700 
Q 1616 4750 1894 4750 
Q 2613 4750 3031 4423 
Q 3450 4097 3450 3541 
Q 3450 3153 3228 2886 
Q 3006 2619 2597 2516 
z
" transform="scale(0.015625)"/>
      </defs>
      <use xlink:href="#DejaVuSans-30"/>
      <use xlink:href="#DejaVuSans-2e" x="63.623047"/>
      <use xlink:href="#DejaVuSans-33" x="95.410156"/>
     </g>
    </g>
    <g id="line2d_26">
     <path d="M 77.287734 107.087906 
L 88.287734 107.087906 
L 99.287734 107.087906 
" style="fill: none; stroke: #55a868; stroke-width: 1.5; stroke-linecap: round"/>
    </g>
    <g id="text_22">
     <!-- 0.75 -->
     <g style="fill: #262626" transform="translate(108.087734 110.937906)scale(0.11 -0.11)">
      <defs>
       <path id="DejaVuSans-37" d="M 525 4666 
L 3525 4666 
L 3525 4397 
L 1831 0 
L 1172 0 
L 2766 4134 
L 525 4134 
L 525 4666 
z
" transform="scale(0.015625)"/>
       <path id="DejaVuSans-35" d="M 691 4666 
L 3169 4666 
L 3169 4134 
L 1269 4134 
L 1269 2991 
Q 1406 3038 1543 3061 
Q 1681 3084 1819 3084 
Q 2600 3084 3056 2656 
Q 3513 2228 3513 1497 
Q 3513 744 3044 326 
Q 2575 -91 1722 -91 
Q 1428 -91 1123 -41 
Q 819 9 494 109 
L 494 744 
Q 775 591 1075 516 
Q 1375 441 1709 441 
Q 2250 441 2565 725 
Q 2881 1009 2881 1497 
Q 2881 1984 2565 2268 
Q 2250 2553 1709 2553 
Q 1456 2553 1204 2497 
Q 953 2441 691 2322 
L 691 4666 
z
" transform="scale(0.015625)"/>
      </defs>
      <use xlink:href="#DejaVuSans-30"/>
      <use xlink:href="#DejaVuSans-2e" x="63.623047"/>
      <use xlink:href="#DejaVuSans-37" x="95.410156"/>
      <use xlink:href="#DejaVuSans-35" x="159.033203"/>
     </g>
    </g>
    <g id="line2d_27">
     <path d="M 77.287734 123.233844 
L 88.287734 123.233844 
L 99.287734 123.233844 
" style="fill: none; stroke: #c44e52; stroke-width: 1.5; stroke-linecap: round"/>
    </g>
    <g id="text_23">
     <!-- 1.0 -->
     <g style="fill: #262626" transform="translate(108.087734 127.083844)scale(0.11 -0.11)">
      <use xlink:href="#DejaVuSans-31"/>
      <use xlink:href="#DejaVuSans-2e" x="63.623047"/>
      <use xlink:href="#DejaVuSans-30" x="95.410156"/>
     </g>
    </g>
   </g>
  </g>
 </g>
 <defs>
  <clipPath id="pb888a72f0a">
   <rect x="55.245625" y="43.274" width="669.6" height="443.52"/>
  </clipPath>
 </defs>
</svg>
