<?xml version="1.0" encoding="utf-8" standalone="no"?>
<!DOCTYPE svg PUBLIC "-//W3C//DTD SVG 1.1//EN"
  "http://www.w3.org/Graphics/SVG/1.1/DTD/svg11.dtd">
<svg xmlns:xlink="http://www.w3.org/1999/xlink" width="732.045625pt" height="531.689312pt" viewBox="0 0 732.045625 531.689312" xmlns="http://www.w3.org/2000/svg" version="1.1">
 <metadata>
  <rdf:RDF xmlns:dc="http://purl.org/dc/elements/1.1/" xmlns:cc="http://creativecommons.org/ns#" xmlns:rdf="http://www.w3.org/1999/02/22-rdf-syntax-ns#">
   <cc:Work>
    <dc:type rdf:resource="http://purl.org/dc/dcmitype/StillImage"/>
    <dc:date>2022-12-16T22:24:40.498900</dc:date>
    <dc:format>image/svg+xml</dc:format>
    <dc:creator>
     <cc:Agent>
      <dc:title>Matplotlib v3.5.2, https://matplotlib.org/</dc:title>
     </cc:Agent>
    </dc:creator>
   </cc:Work>
  </rdf:RDF>
 </metadata>
 <defs>
  <style type="text/css">*{stroke-linejoin: round; stroke-linecap: butt}</style>
 </defs>
 <g id="figure_1">
  <g id="patch_1">
   <path d="M 0 531.689312 
L 732.045625 531.689312 
L 732.045625 0 
L 0 0 
z
" style="fill: #ffffff"/>
  </g>
  <g id="axes_1">
   <g id="patch_2">
    <path d="M 55.245625 486.794 
L 724.845625 486.794 
L 724.845625 43.274 
L 55.245625 43.274 
z
" style="fill: #eaeaf2"/>
   </g>
   <g id="matplotlib.axis_1">
    <g id="xtick_1">
     <g id="line2d_1">
      <path d="M 85.681989 486.794 
L 85.681989 43.274 
" clip-path="url(#pdea1abd620)" style="fill: none; stroke: #ffffff; stroke-linecap: round"/>
     </g>
     <g id="text_1">
      <!-- 0 -->
      <g style="fill: #262626" transform="translate(82.182614 504.652281)scale(0.11 -0.11)">
       <defs>
        <path id="DejaVuSans-30" d="M 2034 4250 
Q 1547 4250 1301 3770 
Q 1056 3291 1056 2328 
Q 1056 1369 1301 889 
Q 1547 409 2034 409 
Q 2525 409 2770 889 
Q 3016 1369 3016 2328 
Q 3016 3291 2770 3770 
Q 2525 4250 2034 4250 
z
M 2034 4750 
Q 2819 4750 3233 4129 
Q 3647 3509 3647 2328 
Q 3647 1150 3233 529 
Q 2819 -91 2034 -91 
Q 1250 -91 836 529 
Q 422 1150 422 2328 
Q 422 3509 836 4129 
Q 1250 4750 2034 4750 
z
" transform="scale(0.015625)"/>
       </defs>
       <use xlink:href="#DejaVuSans-30"/>
      </g>
     </g>
    </g>
    <g id="xtick_2">
     <g id="line2d_2">
      <path d="M 207.549311 486.794 
L 207.549311 43.274 
" clip-path="url(#pdea1abd620)" style="fill: none; stroke: #ffffff; stroke-linecap: round"/>
     </g>
     <g id="text_2">
      <!-- 200 -->
      <g style="fill: #262626" transform="translate(197.051186 504.652281)scale(0.11 -0.11)">
       <defs>
        <path id="DejaVuSans-32" d="M 1228 531 
L 3431 531 
L 3431 0 
L 469 0 
L 469 531 
Q 828 903 1448 1529 
Q 2069 2156 2228 2338 
Q 2531 2678 2651 2914 
Q 2772 3150 2772 3378 
Q 2772 3750 2511 3984 
Q 2250 4219 1831 4219 
Q 1534 4219 1204 4116 
Q 875 4013 500 3803 
L 500 4441 
Q 881 4594 1212 4672 
Q 1544 4750 1819 4750 
Q 2544 4750 2975 4387 
Q 3406 4025 3406 3419 
Q 3406 3131 3298 2873 
Q 3191 2616 2906 2266 
Q 2828 2175 2409 1742 
Q 1991 1309 1228 531 
z
" transform="scale(0.015625)"/>
       </defs>
       <use xlink:href="#DejaVuSans-32"/>
       <use xlink:href="#DejaVuSans-30" x="63.623047"/>
       <use xlink:href="#DejaVuSans-30" x="127.246094"/>
      </g>
     </g>
    </g>
    <g id="xtick_3">
     <g id="line2d_3">
      <path d="M 329.416632 486.794 
L 329.416632 43.274 
" clip-path="url(#pdea1abd620)" style="fill: none; stroke: #ffffff; stroke-linecap: round"/>
     </g>
     <g id="text_3">
      <!-- 400 -->
      <g style="fill: #262626" transform="translate(318.918507 504.652281)scale(0.11 -0.11)">
       <defs>
        <path id="DejaVuSans-34" d="M 2419 4116 
L 825 1625 
L 2419 1625 
L 2419 4116 
z
M 2253 4666 
L 3047 4666 
L 3047 1625 
L 3713 1625 
L 3713 1100 
L 3047 1100 
L 3047 0 
L 2419 0 
L 2419 1100 
L 313 1100 
L 313 1709 
L 2253 4666 
z
" transform="scale(0.015625)"/>
       </defs>
       <use xlink:href="#DejaVuSans-34"/>
       <use xlink:href="#DejaVuSans-30" x="63.623047"/>
       <use xlink:href="#DejaVuSans-30" x="127.246094"/>
      </g>
     </g>
    </g>
    <g id="xtick_4">
     <g id="line2d_4">
      <path d="M 451.283954 486.794 
L 451.283954 43.274 
" clip-path="url(#pdea1abd620)" style="fill: none; stroke: #ffffff; stroke-linecap: round"/>
     </g>
     <g id="text_4">
      <!-- 600 -->
      <g style="fill: #262626" transform="translate(440.785829 504.652281)scale(0.11 -0.11)">
       <defs>
        <path id="DejaVuSans-36" d="M 2113 2584 
Q 1688 2584 1439 2293 
Q 1191 2003 1191 1497 
Q 1191 994 1439 701 
Q 1688 409 2113 409 
Q 2538 409 2786 701 
Q 3034 994 3034 1497 
Q 3034 2003 2786 2293 
Q 2538 2584 2113 2584 
z
M 3366 4563 
L 3366 3988 
Q 3128 4100 2886 4159 
Q 2644 4219 2406 4219 
Q 1781 4219 1451 3797 
Q 1122 3375 1075 2522 
Q 1259 2794 1537 2939 
Q 1816 3084 2150 3084 
Q 2853 3084 3261 2657 
Q 3669 2231 3669 1497 
Q 3669 778 3244 343 
Q 2819 -91 2113 -91 
Q 1303 -91 875 529 
Q 447 1150 447 2328 
Q 447 3434 972 4092 
Q 1497 4750 2381 4750 
Q 2619 4750 2861 4703 
Q 3103 4656 3366 4563 
z
" transform="scale(0.015625)"/>
       </defs>
       <use xlink:href="#DejaVuSans-36"/>
       <use xlink:href="#DejaVuSans-30" x="63.623047"/>
       <use xlink:href="#DejaVuSans-30" x="127.246094"/>
      </g>
     </g>
    </g>
    <g id="xtick_5">
     <g id="line2d_5">
      <path d="M 573.151276 486.794 
L 573.151276 43.274 
" clip-path="url(#pdea1abd620)" style="fill: none; stroke: #ffffff; stroke-linecap: round"/>
     </g>
     <g id="text_5">
      <!-- 800 -->
      <g style="fill: #262626" transform="translate(562.653151 504.652281)scale(0.11 -0.11)">
       <defs>
        <path id="DejaVuSans-38" d="M 2034 2216 
Q 1584 2216 1326 1975 
Q 1069 1734 1069 1313 
Q 1069 891 1326 650 
Q 1584 409 2034 409 
Q 2484 409 2743 651 
Q 3003 894 3003 1313 
Q 3003 1734 2745 1975 
Q 2488 2216 2034 2216 
z
M 1403 2484 
Q 997 2584 770 2862 
Q 544 3141 544 3541 
Q 544 4100 942 4425 
Q 1341 4750 2034 4750 
Q 2731 4750 3128 4425 
Q 3525 4100 3525 3541 
Q 3525 3141 3298 2862 
Q 3072 2584 2669 2484 
Q 3125 2378 3379 2068 
Q 3634 1759 3634 1313 
Q 3634 634 3220 271 
Q 2806 -91 2034 -91 
Q 1263 -91 848 271 
Q 434 634 434 1313 
Q 434 1759 690 2068 
Q 947 2378 1403 2484 
z
M 1172 3481 
Q 1172 3119 1398 2916 
Q 1625 2713 2034 2713 
Q 2441 2713 2670 2916 
Q 2900 3119 2900 3481 
Q 2900 3844 2670 4047 
Q 2441 4250 2034 4250 
Q 1625 4250 1398 4047 
Q 1172 3844 1172 3481 
z
" transform="scale(0.015625)"/>
       </defs>
       <use xlink:href="#DejaVuSans-38"/>
       <use xlink:href="#DejaVuSans-30" x="63.623047"/>
       <use xlink:href="#DejaVuSans-30" x="127.246094"/>
      </g>
     </g>
    </g>
    <g id="xtick_6">
     <g id="line2d_6">
      <path d="M 695.018598 486.794 
L 695.018598 43.274 
" clip-path="url(#pdea1abd620)" style="fill: none; stroke: #ffffff; stroke-linecap: round"/>
     </g>
     <g id="text_6">
      <!-- 1000 -->
      <g style="fill: #262626" transform="translate(681.021098 504.652281)scale(0.11 -0.11)">
       <defs>
        <path id="DejaVuSans-31" d="M 794 531 
L 1825 531 
L 1825 4091 
L 703 3866 
L 703 4441 
L 1819 4666 
L 2450 4666 
L 2450 531 
L 3481 531 
L 3481 0 
L 794 0 
L 794 531 
z
" transform="scale(0.015625)"/>
       </defs>
       <use xlink:href="#DejaVuSans-31"/>
       <use xlink:href="#DejaVuSans-30" x="63.623047"/>
       <use xlink:href="#DejaVuSans-30" x="127.246094"/>
       <use xlink:href="#DejaVuSans-30" x="190.869141"/>
      </g>
     </g>
    </g>
    <g id="text_7">
     <!-- Trees built -->
     <g style="fill: #262626" transform="translate(354.083125 521.57775)scale(0.14 -0.14)">
      <defs>
       <path id="DejaVuSans-54" d="M -19 4666 
L 3928 4666 
L 3928 4134 
L 2272 4134 
L 2272 0 
L 1638 0 
L 1638 4134 
L -19 4134 
L -19 4666 
z
" transform="scale(0.015625)"/>
       <path id="DejaVuSans-72" d="M 2631 2963 
Q 2534 3019 2420 3045 
Q 2306 3072 2169 3072 
Q 1681 3072 1420 2755 
Q 1159 2438 1159 1844 
L 1159 0 
L 581 0 
L 581 3500 
L 1159 3500 
L 1159 2956 
Q 1341 3275 1631 3429 
Q 1922 3584 2338 3584 
Q 2397 3584 2469 3576 
Q 2541 3569 2628 3553 
L 2631 2963 
z
" transform="scale(0.015625)"/>
       <path id="DejaVuSans-65" d="M 3597 1894 
L 3597 1613 
L 953 1613 
Q 991 1019 1311 708 
Q 1631 397 2203 397 
Q 2534 397 2845 478 
Q 3156 559 3463 722 
L 3463 178 
Q 3153 47 2828 -22 
Q 2503 -91 2169 -91 
Q 1331 -91 842 396 
Q 353 884 353 1716 
Q 353 2575 817 3079 
Q 1281 3584 2069 3584 
Q 2775 3584 3186 3129 
Q 3597 2675 3597 1894 
z
M 3022 2063 
Q 3016 2534 2758 2815 
Q 2500 3097 2075 3097 
Q 1594 3097 1305 2825 
Q 1016 2553 972 2059 
L 3022 2063 
z
" transform="scale(0.015625)"/>
       <path id="DejaVuSans-73" d="M 2834 3397 
L 2834 2853 
Q 2591 2978 2328 3040 
Q 2066 3103 1784 3103 
Q 1356 3103 1142 2972 
Q 928 2841 928 2578 
Q 928 2378 1081 2264 
Q 1234 2150 1697 2047 
L 1894 2003 
Q 2506 1872 2764 1633 
Q 3022 1394 3022 966 
Q 3022 478 2636 193 
Q 2250 -91 1575 -91 
Q 1294 -91 989 -36 
Q 684 19 347 128 
L 347 722 
Q 666 556 975 473 
Q 1284 391 1588 391 
Q 1994 391 2212 530 
Q 2431 669 2431 922 
Q 2431 1156 2273 1281 
Q 2116 1406 1581 1522 
L 1381 1569 
Q 847 1681 609 1914 
Q 372 2147 372 2553 
Q 372 3047 722 3315 
Q 1072 3584 1716 3584 
Q 2034 3584 2315 3537 
Q 2597 3491 2834 3397 
z
" transform="scale(0.015625)"/>
       <path id="DejaVuSans-20" transform="scale(0.015625)"/>
       <path id="DejaVuSans-62" d="M 3116 1747 
Q 3116 2381 2855 2742 
Q 2594 3103 2138 3103 
Q 1681 3103 1420 2742 
Q 1159 2381 1159 1747 
Q 1159 1113 1420 752 
Q 1681 391 2138 391 
Q 2594 391 2855 752 
Q 3116 1113 3116 1747 
z
M 1159 2969 
Q 1341 3281 1617 3432 
Q 1894 3584 2278 3584 
Q 2916 3584 3314 3078 
Q 3713 2572 3713 1747 
Q 3713 922 3314 415 
Q 2916 -91 2278 -91 
Q 1894 -91 1617 61 
Q 1341 213 1159 525 
L 1159 0 
L 581 0 
L 581 4863 
L 1159 4863 
L 1159 2969 
z
" transform="scale(0.015625)"/>
       <path id="DejaVuSans-75" d="M 544 1381 
L 544 3500 
L 1119 3500 
L 1119 1403 
Q 1119 906 1312 657 
Q 1506 409 1894 409 
Q 2359 409 2629 706 
Q 2900 1003 2900 1516 
L 2900 3500 
L 3475 3500 
L 3475 0 
L 2900 0 
L 2900 538 
Q 2691 219 2414 64 
Q 2138 -91 1772 -91 
Q 1169 -91 856 284 
Q 544 659 544 1381 
z
M 1991 3584 
L 1991 3584 
z
" transform="scale(0.015625)"/>
       <path id="DejaVuSans-69" d="M 603 3500 
L 1178 3500 
L 1178 0 
L 603 0 
L 603 3500 
z
M 603 4863 
L 1178 4863 
L 1178 4134 
L 603 4134 
L 603 4863 
z
" transform="scale(0.015625)"/>
       <path id="DejaVuSans-6c" d="M 603 4863 
L 1178 4863 
L 1178 0 
L 603 0 
L 603 4863 
z
" transform="scale(0.015625)"/>
       <path id="DejaVuSans-74" d="M 1172 4494 
L 1172 3500 
L 2356 3500 
L 2356 3053 
L 1172 3053 
L 1172 1153 
Q 1172 725 1289 603 
Q 1406 481 1766 481 
L 2356 481 
L 2356 0 
L 1766 0 
Q 1100 0 847 248 
Q 594 497 594 1153 
L 594 3053 
L 172 3053 
L 172 3500 
L 594 3500 
L 594 4494 
L 1172 4494 
z
" transform="scale(0.015625)"/>
      </defs>
      <use xlink:href="#DejaVuSans-54"/>
      <use xlink:href="#DejaVuSans-72" x="46.333984"/>
      <use xlink:href="#DejaVuSans-65" x="85.197266"/>
      <use xlink:href="#DejaVuSans-65" x="146.720703"/>
      <use xlink:href="#DejaVuSans-73" x="208.244141"/>
      <use xlink:href="#DejaVuSans-20" x="260.34375"/>
      <use xlink:href="#DejaVuSans-62" x="292.130859"/>
      <use xlink:href="#DejaVuSans-75" x="355.607422"/>
      <use xlink:href="#DejaVuSans-69" x="418.986328"/>
      <use xlink:href="#DejaVuSans-6c" x="446.769531"/>
      <use xlink:href="#DejaVuSans-74" x="474.552734"/>
     </g>
    </g>
   </g>
   <g id="matplotlib.axis_2">
    <g id="ytick_1">
     <g id="line2d_7">
      <path d="M 55.245625 466.687193 
L 724.845625 466.687193 
" clip-path="url(#pdea1abd620)" style="fill: none; stroke: #ffffff; stroke-linecap: round"/>
     </g>
     <g id="text_8">
      <!-- 0 -->
      <g style="fill: #262626" transform="translate(38.746875 470.866334)scale(0.11 -0.11)">
       <use xlink:href="#DejaVuSans-30"/>
      </g>
     </g>
    </g>
    <g id="ytick_2">
     <g id="line2d_8">
      <path d="M 55.245625 416.999946 
L 724.845625 416.999946 
" clip-path="url(#pdea1abd620)" style="fill: none; stroke: #ffffff; stroke-linecap: round"/>
     </g>
     <g id="text_9">
      <!-- 20 -->
      <g style="fill: #262626" transform="translate(31.748125 421.179087)scale(0.11 -0.11)">
       <use xlink:href="#DejaVuSans-32"/>
       <use xlink:href="#DejaVuSans-30" x="63.623047"/>
      </g>
     </g>
    </g>
    <g id="ytick_3">
     <g id="line2d_9">
      <path d="M 55.245625 367.312699 
L 724.845625 367.312699 
" clip-path="url(#pdea1abd620)" style="fill: none; stroke: #ffffff; stroke-linecap: round"/>
     </g>
     <g id="text_10">
      <!-- 40 -->
      <g style="fill: #262626" transform="translate(31.748125 371.491839)scale(0.11 -0.11)">
       <use xlink:href="#DejaVuSans-34"/>
       <use xlink:href="#DejaVuSans-30" x="63.623047"/>
      </g>
     </g>
    </g>
    <g id="ytick_4">
     <g id="line2d_10">
      <path d="M 55.245625 317.625452 
L 724.845625 317.625452 
" clip-path="url(#pdea1abd620)" style="fill: none; stroke: #ffffff; stroke-linecap: round"/>
     </g>
     <g id="text_11">
      <!-- 60 -->
      <g style="fill: #262626" transform="translate(31.748125 321.804592)scale(0.11 -0.11)">
       <use xlink:href="#DejaVuSans-36"/>
       <use xlink:href="#DejaVuSans-30" x="63.623047"/>
      </g>
     </g>
    </g>
    <g id="ytick_5">
     <g id="line2d_11">
      <path d="M 55.245625 267.938205 
L 724.845625 267.938205 
" clip-path="url(#pdea1abd620)" style="fill: none; stroke: #ffffff; stroke-linecap: round"/>
     </g>
     <g id="text_12">
      <!-- 80 -->
      <g style="fill: #262626" transform="translate(31.748125 272.117345)scale(0.11 -0.11)">
       <use xlink:href="#DejaVuSans-38"/>
       <use xlink:href="#DejaVuSans-30" x="63.623047"/>
      </g>
     </g>
    </g>
    <g id="ytick_6">
     <g id="line2d_12">
      <path d="M 55.245625 218.250957 
L 724.845625 218.250957 
" clip-path="url(#pdea1abd620)" style="fill: none; stroke: #ffffff; stroke-linecap: round"/>
     </g>
     <g id="text_13">
      <!-- 100 -->
      <g style="fill: #262626" transform="translate(24.749375 222.430098)scale(0.11 -0.11)">
       <use xlink:href="#DejaVuSans-31"/>
       <use xlink:href="#DejaVuSans-30" x="63.623047"/>
       <use xlink:href="#DejaVuSans-30" x="127.246094"/>
      </g>
     </g>
    </g>
    <g id="ytick_7">
     <g id="line2d_13">
      <path d="M 55.245625 168.56371 
L 724.845625 168.56371 
" clip-path="url(#pdea1abd620)" style="fill: none; stroke: #ffffff; stroke-linecap: round"/>
     </g>
     <g id="text_14">
      <!-- 120 -->
      <g style="fill: #262626" transform="translate(24.749375 172.742851)scale(0.11 -0.11)">
       <use xlink:href="#DejaVuSans-31"/>
       <use xlink:href="#DejaVuSans-32" x="63.623047"/>
       <use xlink:href="#DejaVuSans-30" x="127.246094"/>
      </g>
     </g>
    </g>
    <g id="ytick_8">
     <g id="line2d_14">
      <path d="M 55.245625 118.876463 
L 724.845625 118.876463 
" clip-path="url(#pdea1abd620)" style="fill: none; stroke: #ffffff; stroke-linecap: round"/>
     </g>
     <g id="text_15">
      <!-- 140 -->
      <g style="fill: #262626" transform="translate(24.749375 123.055604)scale(0.11 -0.11)">
       <use xlink:href="#DejaVuSans-31"/>
       <use xlink:href="#DejaVuSans-34" x="63.623047"/>
       <use xlink:href="#DejaVuSans-30" x="127.246094"/>
      </g>
     </g>
    </g>
    <g id="ytick_9">
     <g id="line2d_15">
      <path d="M 55.245625 69.189216 
L 724.845625 69.189216 
" clip-path="url(#pdea1abd620)" style="fill: none; stroke: #ffffff; stroke-linecap: round"/>
     </g>
     <g id="text_16">
      <!-- 160 -->
      <g style="fill: #262626" transform="translate(24.749375 73.368357)scale(0.11 -0.11)">
       <use xlink:href="#DejaVuSans-31"/>
       <use xlink:href="#DejaVuSans-36" x="63.623047"/>
       <use xlink:href="#DejaVuSans-30" x="127.246094"/>
      </g>
     </g>
    </g>
    <g id="text_17">
     <!-- Time spent, s -->
     <g style="fill: #262626" transform="translate(17.837813 312.059781)rotate(-90)scale(0.14 -0.14)">
      <defs>
       <path id="DejaVuSans-6d" d="M 3328 2828 
Q 3544 3216 3844 3400 
Q 4144 3584 4550 3584 
Q 5097 3584 5394 3201 
Q 5691 2819 5691 2113 
L 5691 0 
L 5113 0 
L 5113 2094 
Q 5113 2597 4934 2840 
Q 4756 3084 4391 3084 
Q 3944 3084 3684 2787 
Q 3425 2491 3425 1978 
L 3425 0 
L 2847 0 
L 2847 2094 
Q 2847 2600 2669 2842 
Q 2491 3084 2119 3084 
Q 1678 3084 1418 2786 
Q 1159 2488 1159 1978 
L 1159 0 
L 581 0 
L 581 3500 
L 1159 3500 
L 1159 2956 
Q 1356 3278 1631 3431 
Q 1906 3584 2284 3584 
Q 2666 3584 2933 3390 
Q 3200 3197 3328 2828 
z
" transform="scale(0.015625)"/>
       <path id="DejaVuSans-70" d="M 1159 525 
L 1159 -1331 
L 581 -1331 
L 581 3500 
L 1159 3500 
L 1159 2969 
Q 1341 3281 1617 3432 
Q 1894 3584 2278 3584 
Q 2916 3584 3314 3078 
Q 3713 2572 3713 1747 
Q 3713 922 3314 415 
Q 2916 -91 2278 -91 
Q 1894 -91 1617 61 
Q 1341 213 1159 525 
z
M 3116 1747 
Q 3116 2381 2855 2742 
Q 2594 3103 2138 3103 
Q 1681 3103 1420 2742 
Q 1159 2381 1159 1747 
Q 1159 1113 1420 752 
Q 1681 391 2138 391 
Q 2594 391 2855 752 
Q 3116 1113 3116 1747 
z
" transform="scale(0.015625)"/>
       <path id="DejaVuSans-6e" d="M 3513 2113 
L 3513 0 
L 2938 0 
L 2938 2094 
Q 2938 2591 2744 2837 
Q 2550 3084 2163 3084 
Q 1697 3084 1428 2787 
Q 1159 2491 1159 1978 
L 1159 0 
L 581 0 
L 581 3500 
L 1159 3500 
L 1159 2956 
Q 1366 3272 1645 3428 
Q 1925 3584 2291 3584 
Q 2894 3584 3203 3211 
Q 3513 2838 3513 2113 
z
" transform="scale(0.015625)"/>
       <path id="DejaVuSans-2c" d="M 750 794 
L 1409 794 
L 1409 256 
L 897 -744 
L 494 -744 
L 750 256 
L 750 794 
z
" transform="scale(0.015625)"/>
      </defs>
      <use xlink:href="#DejaVuSans-54"/>
      <use xlink:href="#DejaVuSans-69" x="57.958984"/>
      <use xlink:href="#DejaVuSans-6d" x="85.742188"/>
      <use xlink:href="#DejaVuSans-65" x="183.154297"/>
      <use xlink:href="#DejaVuSans-20" x="244.677734"/>
      <use xlink:href="#DejaVuSans-73" x="276.464844"/>
      <use xlink:href="#DejaVuSans-70" x="328.564453"/>
      <use xlink:href="#DejaVuSans-65" x="392.041016"/>
      <use xlink:href="#DejaVuSans-6e" x="453.564453"/>
      <use xlink:href="#DejaVuSans-74" x="516.943359"/>
      <use xlink:href="#DejaVuSans-2c" x="556.152344"/>
      <use xlink:href="#DejaVuSans-20" x="587.939453"/>
      <use xlink:href="#DejaVuSans-73" x="619.726562"/>
     </g>
    </g>
   </g>
   <g id="line2d_16">
    <path d="M 85.681989 466.634 
L 91.166018 465.998963 
L 94.212701 465.619545 
L 106.399433 464.297595 
L 114.320809 463.509539 
L 123.460858 462.458725 
L 131.382234 461.555623 
L 135.647591 461.031624 
L 145.396976 459.984891 
L 150.271669 459.48824 
L 153.318352 459.160939 
L 158.193045 458.662209 
L 171.598451 457.186987 
L 177.691817 456.527308 
L 180.129163 456.2285 
L 182.56651 455.982262 
L 194.753242 454.671433 
L 201.455944 453.951829 
L 203.283954 453.722472 
L 205.111964 453.498344 
L 216.080023 452.401029 
L 217.908033 452.183071 
L 234.360121 450.340529 
L 242.890834 449.399057 
L 249.593537 448.72755 
L 254.468229 448.167535 
L 268.482971 446.821695 
L 270.920318 446.531762 
L 286.153733 444.921202 
L 295.903119 443.848863 
L 303.215158 443.020987 
L 306.871178 442.659665 
L 308.089851 442.485249 
L 316.620564 441.658067 
L 322.104593 441.016673 
L 328.807296 440.274127 
L 333.072652 439.798627 
L 340.384691 439.02265 
L 351.962087 437.729691 
L 364.148819 436.264854 
L 371.460858 435.517286 
L 377.554225 434.815292 
L 383.647591 434.21632 
L 390.95963 433.439462 
L 400.099679 432.481788 
L 403.146362 432.163226 
L 408.630392 431.62908 
L 437.269212 428.521211 
L 445.190588 427.606736 
L 450.065281 427.057034 
L 484.797468 423.344718 
L 490.281497 422.723272 
L 495.15619 422.217165 
L 500.64022 421.644606 
L 512.217615 420.510305 
L 527.45103 418.803787 
L 531.716387 418.29523 
L 539.028426 417.497221 
L 544.512455 416.925628 
L 579.244642 413.127167 
L 582.900662 412.726731 
L 604.227443 410.48925 
L 610.930146 409.742712 
L 617.023512 409.132526 
L 627.382234 407.960566 
L 633.4756 407.177001 
L 638.350293 406.532248 
L 664.551768 403.681871 
L 688.315895 401.165432 
L 692.581252 400.76899 
L 694.409261 400.653033 
L 694.409261 400.653033 
" clip-path="url(#pdea1abd620)" style="fill: none; stroke: #4c72b0; stroke-width: 1.5; stroke-linecap: round"/>
   </g>
   <g id="line2d_17">
    <path d="M 85.681989 466.583658 
L 89.338008 465.811891 
L 93.603365 464.78365 
L 105.790097 462.314473 
L 108.83678 461.777276 
L 114.930146 460.668253 
L 116.148819 460.420506 
L 117.976829 460.026845 
L 120.414175 459.547378 
L 122.851522 459.167011 
L 124.070195 458.874465 
L 127.116878 458.311085 
L 147.834323 454.216154 
L 149.052996 453.962005 
L 161.849065 451.664177 
L 163.067738 451.399753 
L 164.895748 451.028809 
L 166.723758 450.718917 
L 175.25447 449.226831 
L 176.473143 448.965225 
L 179.519826 448.475761 
L 180.7385 448.209248 
L 182.56651 447.943288 
L 183.785183 447.674111 
L 187.441202 446.895768 
L 191.706559 445.838872 
L 194.143905 445.164831 
L 195.971915 444.807126 
L 199.018598 444.209465 
L 202.065281 443.592424 
L 204.502627 443.01671 
L 209.986657 442.009253 
L 213.03334 441.446341 
L 219.736043 440.115454 
L 224.001399 439.31078 
L 227.657419 438.589178 
L 234.969458 437.486213 
L 244.109507 435.879513 
L 257.514912 433.579868 
L 259.952259 433.130984 
L 267.264298 431.900035 
L 269.701645 431.436941 
L 275.795011 430.331611 
L 278.232357 429.891066 
L 283.10705 429.071192 
L 286.153733 428.52983 
L 291.028426 427.762704 
L 296.512455 426.820228 
L 312.964544 424.18935 
L 319.667247 423.134549 
L 323.323266 422.548617 
L 328.197959 421.752613 
L 338.556682 420.060217 
L 350.134077 417.768495 
L 353.790097 416.989966 
L 360.492799 415.761415 
L 362.930146 415.192318 
L 366.586166 414.535904 
L 370.851522 413.738175 
L 375.116878 412.91102 
L 378.163561 412.26727 
L 380.600908 411.808297 
L 383.647591 411.178883 
L 389.13162 410.23115 
L 390.350293 409.871757 
L 406.802382 406.850405 
L 412.895748 405.791064 
L 415.333094 405.333969 
L 419.598451 404.590065 
L 429.957173 402.924155 
L 439.706559 401.237036 
L 447.018598 399.756008 
L 448.846608 399.411985 
L 451.893291 398.817558 
L 461.642677 397.216262 
L 464.68936 396.696414 
L 477.485428 394.547481 
L 481.141448 393.983555 
L 489.062824 392.677225 
L 491.50017 392.271519 
L 501.249556 390.703143 
L 506.124249 389.987378 
L 519.529654 387.887811 
L 526.232357 386.81434 
L 533.544396 385.658371 
L 537.200416 385.068776 
L 552.433831 382.599535 
L 565.839237 380.293682 
L 574.369949 378.870334 
L 583.509998 377.381755 
L 585.338008 377.033872 
L 588.384691 376.488405 
L 590.212701 376.13562 
L 600.571424 374.255687 
L 601.790097 373.946348 
L 605.446116 373.351714 
L 609.102136 372.689605 
L 613.976829 371.78569 
L 615.195502 371.47193 
L 618.851522 370.76842 
L 622.507541 370.119133 
L 640.78764 367.159724 
L 646.271669 366.315233 
L 659.677075 364.214052 
L 662.114421 363.748137 
L 665.770441 363.101236 
L 671.863807 361.977262 
L 681.003856 360.572163 
L 688.925232 359.278254 
L 694.409261 358.540819 
L 694.409261 358.540819 
" clip-path="url(#pdea1abd620)" style="fill: none; stroke: #dd8452; stroke-width: 1.5; stroke-linecap: round"/>
   </g>
   <g id="line2d_18">
    <path d="M 85.681989 466.559751 
L 89.338008 465.571217 
L 94.822038 463.764928 
L 97.259384 463.169927 
L 99.087394 462.694331 
L 102.743414 461.770005 
L 103.962087 461.451307 
L 111.274126 459.734806 
L 112.492799 459.351432 
L 117.367492 458.170337 
L 121.023512 457.262652 
L 122.851522 456.778157 
L 126.507541 455.74729 
L 131.382234 454.373806 
L 133.819581 453.669286 
L 135.647591 453.251067 
L 138.084937 452.617721 
L 139.30361 452.318676 
L 140.522283 451.969741 
L 142.95963 451.364894 
L 144.78764 450.876392 
L 149.052996 449.942234 
L 155.755699 448.242911 
L 159.411718 447.385633 
L 163.067738 446.581001 
L 166.114421 445.856668 
L 210.595994 435.560164 
L 213.03334 434.926102 
L 223.392062 432.58283 
L 234.969458 429.905164 
L 237.406804 429.359309 
L 240.453487 428.614866 
L 242.890834 428.105074 
L 246.546854 427.290695 
L 247.765527 427.041699 
L 250.81221 426.248063 
L 256.296239 425.014725 
L 262.998942 423.432526 
L 278.232357 420.101252 
L 283.716387 418.880393 
L 291.028426 417.279537 
L 297.121792 415.800689 
L 316.011227 411.217144 
L 322.104593 409.825122 
L 330.635306 407.815169 
L 337.947345 406.123422 
L 340.384691 405.587514 
L 342.212701 405.130808 
L 345.259384 404.413716 
L 349.52474 403.425169 
L 353.790097 402.49296 
L 356.227443 401.858706 
L 365.367492 399.786317 
L 367.804839 399.238803 
L 371.460858 398.403289 
L 376.335551 397.300359 
L 381.210244 396.204943 
L 383.647591 395.588518 
L 392.178303 393.617077 
L 404.974372 390.737723 
L 409.849065 389.540919 
L 428.129163 385.194312 
L 435.441202 383.368128 
L 438.487885 382.73472 
L 439.706559 382.349763 
L 448.846608 380.250687 
L 450.674618 379.799505 
L 454.939974 378.792985 
L 460.424003 377.587148 
L 462.86135 377.026779 
L 467.736043 375.744191 
L 471.392062 374.992612 
L 476.266755 373.887685 
L 486.625478 371.526767 
L 488.453487 371.013663 
L 495.15619 369.602633 
L 498.202873 368.858445 
L 501.249556 368.206823 
L 503.686903 367.646861 
L 519.529654 364.055831 
L 520.748328 363.718032 
L 548.777812 357.31393 
L 558.527197 354.790791 
L 559.745871 354.408121 
L 561.573881 353.936147 
L 562.183217 353.638232 
L 570.104593 351.55624 
L 571.932603 351.006278 
L 574.369949 350.335459 
L 592.650048 345.50281 
L 613.367492 340.498323 
L 617.023512 339.599955 
L 621.898205 338.509821 
L 635.30361 335.386497 
L 641.396976 333.932949 
L 643.834323 333.328086 
L 646.271669 332.694051 
L 648.709016 332.061214 
L 649.927689 331.724093 
L 651.146362 331.436713 
L 652.365035 331.013042 
L 655.411718 330.144488 
L 656.630392 329.688123 
L 657.849065 329.434736 
L 659.067738 329.085127 
L 660.286411 328.740906 
L 660.895748 328.484438 
L 667.598451 326.94795 
L 672.473143 325.770061 
L 692.581252 320.919815 
L 694.409261 320.543656 
L 694.409261 320.543656 
" clip-path="url(#pdea1abd620)" style="fill: none; stroke: #55a868; stroke-width: 1.5; stroke-linecap: round"/>
   </g>
   <g id="line2d_19">
    <path d="M 85.681989 466.368569 
L 86.900662 465.649908 
L 89.947345 463.433604 
L 93.603365 460.67384 
L 94.822038 460.040064 
L 99.087394 457.139983 
L 102.134077 455.305963 
L 103.35275 454.624921 
L 105.790097 453.066464 
L 108.227443 451.645517 
L 109.446116 450.932632 
L 110.66479 450.136727 
L 113.102136 448.693554 
L 116.148819 446.781218 
L 122.242185 442.87161 
L 124.070195 441.930989 
L 126.507541 440.442932 
L 128.335551 439.328188 
L 130.163561 438.006931 
L 133.210244 436.028527 
L 133.819581 435.557673 
L 135.038254 434.860785 
L 136.866264 433.723489 
L 138.084937 433.007685 
L 144.178303 428.980795 
L 146.006313 427.878807 
L 149.662333 425.448731 
L 150.881006 424.601585 
L 163.067738 416.727175 
L 164.286411 415.983141 
L 172.817124 410.570867 
L 178.91049 406.710381 
L 180.129163 405.788548 
L 183.175846 403.727059 
L 185.003856 402.713539 
L 186.831866 401.570411 
L 192.315895 398.085779 
L 198.409261 394.319957 
L 199.627935 393.531603 
L 202.674618 391.66155 
L 203.893291 390.89155 
L 205.111964 390.060136 
L 208.158647 388.022182 
L 210.595994 386.468469 
L 212.424003 385.315912 
L 218.517369 381.745612 
L 219.736043 380.999776 
L 220.954716 380.082288 
L 223.392062 378.396928 
L 231.313438 373.342249 
L 233.141448 372.287013 
L 236.188131 370.444951 
L 242.890834 366.188288 
L 244.109507 365.497352 
L 245.937517 364.226114 
L 248.9842 362.420755 
L 249.593537 361.85784 
L 250.202873 361.515189 
L 250.81221 360.956624 
L 252.64022 359.83047 
L 253.858893 358.956243 
L 255.077566 358.142576 
L 261.170932 353.617694 
L 262.389605 352.871383 
L 262.998942 352.141204 
L 264.217615 351.303554 
L 267.264298 349.315329 
L 268.482971 348.501869 
L 272.138991 345.897952 
L 273.357664 345.092629 
L 275.795011 343.508132 
L 277.623021 342.39867 
L 278.232357 341.78089 
L 279.45103 340.955728 
L 281.27904 339.333299 
L 287.981743 334.76549 
L 289.809753 333.42371 
L 290.419089 333.097598 
L 291.637763 332.183021 
L 293.465772 331.050016 
L 299.559139 326.607926 
L 300.168475 326.036645 
L 301.387148 325.315985 
L 303.824495 323.575415 
L 305.043168 322.808308 
L 306.261841 322.017679 
L 308.699188 320.025912 
L 309.917861 319.23115 
L 311.745871 317.75737 
L 313.573881 316.612369 
L 320.276583 312.029878 
L 321.495256 310.962705 
L 323.932603 309.4186 
L 325.760613 308.192847 
L 328.197959 306.224153 
L 331.853979 303.61504 
L 334.291325 301.774217 
L 335.509998 300.582775 
L 340.384691 297.386871 
L 342.822038 295.691118 
L 343.431374 295.096539 
L 347.696731 292.168617 
L 349.52474 290.840642 
L 360.492799 283.761365 
L 369.023512 278.653441 
L 370.851522 277.513617 
L 372.070195 276.664968 
L 373.898205 275.473688 
L 376.335551 273.884716 
L 380.600908 271.235652 
L 382.428917 269.915698 
L 384.256927 268.83279 
L 390.95963 264.494819 
L 394.006313 262.613019 
L 406.802382 254.259284 
L 412.286411 250.696183 
L 413.505084 249.879517 
L 417.770441 247.278748 
L 418.989114 246.396687 
L 422.645134 243.985632 
L 424.473143 242.855138 
L 431.785183 238.31664 
L 433.613193 237.180543 
L 435.441202 236.022154 
L 436.050539 235.524682 
L 438.487885 234.1391 
L 447.018598 228.491299 
L 449.455944 226.831295 
L 459.20533 220.662388 
L 461.03334 219.507121 
L 462.252013 218.762562 
L 464.080023 217.625696 
L 467.126706 215.566749 
L 468.345379 214.880617 
L 470.173389 213.639345 
L 477.485428 209.244321 
L 479.313438 207.882187 
L 482.360121 205.989309 
L 484.188131 204.707167 
L 486.016141 203.599047 
L 487.234814 202.649265 
L 488.453487 201.763605 
L 492.718844 199.109584 
L 493.32818 198.805676 
L 495.15619 197.562914 
L 506.124249 190.694575 
L 507.342922 189.935356 
L 508.561596 189.22575 
L 511.608279 187.193858 
L 515.264298 184.858869 
L 517.092308 183.710746 
L 528.060367 176.708994 
L 529.888377 175.591842 
L 533.544396 173.332365 
L 534.76307 172.505736 
L 535.981743 171.762792 
L 537.200416 170.836377 
L 538.419089 170.158773 
L 540.856436 168.552911 
L 542.075109 167.852292 
L 542.684446 167.364338 
L 543.903119 166.62054 
L 548.168475 163.850935 
L 552.433831 161.292971 
L 560.964544 155.666056 
L 561.573881 155.167023 
L 565.839237 152.62117 
L 567.05791 151.918077 
L 568.88592 150.690421 
L 570.71393 149.45608 
L 573.760613 147.597917 
L 583.509998 141.466658 
L 584.119335 140.818928 
L 587.166018 138.768675 
L 592.650048 135.179338 
L 593.259384 134.592224 
L 594.478057 133.902732 
L 595.696731 132.959544 
L 596.915404 132.190083 
L 598.134077 131.420342 
L 599.35275 130.655818 
L 600.571424 129.685033 
L 602.399433 128.388826 
L 603.00877 128.057412 
L 604.227443 126.895646 
L 607.274126 124.98821 
L 614.586166 119.687748 
L 615.804839 118.941409 
L 617.023512 118.023263 
L 618.851522 116.749518 
L 620.070195 116.047535 
L 621.288868 115.024887 
L 622.507541 114.287723 
L 623.116878 113.793653 
L 624.335551 113.081437 
L 626.163561 111.640079 
L 627.991571 110.224138 
L 629.210244 109.155637 
L 631.647591 107.505158 
L 632.866264 106.606059 
L 633.4756 106.270131 
L 636.522283 104.003055 
L 637.13162 103.708128 
L 639.568967 101.895887 
L 640.78764 101.130763 
L 643.834323 98.952288 
L 645.662333 97.97498 
L 646.271669 97.395148 
L 648.099679 96.21983 
L 649.318352 95.353007 
L 652.974372 92.980499 
L 654.193045 92.106353 
L 655.411718 91.367059 
L 656.630392 90.390431 
L 659.677075 88.517337 
L 660.895748 87.323236 
L 663.333094 85.841713 
L 665.161104 84.703504 
L 665.770441 84.283151 
L 666.989114 83.316611 
L 670.035797 81.217742 
L 671.863807 79.954615 
L 672.473143 79.13116 
L 673.691817 78.366041 
L 681.613193 72.756588 
L 682.222529 72.197368 
L 682.831866 71.856538 
L 685.269212 69.723214 
L 686.487885 68.698059 
L 690.143905 66.344147 
L 690.753242 65.795985 
L 691.362578 65.451216 
L 692.581252 64.534297 
L 694.409261 63.434 
L 694.409261 63.434 
" clip-path="url(#pdea1abd620)" style="fill: none; stroke: #c44e52; stroke-width: 1.5; stroke-linecap: round"/>
   </g>
   <g id="line2d_20"/>
   <g id="line2d_21"/>
   <g id="line2d_22"/>
   <g id="line2d_23"/>
   <g id="patch_3">
    <path d="M 55.245625 486.794 
L 55.245625 43.274 
" style="fill: none; stroke: #ffffff; stroke-width: 1.25; stroke-linejoin: miter; stroke-linecap: square"/>
   </g>
   <g id="patch_4">
    <path d="M 724.845625 486.794 
L 724.845625 43.274 
" style="fill: none; stroke: #ffffff; stroke-width: 1.25; stroke-linejoin: miter; stroke-linecap: square"/>
   </g>
   <g id="patch_5">
    <path d="M 55.245625 486.794 
L 724.845625 486.794 
" style="fill: none; stroke: #ffffff; stroke-width: 1.25; stroke-linejoin: miter; stroke-linecap: square"/>
   </g>
   <g id="patch_6">
    <path d="M 55.245625 43.274 
L 724.845625 43.274 
" style="fill: none; stroke: #ffffff; stroke-width: 1.25; stroke-linejoin: miter; stroke-linecap: square"/>
   </g>
   <g id="text_18">
    <!-- Dependency of time spent on trees built by Random Forest, -->
    <g style="fill: #262626" transform="translate(150.676875 19.3575)scale(0.16 -0.16)">
     <defs>
      <path id="DejaVuSans-44" d="M 1259 4147 
L 1259 519 
L 2022 519 
Q 2988 519 3436 956 
Q 3884 1394 3884 2338 
Q 3884 3275 3436 3711 
Q 2988 4147 2022 4147 
L 1259 4147 
z
M 628 4666 
L 1925 4666 
Q 3281 4666 3915 4102 
Q 4550 3538 4550 2338 
Q 4550 1131 3912 565 
Q 3275 0 1925 0 
L 628 0 
L 628 4666 
z
" transform="scale(0.015625)"/>
      <path id="DejaVuSans-64" d="M 2906 2969 
L 2906 4863 
L 3481 4863 
L 3481 0 
L 2906 0 
L 2906 525 
Q 2725 213 2448 61 
Q 2172 -91 1784 -91 
Q 1150 -91 751 415 
Q 353 922 353 1747 
Q 353 2572 751 3078 
Q 1150 3584 1784 3584 
Q 2172 3584 2448 3432 
Q 2725 3281 2906 2969 
z
M 947 1747 
Q 947 1113 1208 752 
Q 1469 391 1925 391 
Q 2381 391 2643 752 
Q 2906 1113 2906 1747 
Q 2906 2381 2643 2742 
Q 2381 3103 1925 3103 
Q 1469 3103 1208 2742 
Q 947 2381 947 1747 
z
" transform="scale(0.015625)"/>
      <path id="DejaVuSans-63" d="M 3122 3366 
L 3122 2828 
Q 2878 2963 2633 3030 
Q 2388 3097 2138 3097 
Q 1578 3097 1268 2742 
Q 959 2388 959 1747 
Q 959 1106 1268 751 
Q 1578 397 2138 397 
Q 2388 397 2633 464 
Q 2878 531 3122 666 
L 3122 134 
Q 2881 22 2623 -34 
Q 2366 -91 2075 -91 
Q 1284 -91 818 406 
Q 353 903 353 1747 
Q 353 2603 823 3093 
Q 1294 3584 2113 3584 
Q 2378 3584 2631 3529 
Q 2884 3475 3122 3366 
z
" transform="scale(0.015625)"/>
      <path id="DejaVuSans-79" d="M 2059 -325 
Q 1816 -950 1584 -1140 
Q 1353 -1331 966 -1331 
L 506 -1331 
L 506 -850 
L 844 -850 
Q 1081 -850 1212 -737 
Q 1344 -625 1503 -206 
L 1606 56 
L 191 3500 
L 800 3500 
L 1894 763 
L 2988 3500 
L 3597 3500 
L 2059 -325 
z
" transform="scale(0.015625)"/>
      <path id="DejaVuSans-6f" d="M 1959 3097 
Q 1497 3097 1228 2736 
Q 959 2375 959 1747 
Q 959 1119 1226 758 
Q 1494 397 1959 397 
Q 2419 397 2687 759 
Q 2956 1122 2956 1747 
Q 2956 2369 2687 2733 
Q 2419 3097 1959 3097 
z
M 1959 3584 
Q 2709 3584 3137 3096 
Q 3566 2609 3566 1747 
Q 3566 888 3137 398 
Q 2709 -91 1959 -91 
Q 1206 -91 779 398 
Q 353 888 353 1747 
Q 353 2609 779 3096 
Q 1206 3584 1959 3584 
z
" transform="scale(0.015625)"/>
      <path id="DejaVuSans-66" d="M 2375 4863 
L 2375 4384 
L 1825 4384 
Q 1516 4384 1395 4259 
Q 1275 4134 1275 3809 
L 1275 3500 
L 2222 3500 
L 2222 3053 
L 1275 3053 
L 1275 0 
L 697 0 
L 697 3053 
L 147 3053 
L 147 3500 
L 697 3500 
L 697 3744 
Q 697 4328 969 4595 
Q 1241 4863 1831 4863 
L 2375 4863 
z
" transform="scale(0.015625)"/>
      <path id="DejaVuSans-52" d="M 2841 2188 
Q 3044 2119 3236 1894 
Q 3428 1669 3622 1275 
L 4263 0 
L 3584 0 
L 2988 1197 
Q 2756 1666 2539 1819 
Q 2322 1972 1947 1972 
L 1259 1972 
L 1259 0 
L 628 0 
L 628 4666 
L 2053 4666 
Q 2853 4666 3247 4331 
Q 3641 3997 3641 3322 
Q 3641 2881 3436 2590 
Q 3231 2300 2841 2188 
z
M 1259 4147 
L 1259 2491 
L 2053 2491 
Q 2509 2491 2742 2702 
Q 2975 2913 2975 3322 
Q 2975 3731 2742 3939 
Q 2509 4147 2053 4147 
L 1259 4147 
z
" transform="scale(0.015625)"/>
      <path id="DejaVuSans-61" d="M 2194 1759 
Q 1497 1759 1228 1600 
Q 959 1441 959 1056 
Q 959 750 1161 570 
Q 1363 391 1709 391 
Q 2188 391 2477 730 
Q 2766 1069 2766 1631 
L 2766 1759 
L 2194 1759 
z
M 3341 1997 
L 3341 0 
L 2766 0 
L 2766 531 
Q 2569 213 2275 61 
Q 1981 -91 1556 -91 
Q 1019 -91 701 211 
Q 384 513 384 1019 
Q 384 1609 779 1909 
Q 1175 2209 1959 2209 
L 2766 2209 
L 2766 2266 
Q 2766 2663 2505 2880 
Q 2244 3097 1772 3097 
Q 1472 3097 1187 3025 
Q 903 2953 641 2809 
L 641 3341 
Q 956 3463 1253 3523 
Q 1550 3584 1831 3584 
Q 2591 3584 2966 3190 
Q 3341 2797 3341 1997 
z
" transform="scale(0.015625)"/>
      <path id="DejaVuSans-46" d="M 628 4666 
L 3309 4666 
L 3309 4134 
L 1259 4134 
L 1259 2759 
L 3109 2759 
L 3109 2228 
L 1259 2228 
L 1259 0 
L 628 0 
L 628 4666 
z
" transform="scale(0.015625)"/>
     </defs>
     <use xlink:href="#DejaVuSans-44"/>
     <use xlink:href="#DejaVuSans-65" x="77.001953"/>
     <use xlink:href="#DejaVuSans-70" x="138.525391"/>
     <use xlink:href="#DejaVuSans-65" x="202.001953"/>
     <use xlink:href="#DejaVuSans-6e" x="263.525391"/>
     <use xlink:href="#DejaVuSans-64" x="326.904297"/>
     <use xlink:href="#DejaVuSans-65" x="390.380859"/>
     <use xlink:href="#DejaVuSans-6e" x="451.904297"/>
     <use xlink:href="#DejaVuSans-63" x="515.283203"/>
     <use xlink:href="#DejaVuSans-79" x="570.263672"/>
     <use xlink:href="#DejaVuSans-20" x="629.443359"/>
     <use xlink:href="#DejaVuSans-6f" x="661.230469"/>
     <use xlink:href="#DejaVuSans-66" x="722.412109"/>
     <use xlink:href="#DejaVuSans-20" x="757.617188"/>
     <use xlink:href="#DejaVuSans-74" x="789.404297"/>
     <use xlink:href="#DejaVuSans-69" x="828.613281"/>
     <use xlink:href="#DejaVuSans-6d" x="856.396484"/>
     <use xlink:href="#DejaVuSans-65" x="953.808594"/>
     <use xlink:href="#DejaVuSans-20" x="1015.332031"/>
     <use xlink:href="#DejaVuSans-73" x="1047.119141"/>
     <use xlink:href="#DejaVuSans-70" x="1099.21875"/>
     <use xlink:href="#DejaVuSans-65" x="1162.695312"/>
     <use xlink:href="#DejaVuSans-6e" x="1224.21875"/>
     <use xlink:href="#DejaVuSans-74" x="1287.597656"/>
     <use xlink:href="#DejaVuSans-20" x="1326.806641"/>
     <use xlink:href="#DejaVuSans-6f" x="1358.59375"/>
     <use xlink:href="#DejaVuSans-6e" x="1419.775391"/>
     <use xlink:href="#DejaVuSans-20" x="1483.154297"/>
     <use xlink:href="#DejaVuSans-74" x="1514.941406"/>
     <use xlink:href="#DejaVuSans-72" x="1554.150391"/>
     <use xlink:href="#DejaVuSans-65" x="1593.013672"/>
     <use xlink:href="#DejaVuSans-65" x="1654.537109"/>
     <use xlink:href="#DejaVuSans-73" x="1716.060547"/>
     <use xlink:href="#DejaVuSans-20" x="1768.160156"/>
     <use xlink:href="#DejaVuSans-62" x="1799.947266"/>
     <use xlink:href="#DejaVuSans-75" x="1863.423828"/>
     <use xlink:href="#DejaVuSans-69" x="1926.802734"/>
     <use xlink:href="#DejaVuSans-6c" x="1954.585938"/>
     <use xlink:href="#DejaVuSans-74" x="1982.369141"/>
     <use xlink:href="#DejaVuSans-20" x="2021.578125"/>
     <use xlink:href="#DejaVuSans-62" x="2053.365234"/>
     <use xlink:href="#DejaVuSans-79" x="2116.841797"/>
     <use xlink:href="#DejaVuSans-20" x="2176.021484"/>
     <use xlink:href="#DejaVuSans-52" x="2207.808594"/>
     <use xlink:href="#DejaVuSans-61" x="2275.041016"/>
     <use xlink:href="#DejaVuSans-6e" x="2336.320312"/>
     <use xlink:href="#DejaVuSans-64" x="2399.699219"/>
     <use xlink:href="#DejaVuSans-6f" x="2463.175781"/>
     <use xlink:href="#DejaVuSans-6d" x="2524.357422"/>
     <use xlink:href="#DejaVuSans-20" x="2621.769531"/>
     <use xlink:href="#DejaVuSans-46" x="2653.556641"/>
     <use xlink:href="#DejaVuSans-6f" x="2707.451172"/>
     <use xlink:href="#DejaVuSans-72" x="2768.632812"/>
     <use xlink:href="#DejaVuSans-65" x="2807.496094"/>
     <use xlink:href="#DejaVuSans-73" x="2869.019531"/>
     <use xlink:href="#DejaVuSans-74" x="2921.119141"/>
     <use xlink:href="#DejaVuSans-2c" x="2960.328125"/>
    </g>
    <!-- with different max depth values -->
    <g style="fill: #262626" transform="translate(262.074375 37.274)scale(0.16 -0.16)">
     <defs>
      <path id="DejaVuSans-77" d="M 269 3500 
L 844 3500 
L 1563 769 
L 2278 3500 
L 2956 3500 
L 3675 769 
L 4391 3500 
L 4966 3500 
L 4050 0 
L 3372 0 
L 2619 2869 
L 1863 0 
L 1184 0 
L 269 3500 
z
" transform="scale(0.015625)"/>
      <path id="DejaVuSans-68" d="M 3513 2113 
L 3513 0 
L 2938 0 
L 2938 2094 
Q 2938 2591 2744 2837 
Q 2550 3084 2163 3084 
Q 1697 3084 1428 2787 
Q 1159 2491 1159 1978 
L 1159 0 
L 581 0 
L 581 4863 
L 1159 4863 
L 1159 2956 
Q 1366 3272 1645 3428 
Q 1925 3584 2291 3584 
Q 2894 3584 3203 3211 
Q 3513 2838 3513 2113 
z
" transform="scale(0.015625)"/>
      <path id="DejaVuSans-78" d="M 3513 3500 
L 2247 1797 
L 3578 0 
L 2900 0 
L 1881 1375 
L 863 0 
L 184 0 
L 1544 1831 
L 300 3500 
L 978 3500 
L 1906 2253 
L 2834 3500 
L 3513 3500 
z
" transform="scale(0.015625)"/>
      <path id="DejaVuSans-76" d="M 191 3500 
L 800 3500 
L 1894 563 
L 2988 3500 
L 3597 3500 
L 2284 0 
L 1503 0 
L 191 3500 
z
" transform="scale(0.015625)"/>
     </defs>
     <use xlink:href="#DejaVuSans-77"/>
     <use xlink:href="#DejaVuSans-69" x="81.787109"/>
     <use xlink:href="#DejaVuSans-74" x="109.570312"/>
     <use xlink:href="#DejaVuSans-68" x="148.779297"/>
     <use xlink:href="#DejaVuSans-20" x="212.158203"/>
     <use xlink:href="#DejaVuSans-64" x="243.945312"/>
     <use xlink:href="#DejaVuSans-69" x="307.421875"/>
     <use xlink:href="#DejaVuSans-66" x="335.205078"/>
     <use xlink:href="#DejaVuSans-66" x="370.410156"/>
     <use xlink:href="#DejaVuSans-65" x="405.615234"/>
     <use xlink:href="#DejaVuSans-72" x="467.138672"/>
     <use xlink:href="#DejaVuSans-65" x="506.001953"/>
     <use xlink:href="#DejaVuSans-6e" x="567.525391"/>
     <use xlink:href="#DejaVuSans-74" x="630.904297"/>
     <use xlink:href="#DejaVuSans-20" x="670.113281"/>
     <use xlink:href="#DejaVuSans-6d" x="701.900391"/>
     <use xlink:href="#DejaVuSans-61" x="799.3125"/>
     <use xlink:href="#DejaVuSans-78" x="860.591797"/>
     <use xlink:href="#DejaVuSans-20" x="919.771484"/>
     <use xlink:href="#DejaVuSans-64" x="951.558594"/>
     <use xlink:href="#DejaVuSans-65" x="1015.035156"/>
     <use xlink:href="#DejaVuSans-70" x="1076.558594"/>
     <use xlink:href="#DejaVuSans-74" x="1140.035156"/>
     <use xlink:href="#DejaVuSans-68" x="1179.244141"/>
     <use xlink:href="#DejaVuSans-20" x="1242.623047"/>
     <use xlink:href="#DejaVuSans-76" x="1274.410156"/>
     <use xlink:href="#DejaVuSans-61" x="1333.589844"/>
     <use xlink:href="#DejaVuSans-6c" x="1394.869141"/>
     <use xlink:href="#DejaVuSans-75" x="1422.652344"/>
     <use xlink:href="#DejaVuSans-65" x="1486.03125"/>
     <use xlink:href="#DejaVuSans-73" x="1547.554688"/>
    </g>
   </g>
   <g id="legend_1">
    <g id="patch_7">
     <path d="M 62.945625 133.7715 
L 132.23375 133.7715 
Q 134.43375 133.7715 134.43375 131.5715 
L 134.43375 50.974 
Q 134.43375 48.774 132.23375 48.774 
L 62.945625 48.774 
Q 60.745625 48.774 60.745625 50.974 
L 60.745625 131.5715 
Q 60.745625 133.7715 62.945625 133.7715 
z
" style="fill: #eaeaf2; opacity: 0.8; stroke: #cccccc; stroke-linejoin: miter"/>
    </g>
    <g id="text_19">
     <!-- max depth -->
     <g style="fill: #262626" transform="translate(65.145625 62.292125)scale(0.12 -0.12)">
      <use xlink:href="#DejaVuSans-6d"/>
      <use xlink:href="#DejaVuSans-61" x="97.412109"/>
      <use xlink:href="#DejaVuSans-78" x="158.691406"/>
      <use xlink:href="#DejaVuSans-20" x="217.871094"/>
      <use xlink:href="#DejaVuSans-64" x="249.658203"/>
      <use xlink:href="#DejaVuSans-65" x="313.134766"/>
      <use xlink:href="#DejaVuSans-70" x="374.658203"/>
      <use xlink:href="#DejaVuSans-74" x="438.134766"/>
      <use xlink:href="#DejaVuSans-68" x="477.34375"/>
     </g>
    </g>
    <g id="line2d_24">
     <path d="M 67.839844 74.796031 
L 78.839844 74.796031 
L 89.839844 74.796031 
" style="fill: none; stroke: #4c72b0; stroke-width: 1.5; stroke-linecap: round"/>
    </g>
    <g id="text_20">
     <!-- 1 -->
     <g style="fill: #262626" transform="translate(98.639844 78.646031)scale(0.11 -0.11)">
      <use xlink:href="#DejaVuSans-31"/>
     </g>
    </g>
    <g id="line2d_25">
     <path d="M 67.839844 90.941969 
L 78.839844 90.941969 
L 89.839844 90.941969 
" style="fill: none; stroke: #dd8452; stroke-width: 1.5; stroke-linecap: round"/>
    </g>
    <g id="text_21">
     <!-- 3 -->
     <g style="fill: #262626" transform="translate(98.639844 94.791969)scale(0.11 -0.11)">
      <defs>
       <path id="DejaVuSans-33" d="M 2597 2516 
Q 3050 2419 3304 2112 
Q 3559 1806 3559 1356 
Q 3559 666 3084 287 
Q 2609 -91 1734 -91 
Q 1441 -91 1130 -33 
Q 819 25 488 141 
L 488 750 
Q 750 597 1062 519 
Q 1375 441 1716 441 
Q 2309 441 2620 675 
Q 2931 909 2931 1356 
Q 2931 1769 2642 2001 
Q 2353 2234 1838 2234 
L 1294 2234 
L 1294 2753 
L 1863 2753 
Q 2328 2753 2575 2939 
Q 2822 3125 2822 3475 
Q 2822 3834 2567 4026 
Q 2313 4219 1838 4219 
Q 1578 4219 1281 4162 
Q 984 4106 628 3988 
L 628 4550 
Q 988 4650 1302 4700 
Q 1616 4750 1894 4750 
Q 2613 4750 3031 4423 
Q 3450 4097 3450 3541 
Q 3450 3153 3228 2886 
Q 3006 2619 2597 2516 
z
" transform="scale(0.015625)"/>
      </defs>
      <use xlink:href="#DejaVuSans-33"/>
     </g>
    </g>
    <g id="line2d_26">
     <path d="M 67.839844 107.087906 
L 78.839844 107.087906 
L 89.839844 107.087906 
" style="fill: none; stroke: #55a868; stroke-width: 1.5; stroke-linecap: round"/>
    </g>
    <g id="text_22">
     <!-- 5 -->
     <g style="fill: #262626" transform="translate(98.639844 110.937906)scale(0.11 -0.11)">
      <defs>
       <path id="DejaVuSans-35" d="M 691 4666 
L 3169 4666 
L 3169 4134 
L 1269 4134 
L 1269 2991 
Q 1406 3038 1543 3061 
Q 1681 3084 1819 3084 
Q 2600 3084 3056 2656 
Q 3513 2228 3513 1497 
Q 3513 744 3044 326 
Q 2575 -91 1722 -91 
Q 1428 -91 1123 -41 
Q 819 9 494 109 
L 494 744 
Q 775 591 1075 516 
Q 1375 441 1709 441 
Q 2250 441 2565 725 
Q 2881 1009 2881 1497 
Q 2881 1984 2565 2268 
Q 2250 2553 1709 2553 
Q 1456 2553 1204 2497 
Q 953 2441 691 2322 
L 691 4666 
z
" transform="scale(0.015625)"/>
      </defs>
      <use xlink:href="#DejaVuSans-35"/>
     </g>
    </g>
    <g id="line2d_27">
     <path d="M 67.839844 123.233844 
L 78.839844 123.233844 
L 89.839844 123.233844 
" style="fill: none; stroke: #c44e52; stroke-width: 1.5; stroke-linecap: round"/>
    </g>
    <g id="text_23">
     <!-- None -->
     <g style="fill: #262626" transform="translate(98.639844 127.083844)scale(0.11 -0.11)">
      <defs>
       <path id="DejaVuSans-4e" d="M 628 4666 
L 1478 4666 
L 3547 763 
L 3547 4666 
L 4159 4666 
L 4159 0 
L 3309 0 
L 1241 3903 
L 1241 0 
L 628 0 
L 628 4666 
z
" transform="scale(0.015625)"/>
      </defs>
      <use xlink:href="#DejaVuSans-4e"/>
      <use xlink:href="#DejaVuSans-6f" x="74.804688"/>
      <use xlink:href="#DejaVuSans-6e" x="135.986328"/>
      <use xlink:href="#DejaVuSans-65" x="199.365234"/>
     </g>
    </g>
   </g>
  </g>
 </g>
 <defs>
  <clipPath id="pdea1abd620">
   <rect x="55.245625" y="43.274" width="669.6" height="443.52"/>
  </clipPath>
 </defs>
</svg>
