<?xml version="1.0" encoding="utf-8" standalone="no"?>
<!DOCTYPE svg PUBLIC "-//W3C//DTD SVG 1.1//EN"
  "http://www.w3.org/Graphics/SVG/1.1/DTD/svg11.dtd">
<svg xmlns:xlink="http://www.w3.org/1999/xlink" width="1197.50625pt" height="551.279687pt" viewBox="0 0 1197.50625 551.279687" xmlns="http://www.w3.org/2000/svg" version="1.1">
 <metadata>
  <rdf:RDF xmlns:dc="http://purl.org/dc/elements/1.1/" xmlns:cc="http://creativecommons.org/ns#" xmlns:rdf="http://www.w3.org/1999/02/22-rdf-syntax-ns#">
   <cc:Work>
    <dc:type rdf:resource="http://purl.org/dc/dcmitype/StillImage"/>
    <dc:date>2022-12-17T09:43:19.746139</dc:date>
    <dc:format>image/svg+xml</dc:format>
    <dc:creator>
     <cc:Agent>
      <dc:title>Matplotlib v3.5.2, https://matplotlib.org/</dc:title>
     </cc:Agent>
    </dc:creator>
   </cc:Work>
  </rdf:RDF>
 </metadata>
 <defs>
  <style type="text/css">*{stroke-linejoin: round; stroke-linecap: butt}</style>
 </defs>
 <g id="figure_1">
  <g id="patch_1">
   <path d="M 0 551.279687 
L 1197.50625 551.279687 
L 1197.50625 0 
L 0 0 
z
" style="fill: #ffffff"/>
  </g>
  <g id="axes_1">
   <g id="patch_2">
    <path d="M 74.30625 508.32 
L 581.578977 508.32 
L 581.578977 64.8 
L 74.30625 64.8 
z
" style="fill: #eaeaf2"/>
   </g>
   <g id="matplotlib.axis_1">
    <g id="xtick_1">
     <g id="line2d_1">
      <path d="M 97.364101 508.32 
L 97.364101 64.8 
" clip-path="url(#p65d16e9ef4)" style="fill: none; stroke: #ffffff; stroke-linecap: round"/>
     </g>
     <g id="text_1">
      <!-- 0 -->
      <g style="fill: #262626" transform="translate(93.864726 526.178281)scale(0.11 -0.11)">
       <defs>
        <path id="DejaVuSans-30" d="M 2034 4250 
Q 1547 4250 1301 3770 
Q 1056 3291 1056 2328 
Q 1056 1369 1301 889 
Q 1547 409 2034 409 
Q 2525 409 2770 889 
Q 3016 1369 3016 2328 
Q 3016 3291 2770 3770 
Q 2525 4250 2034 4250 
z
M 2034 4750 
Q 2819 4750 3233 4129 
Q 3647 3509 3647 2328 
Q 3647 1150 3233 529 
Q 2819 -91 2034 -91 
Q 1250 -91 836 529 
Q 422 1150 422 2328 
Q 422 3509 836 4129 
Q 1250 4750 2034 4750 
z
" transform="scale(0.015625)"/>
       </defs>
       <use xlink:href="#DejaVuSans-30"/>
      </g>
     </g>
    </g>
    <g id="xtick_2">
     <g id="line2d_2">
      <path d="M 189.68783 508.32 
L 189.68783 64.8 
" clip-path="url(#p65d16e9ef4)" style="fill: none; stroke: #ffffff; stroke-linecap: round"/>
     </g>
     <g id="text_2">
      <!-- 200 -->
      <g style="fill: #262626" transform="translate(179.189705 526.178281)scale(0.11 -0.11)">
       <defs>
        <path id="DejaVuSans-32" d="M 1228 531 
L 3431 531 
L 3431 0 
L 469 0 
L 469 531 
Q 828 903 1448 1529 
Q 2069 2156 2228 2338 
Q 2531 2678 2651 2914 
Q 2772 3150 2772 3378 
Q 2772 3750 2511 3984 
Q 2250 4219 1831 4219 
Q 1534 4219 1204 4116 
Q 875 4013 500 3803 
L 500 4441 
Q 881 4594 1212 4672 
Q 1544 4750 1819 4750 
Q 2544 4750 2975 4387 
Q 3406 4025 3406 3419 
Q 3406 3131 3298 2873 
Q 3191 2616 2906 2266 
Q 2828 2175 2409 1742 
Q 1991 1309 1228 531 
z
" transform="scale(0.015625)"/>
       </defs>
       <use xlink:href="#DejaVuSans-32"/>
       <use xlink:href="#DejaVuSans-30" x="63.623047"/>
       <use xlink:href="#DejaVuSans-30" x="127.246094"/>
      </g>
     </g>
    </g>
    <g id="xtick_3">
     <g id="line2d_3">
      <path d="M 282.011559 508.32 
L 282.011559 64.8 
" clip-path="url(#p65d16e9ef4)" style="fill: none; stroke: #ffffff; stroke-linecap: round"/>
     </g>
     <g id="text_3">
      <!-- 400 -->
      <g style="fill: #262626" transform="translate(271.513434 526.178281)scale(0.11 -0.11)">
       <defs>
        <path id="DejaVuSans-34" d="M 2419 4116 
L 825 1625 
L 2419 1625 
L 2419 4116 
z
M 2253 4666 
L 3047 4666 
L 3047 1625 
L 3713 1625 
L 3713 1100 
L 3047 1100 
L 3047 0 
L 2419 0 
L 2419 1100 
L 313 1100 
L 313 1709 
L 2253 4666 
z
" transform="scale(0.015625)"/>
       </defs>
       <use xlink:href="#DejaVuSans-34"/>
       <use xlink:href="#DejaVuSans-30" x="63.623047"/>
       <use xlink:href="#DejaVuSans-30" x="127.246094"/>
      </g>
     </g>
    </g>
    <g id="xtick_4">
     <g id="line2d_4">
      <path d="M 374.335287 508.32 
L 374.335287 64.8 
" clip-path="url(#p65d16e9ef4)" style="fill: none; stroke: #ffffff; stroke-linecap: round"/>
     </g>
     <g id="text_4">
      <!-- 600 -->
      <g style="fill: #262626" transform="translate(363.837162 526.178281)scale(0.11 -0.11)">
       <defs>
        <path id="DejaVuSans-36" d="M 2113 2584 
Q 1688 2584 1439 2293 
Q 1191 2003 1191 1497 
Q 1191 994 1439 701 
Q 1688 409 2113 409 
Q 2538 409 2786 701 
Q 3034 994 3034 1497 
Q 3034 2003 2786 2293 
Q 2538 2584 2113 2584 
z
M 3366 4563 
L 3366 3988 
Q 3128 4100 2886 4159 
Q 2644 4219 2406 4219 
Q 1781 4219 1451 3797 
Q 1122 3375 1075 2522 
Q 1259 2794 1537 2939 
Q 1816 3084 2150 3084 
Q 2853 3084 3261 2657 
Q 3669 2231 3669 1497 
Q 3669 778 3244 343 
Q 2819 -91 2113 -91 
Q 1303 -91 875 529 
Q 447 1150 447 2328 
Q 447 3434 972 4092 
Q 1497 4750 2381 4750 
Q 2619 4750 2861 4703 
Q 3103 4656 3366 4563 
z
" transform="scale(0.015625)"/>
       </defs>
       <use xlink:href="#DejaVuSans-36"/>
       <use xlink:href="#DejaVuSans-30" x="63.623047"/>
       <use xlink:href="#DejaVuSans-30" x="127.246094"/>
      </g>
     </g>
    </g>
    <g id="xtick_5">
     <g id="line2d_5">
      <path d="M 466.659016 508.32 
L 466.659016 64.8 
" clip-path="url(#p65d16e9ef4)" style="fill: none; stroke: #ffffff; stroke-linecap: round"/>
     </g>
     <g id="text_5">
      <!-- 800 -->
      <g style="fill: #262626" transform="translate(456.160891 526.178281)scale(0.11 -0.11)">
       <defs>
        <path id="DejaVuSans-38" d="M 2034 2216 
Q 1584 2216 1326 1975 
Q 1069 1734 1069 1313 
Q 1069 891 1326 650 
Q 1584 409 2034 409 
Q 2484 409 2743 651 
Q 3003 894 3003 1313 
Q 3003 1734 2745 1975 
Q 2488 2216 2034 2216 
z
M 1403 2484 
Q 997 2584 770 2862 
Q 544 3141 544 3541 
Q 544 4100 942 4425 
Q 1341 4750 2034 4750 
Q 2731 4750 3128 4425 
Q 3525 4100 3525 3541 
Q 3525 3141 3298 2862 
Q 3072 2584 2669 2484 
Q 3125 2378 3379 2068 
Q 3634 1759 3634 1313 
Q 3634 634 3220 271 
Q 2806 -91 2034 -91 
Q 1263 -91 848 271 
Q 434 634 434 1313 
Q 434 1759 690 2068 
Q 947 2378 1403 2484 
z
M 1172 3481 
Q 1172 3119 1398 2916 
Q 1625 2713 2034 2713 
Q 2441 2713 2670 2916 
Q 2900 3119 2900 3481 
Q 2900 3844 2670 4047 
Q 2441 4250 2034 4250 
Q 1625 4250 1398 4047 
Q 1172 3844 1172 3481 
z
" transform="scale(0.015625)"/>
       </defs>
       <use xlink:href="#DejaVuSans-38"/>
       <use xlink:href="#DejaVuSans-30" x="63.623047"/>
       <use xlink:href="#DejaVuSans-30" x="127.246094"/>
      </g>
     </g>
    </g>
    <g id="xtick_6">
     <g id="line2d_6">
      <path d="M 558.982745 508.32 
L 558.982745 64.8 
" clip-path="url(#p65d16e9ef4)" style="fill: none; stroke: #ffffff; stroke-linecap: round"/>
     </g>
     <g id="text_6">
      <!-- 1000 -->
      <g style="fill: #262626" transform="translate(544.985245 526.178281)scale(0.11 -0.11)">
       <defs>
        <path id="DejaVuSans-31" d="M 794 531 
L 1825 531 
L 1825 4091 
L 703 3866 
L 703 4441 
L 1819 4666 
L 2450 4666 
L 2450 531 
L 3481 531 
L 3481 0 
L 794 0 
L 794 531 
z
" transform="scale(0.015625)"/>
       </defs>
       <use xlink:href="#DejaVuSans-31"/>
       <use xlink:href="#DejaVuSans-30" x="63.623047"/>
       <use xlink:href="#DejaVuSans-30" x="127.246094"/>
       <use xlink:href="#DejaVuSans-30" x="190.869141"/>
      </g>
     </g>
    </g>
    <g id="text_7">
     <!-- Trees built -->
     <g style="fill: #262626" transform="translate(297.117614 541.584062)scale(0.12 -0.12)">
      <defs>
       <path id="DejaVuSans-54" d="M -19 4666 
L 3928 4666 
L 3928 4134 
L 2272 4134 
L 2272 0 
L 1638 0 
L 1638 4134 
L -19 4134 
L -19 4666 
z
" transform="scale(0.015625)"/>
       <path id="DejaVuSans-72" d="M 2631 2963 
Q 2534 3019 2420 3045 
Q 2306 3072 2169 3072 
Q 1681 3072 1420 2755 
Q 1159 2438 1159 1844 
L 1159 0 
L 581 0 
L 581 3500 
L 1159 3500 
L 1159 2956 
Q 1341 3275 1631 3429 
Q 1922 3584 2338 3584 
Q 2397 3584 2469 3576 
Q 2541 3569 2628 3553 
L 2631 2963 
z
" transform="scale(0.015625)"/>
       <path id="DejaVuSans-65" d="M 3597 1894 
L 3597 1613 
L 953 1613 
Q 991 1019 1311 708 
Q 1631 397 2203 397 
Q 2534 397 2845 478 
Q 3156 559 3463 722 
L 3463 178 
Q 3153 47 2828 -22 
Q 2503 -91 2169 -91 
Q 1331 -91 842 396 
Q 353 884 353 1716 
Q 353 2575 817 3079 
Q 1281 3584 2069 3584 
Q 2775 3584 3186 3129 
Q 3597 2675 3597 1894 
z
M 3022 2063 
Q 3016 2534 2758 2815 
Q 2500 3097 2075 3097 
Q 1594 3097 1305 2825 
Q 1016 2553 972 2059 
L 3022 2063 
z
" transform="scale(0.015625)"/>
       <path id="DejaVuSans-73" d="M 2834 3397 
L 2834 2853 
Q 2591 2978 2328 3040 
Q 2066 3103 1784 3103 
Q 1356 3103 1142 2972 
Q 928 2841 928 2578 
Q 928 2378 1081 2264 
Q 1234 2150 1697 2047 
L 1894 2003 
Q 2506 1872 2764 1633 
Q 3022 1394 3022 966 
Q 3022 478 2636 193 
Q 2250 -91 1575 -91 
Q 1294 -91 989 -36 
Q 684 19 347 128 
L 347 722 
Q 666 556 975 473 
Q 1284 391 1588 391 
Q 1994 391 2212 530 
Q 2431 669 2431 922 
Q 2431 1156 2273 1281 
Q 2116 1406 1581 1522 
L 1381 1569 
Q 847 1681 609 1914 
Q 372 2147 372 2553 
Q 372 3047 722 3315 
Q 1072 3584 1716 3584 
Q 2034 3584 2315 3537 
Q 2597 3491 2834 3397 
z
" transform="scale(0.015625)"/>
       <path id="DejaVuSans-20" transform="scale(0.015625)"/>
       <path id="DejaVuSans-62" d="M 3116 1747 
Q 3116 2381 2855 2742 
Q 2594 3103 2138 3103 
Q 1681 3103 1420 2742 
Q 1159 2381 1159 1747 
Q 1159 1113 1420 752 
Q 1681 391 2138 391 
Q 2594 391 2855 752 
Q 3116 1113 3116 1747 
z
M 1159 2969 
Q 1341 3281 1617 3432 
Q 1894 3584 2278 3584 
Q 2916 3584 3314 3078 
Q 3713 2572 3713 1747 
Q 3713 922 3314 415 
Q 2916 -91 2278 -91 
Q 1894 -91 1617 61 
Q 1341 213 1159 525 
L 1159 0 
L 581 0 
L 581 4863 
L 1159 4863 
L 1159 2969 
z
" transform="scale(0.015625)"/>
       <path id="DejaVuSans-75" d="M 544 1381 
L 544 3500 
L 1119 3500 
L 1119 1403 
Q 1119 906 1312 657 
Q 1506 409 1894 409 
Q 2359 409 2629 706 
Q 2900 1003 2900 1516 
L 2900 3500 
L 3475 3500 
L 3475 0 
L 2900 0 
L 2900 538 
Q 2691 219 2414 64 
Q 2138 -91 1772 -91 
Q 1169 -91 856 284 
Q 544 659 544 1381 
z
M 1991 3584 
L 1991 3584 
z
" transform="scale(0.015625)"/>
       <path id="DejaVuSans-69" d="M 603 3500 
L 1178 3500 
L 1178 0 
L 603 0 
L 603 3500 
z
M 603 4863 
L 1178 4863 
L 1178 4134 
L 603 4134 
L 603 4863 
z
" transform="scale(0.015625)"/>
       <path id="DejaVuSans-6c" d="M 603 4863 
L 1178 4863 
L 1178 0 
L 603 0 
L 603 4863 
z
" transform="scale(0.015625)"/>
       <path id="DejaVuSans-74" d="M 1172 4494 
L 1172 3500 
L 2356 3500 
L 2356 3053 
L 1172 3053 
L 1172 1153 
Q 1172 725 1289 603 
Q 1406 481 1766 481 
L 2356 481 
L 2356 0 
L 1766 0 
Q 1100 0 847 248 
Q 594 497 594 1153 
L 594 3053 
L 172 3053 
L 172 3500 
L 594 3500 
L 594 4494 
L 1172 4494 
z
" transform="scale(0.015625)"/>
      </defs>
      <use xlink:href="#DejaVuSans-54"/>
      <use xlink:href="#DejaVuSans-72" x="46.333984"/>
      <use xlink:href="#DejaVuSans-65" x="85.197266"/>
      <use xlink:href="#DejaVuSans-65" x="146.720703"/>
      <use xlink:href="#DejaVuSans-73" x="208.244141"/>
      <use xlink:href="#DejaVuSans-20" x="260.34375"/>
      <use xlink:href="#DejaVuSans-62" x="292.130859"/>
      <use xlink:href="#DejaVuSans-75" x="355.607422"/>
      <use xlink:href="#DejaVuSans-69" x="418.986328"/>
      <use xlink:href="#DejaVuSans-6c" x="446.769531"/>
      <use xlink:href="#DejaVuSans-74" x="474.552734"/>
     </g>
    </g>
   </g>
   <g id="matplotlib.axis_2">
    <g id="ytick_1">
     <g id="line2d_7">
      <path d="M 74.30625 480.685856 
L 581.578977 480.685856 
" clip-path="url(#p65d16e9ef4)" style="fill: none; stroke: #ffffff; stroke-linecap: round"/>
     </g>
     <g id="text_8">
      <!-- 50000 -->
      <g style="fill: #262626" transform="translate(29.8125 484.864997)scale(0.11 -0.11)">
       <defs>
        <path id="DejaVuSans-35" d="M 691 4666 
L 3169 4666 
L 3169 4134 
L 1269 4134 
L 1269 2991 
Q 1406 3038 1543 3061 
Q 1681 3084 1819 3084 
Q 2600 3084 3056 2656 
Q 3513 2228 3513 1497 
Q 3513 744 3044 326 
Q 2575 -91 1722 -91 
Q 1428 -91 1123 -41 
Q 819 9 494 109 
L 494 744 
Q 775 591 1075 516 
Q 1375 441 1709 441 
Q 2250 441 2565 725 
Q 2881 1009 2881 1497 
Q 2881 1984 2565 2268 
Q 2250 2553 1709 2553 
Q 1456 2553 1204 2497 
Q 953 2441 691 2322 
L 691 4666 
z
" transform="scale(0.015625)"/>
       </defs>
       <use xlink:href="#DejaVuSans-35"/>
       <use xlink:href="#DejaVuSans-30" x="63.623047"/>
       <use xlink:href="#DejaVuSans-30" x="127.246094"/>
       <use xlink:href="#DejaVuSans-30" x="190.869141"/>
       <use xlink:href="#DejaVuSans-30" x="254.492188"/>
      </g>
     </g>
    </g>
    <g id="ytick_2">
     <g id="line2d_8">
      <path d="M 74.30625 416.09239 
L 581.578977 416.09239 
" clip-path="url(#p65d16e9ef4)" style="fill: none; stroke: #ffffff; stroke-linecap: round"/>
     </g>
     <g id="text_9">
      <!-- 100000 -->
      <g style="fill: #262626" transform="translate(22.81375 420.271531)scale(0.11 -0.11)">
       <use xlink:href="#DejaVuSans-31"/>
       <use xlink:href="#DejaVuSans-30" x="63.623047"/>
       <use xlink:href="#DejaVuSans-30" x="127.246094"/>
       <use xlink:href="#DejaVuSans-30" x="190.869141"/>
       <use xlink:href="#DejaVuSans-30" x="254.492188"/>
       <use xlink:href="#DejaVuSans-30" x="318.115234"/>
      </g>
     </g>
    </g>
    <g id="ytick_3">
     <g id="line2d_9">
      <path d="M 74.30625 351.498924 
L 581.578977 351.498924 
" clip-path="url(#p65d16e9ef4)" style="fill: none; stroke: #ffffff; stroke-linecap: round"/>
     </g>
     <g id="text_10">
      <!-- 150000 -->
      <g style="fill: #262626" transform="translate(22.81375 355.678065)scale(0.11 -0.11)">
       <use xlink:href="#DejaVuSans-31"/>
       <use xlink:href="#DejaVuSans-35" x="63.623047"/>
       <use xlink:href="#DejaVuSans-30" x="127.246094"/>
       <use xlink:href="#DejaVuSans-30" x="190.869141"/>
       <use xlink:href="#DejaVuSans-30" x="254.492188"/>
       <use xlink:href="#DejaVuSans-30" x="318.115234"/>
      </g>
     </g>
    </g>
    <g id="ytick_4">
     <g id="line2d_10">
      <path d="M 74.30625 286.905458 
L 581.578977 286.905458 
" clip-path="url(#p65d16e9ef4)" style="fill: none; stroke: #ffffff; stroke-linecap: round"/>
     </g>
     <g id="text_11">
      <!-- 200000 -->
      <g style="fill: #262626" transform="translate(22.81375 291.084599)scale(0.11 -0.11)">
       <use xlink:href="#DejaVuSans-32"/>
       <use xlink:href="#DejaVuSans-30" x="63.623047"/>
       <use xlink:href="#DejaVuSans-30" x="127.246094"/>
       <use xlink:href="#DejaVuSans-30" x="190.869141"/>
       <use xlink:href="#DejaVuSans-30" x="254.492188"/>
       <use xlink:href="#DejaVuSans-30" x="318.115234"/>
      </g>
     </g>
    </g>
    <g id="ytick_5">
     <g id="line2d_11">
      <path d="M 74.30625 222.311992 
L 581.578977 222.311992 
" clip-path="url(#p65d16e9ef4)" style="fill: none; stroke: #ffffff; stroke-linecap: round"/>
     </g>
     <g id="text_12">
      <!-- 250000 -->
      <g style="fill: #262626" transform="translate(22.81375 226.491133)scale(0.11 -0.11)">
       <use xlink:href="#DejaVuSans-32"/>
       <use xlink:href="#DejaVuSans-35" x="63.623047"/>
       <use xlink:href="#DejaVuSans-30" x="127.246094"/>
       <use xlink:href="#DejaVuSans-30" x="190.869141"/>
       <use xlink:href="#DejaVuSans-30" x="254.492188"/>
       <use xlink:href="#DejaVuSans-30" x="318.115234"/>
      </g>
     </g>
    </g>
    <g id="ytick_6">
     <g id="line2d_12">
      <path d="M 74.30625 157.718526 
L 581.578977 157.718526 
" clip-path="url(#p65d16e9ef4)" style="fill: none; stroke: #ffffff; stroke-linecap: round"/>
     </g>
     <g id="text_13">
      <!-- 300000 -->
      <g style="fill: #262626" transform="translate(22.81375 161.897667)scale(0.11 -0.11)">
       <defs>
        <path id="DejaVuSans-33" d="M 2597 2516 
Q 3050 2419 3304 2112 
Q 3559 1806 3559 1356 
Q 3559 666 3084 287 
Q 2609 -91 1734 -91 
Q 1441 -91 1130 -33 
Q 819 25 488 141 
L 488 750 
Q 750 597 1062 519 
Q 1375 441 1716 441 
Q 2309 441 2620 675 
Q 2931 909 2931 1356 
Q 2931 1769 2642 2001 
Q 2353 2234 1838 2234 
L 1294 2234 
L 1294 2753 
L 1863 2753 
Q 2328 2753 2575 2939 
Q 2822 3125 2822 3475 
Q 2822 3834 2567 4026 
Q 2313 4219 1838 4219 
Q 1578 4219 1281 4162 
Q 984 4106 628 3988 
L 628 4550 
Q 988 4650 1302 4700 
Q 1616 4750 1894 4750 
Q 2613 4750 3031 4423 
Q 3450 4097 3450 3541 
Q 3450 3153 3228 2886 
Q 3006 2619 2597 2516 
z
" transform="scale(0.015625)"/>
       </defs>
       <use xlink:href="#DejaVuSans-33"/>
       <use xlink:href="#DejaVuSans-30" x="63.623047"/>
       <use xlink:href="#DejaVuSans-30" x="127.246094"/>
       <use xlink:href="#DejaVuSans-30" x="190.869141"/>
       <use xlink:href="#DejaVuSans-30" x="254.492188"/>
       <use xlink:href="#DejaVuSans-30" x="318.115234"/>
      </g>
     </g>
    </g>
    <g id="ytick_7">
     <g id="line2d_13">
      <path d="M 74.30625 93.12506 
L 581.578977 93.12506 
" clip-path="url(#p65d16e9ef4)" style="fill: none; stroke: #ffffff; stroke-linecap: round"/>
     </g>
     <g id="text_14">
      <!-- 350000 -->
      <g style="fill: #262626" transform="translate(22.81375 97.304201)scale(0.11 -0.11)">
       <use xlink:href="#DejaVuSans-33"/>
       <use xlink:href="#DejaVuSans-35" x="63.623047"/>
       <use xlink:href="#DejaVuSans-30" x="127.246094"/>
       <use xlink:href="#DejaVuSans-30" x="190.869141"/>
       <use xlink:href="#DejaVuSans-30" x="254.492188"/>
       <use xlink:href="#DejaVuSans-30" x="318.115234"/>
      </g>
     </g>
    </g>
    <g id="text_15">
     <!-- RMSE -->
     <g style="fill: #262626" transform="translate(16.318125 303.50625)rotate(-90)scale(0.12 -0.12)">
      <defs>
       <path id="DejaVuSans-52" d="M 2841 2188 
Q 3044 2119 3236 1894 
Q 3428 1669 3622 1275 
L 4263 0 
L 3584 0 
L 2988 1197 
Q 2756 1666 2539 1819 
Q 2322 1972 1947 1972 
L 1259 1972 
L 1259 0 
L 628 0 
L 628 4666 
L 2053 4666 
Q 2853 4666 3247 4331 
Q 3641 3997 3641 3322 
Q 3641 2881 3436 2590 
Q 3231 2300 2841 2188 
z
M 1259 4147 
L 1259 2491 
L 2053 2491 
Q 2509 2491 2742 2702 
Q 2975 2913 2975 3322 
Q 2975 3731 2742 3939 
Q 2509 4147 2053 4147 
L 1259 4147 
z
" transform="scale(0.015625)"/>
       <path id="DejaVuSans-4d" d="M 628 4666 
L 1569 4666 
L 2759 1491 
L 3956 4666 
L 4897 4666 
L 4897 0 
L 4281 0 
L 4281 4097 
L 3078 897 
L 2444 897 
L 1241 4097 
L 1241 0 
L 628 0 
L 628 4666 
z
" transform="scale(0.015625)"/>
       <path id="DejaVuSans-53" d="M 3425 4513 
L 3425 3897 
Q 3066 4069 2747 4153 
Q 2428 4238 2131 4238 
Q 1616 4238 1336 4038 
Q 1056 3838 1056 3469 
Q 1056 3159 1242 3001 
Q 1428 2844 1947 2747 
L 2328 2669 
Q 3034 2534 3370 2195 
Q 3706 1856 3706 1288 
Q 3706 609 3251 259 
Q 2797 -91 1919 -91 
Q 1588 -91 1214 -16 
Q 841 59 441 206 
L 441 856 
Q 825 641 1194 531 
Q 1563 422 1919 422 
Q 2459 422 2753 634 
Q 3047 847 3047 1241 
Q 3047 1584 2836 1778 
Q 2625 1972 2144 2069 
L 1759 2144 
Q 1053 2284 737 2584 
Q 422 2884 422 3419 
Q 422 4038 858 4394 
Q 1294 4750 2059 4750 
Q 2388 4750 2728 4690 
Q 3069 4631 3425 4513 
z
" transform="scale(0.015625)"/>
       <path id="DejaVuSans-45" d="M 628 4666 
L 3578 4666 
L 3578 4134 
L 1259 4134 
L 1259 2753 
L 3481 2753 
L 3481 2222 
L 1259 2222 
L 1259 531 
L 3634 531 
L 3634 0 
L 628 0 
L 628 4666 
z
" transform="scale(0.015625)"/>
      </defs>
      <use xlink:href="#DejaVuSans-52"/>
      <use xlink:href="#DejaVuSans-4d" x="69.482422"/>
      <use xlink:href="#DejaVuSans-53" x="155.761719"/>
      <use xlink:href="#DejaVuSans-45" x="219.238281"/>
     </g>
    </g>
   </g>
   <g id="line2d_14">
    <path d="M 97.364101 397.024926 
L 97.82572 434.267727 
L 98.287339 446.492862 
L 98.748957 454.587393 
L 99.672194 465.19849 
L 100.595432 472.765486 
L 101.518669 474.655059 
L 102.441906 477.373882 
L 104.288381 481.039913 
L 104.75 480.931015 
L 105.211618 482.082639 
L 105.673237 482.176196 
L 107.519711 483.079512 
L 107.98133 483.501464 
L 108.442949 483.461394 
L 108.904567 483.266755 
L 109.366186 483.476397 
L 110.289423 483.355049 
L 110.751042 483.83887 
L 111.674279 484.151376 
L 112.597516 484.288476 
L 113.520754 484.506435 
L 114.443991 484.928165 
L 115.828847 485.365311 
L 116.290466 485.14096 
L 120.906652 485.949132 
L 121.829889 486.239309 
L 122.753127 486.140259 
L 123.214745 486.297601 
L 125.06122 486.226527 
L 125.522838 486.390673 
L 125.984457 486.432739 
L 126.907694 486.702104 
L 129.215788 486.592548 
L 130.139025 486.799272 
L 130.600644 486.89769 
L 131.523881 486.96284 
L 132.447118 487.028518 
L 132.908737 486.964931 
L 135.21683 487.341313 
L 136.601686 487.391116 
L 137.524923 487.515225 
L 138.448161 487.412684 
L 139.371398 487.498471 
L 140.294635 487.573145 
L 141.217872 487.616218 
L 142.14111 487.589586 
L 144.449203 487.845123 
L 144.910822 487.779054 
L 145.834059 487.835509 
L 149.527008 487.824738 
L 150.911864 487.96084 
L 152.758338 488.072298 
L 153.681576 487.98604 
L 154.143194 487.916542 
L 155.066432 487.914561 
L 155.989669 487.916291 
L 160.144237 488.16 
L 161.529093 488.062747 
L 161.990711 488.110568 
L 162.913949 487.935321 
L 165.222042 487.981924 
L 166.145279 487.928464 
L 168.453372 487.938092 
L 170.299847 487.996842 
L 171.684703 487.973186 
L 175.839271 488.062244 
L 176.762508 488.086636 
L 177.685745 487.977659 
L 179.993838 487.968017 
L 181.378694 487.987814 
L 183.225169 488.035 
L 196.150491 487.977057 
L 201.228296 487.878697 
L 203.536389 487.955696 
L 204.921245 487.988086 
L 206.76772 487.960863 
L 207.690957 487.914074 
L 209.99905 487.880443 
L 211.845525 487.818481 
L 215.076855 487.857976 
L 217.384949 487.829504 
L 218.769804 487.859774 
L 245.543686 487.847686 
L 246.928542 487.815608 
L 281.088321 487.829979 
L 282.473177 487.826798 
L 284.319652 487.742687 
L 286.166126 487.768244 
L 305.554109 487.828521 
L 309.247059 487.85685 
L 313.863245 487.778596 
L 319.864287 487.681262 
L 324.018855 487.738445 
L 327.250186 487.771053 
L 431.575999 487.993322 
L 440.346753 488.017805 
L 489.739948 488.082965 
L 505.896601 488.076047 
L 558.521126 488.03064 
L 558.521126 488.03064 
" clip-path="url(#p65d16e9ef4)" style="fill: none; stroke: #ff7f00; stroke-width: 1.5; stroke-linecap: round"/>
   </g>
   <g id="line2d_15">
    <path d="M 97.364101 282.024982 
L 97.82572 323.951416 
L 98.287339 333.208763 
L 98.748957 346.215438 
L 99.210576 350.079704 
L 99.672194 354.963131 
L 100.133813 356.640691 
L 100.595432 359.182364 
L 101.05705 357.357773 
L 101.518669 361.326884 
L 102.441906 364.694433 
L 102.903525 363.82755 
L 103.365144 364.999975 
L 103.826762 363.45575 
L 104.75 366.347891 
L 105.211618 366.997277 
L 105.673237 368.503099 
L 106.134855 368.125888 
L 106.596474 368.264546 
L 107.058093 368.787191 
L 107.98133 367.812109 
L 108.904567 369.316869 
L 109.366186 369.107858 
L 110.751042 369.914915 
L 111.212661 369.844187 
L 112.135898 370.237706 
L 112.597516 369.579988 
L 113.059135 370.067931 
L 113.520754 369.874318 
L 113.982372 370.295483 
L 114.443991 370.267722 
L 115.367228 370.717327 
L 115.828847 370.804934 
L 116.290466 370.118836 
L 116.752084 370.408342 
L 117.213703 370.962294 
L 117.675322 370.984329 
L 118.13694 371.284633 
L 118.598559 371.296168 
L 119.060177 370.994644 
L 119.983415 370.956283 
L 120.445033 371.30549 
L 120.906652 371.096626 
L 121.368271 371.583133 
L 121.829889 371.595918 
L 122.291508 371.27022 
L 122.753127 371.513295 
L 123.214745 371.417452 
L 123.676364 371.680816 
L 124.137983 371.477389 
L 124.599601 371.701892 
L 125.522838 371.683085 
L 125.984457 371.641606 
L 126.446076 371.420737 
L 127.369313 371.893076 
L 127.830932 371.858349 
L 128.29255 372.163652 
L 128.754169 372.30136 
L 129.215788 372.692423 
L 129.677406 372.536361 
L 130.139025 372.77879 
L 131.523881 372.521377 
L 131.985499 372.563274 
L 132.447118 372.84992 
L 133.370355 372.719726 
L 133.831974 372.531894 
L 134.755211 372.646192 
L 135.21683 372.992523 
L 136.140067 372.810201 
L 137.063305 373.09014 
L 137.524923 373.086236 
L 138.909779 372.77371 
L 139.371398 372.85779 
L 140.294635 372.61714 
L 140.756254 372.958292 
L 141.217872 372.943699 
L 141.679491 373.041975 
L 142.602728 372.982552 
L 143.064347 373.205412 
L 143.525966 373.171482 
L 143.987584 373.333895 
L 145.37244 373.342243 
L 145.834059 373.227168 
L 146.757296 373.438056 
L 148.142152 372.958503 
L 148.603771 373.01182 
L 149.065389 373.207015 
L 150.450245 373.087246 
L 150.911864 373.086219 
L 151.373483 372.942275 
L 151.835101 373.020091 
L 152.29672 372.792879 
L 153.219957 372.880623 
L 153.681576 372.59113 
L 155.066432 372.459759 
L 155.989669 372.407287 
L 156.912906 372.558384 
L 157.374525 372.371052 
L 158.297762 372.331291 
L 159.220999 372.100225 
L 159.682618 372.18038 
L 160.144237 372.06446 
L 160.605855 372.219789 
L 170.299847 372.132514 
L 171.223084 371.970549 
L 171.684703 371.986843 
L 172.60794 371.757555 
L 173.992796 371.767008 
L 175.377652 371.609496 
L 175.839271 371.787604 
L 176.762508 371.704595 
L 178.608982 371.902028 
L 179.070601 371.823012 
L 179.53222 371.880689 
L 179.993838 371.806682 
L 180.455457 371.905022 
L 180.917076 371.729395 
L 181.378694 371.824878 
L 181.840313 371.753554 
L 182.76355 371.942283 
L 183.225169 371.870382 
L 183.686788 372.034532 
L 184.610025 371.906898 
L 185.533262 372.070926 
L 186.918118 372.14968 
L 187.841355 372.066235 
L 188.302974 372.160345 
L 189.226211 372.026666 
L 191.534305 372.211607 
L 192.457542 372.09812 
L 195.688872 371.974073 
L 196.150491 371.948319 
L 197.535347 372.179676 
L 199.381821 372.275924 
L 200.305059 372.082429 
L 200.766677 372.230123 
L 206.306101 372.248138 
L 208.152576 372.445778 
L 211.383906 372.554489 
L 212.307143 372.652451 
L 212.768762 372.590465 
L 213.230381 372.714281 
L 214.615237 372.669914 
L 215.076855 372.774808 
L 216.000093 372.615949 
L 216.92333 372.741054 
L 218.308186 372.629714 
L 218.769804 372.693721 
L 219.231423 372.596039 
L 219.693042 372.694457 
L 221.077898 372.671825 
L 222.924372 372.801779 
L 224.770847 372.884649 
L 226.617321 373.069311 
L 231.695126 372.909559 
L 234.464838 373.065016 
L 234.926457 373.00674 
L 235.849694 373.205382 
L 237.23455 373.217655 
L 240.004262 373.372501 
L 240.927499 373.322879 
L 241.850737 373.353484 
L 243.697211 373.281549 
L 248.313398 373.891606 
L 251.544728 374.053109 
L 252.929584 373.996467 
L 256.160915 373.98449 
L 257.545771 374.169356 
L 259.392245 374.114011 
L 260.777101 374.154623 
L 261.700338 374.17255 
L 263.546813 374.282358 
L 267.701381 374.375169 
L 274.62566 374.41014 
L 276.010516 374.407069 
L 277.856991 374.560542 
L 280.165084 374.56022 
L 283.858033 374.449015 
L 284.78127 374.503184 
L 286.627745 374.526724 
L 287.550982 374.556037 
L 288.935838 374.435693 
L 289.859076 374.472424 
L 293.552025 374.496996 
L 294.475262 374.539124 
L 296.321737 374.324866 
L 298.62983 374.467642 
L 303.246016 374.419897 
L 304.630872 374.46361 
L 305.554109 374.479238 
L 306.938965 374.485364 
L 307.862203 374.43913 
L 308.78544 374.467737 
L 311.093533 374.424925 
L 313.401626 374.453427 
L 314.324864 374.451047 
L 319.402669 374.358019 
L 321.249143 374.349458 
L 322.633999 374.291197 
L 323.557237 374.268353 
L 324.480474 374.279644 
L 326.326948 374.333828 
L 327.711804 374.31227 
L 329.09666 374.341178 
L 334.174465 374.468735 
L 336.02094 374.587817 
L 337.405796 374.609607 
L 338.790652 374.532533 
L 341.098745 374.662247 
L 342.021982 374.707344 
L 342.94522 374.68877 
L 344.791694 374.677487 
L 348.484643 374.722705 
L 350.331118 374.744808 
L 357.717016 374.801245 
L 360.025109 374.871787 
L 361.871584 374.861261 
L 365.564533 374.83808 
L 366.48777 374.852836 
L 367.872626 374.788046 
L 369.719101 374.896494 
L 372.488813 374.834955 
L 378.028236 374.924065 
L 382.182804 374.881721 
L 383.56766 374.909695 
L 396.492982 374.904221 
L 397.416219 374.882996 
L 400.185931 374.801002 
L 401.570787 374.816631 
L 405.263736 374.726097 
L 442.193228 374.455673 
L 444.501321 374.420152 
L 446.347796 374.411054 
L 449.579126 374.381513 
L 451.887219 374.391285 
L 454.195313 374.362818 
L 460.196355 374.404712 
L 462.04283 374.370462 
L 465.735779 374.290555 
L 480.045957 374.415402 
L 492.50966 374.401554 
L 494.356135 374.419028 
L 499.895558 374.448783 
L 502.66527 374.431522 
L 504.050126 374.442805 
L 505.434982 374.418583 
L 509.127931 374.375347 
L 516.975448 374.42814 
L 520.668397 374.32274 
L 532.208863 374.388789 
L 534.516957 374.369576 
L 535.901813 374.404362 
L 538.209906 374.388698 
L 539.594762 374.430704 
L 552.058465 374.397996 
L 556.213033 374.487639 
L 558.521126 374.473556 
L 558.521126 374.473556 
" clip-path="url(#p65d16e9ef4)" style="fill: none; stroke-dasharray: 6,2.25; stroke-dashoffset: 0; stroke: #ff7f00; stroke-width: 1.5"/>
   </g>
   <g id="line2d_16">
    <path d="M 97.364101 111.734984 
L 98.287339 167.628813 
L 99.210576 212.266607 
L 100.595432 265.431059 
L 101.980288 304.804618 
L 103.365144 332.403701 
L 104.288381 345.565162 
L 106.134855 366.975368 
L 107.058093 375.227213 
L 108.442949 384.378501 
L 109.827805 390.958952 
L 111.212661 396.196381 
L 113.520754 401.961709 
L 113.982372 402.684793 
L 114.443991 403.895639 
L 114.90561 404.445942 
L 115.367228 405.560016 
L 117.675322 408.981522 
L 119.060177 410.385625 
L 119.983415 411.185918 
L 120.906652 411.865717 
L 121.368271 412.588123 
L 122.291508 413.411247 
L 122.753127 413.732287 
L 123.676364 414.745989 
L 125.06122 415.561586 
L 126.907694 416.850093 
L 127.369313 416.978959 
L 129.677406 418.481627 
L 132.908737 420.334387 
L 133.831974 420.551522 
L 134.755211 421.038212 
L 135.678449 421.46223 
L 136.601686 422.11471 
L 137.986542 422.650965 
L 138.909779 423.110697 
L 139.371398 423.254282 
L 139.833016 423.54037 
L 141.217872 424.004879 
L 141.679491 424.294264 
L 143.525966 424.796681 
L 152.758338 427.715488 
L 153.681576 428.304529 
L 154.604813 428.651444 
L 158.297762 429.966038 
L 163.375567 431.131026 
L 163.837186 431.480004 
L 164.760423 431.681598 
L 167.991754 432.586543 
L 169.37661 432.838202 
L 170.299847 433.068861 
L 185.994881 436.588774 
L 187.841355 437.011249 
L 189.68783 437.303931 
L 190.611067 437.628115 
L 191.995923 437.870286 
L 196.61211 438.579786 
L 197.535347 438.674658 
L 198.920203 438.980231 
L 201.689915 439.287624 
L 205.844482 439.853547 
L 206.76772 440.098375 
L 209.075813 440.371725 
L 224.770847 442.992062 
L 229.848652 443.715027 
L 231.233508 443.860579 
L 239.542643 445.080145 
L 240.927499 445.299607 
L 245.082067 445.815733 
L 247.851779 446.222743 
L 250.621491 446.547767 
L 260.315482 447.561347 
L 261.700338 447.761069 
L 270.009474 448.507432 
L 290.320694 450.765636 
L 293.552025 451.150272 
L 294.936881 451.312658 
L 297.706592 451.576293 
L 299.553067 451.823181 
L 303.246016 452.065865 
L 307.862203 452.467058 
L 310.631915 452.684511 
L 313.401626 452.908581 
L 316.632957 453.339246 
L 321.249143 453.758367 
L 323.557237 454.050153 
L 366.026152 457.362207 
L 369.257482 457.498841 
L 370.642338 457.626511 
L 376.643381 458.00795 
L 378.951474 458.178695 
L 388.183847 458.819006 
L 393.261652 459.21605 
L 402.032406 459.7117 
L 407.57183 460.120541 
L 413.111253 460.48291 
L 417.265821 460.763037 
L 433.422474 461.79678 
L 439.423516 462.095168 
L 443.116465 462.289904 
L 460.657974 463.488959 
L 464.350923 463.680085 
L 466.197397 463.780288 
L 474.968152 464.200577 
L 478.199482 464.383177 
L 486.046999 464.753785 
L 488.355092 464.94528 
L 524.361346 466.588846 
L 525.746202 466.71648 
L 530.824007 466.958043 
L 537.748287 467.283126 
L 544.210948 467.651336 
L 558.521126 468.305033 
L 558.521126 468.305033 
" clip-path="url(#p65d16e9ef4)" style="fill: none; stroke: #33a02c; stroke-width: 1.5; stroke-linecap: round"/>
   </g>
   <g id="line2d_17">
    <path d="M 97.364101 84.96 
L 98.287339 141.406143 
L 99.672194 205.860138 
L 100.595432 241.053043 
L 101.980288 280.592456 
L 103.826762 312.65703 
L 105.211618 329.73613 
L 106.134855 338.477359 
L 107.058093 345.669338 
L 107.98133 350.679451 
L 108.442949 353.698073 
L 109.366186 357.833216 
L 111.212661 364.480189 
L 111.674279 365.212112 
L 112.135898 366.298546 
L 112.597516 366.776821 
L 113.520754 368.24842 
L 113.982372 368.653248 
L 114.90561 370.406782 
L 116.290466 372.704041 
L 116.752084 373.103543 
L 117.213703 373.27061 
L 117.675322 373.613938 
L 118.13694 373.793321 
L 119.521796 375.239454 
L 120.445033 375.309654 
L 121.368271 375.97053 
L 122.753127 376.579494 
L 123.676364 377.334696 
L 124.599601 377.483228 
L 126.446076 378.842409 
L 127.369313 379.137417 
L 127.830932 379.571728 
L 128.754169 379.736836 
L 129.677406 379.527515 
L 130.600644 379.790336 
L 132.908737 380.533753 
L 133.831974 380.559134 
L 134.293593 380.718755 
L 134.755211 380.739783 
L 136.140067 381.246893 
L 136.601686 381.233258 
L 139.371398 381.938889 
L 140.294635 381.86907 
L 141.217872 382.050982 
L 142.14111 382.173505 
L 143.525966 382.404301 
L 145.37244 382.484589 
L 147.218915 382.541514 
L 147.680533 382.484945 
L 148.142152 382.671145 
L 152.758338 383.303883 
L 154.143194 383.791368 
L 154.604813 383.84574 
L 155.52805 383.82726 
L 155.989669 383.903419 
L 156.451288 384.181884 
L 160.144237 384.426998 
L 163.375567 384.730977 
L 163.837186 384.970991 
L 166.606898 385.120324 
L 167.068516 385.295242 
L 167.991754 385.323183 
L 169.37661 385.465201 
L 170.761466 385.394897 
L 172.146321 385.445177 
L 174.454415 385.547938 
L 175.839271 385.759854 
L 180.917076 386.057134 
L 182.301932 386.150499 
L 183.225169 386.354663 
L 185.533262 386.521933 
L 186.456499 386.725101 
L 189.226211 386.887723 
L 190.611067 387.101555 
L 191.995923 387.000421 
L 193.380779 387.142358 
L 194.304016 387.154104 
L 195.227254 387.277473 
L 196.150491 387.251326 
L 198.920203 387.453578 
L 200.305059 387.414412 
L 202.151533 387.496999 
L 203.536389 387.601239 
L 204.921245 387.558696 
L 206.76772 387.57658 
L 208.152576 387.537502 
L 210.460669 387.653515 
L 215.538474 388.014029 
L 216.000093 388.107388 
L 216.92333 388.099535 
L 220.15466 388.450145 
L 222.462754 388.579256 
L 223.385991 388.520924 
L 224.770847 388.606748 
L 226.155703 388.592988 
L 238.619406 389.144842 
L 239.542643 389.133313 
L 242.773974 389.2918 
L 248.313398 389.58042 
L 249.236635 389.725108 
L 253.852821 389.792605 
L 271.855948 390.302672 
L 275.087279 390.413189 
L 278.318609 390.513899 
L 282.011559 390.504302 
L 284.78127 390.433698 
L 288.935838 390.432537 
L 292.167169 390.522802 
L 299.091448 390.668896 
L 300.937923 390.747923 
L 309.708677 390.870727 
L 313.401626 390.979683 
L 317.556194 391.046496 
L 325.403711 391.026648 
L 328.173423 391.081215 
L 332.789609 391.038188 
L 336.02094 391.09052 
L 338.790652 391.091827 
L 341.560364 391.163463 
L 345.714931 391.148785 
L 348.023025 391.14693 
L 355.408923 391.200998 
L 363.718059 391.331646 
L 374.335287 391.29596 
L 401.109169 391.557129 
L 403.87888 391.5802 
L 408.495067 391.575981 
L 412.649635 391.680577 
L 414.034491 391.701684 
L 445.424558 391.873076 
L 446.809414 391.940367 
L 455.11855 392.042535 
L 487.431855 392.130783 
L 488.816711 392.19288 
L 492.50966 392.211794 
L 506.819838 392.230347 
L 512.82088 392.246998 
L 517.437067 392.232382 
L 531.285626 392.287546 
L 534.055338 392.307133 
L 547.442279 392.334631 
L 551.596846 392.406754 
L 558.521126 392.382127 
L 558.521126 392.382127 
" clip-path="url(#p65d16e9ef4)" style="fill: none; stroke-dasharray: 6,2.25; stroke-dashoffset: 0; stroke: #33a02c; stroke-width: 1.5"/>
   </g>
   <g id="line2d_18"/>
   <g id="line2d_19"/>
   <g id="line2d_20"/>
   <g id="line2d_21"/>
   <g id="patch_3">
    <path d="M 74.30625 508.32 
L 74.30625 64.8 
" style="fill: none; stroke: #ffffff; stroke-width: 1.25; stroke-linejoin: miter; stroke-linecap: square"/>
   </g>
   <g id="patch_4">
    <path d="M 581.578977 508.32 
L 581.578977 64.8 
" style="fill: none; stroke: #ffffff; stroke-width: 1.25; stroke-linejoin: miter; stroke-linecap: square"/>
   </g>
   <g id="patch_5">
    <path d="M 74.30625 508.32 
L 581.578977 508.32 
" style="fill: none; stroke: #ffffff; stroke-width: 1.25; stroke-linejoin: miter; stroke-linecap: square"/>
   </g>
   <g id="patch_6">
    <path d="M 74.30625 64.8 
L 581.578977 64.8 
" style="fill: none; stroke: #ffffff; stroke-width: 1.25; stroke-linejoin: miter; stroke-linecap: square"/>
   </g>
   <g id="text_16">
    <!-- Dependency of RMSE on trees amount -->
    <g style="fill: #262626" transform="translate(192.784645 43.123062)scale(0.14 -0.14)">
     <defs>
      <path id="DejaVuSans-44" d="M 1259 4147 
L 1259 519 
L 2022 519 
Q 2988 519 3436 956 
Q 3884 1394 3884 2338 
Q 3884 3275 3436 3711 
Q 2988 4147 2022 4147 
L 1259 4147 
z
M 628 4666 
L 1925 4666 
Q 3281 4666 3915 4102 
Q 4550 3538 4550 2338 
Q 4550 1131 3912 565 
Q 3275 0 1925 0 
L 628 0 
L 628 4666 
z
" transform="scale(0.015625)"/>
      <path id="DejaVuSans-70" d="M 1159 525 
L 1159 -1331 
L 581 -1331 
L 581 3500 
L 1159 3500 
L 1159 2969 
Q 1341 3281 1617 3432 
Q 1894 3584 2278 3584 
Q 2916 3584 3314 3078 
Q 3713 2572 3713 1747 
Q 3713 922 3314 415 
Q 2916 -91 2278 -91 
Q 1894 -91 1617 61 
Q 1341 213 1159 525 
z
M 3116 1747 
Q 3116 2381 2855 2742 
Q 2594 3103 2138 3103 
Q 1681 3103 1420 2742 
Q 1159 2381 1159 1747 
Q 1159 1113 1420 752 
Q 1681 391 2138 391 
Q 2594 391 2855 752 
Q 3116 1113 3116 1747 
z
" transform="scale(0.015625)"/>
      <path id="DejaVuSans-6e" d="M 3513 2113 
L 3513 0 
L 2938 0 
L 2938 2094 
Q 2938 2591 2744 2837 
Q 2550 3084 2163 3084 
Q 1697 3084 1428 2787 
Q 1159 2491 1159 1978 
L 1159 0 
L 581 0 
L 581 3500 
L 1159 3500 
L 1159 2956 
Q 1366 3272 1645 3428 
Q 1925 3584 2291 3584 
Q 2894 3584 3203 3211 
Q 3513 2838 3513 2113 
z
" transform="scale(0.015625)"/>
      <path id="DejaVuSans-64" d="M 2906 2969 
L 2906 4863 
L 3481 4863 
L 3481 0 
L 2906 0 
L 2906 525 
Q 2725 213 2448 61 
Q 2172 -91 1784 -91 
Q 1150 -91 751 415 
Q 353 922 353 1747 
Q 353 2572 751 3078 
Q 1150 3584 1784 3584 
Q 2172 3584 2448 3432 
Q 2725 3281 2906 2969 
z
M 947 1747 
Q 947 1113 1208 752 
Q 1469 391 1925 391 
Q 2381 391 2643 752 
Q 2906 1113 2906 1747 
Q 2906 2381 2643 2742 
Q 2381 3103 1925 3103 
Q 1469 3103 1208 2742 
Q 947 2381 947 1747 
z
" transform="scale(0.015625)"/>
      <path id="DejaVuSans-63" d="M 3122 3366 
L 3122 2828 
Q 2878 2963 2633 3030 
Q 2388 3097 2138 3097 
Q 1578 3097 1268 2742 
Q 959 2388 959 1747 
Q 959 1106 1268 751 
Q 1578 397 2138 397 
Q 2388 397 2633 464 
Q 2878 531 3122 666 
L 3122 134 
Q 2881 22 2623 -34 
Q 2366 -91 2075 -91 
Q 1284 -91 818 406 
Q 353 903 353 1747 
Q 353 2603 823 3093 
Q 1294 3584 2113 3584 
Q 2378 3584 2631 3529 
Q 2884 3475 3122 3366 
z
" transform="scale(0.015625)"/>
      <path id="DejaVuSans-79" d="M 2059 -325 
Q 1816 -950 1584 -1140 
Q 1353 -1331 966 -1331 
L 506 -1331 
L 506 -850 
L 844 -850 
Q 1081 -850 1212 -737 
Q 1344 -625 1503 -206 
L 1606 56 
L 191 3500 
L 800 3500 
L 1894 763 
L 2988 3500 
L 3597 3500 
L 2059 -325 
z
" transform="scale(0.015625)"/>
      <path id="DejaVuSans-6f" d="M 1959 3097 
Q 1497 3097 1228 2736 
Q 959 2375 959 1747 
Q 959 1119 1226 758 
Q 1494 397 1959 397 
Q 2419 397 2687 759 
Q 2956 1122 2956 1747 
Q 2956 2369 2687 2733 
Q 2419 3097 1959 3097 
z
M 1959 3584 
Q 2709 3584 3137 3096 
Q 3566 2609 3566 1747 
Q 3566 888 3137 398 
Q 2709 -91 1959 -91 
Q 1206 -91 779 398 
Q 353 888 353 1747 
Q 353 2609 779 3096 
Q 1206 3584 1959 3584 
z
" transform="scale(0.015625)"/>
      <path id="DejaVuSans-66" d="M 2375 4863 
L 2375 4384 
L 1825 4384 
Q 1516 4384 1395 4259 
Q 1275 4134 1275 3809 
L 1275 3500 
L 2222 3500 
L 2222 3053 
L 1275 3053 
L 1275 0 
L 697 0 
L 697 3053 
L 147 3053 
L 147 3500 
L 697 3500 
L 697 3744 
Q 697 4328 969 4595 
Q 1241 4863 1831 4863 
L 2375 4863 
z
" transform="scale(0.015625)"/>
      <path id="DejaVuSans-61" d="M 2194 1759 
Q 1497 1759 1228 1600 
Q 959 1441 959 1056 
Q 959 750 1161 570 
Q 1363 391 1709 391 
Q 2188 391 2477 730 
Q 2766 1069 2766 1631 
L 2766 1759 
L 2194 1759 
z
M 3341 1997 
L 3341 0 
L 2766 0 
L 2766 531 
Q 2569 213 2275 61 
Q 1981 -91 1556 -91 
Q 1019 -91 701 211 
Q 384 513 384 1019 
Q 384 1609 779 1909 
Q 1175 2209 1959 2209 
L 2766 2209 
L 2766 2266 
Q 2766 2663 2505 2880 
Q 2244 3097 1772 3097 
Q 1472 3097 1187 3025 
Q 903 2953 641 2809 
L 641 3341 
Q 956 3463 1253 3523 
Q 1550 3584 1831 3584 
Q 2591 3584 2966 3190 
Q 3341 2797 3341 1997 
z
" transform="scale(0.015625)"/>
      <path id="DejaVuSans-6d" d="M 3328 2828 
Q 3544 3216 3844 3400 
Q 4144 3584 4550 3584 
Q 5097 3584 5394 3201 
Q 5691 2819 5691 2113 
L 5691 0 
L 5113 0 
L 5113 2094 
Q 5113 2597 4934 2840 
Q 4756 3084 4391 3084 
Q 3944 3084 3684 2787 
Q 3425 2491 3425 1978 
L 3425 0 
L 2847 0 
L 2847 2094 
Q 2847 2600 2669 2842 
Q 2491 3084 2119 3084 
Q 1678 3084 1418 2786 
Q 1159 2488 1159 1978 
L 1159 0 
L 581 0 
L 581 3500 
L 1159 3500 
L 1159 2956 
Q 1356 3278 1631 3431 
Q 1906 3584 2284 3584 
Q 2666 3584 2933 3390 
Q 3200 3197 3328 2828 
z
" transform="scale(0.015625)"/>
     </defs>
     <use xlink:href="#DejaVuSans-44"/>
     <use xlink:href="#DejaVuSans-65" x="77.001953"/>
     <use xlink:href="#DejaVuSans-70" x="138.525391"/>
     <use xlink:href="#DejaVuSans-65" x="202.001953"/>
     <use xlink:href="#DejaVuSans-6e" x="263.525391"/>
     <use xlink:href="#DejaVuSans-64" x="326.904297"/>
     <use xlink:href="#DejaVuSans-65" x="390.380859"/>
     <use xlink:href="#DejaVuSans-6e" x="451.904297"/>
     <use xlink:href="#DejaVuSans-63" x="515.283203"/>
     <use xlink:href="#DejaVuSans-79" x="570.263672"/>
     <use xlink:href="#DejaVuSans-20" x="629.443359"/>
     <use xlink:href="#DejaVuSans-6f" x="661.230469"/>
     <use xlink:href="#DejaVuSans-66" x="722.412109"/>
     <use xlink:href="#DejaVuSans-20" x="757.617188"/>
     <use xlink:href="#DejaVuSans-52" x="789.404297"/>
     <use xlink:href="#DejaVuSans-4d" x="858.886719"/>
     <use xlink:href="#DejaVuSans-53" x="945.166016"/>
     <use xlink:href="#DejaVuSans-45" x="1008.642578"/>
     <use xlink:href="#DejaVuSans-20" x="1071.826172"/>
     <use xlink:href="#DejaVuSans-6f" x="1103.613281"/>
     <use xlink:href="#DejaVuSans-6e" x="1164.794922"/>
     <use xlink:href="#DejaVuSans-20" x="1228.173828"/>
     <use xlink:href="#DejaVuSans-74" x="1259.960938"/>
     <use xlink:href="#DejaVuSans-72" x="1299.169922"/>
     <use xlink:href="#DejaVuSans-65" x="1338.033203"/>
     <use xlink:href="#DejaVuSans-65" x="1399.556641"/>
     <use xlink:href="#DejaVuSans-73" x="1461.080078"/>
     <use xlink:href="#DejaVuSans-20" x="1513.179688"/>
     <use xlink:href="#DejaVuSans-61" x="1544.966797"/>
     <use xlink:href="#DejaVuSans-6d" x="1606.246094"/>
     <use xlink:href="#DejaVuSans-6f" x="1703.658203"/>
     <use xlink:href="#DejaVuSans-75" x="1764.839844"/>
     <use xlink:href="#DejaVuSans-6e" x="1828.21875"/>
     <use xlink:href="#DejaVuSans-74" x="1891.597656"/>
    </g>
    <!-- Gradient Boosting and Random Forest -->
    <g style="fill: #262626" transform="translate(194.370582 58.8)scale(0.14 -0.14)">
     <defs>
      <path id="DejaVuSans-47" d="M 3809 666 
L 3809 1919 
L 2778 1919 
L 2778 2438 
L 4434 2438 
L 4434 434 
Q 4069 175 3628 42 
Q 3188 -91 2688 -91 
Q 1594 -91 976 548 
Q 359 1188 359 2328 
Q 359 3472 976 4111 
Q 1594 4750 2688 4750 
Q 3144 4750 3555 4637 
Q 3966 4525 4313 4306 
L 4313 3634 
Q 3963 3931 3569 4081 
Q 3175 4231 2741 4231 
Q 1884 4231 1454 3753 
Q 1025 3275 1025 2328 
Q 1025 1384 1454 906 
Q 1884 428 2741 428 
Q 3075 428 3337 486 
Q 3600 544 3809 666 
z
" transform="scale(0.015625)"/>
      <path id="DejaVuSans-42" d="M 1259 2228 
L 1259 519 
L 2272 519 
Q 2781 519 3026 730 
Q 3272 941 3272 1375 
Q 3272 1813 3026 2020 
Q 2781 2228 2272 2228 
L 1259 2228 
z
M 1259 4147 
L 1259 2741 
L 2194 2741 
Q 2656 2741 2882 2914 
Q 3109 3088 3109 3444 
Q 3109 3797 2882 3972 
Q 2656 4147 2194 4147 
L 1259 4147 
z
M 628 4666 
L 2241 4666 
Q 2963 4666 3353 4366 
Q 3744 4066 3744 3513 
Q 3744 3084 3544 2831 
Q 3344 2578 2956 2516 
Q 3422 2416 3680 2098 
Q 3938 1781 3938 1306 
Q 3938 681 3513 340 
Q 3088 0 2303 0 
L 628 0 
L 628 4666 
z
" transform="scale(0.015625)"/>
      <path id="DejaVuSans-67" d="M 2906 1791 
Q 2906 2416 2648 2759 
Q 2391 3103 1925 3103 
Q 1463 3103 1205 2759 
Q 947 2416 947 1791 
Q 947 1169 1205 825 
Q 1463 481 1925 481 
Q 2391 481 2648 825 
Q 2906 1169 2906 1791 
z
M 3481 434 
Q 3481 -459 3084 -895 
Q 2688 -1331 1869 -1331 
Q 1566 -1331 1297 -1286 
Q 1028 -1241 775 -1147 
L 775 -588 
Q 1028 -725 1275 -790 
Q 1522 -856 1778 -856 
Q 2344 -856 2625 -561 
Q 2906 -266 2906 331 
L 2906 616 
Q 2728 306 2450 153 
Q 2172 0 1784 0 
Q 1141 0 747 490 
Q 353 981 353 1791 
Q 353 2603 747 3093 
Q 1141 3584 1784 3584 
Q 2172 3584 2450 3431 
Q 2728 3278 2906 2969 
L 2906 3500 
L 3481 3500 
L 3481 434 
z
" transform="scale(0.015625)"/>
      <path id="DejaVuSans-46" d="M 628 4666 
L 3309 4666 
L 3309 4134 
L 1259 4134 
L 1259 2759 
L 3109 2759 
L 3109 2228 
L 1259 2228 
L 1259 0 
L 628 0 
L 628 4666 
z
" transform="scale(0.015625)"/>
     </defs>
     <use xlink:href="#DejaVuSans-47"/>
     <use xlink:href="#DejaVuSans-72" x="77.490234"/>
     <use xlink:href="#DejaVuSans-61" x="118.603516"/>
     <use xlink:href="#DejaVuSans-64" x="179.882812"/>
     <use xlink:href="#DejaVuSans-69" x="243.359375"/>
     <use xlink:href="#DejaVuSans-65" x="271.142578"/>
     <use xlink:href="#DejaVuSans-6e" x="332.666016"/>
     <use xlink:href="#DejaVuSans-74" x="396.044922"/>
     <use xlink:href="#DejaVuSans-20" x="435.253906"/>
     <use xlink:href="#DejaVuSans-42" x="467.041016"/>
     <use xlink:href="#DejaVuSans-6f" x="535.644531"/>
     <use xlink:href="#DejaVuSans-6f" x="596.826172"/>
     <use xlink:href="#DejaVuSans-73" x="658.007812"/>
     <use xlink:href="#DejaVuSans-74" x="710.107422"/>
     <use xlink:href="#DejaVuSans-69" x="749.316406"/>
     <use xlink:href="#DejaVuSans-6e" x="777.099609"/>
     <use xlink:href="#DejaVuSans-67" x="840.478516"/>
     <use xlink:href="#DejaVuSans-20" x="903.955078"/>
     <use xlink:href="#DejaVuSans-61" x="935.742188"/>
     <use xlink:href="#DejaVuSans-6e" x="997.021484"/>
     <use xlink:href="#DejaVuSans-64" x="1060.400391"/>
     <use xlink:href="#DejaVuSans-20" x="1123.876953"/>
     <use xlink:href="#DejaVuSans-52" x="1155.664062"/>
     <use xlink:href="#DejaVuSans-61" x="1222.896484"/>
     <use xlink:href="#DejaVuSans-6e" x="1284.175781"/>
     <use xlink:href="#DejaVuSans-64" x="1347.554688"/>
     <use xlink:href="#DejaVuSans-6f" x="1411.03125"/>
     <use xlink:href="#DejaVuSans-6d" x="1472.212891"/>
     <use xlink:href="#DejaVuSans-20" x="1569.625"/>
     <use xlink:href="#DejaVuSans-46" x="1601.412109"/>
     <use xlink:href="#DejaVuSans-6f" x="1655.306641"/>
     <use xlink:href="#DejaVuSans-72" x="1716.488281"/>
     <use xlink:href="#DejaVuSans-65" x="1755.351562"/>
     <use xlink:href="#DejaVuSans-73" x="1816.875"/>
     <use xlink:href="#DejaVuSans-74" x="1868.974609"/>
    </g>
   </g>
   <g id="legend_1">
    <g id="patch_7">
     <path d="M 442.740071 172.41125 
L 573.878977 172.41125 
Q 576.078977 172.41125 576.078977 170.21125 
L 576.078977 72.5 
Q 576.078977 70.3 573.878977 70.3 
L 442.740071 70.3 
Q 440.540071 70.3 440.540071 72.5 
L 440.540071 170.21125 
Q 440.540071 172.41125 442.740071 172.41125 
z
" style="fill: #eaeaf2; opacity: 0.8; stroke: #cccccc; stroke-linejoin: miter"/>
    </g>
    <g id="text_17">
     <!-- algorithm -->
     <g style="fill: #262626" transform="translate(453.740071 83.818125)scale(0.12 -0.12)">
      <defs>
       <path id="DejaVuSans-68" d="M 3513 2113 
L 3513 0 
L 2938 0 
L 2938 2094 
Q 2938 2591 2744 2837 
Q 2550 3084 2163 3084 
Q 1697 3084 1428 2787 
Q 1159 2491 1159 1978 
L 1159 0 
L 581 0 
L 581 4863 
L 1159 4863 
L 1159 2956 
Q 1366 3272 1645 3428 
Q 1925 3584 2291 3584 
Q 2894 3584 3203 3211 
Q 3513 2838 3513 2113 
z
" transform="scale(0.015625)"/>
      </defs>
      <use xlink:href="#DejaVuSans-61"/>
      <use xlink:href="#DejaVuSans-6c" x="61.279297"/>
      <use xlink:href="#DejaVuSans-67" x="89.0625"/>
      <use xlink:href="#DejaVuSans-6f" x="152.539062"/>
      <use xlink:href="#DejaVuSans-72" x="213.720703"/>
      <use xlink:href="#DejaVuSans-69" x="254.833984"/>
      <use xlink:href="#DejaVuSans-74" x="282.617188"/>
      <use xlink:href="#DejaVuSans-68" x="321.826172"/>
      <use xlink:href="#DejaVuSans-6d" x="385.205078"/>
     </g>
    </g>
    <g id="line2d_22">
     <path d="M 444.940071 96.322031 
L 455.940071 96.322031 
L 466.940071 96.322031 
" style="fill: none; stroke: #ff7f00; stroke-width: 1.5; stroke-linecap: round"/>
    </g>
    <g id="text_18">
     <!-- RandomForest -->
     <g style="fill: #262626" transform="translate(475.740071 100.172031)scale(0.11 -0.11)">
      <use xlink:href="#DejaVuSans-52"/>
      <use xlink:href="#DejaVuSans-61" x="67.232422"/>
      <use xlink:href="#DejaVuSans-6e" x="128.511719"/>
      <use xlink:href="#DejaVuSans-64" x="191.890625"/>
      <use xlink:href="#DejaVuSans-6f" x="255.367188"/>
      <use xlink:href="#DejaVuSans-6d" x="316.548828"/>
      <use xlink:href="#DejaVuSans-46" x="413.960938"/>
      <use xlink:href="#DejaVuSans-6f" x="467.855469"/>
      <use xlink:href="#DejaVuSans-72" x="529.037109"/>
      <use xlink:href="#DejaVuSans-65" x="567.900391"/>
      <use xlink:href="#DejaVuSans-73" x="629.423828"/>
      <use xlink:href="#DejaVuSans-74" x="681.523438"/>
     </g>
    </g>
    <g id="line2d_23">
     <path d="M 444.940071 112.467969 
L 455.940071 112.467969 
L 466.940071 112.467969 
" style="fill: none; stroke: #33a02c; stroke-width: 1.5; stroke-linecap: round"/>
    </g>
    <g id="text_19">
     <!-- GradientBoosting -->
     <g style="fill: #262626" transform="translate(475.740071 116.317969)scale(0.11 -0.11)">
      <use xlink:href="#DejaVuSans-47"/>
      <use xlink:href="#DejaVuSans-72" x="77.490234"/>
      <use xlink:href="#DejaVuSans-61" x="118.603516"/>
      <use xlink:href="#DejaVuSans-64" x="179.882812"/>
      <use xlink:href="#DejaVuSans-69" x="243.359375"/>
      <use xlink:href="#DejaVuSans-65" x="271.142578"/>
      <use xlink:href="#DejaVuSans-6e" x="332.666016"/>
      <use xlink:href="#DejaVuSans-74" x="396.044922"/>
      <use xlink:href="#DejaVuSans-42" x="435.253906"/>
      <use xlink:href="#DejaVuSans-6f" x="503.857422"/>
      <use xlink:href="#DejaVuSans-6f" x="565.039062"/>
      <use xlink:href="#DejaVuSans-73" x="626.220703"/>
      <use xlink:href="#DejaVuSans-74" x="678.320312"/>
      <use xlink:href="#DejaVuSans-69" x="717.529297"/>
      <use xlink:href="#DejaVuSans-6e" x="745.3125"/>
      <use xlink:href="#DejaVuSans-67" x="808.691406"/>
     </g>
    </g>
    <g id="text_20">
     <!-- dataset -->
     <g style="fill: #262626" transform="translate(453.740071 133.22375)scale(0.12 -0.12)">
      <use xlink:href="#DejaVuSans-64"/>
      <use xlink:href="#DejaVuSans-61" x="63.476562"/>
      <use xlink:href="#DejaVuSans-74" x="124.755859"/>
      <use xlink:href="#DejaVuSans-61" x="163.964844"/>
      <use xlink:href="#DejaVuSans-73" x="225.244141"/>
      <use xlink:href="#DejaVuSans-65" x="277.34375"/>
      <use xlink:href="#DejaVuSans-74" x="338.867188"/>
     </g>
    </g>
    <g id="line2d_24">
     <path d="M 444.940071 145.727656 
L 455.940071 145.727656 
L 466.940071 145.727656 
" style="fill: none; stroke: #333333; stroke-width: 1.5; stroke-linecap: round"/>
    </g>
    <g id="text_21">
     <!-- train -->
     <g style="fill: #262626" transform="translate(475.740071 149.577656)scale(0.11 -0.11)">
      <use xlink:href="#DejaVuSans-74"/>
      <use xlink:href="#DejaVuSans-72" x="39.208984"/>
      <use xlink:href="#DejaVuSans-61" x="80.322266"/>
      <use xlink:href="#DejaVuSans-69" x="141.601562"/>
      <use xlink:href="#DejaVuSans-6e" x="169.384766"/>
     </g>
    </g>
    <g id="line2d_25">
     <path d="M 444.940071 161.873594 
L 455.940071 161.873594 
L 466.940071 161.873594 
" style="fill: none; stroke-dasharray: 6,2.25; stroke-dashoffset: 0; stroke: #333333; stroke-width: 1.5"/>
    </g>
    <g id="text_22">
     <!-- val -->
     <g style="fill: #262626" transform="translate(475.740071 165.723594)scale(0.11 -0.11)">
      <defs>
       <path id="DejaVuSans-76" d="M 191 3500 
L 800 3500 
L 1894 563 
L 2988 3500 
L 3597 3500 
L 2284 0 
L 1503 0 
L 191 3500 
z
" transform="scale(0.015625)"/>
      </defs>
      <use xlink:href="#DejaVuSans-76"/>
      <use xlink:href="#DejaVuSans-61" x="59.179688"/>
      <use xlink:href="#DejaVuSans-6c" x="120.458984"/>
     </g>
    </g>
   </g>
  </g>
  <g id="axes_2">
   <g id="patch_8">
    <path d="M 683.033523 508.32 
L 1190.30625 508.32 
L 1190.30625 64.8 
L 683.033523 64.8 
z
" style="fill: #eaeaf2"/>
   </g>
   <g id="matplotlib.axis_3">
    <g id="xtick_7">
     <g id="line2d_26">
      <path d="M 706.043316 508.32 
L 706.043316 64.8 
" clip-path="url(#p085c5a7744)" style="fill: none; stroke: #ffffff; stroke-linecap: round"/>
     </g>
     <g id="text_23">
      <!-- 0 -->
      <g style="fill: #262626" transform="translate(702.543941 526.178281)scale(0.11 -0.11)">
       <use xlink:href="#DejaVuSans-30"/>
      </g>
     </g>
    </g>
    <g id="xtick_8">
     <g id="line2d_27">
      <path d="M 791.187779 508.32 
L 791.187779 64.8 
" clip-path="url(#p085c5a7744)" style="fill: none; stroke: #ffffff; stroke-linecap: round"/>
     </g>
     <g id="text_24">
      <!-- 20 -->
      <g style="fill: #262626" transform="translate(784.189029 526.178281)scale(0.11 -0.11)">
       <use xlink:href="#DejaVuSans-32"/>
       <use xlink:href="#DejaVuSans-30" x="63.623047"/>
      </g>
     </g>
    </g>
    <g id="xtick_9">
     <g id="line2d_28">
      <path d="M 876.332242 508.32 
L 876.332242 64.8 
" clip-path="url(#p085c5a7744)" style="fill: none; stroke: #ffffff; stroke-linecap: round"/>
     </g>
     <g id="text_25">
      <!-- 40 -->
      <g style="fill: #262626" transform="translate(869.333492 526.178281)scale(0.11 -0.11)">
       <use xlink:href="#DejaVuSans-34"/>
       <use xlink:href="#DejaVuSans-30" x="63.623047"/>
      </g>
     </g>
    </g>
    <g id="xtick_10">
     <g id="line2d_29">
      <path d="M 961.476705 508.32 
L 961.476705 64.8 
" clip-path="url(#p085c5a7744)" style="fill: none; stroke: #ffffff; stroke-linecap: round"/>
     </g>
     <g id="text_26">
      <!-- 60 -->
      <g style="fill: #262626" transform="translate(954.477955 526.178281)scale(0.11 -0.11)">
       <use xlink:href="#DejaVuSans-36"/>
       <use xlink:href="#DejaVuSans-30" x="63.623047"/>
      </g>
     </g>
    </g>
    <g id="xtick_11">
     <g id="line2d_30">
      <path d="M 1046.621168 508.32 
L 1046.621168 64.8 
" clip-path="url(#p085c5a7744)" style="fill: none; stroke: #ffffff; stroke-linecap: round"/>
     </g>
     <g id="text_27">
      <!-- 80 -->
      <g style="fill: #262626" transform="translate(1039.622418 526.178281)scale(0.11 -0.11)">
       <use xlink:href="#DejaVuSans-38"/>
       <use xlink:href="#DejaVuSans-30" x="63.623047"/>
      </g>
     </g>
    </g>
    <g id="xtick_12">
     <g id="line2d_31">
      <path d="M 1131.765631 508.32 
L 1131.765631 64.8 
" clip-path="url(#p085c5a7744)" style="fill: none; stroke: #ffffff; stroke-linecap: round"/>
     </g>
     <g id="text_28">
      <!-- 100 -->
      <g style="fill: #262626" transform="translate(1121.267506 526.178281)scale(0.11 -0.11)">
       <use xlink:href="#DejaVuSans-31"/>
       <use xlink:href="#DejaVuSans-30" x="63.623047"/>
       <use xlink:href="#DejaVuSans-30" x="127.246094"/>
      </g>
     </g>
    </g>
    <g id="text_29">
     <!-- Time spent, s -->
     <g style="fill: #262626" transform="translate(896.362074 541.584062)scale(0.12 -0.12)">
      <defs>
       <path id="DejaVuSans-2c" d="M 750 794 
L 1409 794 
L 1409 256 
L 897 -744 
L 494 -744 
L 750 256 
L 750 794 
z
" transform="scale(0.015625)"/>
      </defs>
      <use xlink:href="#DejaVuSans-54"/>
      <use xlink:href="#DejaVuSans-69" x="57.958984"/>
      <use xlink:href="#DejaVuSans-6d" x="85.742188"/>
      <use xlink:href="#DejaVuSans-65" x="183.154297"/>
      <use xlink:href="#DejaVuSans-20" x="244.677734"/>
      <use xlink:href="#DejaVuSans-73" x="276.464844"/>
      <use xlink:href="#DejaVuSans-70" x="328.564453"/>
      <use xlink:href="#DejaVuSans-65" x="392.041016"/>
      <use xlink:href="#DejaVuSans-6e" x="453.564453"/>
      <use xlink:href="#DejaVuSans-74" x="516.943359"/>
      <use xlink:href="#DejaVuSans-2c" x="556.152344"/>
      <use xlink:href="#DejaVuSans-20" x="587.939453"/>
      <use xlink:href="#DejaVuSans-73" x="619.726562"/>
     </g>
    </g>
   </g>
   <g id="matplotlib.axis_4">
    <g id="ytick_8">
     <g id="line2d_32">
      <path d="M 683.033523 480.685856 
L 1190.30625 480.685856 
" clip-path="url(#p085c5a7744)" style="fill: none; stroke: #ffffff; stroke-linecap: round"/>
     </g>
     <g id="text_30">
      <!-- 50000 -->
      <g style="fill: #262626" transform="translate(638.539773 484.864997)scale(0.11 -0.11)">
       <use xlink:href="#DejaVuSans-35"/>
       <use xlink:href="#DejaVuSans-30" x="63.623047"/>
       <use xlink:href="#DejaVuSans-30" x="127.246094"/>
       <use xlink:href="#DejaVuSans-30" x="190.869141"/>
       <use xlink:href="#DejaVuSans-30" x="254.492188"/>
      </g>
     </g>
    </g>
    <g id="ytick_9">
     <g id="line2d_33">
      <path d="M 683.033523 416.09239 
L 1190.30625 416.09239 
" clip-path="url(#p085c5a7744)" style="fill: none; stroke: #ffffff; stroke-linecap: round"/>
     </g>
     <g id="text_31">
      <!-- 100000 -->
      <g style="fill: #262626" transform="translate(631.541023 420.271531)scale(0.11 -0.11)">
       <use xlink:href="#DejaVuSans-31"/>
       <use xlink:href="#DejaVuSans-30" x="63.623047"/>
       <use xlink:href="#DejaVuSans-30" x="127.246094"/>
       <use xlink:href="#DejaVuSans-30" x="190.869141"/>
       <use xlink:href="#DejaVuSans-30" x="254.492188"/>
       <use xlink:href="#DejaVuSans-30" x="318.115234"/>
      </g>
     </g>
    </g>
    <g id="ytick_10">
     <g id="line2d_34">
      <path d="M 683.033523 351.498924 
L 1190.30625 351.498924 
" clip-path="url(#p085c5a7744)" style="fill: none; stroke: #ffffff; stroke-linecap: round"/>
     </g>
     <g id="text_32">
      <!-- 150000 -->
      <g style="fill: #262626" transform="translate(631.541023 355.678065)scale(0.11 -0.11)">
       <use xlink:href="#DejaVuSans-31"/>
       <use xlink:href="#DejaVuSans-35" x="63.623047"/>
       <use xlink:href="#DejaVuSans-30" x="127.246094"/>
       <use xlink:href="#DejaVuSans-30" x="190.869141"/>
       <use xlink:href="#DejaVuSans-30" x="254.492188"/>
       <use xlink:href="#DejaVuSans-30" x="318.115234"/>
      </g>
     </g>
    </g>
    <g id="ytick_11">
     <g id="line2d_35">
      <path d="M 683.033523 286.905458 
L 1190.30625 286.905458 
" clip-path="url(#p085c5a7744)" style="fill: none; stroke: #ffffff; stroke-linecap: round"/>
     </g>
     <g id="text_33">
      <!-- 200000 -->
      <g style="fill: #262626" transform="translate(631.541023 291.084599)scale(0.11 -0.11)">
       <use xlink:href="#DejaVuSans-32"/>
       <use xlink:href="#DejaVuSans-30" x="63.623047"/>
       <use xlink:href="#DejaVuSans-30" x="127.246094"/>
       <use xlink:href="#DejaVuSans-30" x="190.869141"/>
       <use xlink:href="#DejaVuSans-30" x="254.492188"/>
       <use xlink:href="#DejaVuSans-30" x="318.115234"/>
      </g>
     </g>
    </g>
    <g id="ytick_12">
     <g id="line2d_36">
      <path d="M 683.033523 222.311992 
L 1190.30625 222.311992 
" clip-path="url(#p085c5a7744)" style="fill: none; stroke: #ffffff; stroke-linecap: round"/>
     </g>
     <g id="text_34">
      <!-- 250000 -->
      <g style="fill: #262626" transform="translate(631.541023 226.491133)scale(0.11 -0.11)">
       <use xlink:href="#DejaVuSans-32"/>
       <use xlink:href="#DejaVuSans-35" x="63.623047"/>
       <use xlink:href="#DejaVuSans-30" x="127.246094"/>
       <use xlink:href="#DejaVuSans-30" x="190.869141"/>
       <use xlink:href="#DejaVuSans-30" x="254.492188"/>
       <use xlink:href="#DejaVuSans-30" x="318.115234"/>
      </g>
     </g>
    </g>
    <g id="ytick_13">
     <g id="line2d_37">
      <path d="M 683.033523 157.718526 
L 1190.30625 157.718526 
" clip-path="url(#p085c5a7744)" style="fill: none; stroke: #ffffff; stroke-linecap: round"/>
     </g>
     <g id="text_35">
      <!-- 300000 -->
      <g style="fill: #262626" transform="translate(631.541023 161.897667)scale(0.11 -0.11)">
       <use xlink:href="#DejaVuSans-33"/>
       <use xlink:href="#DejaVuSans-30" x="63.623047"/>
       <use xlink:href="#DejaVuSans-30" x="127.246094"/>
       <use xlink:href="#DejaVuSans-30" x="190.869141"/>
       <use xlink:href="#DejaVuSans-30" x="254.492188"/>
       <use xlink:href="#DejaVuSans-30" x="318.115234"/>
      </g>
     </g>
    </g>
    <g id="ytick_14">
     <g id="line2d_38">
      <path d="M 683.033523 93.12506 
L 1190.30625 93.12506 
" clip-path="url(#p085c5a7744)" style="fill: none; stroke: #ffffff; stroke-linecap: round"/>
     </g>
     <g id="text_36">
      <!-- 350000 -->
      <g style="fill: #262626" transform="translate(631.541023 97.304201)scale(0.11 -0.11)">
       <use xlink:href="#DejaVuSans-33"/>
       <use xlink:href="#DejaVuSans-35" x="63.623047"/>
       <use xlink:href="#DejaVuSans-30" x="127.246094"/>
       <use xlink:href="#DejaVuSans-30" x="190.869141"/>
       <use xlink:href="#DejaVuSans-30" x="254.492188"/>
       <use xlink:href="#DejaVuSans-30" x="318.115234"/>
      </g>
     </g>
    </g>
    <g id="text_37">
     <!-- RMSE -->
     <g style="fill: #262626" transform="translate(625.045398 303.50625)rotate(-90)scale(0.12 -0.12)">
      <use xlink:href="#DejaVuSans-52"/>
      <use xlink:href="#DejaVuSans-4d" x="69.482422"/>
      <use xlink:href="#DejaVuSans-53" x="155.761719"/>
      <use xlink:href="#DejaVuSans-45" x="219.238281"/>
     </g>
    </g>
   </g>
   <g id="line2d_39">
    <path d="M 706.521833 397.024926 
L 706.983671 434.267727 
L 707.439587 446.492862 
L 707.925049 454.587393 
L 709.026608 465.19849 
L 710.144797 472.765486 
L 711.201786 474.655059 
L 712.123545 477.373882 
L 712.600288 478.303083 
L 713.045257 479.419141 
L 713.97149 481.039913 
L 714.425141 480.931015 
L 714.884918 482.082639 
L 715.338156 482.176196 
L 717.183768 483.079512 
L 717.656305 483.501464 
L 718.102182 483.461394 
L 718.54796 483.266755 
L 719.096289 483.476397 
L 720.314774 483.355049 
L 720.916935 483.83887 
L 722.361676 484.182961 
L 723.759264 484.506435 
L 724.701348 484.928165 
L 726.096398 485.365311 
L 726.567891 485.14096 
L 729.915605 485.693706 
L 730.374744 485.654301 
L 732.513438 486.239309 
L 733.633708 486.140259 
L 734.248263 486.297601 
L 736.139822 486.226527 
L 736.606047 486.390673 
L 737.061528 486.432739 
L 737.996537 486.702104 
L 740.275814 486.592548 
L 741.193814 486.799272 
L 741.656772 486.89769 
L 742.562565 486.96284 
L 743.494232 487.028518 
L 743.950614 486.964931 
L 746.264902 487.341313 
L 747.615194 487.391116 
L 748.5259 487.515225 
L 749.451214 487.412684 
L 750.367896 487.498471 
L 751.296041 487.573145 
L 752.219356 487.616218 
L 753.138906 487.589586 
L 755.415216 487.845123 
L 755.873137 487.779054 
L 756.805954 487.835509 
L 760.485519 487.824738 
L 761.853096 487.96084 
L 763.673269 488.072298 
L 764.596054 487.98604 
L 765.04593 487.916542 
L 765.962393 487.914561 
L 766.877345 487.916291 
L 771.002155 488.16 
L 772.376492 488.062747 
L 772.82991 488.110568 
L 773.758023 487.935321 
L 776.036457 487.981924 
L 776.947341 487.928464 
L 779.210756 487.938092 
L 781.05175 487.996842 
L 782.415736 487.973186 
L 786.500542 488.062244 
L 787.416325 488.086636 
L 788.319296 487.977659 
L 790.602462 487.968017 
L 791.962424 487.987814 
L 793.795112 488.035 
L 806.611151 487.977057 
L 811.629887 487.878697 
L 813.911123 487.955696 
L 815.294437 487.988086 
L 817.124894 487.960863 
L 818.026266 487.914074 
L 820.283439 487.880443 
L 822.114299 487.818481 
L 825.362812 487.857976 
L 827.63008 487.829504 
L 828.996942 487.859774 
L 855.589899 487.847686 
L 856.972644 487.815608 
L 890.885185 487.829979 
L 892.287547 487.826798 
L 894.114067 487.742687 
L 895.957886 487.768244 
L 915.211215 487.828521 
L 918.857056 487.85685 
L 922.935067 487.784833 
L 933.489361 487.738445 
L 936.739026 487.771053 
L 1040.82372 487.993322 
L 1049.539488 488.017805 
L 1098.740986 488.082965 
L 1115.273299 488.076462 
L 1125.433533 488.078434 
L 1129.556913 488.068023 
L 1137.371377 488.102972 
L 1157.579342 488.106612 
L 1167.248399 488.03064 
L 1167.248399 488.03064 
" clip-path="url(#p085c5a7744)" style="fill: none; stroke: #ff7f00; stroke-width: 1.5; stroke-linecap: round"/>
   </g>
   <g id="line2d_40">
    <path d="M 706.521833 282.024982 
L 706.983671 323.951416 
L 707.439587 333.208763 
L 707.925049 346.215438 
L 709.026608 354.963131 
L 709.620221 356.640691 
L 710.144797 359.182364 
L 710.727776 357.357773 
L 711.201786 361.326884 
L 712.123545 364.694433 
L 712.600288 363.82755 
L 713.045257 364.999975 
L 713.51389 363.45575 
L 714.425141 366.347891 
L 714.884918 366.997277 
L 715.338156 368.503099 
L 715.790104 368.125888 
L 716.245379 368.264546 
L 716.703221 368.787191 
L 717.656305 367.812109 
L 718.54796 369.316869 
L 719.096289 369.107858 
L 720.916935 369.914915 
L 721.422847 369.844187 
L 722.361676 370.237706 
L 722.828975 369.579988 
L 723.306177 370.067931 
L 723.759264 369.874318 
L 724.230405 370.295483 
L 724.701348 370.267722 
L 725.617642 370.717327 
L 726.096398 370.804934 
L 726.567891 370.118836 
L 727.037671 370.408342 
L 727.501663 370.962294 
L 728.02355 370.984329 
L 728.50657 371.284633 
L 728.972894 371.296168 
L 729.445331 370.994644 
L 730.374744 370.956283 
L 730.891134 371.30549 
L 731.472679 371.096626 
L 731.982829 371.583133 
L 732.513438 371.595918 
L 733.032459 371.27022 
L 733.633708 371.513295 
L 734.248263 371.417452 
L 734.748445 371.680816 
L 735.230576 371.477389 
L 735.688337 371.701892 
L 736.606047 371.683085 
L 737.061528 371.641606 
L 737.542713 371.420737 
L 738.447514 371.893076 
L 738.898616 371.858349 
L 739.365647 372.163652 
L 739.817927 372.30136 
L 740.275814 372.692423 
L 740.737324 372.536361 
L 741.193814 372.77879 
L 742.562565 372.521377 
L 743.031556 372.563274 
L 743.494232 372.84992 
L 744.404239 372.719726 
L 744.876163 372.531894 
L 745.79973 372.646192 
L 746.264902 372.992523 
L 747.167392 372.810201 
L 748.071326 373.09014 
L 748.5259 373.086236 
L 749.906702 372.77371 
L 750.367896 372.85779 
L 751.296041 372.61714 
L 751.761714 372.958292 
L 752.219356 372.943699 
L 752.678201 373.041975 
L 753.599804 372.982552 
L 754.048958 373.205412 
L 754.508086 373.171482 
L 754.967579 373.333895 
L 756.345066 373.342243 
L 756.805954 373.227168 
L 757.751512 373.438056 
L 758.644157 373.135623 
L 759.108904 372.958503 
L 759.572841 373.01182 
L 760.030035 373.207015 
L 761.400731 373.087246 
L 761.853096 373.086219 
L 762.312847 372.942275 
L 762.776179 373.020091 
L 763.223247 372.792879 
L 764.138401 372.880623 
L 764.596054 372.59113 
L 765.962393 372.459759 
L 766.877345 372.407287 
L 767.786795 372.558384 
L 768.247965 372.371052 
L 769.163105 372.331291 
L 770.071531 372.100225 
L 770.532036 372.18038 
L 771.002155 372.06446 
L 771.465738 372.219789 
L 781.05175 372.132514 
L 781.961865 371.970549 
L 782.415736 371.986843 
L 783.329528 371.757555 
L 784.701073 371.767008 
L 786.049504 371.609496 
L 786.500542 371.787604 
L 787.416325 371.704595 
L 789.235083 371.902028 
L 789.695011 371.823012 
L 790.150172 371.880689 
L 790.602462 371.806682 
L 791.055445 371.905022 
L 791.511944 371.729395 
L 791.962424 371.824878 
L 792.410823 371.753554 
L 793.325351 371.942283 
L 793.795112 371.870382 
L 794.253159 372.034532 
L 795.167052 371.906898 
L 796.100059 372.070926 
L 797.474624 372.14968 
L 798.382949 372.066235 
L 798.844357 372.160345 
L 799.753087 372.026666 
L 802.010552 372.211607 
L 802.917932 372.09812 
L 806.149391 371.974073 
L 806.611151 371.948319 
L 807.998223 372.179676 
L 809.819693 372.275924 
L 810.735885 372.082429 
L 811.180944 372.230123 
L 816.656543 372.248138 
L 818.477795 372.445778 
L 821.662414 372.554489 
L 822.585931 372.652451 
L 823.049373 372.590465 
L 823.514372 372.714281 
L 824.893516 372.669914 
L 825.362812 372.774808 
L 826.279135 372.615949 
L 827.182342 372.741054 
L 828.534905 372.629714 
L 828.996942 372.693721 
L 829.466237 372.596039 
L 829.914812 372.694457 
L 831.280531 372.671825 
L 833.103703 372.801779 
L 834.926914 372.884649 
L 836.80142 373.069311 
L 841.797341 372.909559 
L 844.544232 373.065016 
L 844.995132 373.00674 
L 845.903647 373.205382 
L 847.281107 373.217655 
L 850.089566 373.372501 
L 851.009843 373.322879 
L 851.936346 373.353484 
L 853.768235 373.281549 
L 858.356998 373.891606 
L 861.558342 374.053109 
L 862.92267 373.996467 
L 866.164084 373.98449 
L 867.53028 374.169356 
L 869.335827 374.114011 
L 870.718345 374.154623 
L 871.613984 374.17255 
L 873.450594 374.282358 
L 877.564309 374.375169 
L 884.43952 374.41014 
L 885.81391 374.407069 
L 887.652672 374.560542 
L 889.974808 374.56022 
L 893.66203 374.449015 
L 894.114067 374.532088 
L 895.957886 374.489449 
L 897.304243 374.556037 
L 898.700168 374.435693 
L 899.622704 374.472424 
L 903.279908 374.496996 
L 904.203719 374.539124 
L 906.031264 374.324866 
L 908.306599 374.467642 
L 912.893257 374.419897 
L 914.303052 374.46361 
L 915.211215 374.479238 
L 916.583316 374.485364 
L 917.490103 374.43913 
L 918.403014 374.467737 
L 920.665813 374.424925 
L 922.935067 374.453427 
L 923.83512 374.451047 
L 928.901794 374.358019 
L 930.267051 374.360839 
L 936.739026 374.278202 
L 939.033804 374.347267 
L 939.952704 374.363771 
L 941.771369 374.470897 
L 943.159477 374.435124 
L 946.858557 374.609607 
L 948.239813 374.532533 
L 950.533916 374.662247 
L 951.444805 374.707344 
L 952.351476 374.68877 
L 954.190056 374.677487 
L 957.822324 374.722705 
L 959.193583 374.748025 
L 962.870461 374.790588 
L 964.235793 374.864732 
L 965.624018 374.801984 
L 966.998128 374.801245 
L 969.27799 374.871787 
L 970.668339 374.901427 
L 972.978466 374.808578 
L 975.848701 374.852836 
L 977.222105 374.788046 
L 979.506695 374.870824 
L 981.339189 374.847738 
L 982.729262 374.88816 
L 984.114883 374.905139 
L 986.878889 374.910292 
L 988.730966 374.898001 
L 990.130136 374.868079 
L 995.203427 374.881196 
L 1004.870828 374.891234 
L 1006.231828 374.94539 
L 1007.618151 374.84677 
L 1033.913034 374.592606 
L 1035.74261 374.546861 
L 1038.046347 374.554441 
L 1045.849423 374.540678 
L 1050.922186 374.466711 
L 1058.732541 374.381513 
L 1061.048927 374.391285 
L 1063.376169 374.362818 
L 1069.335174 374.404712 
L 1071.177944 374.370462 
L 1074.844908 374.290555 
L 1089.529653 374.418709 
L 1100.591104 374.448435 
L 1103.344621 374.419028 
L 1108.844926 374.448783 
L 1111.588826 374.431522 
L 1112.980948 374.442805 
L 1114.361881 374.418583 
L 1118.055134 374.375347 
L 1125.890962 374.42814 
L 1129.556913 374.32274 
L 1141.091487 374.388789 
L 1143.379783 374.369576 
L 1144.757189 374.404362 
L 1147.031354 374.388698 
L 1148.414823 374.430704 
L 1160.778771 374.397996 
L 1164.94173 374.487639 
L 1167.248399 374.473556 
L 1167.248399 374.473556 
" clip-path="url(#p085c5a7744)" style="fill: none; stroke-dasharray: 6,2.25; stroke-dashoffset: 0; stroke: #ff7f00; stroke-width: 1.5"/>
   </g>
   <g id="line2d_41">
    <path d="M 706.091374 111.734984 
L 706.499855 279.101536 
L 706.938 357.162384 
L 707.319062 386.756796 
L 707.733229 400.891052 
L 708.212519 408.981522 
L 709.308353 417.700463 
L 709.921619 420.851446 
L 711.194682 425.775986 
L 711.341361 426.196068 
L 711.628255 427.030479 
L 711.729847 427.309001 
L 712.24858 429.478211 
L 712.787443 430.877807 
L 712.93128 431.131026 
L 713.125902 431.822394 
L 713.270852 432.15978 
L 713.461724 432.633904 
L 713.79803 433.350027 
L 713.89838 433.496065 
L 714.663544 435.27036 
L 715.053734 435.951389 
L 715.552506 437.070246 
L 715.646347 437.160628 
L 716.090213 438.140084 
L 721.866705 446.452011 
L 722.161536 446.653095 
L 722.614488 447.158388 
L 723.489725 448.020313 
L 723.956863 448.407403 
L 724.184348 448.698161 
L 724.548845 449.132188 
L 725.561926 450.215328 
L 726.405602 451.03312 
L 726.692411 451.344143 
L 726.924043 451.576293 
L 727.180135 451.86207 
L 727.617368 452.153054 
L 728.135264 452.597714 
L 728.70792 453.171569 
L 728.939746 453.411678 
L 729.998694 454.391907 
L 730.139818 454.506416 
L 734.210708 457.468359 
L 734.543073 457.685644 
L 736.602192 459.092477 
L 736.94497 459.323339 
L 737.833438 459.798426 
L 738.211261 460.091782 
L 740.998502 461.839531 
L 741.530774 462.095168 
L 741.966956 462.324293 
L 745.179662 464.241734 
L 745.511205 464.400133 
L 746.092851 464.66317 
L 747.111035 465.254204 
L 747.388666 465.3651 
L 747.763107 465.526101 
L 748.530024 465.81753 
L 749.020901 465.968555 
L 749.287187 466.078061 
L 749.563355 466.220431 
L 750.734873 466.851977 
L 752.028328 467.487183 
L 752.962945 467.89517 
L 753.426675 468.139823 
L 753.754376 468.305033 
L 753.754376 468.305033 
" clip-path="url(#p085c5a7744)" style="fill: none; stroke: #33a02c; stroke-width: 1.5; stroke-linecap: round"/>
   </g>
   <g id="line2d_42">
    <path d="M 706.091374 84.96 
L 706.499855 254.906657 
L 706.894614 323.880374 
L 707.175166 348.097851 
L 707.54872 364.480189 
L 708.269862 373.793321 
L 708.556077 375.683714 
L 709.352457 379.736836 
L 709.400638 379.588032 
L 709.446886 379.527515 
L 709.491204 379.605103 
L 709.921619 380.718755 
L 709.965992 380.739783 
L 710.289272 381.567637 
L 710.8617 382.404301 
L 711.046617 382.484589 
L 711.241887 382.541514 
L 711.290115 382.484945 
L 711.481812 382.879057 
L 711.533345 382.879435 
L 711.682999 383.021328 
L 711.819588 383.303883 
L 712.013641 383.84574 
L 712.062973 383.781207 
L 712.114909 383.82726 
L 712.495048 384.325057 
L 712.595562 384.426998 
L 712.93128 384.730977 
L 713.083345 385.072734 
L 713.17126 385.100754 
L 713.548772 385.465201 
L 713.749328 385.445544 
L 713.89838 385.45185 
L 714.142899 385.643066 
L 714.432807 385.871066 
L 714.572786 386.064769 
L 714.716008 386.053069 
L 714.913246 386.150499 
L 715.110347 386.457715 
L 715.264269 386.521933 
L 715.45436 386.745752 
L 715.599525 386.84586 
L 716.043113 387.142358 
L 716.139351 387.154104 
L 716.328458 387.251326 
L 716.67154 387.474776 
L 716.902595 387.455933 
L 717.194899 387.585237 
L 717.528851 387.48599 
L 717.816163 387.653515 
L 718.356115 388.014029 
L 718.513448 388.099535 
L 718.996959 388.524345 
L 719.147081 388.514711 
L 719.66512 388.645374 
L 719.800273 388.798857 
L 719.84224 388.767639 
L 719.99368 388.835878 
L 720.278773 389.087541 
L 720.513062 389.099185 
L 720.749604 389.144842 
L 720.890815 389.170676 
L 722.211715 389.792518 
L 722.409442 389.808357 
L 722.614488 389.821038 
L 722.757289 389.915692 
L 723.255619 390.10011 
L 724.136793 390.31078 
L 724.393798 390.312879 
L 724.636587 390.442537 
L 724.788568 390.45129 
L 725.069559 390.493334 
L 726.029778 390.432537 
L 726.360293 390.522802 
L 727.054638 390.668896 
L 727.281065 390.749597 
L 727.663323 390.724769 
L 727.902183 390.791483 
L 728.038717 390.853007 
L 730.046298 391.081215 
L 730.570713 391.058415 
L 731.523442 391.145776 
L 731.64972 391.107668 
L 732.129266 391.143833 
L 732.848998 391.200998 
L 733.731906 391.331646 
L 734.821552 391.29596 
L 738.300226 391.589784 
L 738.588421 391.623661 
L 739.168297 391.70072 
L 739.666609 391.793541 
L 739.848713 391.737563 
L 740.428764 391.738958 
L 740.716334 391.733238 
L 741.622045 391.790085 
L 742.112717 391.864475 
L 743.811354 392.050442 
L 743.984699 392.04346 
L 744.353852 392.030323 
L 745.179662 392.027744 
L 745.362726 392.055879 
L 745.616952 392.085435 
L 746.48116 392.179056 
L 748.095122 392.254318 
L 748.720816 392.236995 
L 749.020901 392.268064 
L 749.365783 392.208621 
L 749.755699 392.252749 
L 753.754376 392.382127 
L 753.754376 392.382127 
" clip-path="url(#p085c5a7744)" style="fill: none; stroke-dasharray: 6,2.25; stroke-dashoffset: 0; stroke: #33a02c; stroke-width: 1.5"/>
   </g>
   <g id="line2d_43"/>
   <g id="line2d_44"/>
   <g id="line2d_45"/>
   <g id="line2d_46"/>
   <g id="patch_9">
    <path d="M 683.033523 508.32 
L 683.033523 64.8 
" style="fill: none; stroke: #ffffff; stroke-width: 1.25; stroke-linejoin: miter; stroke-linecap: square"/>
   </g>
   <g id="patch_10">
    <path d="M 1190.30625 508.32 
L 1190.30625 64.8 
" style="fill: none; stroke: #ffffff; stroke-width: 1.25; stroke-linejoin: miter; stroke-linecap: square"/>
   </g>
   <g id="patch_11">
    <path d="M 683.033523 508.32 
L 1190.30625 508.32 
" style="fill: none; stroke: #ffffff; stroke-width: 1.25; stroke-linejoin: miter; stroke-linecap: square"/>
   </g>
   <g id="patch_12">
    <path d="M 683.033523 64.8 
L 1190.30625 64.8 
" style="fill: none; stroke: #ffffff; stroke-width: 1.25; stroke-linejoin: miter; stroke-linecap: square"/>
   </g>
   <g id="text_38">
    <!-- Dependency of RMSE on time spent -->
    <g style="fill: #262626" transform="translate(810.852543 43.123062)scale(0.14 -0.14)">
     <use xlink:href="#DejaVuSans-44"/>
     <use xlink:href="#DejaVuSans-65" x="77.001953"/>
     <use xlink:href="#DejaVuSans-70" x="138.525391"/>
     <use xlink:href="#DejaVuSans-65" x="202.001953"/>
     <use xlink:href="#DejaVuSans-6e" x="263.525391"/>
     <use xlink:href="#DejaVuSans-64" x="326.904297"/>
     <use xlink:href="#DejaVuSans-65" x="390.380859"/>
     <use xlink:href="#DejaVuSans-6e" x="451.904297"/>
     <use xlink:href="#DejaVuSans-63" x="515.283203"/>
     <use xlink:href="#DejaVuSans-79" x="570.263672"/>
     <use xlink:href="#DejaVuSans-20" x="629.443359"/>
     <use xlink:href="#DejaVuSans-6f" x="661.230469"/>
     <use xlink:href="#DejaVuSans-66" x="722.412109"/>
     <use xlink:href="#DejaVuSans-20" x="757.617188"/>
     <use xlink:href="#DejaVuSans-52" x="789.404297"/>
     <use xlink:href="#DejaVuSans-4d" x="858.886719"/>
     <use xlink:href="#DejaVuSans-53" x="945.166016"/>
     <use xlink:href="#DejaVuSans-45" x="1008.642578"/>
     <use xlink:href="#DejaVuSans-20" x="1071.826172"/>
     <use xlink:href="#DejaVuSans-6f" x="1103.613281"/>
     <use xlink:href="#DejaVuSans-6e" x="1164.794922"/>
     <use xlink:href="#DejaVuSans-20" x="1228.173828"/>
     <use xlink:href="#DejaVuSans-74" x="1259.960938"/>
     <use xlink:href="#DejaVuSans-69" x="1299.169922"/>
     <use xlink:href="#DejaVuSans-6d" x="1326.953125"/>
     <use xlink:href="#DejaVuSans-65" x="1424.365234"/>
     <use xlink:href="#DejaVuSans-20" x="1485.888672"/>
     <use xlink:href="#DejaVuSans-73" x="1517.675781"/>
     <use xlink:href="#DejaVuSans-70" x="1569.775391"/>
     <use xlink:href="#DejaVuSans-65" x="1633.251953"/>
     <use xlink:href="#DejaVuSans-6e" x="1694.775391"/>
     <use xlink:href="#DejaVuSans-74" x="1758.154297"/>
    </g>
    <!-- Gradient Boosting and Random Forest -->
    <g style="fill: #262626" transform="translate(803.097855 58.8)scale(0.14 -0.14)">
     <use xlink:href="#DejaVuSans-47"/>
     <use xlink:href="#DejaVuSans-72" x="77.490234"/>
     <use xlink:href="#DejaVuSans-61" x="118.603516"/>
     <use xlink:href="#DejaVuSans-64" x="179.882812"/>
     <use xlink:href="#DejaVuSans-69" x="243.359375"/>
     <use xlink:href="#DejaVuSans-65" x="271.142578"/>
     <use xlink:href="#DejaVuSans-6e" x="332.666016"/>
     <use xlink:href="#DejaVuSans-74" x="396.044922"/>
     <use xlink:href="#DejaVuSans-20" x="435.253906"/>
     <use xlink:href="#DejaVuSans-42" x="467.041016"/>
     <use xlink:href="#DejaVuSans-6f" x="535.644531"/>
     <use xlink:href="#DejaVuSans-6f" x="596.826172"/>
     <use xlink:href="#DejaVuSans-73" x="658.007812"/>
     <use xlink:href="#DejaVuSans-74" x="710.107422"/>
     <use xlink:href="#DejaVuSans-69" x="749.316406"/>
     <use xlink:href="#DejaVuSans-6e" x="777.099609"/>
     <use xlink:href="#DejaVuSans-67" x="840.478516"/>
     <use xlink:href="#DejaVuSans-20" x="903.955078"/>
     <use xlink:href="#DejaVuSans-61" x="935.742188"/>
     <use xlink:href="#DejaVuSans-6e" x="997.021484"/>
     <use xlink:href="#DejaVuSans-64" x="1060.400391"/>
     <use xlink:href="#DejaVuSans-20" x="1123.876953"/>
     <use xlink:href="#DejaVuSans-52" x="1155.664062"/>
     <use xlink:href="#DejaVuSans-61" x="1222.896484"/>
     <use xlink:href="#DejaVuSans-6e" x="1284.175781"/>
     <use xlink:href="#DejaVuSans-64" x="1347.554688"/>
     <use xlink:href="#DejaVuSans-6f" x="1411.03125"/>
     <use xlink:href="#DejaVuSans-6d" x="1472.212891"/>
     <use xlink:href="#DejaVuSans-20" x="1569.625"/>
     <use xlink:href="#DejaVuSans-46" x="1601.412109"/>
     <use xlink:href="#DejaVuSans-6f" x="1655.306641"/>
     <use xlink:href="#DejaVuSans-72" x="1716.488281"/>
     <use xlink:href="#DejaVuSans-65" x="1755.351562"/>
     <use xlink:href="#DejaVuSans-73" x="1816.875"/>
     <use xlink:href="#DejaVuSans-74" x="1868.974609"/>
    </g>
   </g>
   <g id="legend_2">
    <g id="patch_13">
     <path d="M 1051.467344 172.41125 
L 1182.60625 172.41125 
Q 1184.80625 172.41125 1184.80625 170.21125 
L 1184.80625 72.5 
Q 1184.80625 70.3 1182.60625 70.3 
L 1051.467344 70.3 
Q 1049.267344 70.3 1049.267344 72.5 
L 1049.267344 170.21125 
Q 1049.267344 172.41125 1051.467344 172.41125 
z
" style="fill: #eaeaf2; opacity: 0.8; stroke: #cccccc; stroke-linejoin: miter"/>
    </g>
    <g id="text_39">
     <!-- algorithm -->
     <g style="fill: #262626" transform="translate(1062.467344 83.818125)scale(0.12 -0.12)">
      <use xlink:href="#DejaVuSans-61"/>
      <use xlink:href="#DejaVuSans-6c" x="61.279297"/>
      <use xlink:href="#DejaVuSans-67" x="89.0625"/>
      <use xlink:href="#DejaVuSans-6f" x="152.539062"/>
      <use xlink:href="#DejaVuSans-72" x="213.720703"/>
      <use xlink:href="#DejaVuSans-69" x="254.833984"/>
      <use xlink:href="#DejaVuSans-74" x="282.617188"/>
      <use xlink:href="#DejaVuSans-68" x="321.826172"/>
      <use xlink:href="#DejaVuSans-6d" x="385.205078"/>
     </g>
    </g>
    <g id="line2d_47">
     <path d="M 1053.667344 96.322031 
L 1064.667344 96.322031 
L 1075.667344 96.322031 
" style="fill: none; stroke: #ff7f00; stroke-width: 1.5; stroke-linecap: round"/>
    </g>
    <g id="text_40">
     <!-- RandomForest -->
     <g style="fill: #262626" transform="translate(1084.467344 100.172031)scale(0.11 -0.11)">
      <use xlink:href="#DejaVuSans-52"/>
      <use xlink:href="#DejaVuSans-61" x="67.232422"/>
      <use xlink:href="#DejaVuSans-6e" x="128.511719"/>
      <use xlink:href="#DejaVuSans-64" x="191.890625"/>
      <use xlink:href="#DejaVuSans-6f" x="255.367188"/>
      <use xlink:href="#DejaVuSans-6d" x="316.548828"/>
      <use xlink:href="#DejaVuSans-46" x="413.960938"/>
      <use xlink:href="#DejaVuSans-6f" x="467.855469"/>
      <use xlink:href="#DejaVuSans-72" x="529.037109"/>
      <use xlink:href="#DejaVuSans-65" x="567.900391"/>
      <use xlink:href="#DejaVuSans-73" x="629.423828"/>
      <use xlink:href="#DejaVuSans-74" x="681.523438"/>
     </g>
    </g>
    <g id="line2d_48">
     <path d="M 1053.667344 112.467969 
L 1064.667344 112.467969 
L 1075.667344 112.467969 
" style="fill: none; stroke: #33a02c; stroke-width: 1.5; stroke-linecap: round"/>
    </g>
    <g id="text_41">
     <!-- GradientBoosting -->
     <g style="fill: #262626" transform="translate(1084.467344 116.317969)scale(0.11 -0.11)">
      <use xlink:href="#DejaVuSans-47"/>
      <use xlink:href="#DejaVuSans-72" x="77.490234"/>
      <use xlink:href="#DejaVuSans-61" x="118.603516"/>
      <use xlink:href="#DejaVuSans-64" x="179.882812"/>
      <use xlink:href="#DejaVuSans-69" x="243.359375"/>
      <use xlink:href="#DejaVuSans-65" x="271.142578"/>
      <use xlink:href="#DejaVuSans-6e" x="332.666016"/>
      <use xlink:href="#DejaVuSans-74" x="396.044922"/>
      <use xlink:href="#DejaVuSans-42" x="435.253906"/>
      <use xlink:href="#DejaVuSans-6f" x="503.857422"/>
      <use xlink:href="#DejaVuSans-6f" x="565.039062"/>
      <use xlink:href="#DejaVuSans-73" x="626.220703"/>
      <use xlink:href="#DejaVuSans-74" x="678.320312"/>
      <use xlink:href="#DejaVuSans-69" x="717.529297"/>
      <use xlink:href="#DejaVuSans-6e" x="745.3125"/>
      <use xlink:href="#DejaVuSans-67" x="808.691406"/>
     </g>
    </g>
    <g id="text_42">
     <!-- dataset -->
     <g style="fill: #262626" transform="translate(1062.467344 133.22375)scale(0.12 -0.12)">
      <use xlink:href="#DejaVuSans-64"/>
      <use xlink:href="#DejaVuSans-61" x="63.476562"/>
      <use xlink:href="#DejaVuSans-74" x="124.755859"/>
      <use xlink:href="#DejaVuSans-61" x="163.964844"/>
      <use xlink:href="#DejaVuSans-73" x="225.244141"/>
      <use xlink:href="#DejaVuSans-65" x="277.34375"/>
      <use xlink:href="#DejaVuSans-74" x="338.867188"/>
     </g>
    </g>
    <g id="line2d_49">
     <path d="M 1053.667344 145.727656 
L 1064.667344 145.727656 
L 1075.667344 145.727656 
" style="fill: none; stroke: #333333; stroke-width: 1.5; stroke-linecap: round"/>
    </g>
    <g id="text_43">
     <!-- train -->
     <g style="fill: #262626" transform="translate(1084.467344 149.577656)scale(0.11 -0.11)">
      <use xlink:href="#DejaVuSans-74"/>
      <use xlink:href="#DejaVuSans-72" x="39.208984"/>
      <use xlink:href="#DejaVuSans-61" x="80.322266"/>
      <use xlink:href="#DejaVuSans-69" x="141.601562"/>
      <use xlink:href="#DejaVuSans-6e" x="169.384766"/>
     </g>
    </g>
    <g id="line2d_50">
     <path d="M 1053.667344 161.873594 
L 1064.667344 161.873594 
L 1075.667344 161.873594 
" style="fill: none; stroke-dasharray: 6,2.25; stroke-dashoffset: 0; stroke: #333333; stroke-width: 1.5"/>
    </g>
    <g id="text_44">
     <!-- val -->
     <g style="fill: #262626" transform="translate(1084.467344 165.723594)scale(0.11 -0.11)">
      <use xlink:href="#DejaVuSans-76"/>
      <use xlink:href="#DejaVuSans-61" x="59.179688"/>
      <use xlink:href="#DejaVuSans-6c" x="120.458984"/>
     </g>
    </g>
   </g>
  </g>
  <g id="text_45">
   <!-- RMSE for Gradient Boosting and Random Forest -->
   <g style="fill: #262626" transform="translate(422.9725 19.3575)scale(0.16 -0.16)">
    <use xlink:href="#DejaVuSans-52"/>
    <use xlink:href="#DejaVuSans-4d" x="69.482422"/>
    <use xlink:href="#DejaVuSans-53" x="155.761719"/>
    <use xlink:href="#DejaVuSans-45" x="219.238281"/>
    <use xlink:href="#DejaVuSans-20" x="282.421875"/>
    <use xlink:href="#DejaVuSans-66" x="314.208984"/>
    <use xlink:href="#DejaVuSans-6f" x="349.414062"/>
    <use xlink:href="#DejaVuSans-72" x="410.595703"/>
    <use xlink:href="#DejaVuSans-20" x="451.708984"/>
    <use xlink:href="#DejaVuSans-47" x="483.496094"/>
    <use xlink:href="#DejaVuSans-72" x="560.986328"/>
    <use xlink:href="#DejaVuSans-61" x="602.099609"/>
    <use xlink:href="#DejaVuSans-64" x="663.378906"/>
    <use xlink:href="#DejaVuSans-69" x="726.855469"/>
    <use xlink:href="#DejaVuSans-65" x="754.638672"/>
    <use xlink:href="#DejaVuSans-6e" x="816.162109"/>
    <use xlink:href="#DejaVuSans-74" x="879.541016"/>
    <use xlink:href="#DejaVuSans-20" x="918.75"/>
    <use xlink:href="#DejaVuSans-42" x="950.537109"/>
    <use xlink:href="#DejaVuSans-6f" x="1019.140625"/>
    <use xlink:href="#DejaVuSans-6f" x="1080.322266"/>
    <use xlink:href="#DejaVuSans-73" x="1141.503906"/>
    <use xlink:href="#DejaVuSans-74" x="1193.603516"/>
    <use xlink:href="#DejaVuSans-69" x="1232.8125"/>
    <use xlink:href="#DejaVuSans-6e" x="1260.595703"/>
    <use xlink:href="#DejaVuSans-67" x="1323.974609"/>
    <use xlink:href="#DejaVuSans-20" x="1387.451172"/>
    <use xlink:href="#DejaVuSans-61" x="1419.238281"/>
    <use xlink:href="#DejaVuSans-6e" x="1480.517578"/>
    <use xlink:href="#DejaVuSans-64" x="1543.896484"/>
    <use xlink:href="#DejaVuSans-20" x="1607.373047"/>
    <use xlink:href="#DejaVuSans-52" x="1639.160156"/>
    <use xlink:href="#DejaVuSans-61" x="1706.392578"/>
    <use xlink:href="#DejaVuSans-6e" x="1767.671875"/>
    <use xlink:href="#DejaVuSans-64" x="1831.050781"/>
    <use xlink:href="#DejaVuSans-6f" x="1894.527344"/>
    <use xlink:href="#DejaVuSans-6d" x="1955.708984"/>
    <use xlink:href="#DejaVuSans-20" x="2053.121094"/>
    <use xlink:href="#DejaVuSans-46" x="2084.908203"/>
    <use xlink:href="#DejaVuSans-6f" x="2138.802734"/>
    <use xlink:href="#DejaVuSans-72" x="2199.984375"/>
    <use xlink:href="#DejaVuSans-65" x="2238.847656"/>
    <use xlink:href="#DejaVuSans-73" x="2300.371094"/>
    <use xlink:href="#DejaVuSans-74" x="2352.470703"/>
   </g>
  </g>
 </g>
 <defs>
  <clipPath id="p65d16e9ef4">
   <rect x="74.30625" y="64.8" width="507.272727" height="443.52"/>
  </clipPath>
  <clipPath id="p085c5a7744">
   <rect x="683.033523" y="64.8" width="507.272727" height="443.52"/>
  </clipPath>
 </defs>
</svg>
